<svg id="Ebene_1" data-name="Ebene 1" xmlns="http://www.w3.org/2000/svg" viewBox="0 0 50 50"><defs><style>.cls-1{fill:#fff;}</style></defs><title>Anniversary Icon</title><path class="cls-1" d="M37,6.57l2.46,1.72a.53.53,0,0,0,.74-.19L42.8,5.24a.53.53,0,0,0-.07-.77L39.45,2.18a.53.53,0,0,0-.74.19L36.91,5.8A.53.53,0,0,0,37,6.57Z"/><path class="cls-1" d="M30.21,31.07c2.31-3.3,4.41-12.41,4.86-13.92l.41-1.45,2.13-3.91.41.29.57-.82-4.1-2.87-.57.82.41.29-2.95,3.34-1.23.88c-1.26.93-9.1,6-11.41,9.33l-4.58,6.55v0L10.72,34.5l0,0,0,0-3.43,4.9a1,1,0,0,0,.24,1.39l9.83,6.88a1,1,0,0,0,1.39-.25l6.89-9.84h0ZM18.37,44.49l-8.19-5.73,9.89-14.12,2.12,1.48.42,2.38a1,1,0,0,0,1.16.81l2.38-.42,2.12,1.48Z"/><path class="cls-1" d="M6.73,17.09a5,5,0,0,1,.34-2.2,7.12,7.12,0,0,1,2.69-3.25l.31-.19a1.66,1.66,0,0,0,.42-.31A2.23,2.23,0,0,0,11,10a2.57,2.57,0,0,0-.59-1.9c-.13-.16-.47-.54-.81-.89l-.31-.3a1.72,1.72,0,0,1-.23-.23,4.13,4.13,0,0,1-.76-2.86,5.89,5.89,0,0,1,.28-1.59l1.9.61a3.88,3.88,0,0,0-.19,1,2.35,2.35,0,0,0,.3,1.52c.08.07.18.17.42.4s.75.8.95,1a4.57,4.57,0,0,1,1,3.45,4.24,4.24,0,0,1-1.1,2.2,3.53,3.53,0,0,1-.83.64l-.24.15a5.14,5.14,0,0,0-1.9,2.28,3,3,0,0,0-.22,1.34Z"/><path class="cls-1" d="M30.71,45.53,28.79,45a4.85,4.85,0,0,1,1.89-2.63,5,5,0,0,1,2.84-.84,4.87,4.87,0,0,1,2.62.84,1.6,1.6,0,0,0,.75.34,1.67,1.67,0,0,0,1.23-.37A1.84,1.84,0,0,0,38.75,41l2,.1a3.85,3.85,0,0,1-1.37,2.72,3.65,3.65,0,0,1-2.77.8A3.51,3.51,0,0,1,35,44a2.9,2.9,0,0,0-1.49-.46,2.83,2.83,0,0,0-1.66.49A2.88,2.88,0,0,0,30.71,45.53Z"/><path class="cls-1" d="M40.24,22.5h-.1l.05-2a2.06,2.06,0,0,0,1.48-.67,1.07,1.07,0,0,0,.26-.48A5.2,5.2,0,0,1,42.59,18a4.54,4.54,0,0,1,1.82-1.76A4,4,0,0,1,47.07,16L46.6,18a2,2,0,0,0-1.34.1,2.72,2.72,0,0,0-1,1.07,3.26,3.26,0,0,0-.43.87,3,3,0,0,1-.66,1.16A4.05,4.05,0,0,1,40.24,22.5Z"/></svg>