<?xml version="1.0" encoding="utf-8"?>
<!-- Generator: Adobe Illustrator 18.1.1, SVG Export Plug-In . SVG Version: 6.00 Build 0)  -->
<svg version="1.1" id="Ebene_1" xmlns="http://www.w3.org/2000/svg" xmlns:xlink="http://www.w3.org/1999/xlink" x="0px" y="0px"
	 viewBox="0 0 30 24" enable-background="new 0 0 30 24" xml:space="preserve">
<g>
	<g>
		<g>
			<path fill-rule="evenodd" clip-rule="evenodd" fill="white" d="M4.9,21l1.6,2.8h20l3.4-4.2L4.9,21z M11.5,18.4l12.6-1.3
				c0,0-0.9-4.6-3.7-7.8C16.9,5.4,9.9,0.2,9.9,0.2s3,7.2,3,11.5C12.9,15.2,11.5,18.4,11.5,18.4z"/>
		</g>
	</g>
	<path fill="white" d="M6,6H1C0.5,6,0,5.6,0,5s0.4-1,1-1h5c0.6,0,1,0.4,1,1S6.6,6,6,6z"/>
	<path fill="white" d="M8,11H3c-0.6,0-1-0.4-1-1s0.4-1,1-1h5c0.6,0,1,0.4,1,1S8.6,11,8,11z"/>
	<path fill="white" d="M7,16H2c-0.6,0-1-0.4-1-1s0.4-1,1-1h5c0.6,0,1,0.4,1,1S7.6,16,7,16z"/>
</g>
</svg>
