<svg xmlns="http://www.w3.org/2000/svg" width="24" height="24" viewBox="0 0 24 24">
  <path fill="white" d="M12,6 C18.628,6 24,11.3723636 24,18 L14.4469091,18 C14.7512727,17.3749091 14.8014545,16.6574545 14.5978182,16.0014545 C17.4652213,12.5632485 18.9778274,10.7116121 19.1356364,10.4465455 C19.3723498,10.0489455 18.9483532,9.41421786 18.3643636,9.67490909 C17.9750373,9.84870324 16.1231585,11.3611881 12.8087273,14.2123636 C11.8752727,13.9225455 10.816,14.1472727 10.0767273,14.8865455 C9.23454545,15.7283636 9.06036364,16.9854545 9.55309091,18 L0,18 C0,11.3723636 5.37236364,6 12,6 Z M12,12.4538182 L12,7.63636364 C6.83309091,7.63636364 2.54945455,11.4174545 1.76472727,16.3636364 L7.66618182,16.3636364 C7.88981818,14.1676364 9.74472727,12.4538182 12,12.4538182 L12,12.4538182 Z M11.1589091,15.9690909 C11.6232727,15.5047273 12.3763636,15.5047273 12.8407273,15.9690909 C13.3054545,16.4334545 13.3054545,17.1869091 12.8407273,17.6512727 C12.3763636,18.116 11.6232727,18.116 11.1589091,17.6512727 C10.6941818,17.1869091 10.6941818,16.4334545 11.1589091,15.9690909 L11.1589091,15.9690909 Z"/>
</svg>
