<?xml version="1.0" encoding="utf-8"?>
<!-- Generator: Adobe Illustrator 18.1.1, SVG Export Plug-In . SVG Version: 6.00 Build 0)  -->
<!DOCTYPE svg PUBLIC "-//W3C//DTD SVG 1.1//EN" "http://www.w3.org/Graphics/SVG/1.1/DTD/svg11.dtd">
<svg version="1.1" id="Ebene_1" xmlns="http://www.w3.org/2000/svg" xmlns:xlink="http://www.w3.org/1999/xlink" x="0px" y="0px"
	 viewBox="0 0 30 30" enable-background="new 0 0 30 30" xml:space="preserve">
<g>
	<path fill="#FFFFFF" d="M27.2,12.3L26.4,12c-1.1-0.3-2.8-0.8-3.9-1.1l-0.8-0.2c-1.1-0.3-1.3-1.2-0.5-1.9l0.5-0.5
		c0.1-0.1,0.3-0.3,0.5-0.5c-0.1,0-0.2-0.1-0.2-0.1c-4-4-10.6-4-14.7,0c-4,4-4,10.6,0,14.7c4,4,10.6,4,14.7,0c0.6-0.6,1.5-0.6,2.1,0
		s0.6,1.5,0,2.1c-2.6,2.6-6,3.9-9.5,3.9c-3.4,0-6.8-1.3-9.5-3.9c-5.2-5.2-5.2-13.7,0-18.9c5.2-5.2,13.7-5.2,18.9,0
		c0.1,0.1,0.1,0.1,0.1,0.2c0.1-0.1,0.2-0.2,0.3-0.3l0.5-0.5c0.8-0.8,1.7-0.5,1.9,0.5l0.2,0.8c0.3,1.1,0.8,2.8,1.1,3.9l0.2,0.8
		C28.9,11.9,28.2,12.5,27.2,12.3z M12,15.1v5l4.2-2.5l4.3-2.5l-4.3-2.5L12,10.1V15.1z"/>
</g>
</svg>
