<?xml version="1.0" encoding="UTF-8" standalone="no"?>
<!-- Generator: Adobe Illustrator 19.1.0, SVG Export Plug-In . SVG Version: 6.00 Build 0)  -->

<svg
   xmlns:dc="http://purl.org/dc/elements/1.1/"
   xmlns:cc="http://creativecommons.org/ns#"
   xmlns:rdf="http://www.w3.org/1999/02/22-rdf-syntax-ns#"
   xmlns:svg="http://www.w3.org/2000/svg"
   xmlns="http://www.w3.org/2000/svg"
   xmlns:sodipodi="http://sodipodi.sourceforge.net/DTD/sodipodi-0.dtd"
   xmlns:inkscape="http://www.inkscape.org/namespaces/inkscape"
   version="1.1"
   id="Ebene_1"
   x="0px"
   y="0px"
   viewBox="0 0 40 30"
   style="enable-background:new 0 0 40 30;"
   xml:space="preserve"
   inkscape:version="0.91 r13725"
   sodipodi:docname="loggedin-open.svg"><metadata
     id="metadata15"><rdf:RDF><cc:Work
         rdf:about=""><dc:format>image/svg+xml</dc:format><dc:type
           rdf:resource="http://purl.org/dc/dcmitype/StillImage" /><dc:title></dc:title></cc:Work></rdf:RDF></metadata><defs
     id="defs13" /><sodipodi:namedview
     pagecolor="#ffffff"
     bordercolor="#666666"
     borderopacity="1"
     objecttolerance="10"
     gridtolerance="10"
     guidetolerance="10"
     inkscape:pageopacity="0"
     inkscape:pageshadow="2"
     inkscape:window-width="1920"
     inkscape:window-height="1058"
     id="namedview11"
     showgrid="false"
     inkscape:zoom="15.733333"
     inkscape:cx="27.341102"
     inkscape:cy="9.5101298"
     inkscape:window-x="1592"
     inkscape:window-y="-8"
     inkscape:window-maximized="1"
     inkscape:current-layer="Ebene_1" /><style
     type="text/css"
     id="style3">
	.st0{fill:#49639F;}
	.st1{fill:#DC4A38;}
	.st2{fill:#F0AB00;}
	.st3{fill-rule:evenodd;clip-rule:evenodd;fill:#333333;}
	.st4{fill:#FFFFFF;}
</style><g
     id="g3345"><path
       class="st2"
       d="m 12.8,15 c 2.2,0 4,-1.8 4,-4 0,-2.2 -1.8,-4 -4,-4 -2.2,0 -4,1.8 -4,4 0,2.2 1.8,4 4,4 z m 0,2 c -2.7,0 -8,1.3 -8,4 l 0,2 16,0 0,-2 c 0,-2.7 -5.3,-4 -8,-4 z"
       id="path7"
       inkscape:connector-curvature="0"
       style="fill:#f0ab00" /><polygon
       transform="matrix(-1,0,0,-1,60.4,30)"
       class="st2"
       points="30.2,17.5 25.2,12.5 35.2,12.5 "
       id="polygon9"
       style="fill:#f0ab00" /></g></svg>