<?xml version="1.0" encoding="UTF-8" standalone="no"?>
<!-- Generator: Adobe Illustrator 19.1.0, SVG Export Plug-In . SVG Version: 6.00 Build 0)  -->

<svg
   xmlns:dc="http://purl.org/dc/elements/1.1/"
   xmlns:cc="http://creativecommons.org/ns#"
   xmlns:rdf="http://www.w3.org/1999/02/22-rdf-syntax-ns#"
   xmlns:svg="http://www.w3.org/2000/svg"
   xmlns="http://www.w3.org/2000/svg"
   xmlns:sodipodi="http://sodipodi.sourceforge.net/DTD/sodipodi-0.dtd"
   xmlns:inkscape="http://www.inkscape.org/namespaces/inkscape"
   version="1.1"
   id="Ebene_1"
   x="0px"
   y="0px"
   viewBox="0 0 30 30"
   style="enable-background:new 0 0 30 30;"
   xml:space="preserve"
   inkscape:version="0.91 r13725"
   sodipodi:docname="settings.svg"><metadata
     id="metadata3380"><rdf:RDF><cc:Work
         rdf:about=""><dc:format>image/svg+xml</dc:format><dc:type
           rdf:resource="http://purl.org/dc/dcmitype/StillImage" /></cc:Work></rdf:RDF></metadata><defs
     id="defs3378" /><sodipodi:namedview
     pagecolor="#ffffff"
     bordercolor="#666666"
     borderopacity="1"
     objecttolerance="10"
     gridtolerance="10"
     guidetolerance="10"
     inkscape:pageopacity="0"
     inkscape:pageshadow="2"
     inkscape:window-width="944"
     inkscape:window-height="1042"
     id="namedview3376"
     showgrid="false"
     inkscape:zoom="25"
     inkscape:cx="15"
     inkscape:cy="15"
     inkscape:window-x="1600"
     inkscape:window-y="0"
     inkscape:window-maximized="0"
     inkscape:current-layer="Ebene_1" /><style
     type="text/css"
     id="style3372">
	.st0{fill:#FFFFFF;}
</style><path
     class="st0"
     d="m 27.355952,12.142857 c 0,0 -1.309523,0 -2.857142,0 -1.54762,0 -1.904762,-0.833333 -0.833334,-1.904762 1.071429,-1.0714283 2.02381,-2.0238093 2.02381,-2.0238093 0,0 0,-0.1190476 0,-0.1190476 0,0 -0.952381,-0.952381 -1.904762,-1.9047619 -1.071429,-1.0714286 -1.904762,-1.9047619 -1.904762,-1.9047619 0,0 -0.119048,0 -0.119048,0 0,0 -0.952381,0.9523809 -2.023809,2.0238095 -1.071429,1.0714286 -1.904762,0.7142857 -1.904762,-0.8333333 0,-1.5476191 0,-2.8571429 0,-2.8571429 0,0 0,-0.1190476 -0.119048,-0.1190476 0,0 -1.309524,0 -2.738095,0 -1.428571,0 -2.619048,0 -2.738095,0 0,0 -0.119048,0 -0.119048,0.1190476 0,0.1190476 0,1.3095238 0,2.8571429 0,1.547619 -0.833333,1.9047619 -1.904762,0.8333333 C 9.1416667,5.2380952 8.1892857,4.2857143 8.1892857,4.2857143 c 0,0 -0.1190476,0 -0.1190476,0 0,0 -0.952381,0.9523809 -1.9047619,1.9047619 -1.0714286,0.9523809 -1.9047619,1.9047619 -1.9047619,1.9047619 0,0 0,0.1190476 0,0.1190476 0,0 0.9523809,0.952381 2.0238095,2.0238093 1.0714286,1.071429 0.7142857,1.904762 -0.8333333,1.904762 -1.5476191,0 -2.8571429,0 -2.8571429,0 0,0 -0.1190476,0 -0.1190476,0.119048 0,0 0,1.309524 0,2.738095 0,1.428571 0,2.738095 0,2.738095 0,0 0,0.119048 0.1190476,0.119048 0,0 1.3095238,0 2.8571429,0 1.547619,0 1.9047619,0.833333 0.8333333,1.904762 -1.0714286,1.071428 -2.0238095,2.023809 -2.0238095,2.023809 0,0 0,0.119048 0,0.119048 0,0 0.9523809,0.952381 1.9047619,1.904762 1.0714286,1.071428 1.9047619,1.904762 1.9047619,1.904762 0,0 0.1190476,0 0.1190476,0 0,0 0.952381,-0.952381 2.0238093,-2.02381 1.071429,-1.071428 1.904762,-0.714286 1.904762,0.833334 0,1.547619 0,2.857142 0,2.857142 0,0 0,0.119048 0.119048,0.119048 0,0 1.309524,0 2.738095,0 1.428571,0 2.619048,0 2.738095,0 0,0 0.119048,0 0.119048,-0.119048 0,0 0,-1.309523 0,-2.857142 0,-1.54762 0.833333,-1.904762 1.904762,-0.833334 1.071428,1.071429 2.023809,2.02381 2.023809,2.02381 0,0 0.119048,0 0.119048,0 0,0 0.952381,-0.952381 1.904762,-1.904762 1.071428,-1.071429 1.904762,-1.904762 1.904762,-1.904762 0,0 0,-0.119048 0,-0.119048 0,0 -0.952381,-0.952381 -2.02381,-2.023809 -1.071428,-1.071429 -0.714286,-1.904762 0.833334,-1.904762 1.547619,0 2.857142,0 2.857142,0 0,0 0.119048,0 0.119048,-0.119048 0,0 0,-1.309524 0,-2.738095 0,-1.428571 0,-2.619048 -0.119048,-2.857143 0.119048,0.119048 0.119048,0 0,0 z m -12.142857,7.02381 c -2.261905,0 -4.166666,-1.904762 -4.166666,-4.166667 0,-2.261905 1.904761,-4.166667 4.166666,-4.166667 2.261905,0 4.166667,1.904762 4.166667,4.166667 0,2.261905 -1.904762,4.166667 -4.166667,4.166667 z"
     id="path3374"
     inkscape:connector-curvature="0"
     style="fill:#ffffff" /></svg>