<?xml version="1.0" encoding="utf-8"?>
<!-- Generator: Adobe Illustrator 18.1.1, SVG Export Plug-In . SVG Version: 6.00 Build 0)  -->
<!DOCTYPE svg PUBLIC "-//W3C//DTD SVG 1.1//EN" "http://www.w3.org/Graphics/SVG/1.1/DTD/svg11.dtd">
<svg version="1.1" id="Ebene_1" xmlns="http://www.w3.org/2000/svg" xmlns:xlink="http://www.w3.org/1999/xlink" x="0px" y="0px"
	 viewBox="0 0 30 30" enable-background="new 0 0 30 30" xml:space="preserve">
<g>
	<g>
		<path fill="#5D5D5D" d="M15,6c5.5,0,10,4.5,10,10s-4.5,10-10,10S5,21.5,5,16S9.5,6,15,6 M15,5C8.9,5,4,9.9,4,16
			c0,6.1,4.9,11,11,11c6.1,0,11-4.9,11-11C26,9.9,21.1,5,15,5L15,5z"/>
	</g>
	<polygon fill="#E94A1B" points="15,20 9,3 15,5 21,3 	"/>
	<polygon fill="#B23518" points="15,20 21,3 15,5 	"/>
</g>
</svg>
