<svg width="24" height="24" viewBox="0 0 24 24" fill="none" xmlns="http://www.w3.org/2000/svg">
<g clip-path="url(#clip0)">
<path d="M10.6154 -0.0286255C8.808 -0.0286255 7.356 1.47322 7.356 3.28891V3.6923H3.69231C3.18369 3.6923 2.76923 4.10676 2.76923 4.61537V5.53845H1.84615V7.3846H3.69231V21.2308C3.69231 22.7492 4.94308 24 6.46154 24H17.5385C19.0569 24 20.3077 22.7492 20.3077 21.2308V7.3846H22.1538V5.53845H21.2308V4.61537C21.2308 4.10676 20.8163 3.6923 20.3077 3.6923H16.644V3.28799C16.644 1.47322 15.192 -0.0286255 13.3846 -0.0286255H10.6154V-0.0286255ZM10.6154 1.87476H13.3846C14.1268 1.87476 14.7406 2.4803 14.7406 3.28799V3.6923H9.25846V3.28799C9.25846 2.4803 9.87231 1.87568 10.6145 1.87568L10.6154 1.87476ZM5.53846 7.3846H10.2692C10.3837 7.3966 10.4972 7.41322 10.6154 7.41322H13.3846C13.5028 7.41322 13.6154 7.3966 13.7308 7.3846H18.4615V21.2308C18.4615 21.7505 18.0582 22.1538 17.5385 22.1538H6.46154C5.94185 22.1538 5.53846 21.7505 5.53846 21.2308V7.3846ZM7.38462 9.23076V20.3077H9.23077V9.23076H7.38462ZM11.0769 9.23076V20.3077H12.9231V9.23076H11.0769ZM14.7692 9.23076V20.3077H16.6154V9.23076H14.7692Z" fill="white"/>
</g>
<defs>
<clipPath id="clip0">
<rect width="24" height="24" fill="white"/>
</clipPath>
</defs>
</svg>
