<svg width="25" height="25" viewBox="0 0 25 25" fill="none" xmlns="http://www.w3.org/2000/svg">
<path d="M8.52083 4.16667L3.125 4.16667C2.84873 4.16667 2.58378 4.27642 2.38843 4.47177C2.19308 4.66712 2.08333 4.93207 2.08333 5.20834C2.08333 5.48461 2.19308 5.74956 2.38843 5.94491C2.58378 6.14026 2.84873 6.25001 3.125 6.25001L8.52083 6.25001C8.7398 6.85329 9.1392 7.37453 9.66476 7.74288C10.1903 8.11123 10.8165 8.30883 11.4583 8.30883C12.1001 8.30883 12.7264 8.11123 13.2519 7.74288C13.7775 7.37453 14.1769 6.85329 14.3958 6.25L21.875 6.25C22.1513 6.25 22.4162 6.14026 22.6116 5.94491C22.8069 5.74956 22.9167 5.48461 22.9167 5.20834C22.9167 4.93207 22.8069 4.66712 22.6116 4.47177C22.4162 4.27642 22.1513 4.16667 21.875 4.16667L14.3958 4.16667C14.1769 3.56339 13.7775 3.04215 13.2519 2.6738C12.7264 2.30545 12.1001 2.10784 11.4583 2.10784C10.8165 2.10784 10.1903 2.30545 9.66476 2.6738C9.1392 3.04215 8.7398 3.56339 8.52083 4.16667V4.16667ZM12.5 5.20834C12.5 5.41436 12.4389 5.61576 12.3244 5.78706C12.21 5.95836 12.0473 6.09187 11.857 6.17071C11.6666 6.24955 11.4572 6.27018 11.2551 6.22999C11.0531 6.1898 10.8674 6.09059 10.7218 5.94491C10.5761 5.79923 10.4769 5.61362 10.4367 5.41156C10.3965 5.2095 10.4171 5.00005 10.496 4.80971C10.5748 4.61937 10.7083 4.45668 10.8796 4.34222C11.0509 4.22776 11.2523 4.16667 11.4583 4.16667C11.7346 4.16667 11.9996 4.27642 12.1949 4.47177C12.3903 4.66712 12.5 4.93207 12.5 5.20834ZM14.7708 11.4583L3.125 11.4583C2.84873 11.4583 2.58378 11.5681 2.38843 11.7634C2.19308 11.9588 2.08333 12.2237 2.08333 12.5C2.08333 12.7763 2.19308 13.0412 2.38843 13.2366C2.58378 13.4319 2.84873 13.5417 3.125 13.5417L14.7708 13.5417C14.9898 14.145 15.3892 14.6662 15.9148 15.0345C16.4403 15.4029 17.0665 15.6005 17.7083 15.6005C18.3501 15.6005 18.9764 15.4029 19.5019 15.0345C20.0275 14.6662 20.4269 14.145 20.6458 13.5417L21.875 13.5417C22.1513 13.5417 22.4162 13.4319 22.6116 13.2366C22.8069 13.0412 22.9167 12.7763 22.9167 12.5C22.9167 12.2237 22.8069 11.9588 22.6116 11.7634C22.4162 11.5681 22.1513 11.4583 21.875 11.4583L20.6458 11.4583C20.4269 10.8551 20.0275 10.3338 19.5019 9.96546C18.9764 9.59711 18.3501 9.39951 17.7083 9.39951C17.0665 9.39951 16.4403 9.59711 15.9148 9.96546C15.3892 10.3338 14.9898 10.8551 14.7708 11.4583ZM18.75 12.5C18.75 12.706 18.6889 12.9074 18.5744 13.0787C18.46 13.25 18.2973 13.3835 18.107 13.4624C17.9166 13.5412 17.7072 13.5618 17.5051 13.5217C17.3031 13.4815 17.1174 13.3823 16.9718 13.2366C16.8261 13.0909 16.7269 12.9053 16.6867 12.7032C16.6465 12.5012 16.6671 12.2917 16.746 12.1014C16.8248 11.911 16.9583 11.7483 17.1296 11.6339C17.3009 11.5194 17.5023 11.4583 17.7083 11.4583C17.9846 11.4583 18.2496 11.5681 18.4449 11.7634C18.6403 11.9588 18.75 12.2237 18.75 12.5ZM6.4375 18.75L3.125 18.75C2.84873 18.75 2.58378 18.8598 2.38843 19.0551C2.19308 19.2505 2.08333 19.5154 2.08333 19.7917C2.08333 20.0679 2.19308 20.3329 2.38843 20.5282C2.58378 20.7236 2.84873 20.8333 3.125 20.8333L6.4375 20.8333C6.65646 21.4366 7.05586 21.9579 7.58142 22.3262C8.10698 22.6946 8.73321 22.8922 9.375 22.8922C10.0168 22.8922 10.643 22.6946 11.1686 22.3262C11.6941 21.9579 12.0935 21.4366 12.3125 20.8333L21.875 20.8333C22.1513 20.8333 22.4162 20.7236 22.6116 20.5282C22.8069 20.3329 22.9167 20.0679 22.9167 19.7917C22.9167 19.5154 22.8069 19.2505 22.6116 19.0551C22.4162 18.8597 22.1513 18.75 21.875 18.75L12.3125 18.75C12.0935 18.1467 11.6941 17.6255 11.1686 17.2571C10.643 16.8888 10.0168 16.6912 9.375 16.6912C8.73321 16.6912 8.10698 16.8888 7.58142 17.2571C7.05586 17.6255 6.65646 18.1467 6.4375 18.75ZM10.4167 19.7917C10.4167 19.9977 10.3556 20.1991 10.2411 20.3704C10.1267 20.5417 9.96397 20.6752 9.77363 20.754C9.58329 20.8329 9.37385 20.8535 9.17178 20.8133C8.96972 20.7731 8.78411 20.6739 8.63843 20.5282C8.49275 20.3826 8.39354 20.197 8.35335 19.9949C8.31316 19.7928 8.33379 19.5834 8.41263 19.393C8.49147 19.2027 8.62498 19.04 8.79628 18.9256C8.96758 18.8111 9.16898 18.75 9.375 18.75C9.65127 18.75 9.91622 18.8598 10.1116 19.0551C10.3069 19.2505 10.4167 19.5154 10.4167 19.7917Z" fill="white"/>
</svg>
