<svg width="31" height="24" viewBox="0 0 31 24" fill="none" xmlns="http://www.w3.org/2000/svg">
<path d="M24.5417 17H6.45833C5.03362 17 3.875 17.897 3.875 19C3.875 20.103 5.03362 21 6.45833 21H24.5417C25.9664 21 27.125 20.103 27.125 19C27.125 17.897 25.9664 17 24.5417 17ZM24.5417 10H6.45833C5.03362 10 3.875 10.897 3.875 12C3.875 13.103 5.03362 14 6.45833 14H24.5417C25.9664 14 27.125 13.103 27.125 12C27.125 10.897 25.9664 10 24.5417 10ZM24.5417 3H6.45833C5.03362 3 3.875 3.897 3.875 5C3.875 6.103 5.03362 7 6.45833 7H24.5417C25.9664 7 27.125 6.103 27.125 5C27.125 3.897 25.9664 3 24.5417 3Z" fill="white"/>
</svg>
