<svg width="10" height="15" viewBox="0 0 10 15" fill="none" xmlns="http://www.w3.org/2000/svg">
<path d="M10 5C10 4.34339 9.87067 3.69321 9.6194 3.08658C9.36812 2.47996 8.99983 1.92876 8.53553 1.46447C8.07124 1.00017 7.52005 0.631876 6.91342 0.380602C6.30679 0.129329 5.65661 0 5 0C4.34339 0 3.69321 0.129329 3.08658 0.380602C2.47995 0.631876 1.92876 1.00017 1.46447 1.46447C1.00017 1.92876 0.631876 2.47996 0.380602 3.08658C0.129329 3.69321 -9.78424e-09 4.34339 0 5C0 5.99071 0.292857 6.91214 0.789286 7.68929H0.783572C2.46929 10.3286 5 14.2857 5 14.2857L9.21643 7.68929H9.21143C9.72601 6.88669 9.99968 5.95339 10 5V5ZM5 7.14286C4.43168 7.14286 3.88663 6.91709 3.48477 6.51523C3.08291 6.11337 2.85714 5.56832 2.85714 5C2.85714 4.43168 3.08291 3.88664 3.48477 3.48477C3.88663 3.08291 4.43168 2.85714 5 2.85714C5.56832 2.85714 6.11337 3.08291 6.51523 3.48477C6.91709 3.88664 7.14286 4.43168 7.14286 5C7.14286 5.56832 6.91709 6.11337 6.51523 6.51523C6.11337 6.91709 5.56832 7.14286 5 7.14286Z" fill="#E6AD29"/>
</svg>
