<svg width="19" height="22" viewBox="0 0 19 22" fill="none" xmlns="http://www.w3.org/2000/svg">
<path d="M17.6429 8.5625H11.5357V2.375C11.5357 1.61574 10.928 1 10.1786 1H8.82143C8.07203 1 7.46429 1.61574 7.46429 2.375V8.5625H1.35714C0.607746 8.5625 0 9.17824 0 9.9375V11.3125C0 12.0718 0.607746 12.6875 1.35714 12.6875H7.46429V18.875C7.46429 19.6343 8.07203 20.25 8.82143 20.25H10.1786C10.928 20.25 11.5357 19.6343 11.5357 18.875V12.6875H17.6429C18.3923 12.6875 19 12.0718 19 11.3125V9.9375C19 9.17824 18.3923 8.5625 17.6429 8.5625Z" fill="white"/>
</svg>
