<svg width="18" height="18" viewBox="0 0 18 18" fill="none" xmlns="http://www.w3.org/2000/svg">
<path fill-rule="evenodd" clip-rule="evenodd" d="M6.75524 2.25261C5.56084 2.25261 4.41536 2.72708 3.57079 3.57165C2.72622 4.41622 2.25175 5.5617 2.25175 6.7561C2.25175 7.95051 2.72622 9.09599 3.57079 9.94056C4.41536 10.7851 5.56084 11.2596 6.75524 11.2596C7.94964 11.2596 9.09512 10.7851 9.93969 9.94056C10.7843 9.09599 11.2587 7.95051 11.2587 6.7561C11.2587 5.5617 10.7843 4.41622 9.93969 3.57165C9.09512 2.72708 7.94964 2.25261 6.75524 2.25261ZM1.27743e-07 6.7561C-0.000135544 5.69295 0.250667 4.64477 0.732011 3.69682C1.21335 2.74886 1.91165 1.92791 2.77009 1.30071C3.62854 0.67352 4.62291 0.257801 5.67232 0.087367C6.72172 -0.0830667 7.79654 -0.00340294 8.80936 0.319879C9.82217 0.643162 10.7444 1.20093 11.501 1.94783C12.2576 2.69473 12.8272 3.60966 13.1635 4.61822C13.4999 5.62678 13.5934 6.70048 13.4365 7.752C13.2797 8.80352 12.8768 9.80317 12.2608 10.6696L17.6841 16.093C17.8892 16.3053 18.0027 16.5897 18.0001 16.8849C17.9975 17.1801 17.8791 17.4625 17.6704 17.6712C17.4616 17.88 17.1793 17.9984 16.8841 18.001C16.5889 18.0035 16.3045 17.89 16.0921 17.685L10.6699 12.2628C9.65928 12.9814 8.47034 13.4079 7.23337 13.4957C5.99641 13.5835 4.75915 13.3291 3.65718 12.7604C2.5552 12.1916 1.63104 11.3306 0.985954 10.2715C0.34087 9.2124 -0.000240994 7.99618 1.27743e-07 6.7561Z" fill="white"/>
</svg>
