<?xml version="1.0" encoding="UTF-8"?><svg xmlns="http://www.w3.org/2000/svg" xmlns:xlink="http://www.w3.org/1999/xlink" fill-opacity="1" color-rendering="auto" color-interpolation="auto" stroke="black" text-rendering="auto" stroke-linecap="square" width="466" stroke-miterlimit="10" stroke-opacity="1" shape-rendering="auto" fill="black" stroke-dasharray="none" font-weight="normal" stroke-width="1" height="425" font-family="'Dialog'" font-style="normal" stroke-linejoin="miter" font-size="12" stroke-dashoffset="0" image-rendering="auto">
  <!--Generated by ySVG 2.5-->
  <defs id="genericDefs"/>
  <g>
    <defs id="defs1">
      <clipPath clipPathUnits="userSpaceOnUse" id="clipPath1">
        <path d="M0 0 L466 0 L466 425 L0 425 L0 0 Z"/>
      </clipPath>
      <clipPath clipPathUnits="userSpaceOnUse" id="clipPath2">
        <path d="M356 410 L822 410 L822 835 L356 835 L356 410 Z"/>
      </clipPath>
    </defs>
    <g fill="white" text-rendering="geometricPrecision" shape-rendering="geometricPrecision" transform="translate(-356,-410)" stroke="white">
      <rect x="356" width="466" height="425" y="410" clip-path="url(#clipPath2)" stroke="none"/>
    </g>
    <g font-size="10" stroke-linecap="butt" transform="matrix(1,0,0,1,-356,-410)" text-rendering="geometricPrecision" font-family="sans-serif" shape-rendering="geometricPrecision" stroke-miterlimit="1.45">
      <text x="421.9159" xml:space="preserve" y="717.2155" clip-path="url(#clipPath2)" stroke="none">Statistics</text>
    </g>
    <g shape-rendering="geometricPrecision" text-rendering="geometricPrecision" transform="matrix(1,0,0,1,-356,-410)">
      <rect x="386" y="444" clip-path="url(#clipPath2)" width="112" rx="4" ry="4" height="176" stroke="none"/>
      <rect stroke-linecap="butt" x="386" y="444" clip-path="url(#clipPath2)" fill="none" width="112" rx="4" ry="4" height="176" stroke-miterlimit="1.45"/>
      <rect x="391.5" y="450" clip-path="url(#clipPath2)" fill="white" width="101" height="137" stroke="none"/>
    </g>
    <g stroke-linecap="butt" transform="matrix(1,0,0,1,-356,-410)" fill="white" text-rendering="geometricPrecision" shape-rendering="geometricPrecision" stroke="white" stroke-miterlimit="1.45">
      <circle fill="none" r="10.5" clip-path="url(#clipPath2)" cx="442" cy="604.5"/>
      <rect x="398.5" y="475" clip-path="url(#clipPath2)" fill="none" width="87" height="16" stroke="black"/>
      <rect x="398.5" y="496.5" clip-path="url(#clipPath2)" fill="none" width="87" height="16" stroke="black"/>
    </g>
    <g fill="silver" text-rendering="geometricPrecision" shape-rendering="geometricPrecision" transform="matrix(1,0,0,1,-356,-410)" stroke="silver">
      <rect x="417.5" width="49" height="16" y="520" clip-path="url(#clipPath2)" stroke="none"/>
    </g>
    <g text-rendering="geometricPrecision" stroke-miterlimit="1.45" shape-rendering="geometricPrecision" font-family="sans-serif" transform="matrix(1,0,0,1,-356,-410)" stroke-linecap="butt">
      <text x="425.708" xml:space="preserve" y="532.1543" clip-path="url(#clipPath2)" stroke="none">Login</text>
      <rect fill="none" x="417.5" width="49" height="16" y="520" clip-path="url(#clipPath2)"/>
      <text x="409.3608" xml:space="preserve" font-size="10" y="562.088" clip-path="url(#clipPath2)" stroke="none">already have</text>
      <text x="411.6045" xml:space="preserve" font-size="10" y="573.7286" clip-path="url(#clipPath2)" stroke="none">an account?</text>
      <rect stroke-linecap="square" x="537.5" y="444" clip-path="url(#clipPath2)" width="112" rx="4" ry="4" height="176" stroke="none" stroke-miterlimit="10"/>
      <rect x="537.5" y="444" clip-path="url(#clipPath2)" fill="none" width="112" rx="4" ry="4" height="176"/>
    </g>
    <g fill="white" text-rendering="geometricPrecision" shape-rendering="geometricPrecision" transform="matrix(1,0,0,1,-356,-410)" stroke="white">
      <rect x="543" width="101" height="137" y="450" clip-path="url(#clipPath2)" stroke="none"/>
      <circle stroke-linecap="butt" clip-path="url(#clipPath2)" fill="none" r="10.5" cx="593.5" cy="604.5" stroke-miterlimit="1.45"/>
      <rect x="698.9988" y="568.7536" clip-path="url(#clipPath2)" fill="silver" width="92.33" height="15.4634" stroke="none"/>
    </g>
    <g font-size="10" stroke-linecap="butt" transform="matrix(1,0,0,1,-356,-410)" text-rendering="geometricPrecision" font-family="sans-serif" shape-rendering="geometricPrecision" stroke-miterlimit="1.45">
      <text x="710.6569" xml:space="preserve" y="579.9472" clip-path="url(#clipPath2)" stroke="none">Stop Tracking</text>
      <rect fill="none" x="698.9988" width="92.33" height="15.4634" y="568.7536" clip-path="url(#clipPath2)"/>
      <path fill="none" d="M498.0358 532 L529.5173 532" clip-path="url(#clipPath2)"/>
      <path d="M537.5173 532 L525.5173 527 L528.5173 532 L525.5173 537 Z" clip-path="url(#clipPath2)" stroke="none"/>
    </g>
    <g fill="silver" text-rendering="geometricPrecision" shape-rendering="geometricPrecision" transform="matrix(1,0,0,1,-356,-410)" stroke="silver">
      <rect x="546.8288" width="93" height="16" y="475.2032" clip-path="url(#clipPath2)" stroke="none"/>
    </g>
    <g text-rendering="geometricPrecision" stroke-miterlimit="1.45" shape-rendering="geometricPrecision" transform="matrix(1,0,0,1,-356,-410)" stroke-linecap="butt">
      <rect fill="none" x="546.8288" width="93" height="16" y="475.2032" clip-path="url(#clipPath2)"/>
      <text x="567.4633" font-size="10" y="486.6651" clip-path="url(#clipPath2)" font-family="sans-serif" stroke="none" xml:space="preserve">Start Tracking</text>
    </g>
    <g fill="red" text-rendering="geometricPrecision" shape-rendering="geometricPrecision" transform="matrix(1,0,0,1,-356,-410)" stroke="red">
      <circle r="7.4634" clip-path="url(#clipPath2)" cx="554.9621" cy="483.2032" stroke="none"/>
      <rect x="547.4988" y="515.096" clip-path="url(#clipPath2)" fill="silver" width="92.33" height="15.4634" stroke="none"/>
    </g>
    <g font-size="10" stroke-linecap="butt" transform="matrix(1,0,0,1,-356,-410)" text-rendering="geometricPrecision" font-family="sans-serif" shape-rendering="geometricPrecision" stroke-miterlimit="1.45">
      <text x="568.3781" xml:space="preserve" y="526.2896" clip-path="url(#clipPath2)" stroke="none">My Tracks</text>
      <rect fill="none" x="547.4988" width="92.33" height="15.4634" y="515.096" clip-path="url(#clipPath2)"/>
    </g>
    <g fill="rgb(153,204,255)" text-rendering="geometricPrecision" shape-rendering="geometricPrecision" transform="matrix(1,0,0,1,-356,-410)" stroke="rgb(153,204,255)">
      <rect x="694.5" width="101" height="116.016" y="450" clip-path="url(#clipPath2)" stroke="none"/>
    </g>
    <g font-size="10" stroke-linecap="butt" transform="matrix(1,0,0,1,-356,-410)" text-rendering="geometricPrecision" font-family="sans-serif" shape-rendering="geometricPrecision" stroke-miterlimit="1.45">
      <text x="417.6227" xml:space="preserve" y="719.5582" clip-path="url(#clipPath2)" stroke="none">Statistics:</text>
      <text x="437.3957" xml:space="preserve" y="731.1989" clip-path="url(#clipPath2)" stroke="none">...</text>
      <text x="437.3957" xml:space="preserve" y="742.8395" clip-path="url(#clipPath2)" stroke="none">...</text>
    </g>
    <g shape-rendering="geometricPrecision" text-rendering="geometricPrecision" transform="matrix(1,0,0,1,-356,-410)">
      <rect x="386" y="644" clip-path="url(#clipPath2)" width="112" rx="4" ry="4" height="176" stroke="none"/>
      <rect stroke-linecap="butt" x="386" y="644" clip-path="url(#clipPath2)" fill="none" width="112" rx="4" ry="4" height="176" stroke-miterlimit="1.45"/>
      <rect x="391.5" y="650" clip-path="url(#clipPath2)" fill="white" width="101" height="137" stroke="none"/>
      <rect x="689" y="444" clip-path="url(#clipPath2)" width="112" rx="4" ry="4" height="176" stroke="none"/>
      <rect stroke-linecap="butt" x="689" y="444" clip-path="url(#clipPath2)" fill="none" width="112" rx="4" ry="4" height="176" stroke-miterlimit="1.45"/>
      <rect x="694.5" y="450" clip-path="url(#clipPath2)" fill="white" width="101" height="137" stroke="none"/>
    </g>
    <g stroke-linecap="butt" transform="matrix(1,0,0,1,-356,-410)" fill="white" text-rendering="geometricPrecision" shape-rendering="geometricPrecision" stroke="white" stroke-miterlimit="1.45">
      <circle fill="none" r="10.5" clip-path="url(#clipPath2)" cx="745" cy="604.5"/>
      <circle fill="none" r="10.5" clip-path="url(#clipPath2)" cx="442" cy="804.5"/>
    </g>
    <g fill="silver" text-rendering="geometricPrecision" shape-rendering="geometricPrecision" transform="matrix(1,0,0,1,-356,-410)" stroke="silver">
      <rect x="395.9988" width="92.33" height="15.4634" y="768.7536" clip-path="url(#clipPath2)" stroke="none"/>
    </g>
    <g font-size="10" stroke-linecap="butt" transform="matrix(1,0,0,1,-356,-410)" text-rendering="geometricPrecision" font-family="sans-serif" shape-rendering="geometricPrecision" stroke-miterlimit="1.45">
      <text x="422.4616" xml:space="preserve" y="779.9472" clip-path="url(#clipPath2)" stroke="none">Analyze</text>
      <rect fill="none" x="395.9988" width="92.33" height="15.4634" y="768.7536" clip-path="url(#clipPath2)"/>
    </g>
    <g fill="rgb(153,204,255)" text-rendering="geometricPrecision" shape-rendering="geometricPrecision" transform="matrix(1,0,0,1,-356,-410)" stroke="rgb(153,204,255)">
      <rect x="395.9988" width="92.33" height="46" y="654.9152" clip-path="url(#clipPath2)" stroke="none"/>
      <rect x="698.9988" y="568.7536" clip-path="url(#clipPath2)" fill="silver" width="92.33" height="15.4634" stroke="none"/>
    </g>
    <g font-size="10" stroke-linecap="butt" transform="matrix(1,0,0,1,-356,-410)" text-rendering="geometricPrecision" font-family="sans-serif" shape-rendering="geometricPrecision" stroke-miterlimit="1.45">
      <text x="710.6569" xml:space="preserve" y="579.9472" clip-path="url(#clipPath2)" stroke="none">Stop Tracking</text>
      <rect fill="none" x="698.9988" width="92.33" height="15.4634" y="568.7536" clip-path="url(#clipPath2)"/>
    </g>
    <g shape-rendering="geometricPrecision" text-rendering="geometricPrecision" transform="matrix(1,0,0,1,-356,-410)">
      <rect x="538.1551" y="643.9819" clip-path="url(#clipPath2)" width="112" rx="4" ry="4" height="176" stroke="none"/>
      <rect stroke-linecap="butt" x="538.1551" y="643.9819" clip-path="url(#clipPath2)" fill="none" width="112" rx="4" ry="4" height="176" stroke-miterlimit="1.45"/>
    </g>
    <g stroke-linecap="butt" transform="matrix(1,0,0,1,-356,-410)" fill="white" text-rendering="geometricPrecision" shape-rendering="geometricPrecision" stroke="white" stroke-miterlimit="1.45">
      <circle fill="none" r="10.5" clip-path="url(#clipPath2)" cx="594.1551" cy="804.4819"/>
      <rect stroke-linecap="square" x="543.6551" y="649.9819" clip-path="url(#clipPath2)" width="101" height="137" stroke="none" stroke-miterlimit="10"/>
      <text x="566.657" y="702.0228" clip-path="url(#clipPath2)" fill="black" font-family="sans-serif" stroke="none" xml:space="preserve">RaceMap</text>
    </g>
    <g fill="rgb(153,204,255)" text-rendering="geometricPrecision" shape-rendering="geometricPrecision" transform="matrix(1,0,0,1,-356,-410)" stroke="rgb(153,204,255)">
      <rect x="694.5" width="101" height="116.016" y="450" clip-path="url(#clipPath2)" stroke="none"/>
    </g>
    <g text-rendering="geometricPrecision" stroke-miterlimit="1.45" shape-rendering="geometricPrecision" transform="matrix(1,0,0,1,-356,-410)" stroke-linecap="butt">
      <path fill="none" d="M741.6555 538.0825 L750.1211 535.7219 L754.4901 534.2157 L758.0123 532.3696 L760.6878 530.1837 L762.5166 527.658 L763.4987 524.7924 L763.634 521.5869 L762.9227 518.0416 L761.3646 514.1565 L759.6033 510.552 L758.025 506.7101 L757.2532 503.2944 L757.2878 500.305 L758.1288 497.7418 L759.7761 495.6048 L762.2299 493.8941 L765.4901 492.6096 L769.5566 491.7513 L773.5297 491.1779 L781.1674 489.2771 L784.01 487.8688 L786.2017 486.1552 L787.7425 484.1363 L788.6324 481.8122 L788.8715 479.1827 L788.4596 476.248 L787.8043 473.5037 L786.8107 470.6554 L785.3044 468.2851 L783.2856 466.393 L780.754 464.9789 L777.7099 464.0429 L774.1531 463.585 L765.5016 464.1034 L761.2008 464.7587 L756.6936 465.689 L752.8488 467.0051 L749.6664 468.7072 L747.1464 470.7952 L745.2888 473.2691 L744.0936 476.129 L743.5608 479.3747 L743.6904 483.0064 L744.1 486.4061 L744.1576 493.4333 L743.5384 496.4803 L742.4872 499.2163 L741.004 501.6413 L739.0888 503.7552 L733.9624 507.0499 L731.2999 508.2378 L727.0145 510.4842 L726.1505 511.2877 L726.139 511.8781 L728.6734 512.4196 L734.6177 512.1085 L738.0174 511.7808 L741.554 511.1932 L744.5147 510.1676 L746.8994 508.7041 L748.7079 506.8026 L749.9406 504.4631 L750.5972 501.6857 L750.6779 498.4703 L750.1825 494.817 L749.4862 491.3749 L749.1061 487.6899 L749.5323 484.3798 L750.765 481.4445 L752.804 478.884 L755.6494 476.6983 L759.3013 474.8874 L763.7595 473.4513 L769.0242 472.39 L774.0623 471.6131 L779.2837 471.1279 L783.6123 471.4201 L787.0482 472.4897 L789.5912 474.3366 L791.2414 476.961 L791.9988 480.3628 L791.8635 484.542 L790.8353 489.4986 L789.5246 494.2499 L787.5691 499.4771 L784.6516 504.4682 L780.7723 509.2231 L775.931 513.7418 L770.1278 518.0244 L763.3627 522.0707 L755.6356 525.881 L746.9467 529.4551 L702.116 546.3511" clip-path="url(#clipPath2)"/>
      <path fill="none" d="M649.5358 532 L681.0173 532" clip-path="url(#clipPath2)"/>
      <path d="M689.0173 532 L677.0173 527 L680.0173 532 L677.0173 537 Z" clip-path="url(#clipPath2)" stroke="none"/>
      <path fill="none" d="M745 620.0188 L745 628.14 L442 628.14 L442 635.9878" clip-path="url(#clipPath2)"/>
      <path d="M442 643.9878 L447 631.9878 L442 634.9878 L437 631.9878 Z" clip-path="url(#clipPath2)" stroke="none"/>
      <path fill="none" d="M497.9809 731.9933 L530.1317 731.9895" clip-path="url(#clipPath2)"/>
      <path d="M538.1317 731.9886 L526.1312 726.99 L529.1317 731.9896 L526.1323 736.9899 Z" clip-path="url(#clipPath2)" stroke="none"/>
    </g>
  </g>
</svg>
