<svg id="Ebene_1" data-name="Ebene 1" xmlns="http://www.w3.org/2000/svg" viewBox="0 0 38.86 25"><title>sap_useraccounticons</title><path d="M26.36,12.5a6.25,6.25,0,1,0-6.25-6.25A6.25,6.25,0,0,0,26.36,12.5Zm0,3.13c-4.16,0-12.5,2.09-12.5,6.25V25h25V21.88C38.86,17.71,30.53,15.63,26.36,15.63Z" fill="#fff"/><path d="M18.11,6.25a8.21,8.21,0,0,1,.4-2.54H0V6.83H18.16C18.14,6.64,18.11,6.45,18.11,6.25Z" fill="#fff"/><path d="M23.26,13.89A8.27,8.27,0,0,1,20,11.52H0v3.13H19.84A27.69,27.69,0,0,1,23.26,13.89Z" fill="#fff"/><path d="M11.86,21.87a5.18,5.18,0,0,1,.66-2.54H0v3.13H11.86V21.87Z" fill="#fff"/></svg>