<svg xmlns="http://www.w3.org/2000/svg" viewBox="0 0 26 26"><path fill="#008FCC" d="M23.8 2.4h-3.5V.8c0-.4-.4-.8-.8-.8s-.8.4-.8.8v1.6h-4.9V.8c0-.4-.4-.8-.8-.8s-.8.4-.8.8v1.6H7.3V.8c0-.4-.4-.8-.8-.8s-.8.4-.8.8v1.6H2.2C1 2.4 0 3.4 0 4.6v19.2C0 25 1 26 2.2 26h21.7c1.2 0 2.2-1 2.2-2.2V4.6C26 3.4 25 2.4 23.8 2.4zm.6 21.4c0 .3-.2.5-.5.5H2.2c-.3 0-.5-.2-.5-.5V4.6c0-.3.2-.5.5-.5h3.5v1.6c0 .4.4.8.8.8s.8-.4.8-.8V4.1h4.9v1.6c0 .4.4.8.8.8s.8-.4.8-.8V4.1h4.9v1.6c0 .4.4.8.8.8s.8-.4.8-.8V4.1h3.5c.3 0 .5.2.5.5v19.2zM5.7 9.8h3.2v2.4H5.7V9.8zm0 4h3.2v2.4H5.7v-2.4zm0 4.1h3.2v2.4H5.7v-2.4zm5.7 0h3.2v2.4h-3.2v-2.4zm0-4.1h3.2v2.4h-3.2v-2.4zm0-4h3.2v2.4h-3.2V9.8zm5.7 8.1h3.2v2.4h-3.2v-2.4zm0-4.1h3.2v2.4h-3.2v-2.4zm0-4h3.2v2.4h-3.2V9.8z"/></svg>