<?xml version="1.0" encoding="utf-8"?>
<!-- Generator: Adobe Illustrator 18.1.1, SVG Export Plug-In . SVG Version: 6.00 Build 0)  -->
<!DOCTYPE svg PUBLIC "-//W3C//DTD SVG 1.1//EN" "http://www.w3.org/Graphics/SVG/1.1/DTD/svg11.dtd">
<svg version="1.1" id="Ebene_1" xmlns="http://www.w3.org/2000/svg" xmlns:xlink="http://www.w3.org/1999/xlink" x="0px" y="0px"
	 viewBox="0 0 32 30" enable-background="new 0 0 32 30" xml:space="preserve">
<g>
	<g>
		<g>
			<path fill-rule="evenodd" clip-rule="evenodd" fill="#008ECB" d="M5.9,23.9l1.6,2.8h20l3.4-4.2L5.9,23.9z M12.5,21.3L25.1,20
				c0,0-0.9-4.6-3.7-7.8c-3.4-3.9-10.4-9.1-10.4-9.1s3,7.2,3,11.5C13.9,18.1,12.5,21.3,12.5,21.3z"/>
		</g>
	</g>
	<path fill="#008ECB" d="M7,9H2C1.5,9,1,8.6,1,8s0.4-1,1-1h5c0.6,0,1,0.4,1,1S7.6,9,7,9z"/>
	<path fill="#008ECB" d="M9,14H4c-0.6,0-1-0.4-1-1s0.4-1,1-1h5c0.6,0,1,0.4,1,1S9.6,14,9,14z"/>
	<path fill="#008ECB" d="M8,19H3c-0.6,0-1-0.4-1-1s0.4-1,1-1h5c0.6,0,1,0.4,1,1S8.6,19,8,19z"/>
</g>
</svg>
