<?xml version="1.0" encoding="utf-8"?>
<!-- Generator: Adobe Illustrator 16.0.4, SVG Export Plug-In . SVG Version: 6.00 Build 0)  -->
<!DOCTYPE svg PUBLIC "-//W3C//DTD SVG 1.1//EN" "http://www.w3.org/Graphics/SVG/1.1/DTD/svg11.dtd">
<svg version="1.1" id="Ebene_1" xmlns="http://www.w3.org/2000/svg" xmlns:xlink="http://www.w3.org/1999/xlink" x="0px" y="0px"
	 width="841.889px" height="595.281px" viewBox="0 0 841.889 595.281" enable-background="new 0 0 841.889 595.281"
	 xml:space="preserve">
<g>
	<g>
		<g>
			<g>
				<path fill="#008ECB" d="M289.695,245.788c1.984,0,1.984,0,3.97,0c5.952,1.984,9.921,9.921,7.937,15.874
					c-15.874,47.623-3.969,101.198,29.766,134.932c35.717,35.717,87.308,47.622,134.929,31.748
					c5.953-1.984,13.891,1.983,15.875,7.938c1.983,5.952-1.984,13.891-7.938,15.874c-55.559,19.843-119.056,5.952-160.725-37.701
					c-41.67-41.67-55.56-105.166-35.717-162.71C279.773,249.757,283.742,245.788,289.695,245.788z"/>
				<path fill="#008ECB" d="M331.365,259.677c1.983,0,1.983,0,3.969,0c5.953,1.983,9.922,9.922,7.938,15.873
					c-11.905,31.75-3.969,67.467,19.843,91.276c23.812,23.812,57.544,31.749,89.292,19.844c5.951-1.984,13.89,1.983,15.873,7.938
					c1.984,5.952-1.983,13.89-7.938,15.874c-41.668,13.89-85.323,3.969-117.071-25.796c-29.764-29.764-41.67-75.401-25.796-117.071
					C321.443,263.646,325.412,259.677,331.365,259.677z"/>
				<path fill="#008ECB" d="M371.05,275.552c1.984,0,1.984,0,3.969,0c5.953,1.983,9.922,9.922,7.938,15.873
					c-5.953,15.876-1.984,33.733,9.921,45.64c11.906,11.905,29.765,15.874,45.638,9.921c5.954-1.982,13.891,1.984,15.875,7.938
					c1.981,5.953-1.984,13.89-7.938,15.874c-25.795,7.938-51.591,1.983-71.434-15.874c-17.857-17.858-25.795-47.622-15.874-71.435
					C361.129,277.536,367.082,275.552,371.05,275.552z"/>
			</g>
		</g>
	</g>
	<path fill="#008ECB" d="M390.892,166.417c41.67-41.669,130.962-49.605,180.567,0c49.607,49.606,41.671,136.915,0,180.568
		L390.892,166.417z"/>
</g>
</svg>
