<?xml version="1.0" encoding="utf-8"?>
<!-- Generator: Adobe Illustrator 18.1.1, SVG Export Plug-In . SVG Version: 6.00 Build 0)  -->
<svg version="1.1" id="Ebene_1" xmlns="http://www.w3.org/2000/svg" xmlns:xlink="http://www.w3.org/1999/xlink" x="0px" y="0px"
	 viewBox="0 0 20 20" enable-background="new 0 0 20 20" xml:space="preserve">
<g>
	<g>
		<g>
			<g>
				<path fill="#008ECB" d="M18.8,13.1c-0.1,0-0.2,0-0.3,0c-0.4-0.1-0.6-0.6-0.5-1c1-2.8,0.3-6-1.8-8.1C14.1,1.8,11,1.1,8.1,2.1
					C7.8,2.3,7.3,2,7.2,1.6C7,1.3,7.3,0.8,7.7,0.7c3.4-1.2,7.1-0.3,9.6,2.2c2.5,2.5,3.4,6.3,2.2,9.7C19.4,12.9,19.1,13.1,18.8,13.1z
					"/>
				<path fill="#008ECB" d="M16.3,12.2c-0.1,0-0.2,0-0.3,0c-0.4-0.1-0.6-0.6-0.5-1c0.7-1.9,0.2-4-1.2-5.4C13,4.4,10.9,3.9,9,4.6
					C8.6,4.7,8.2,4.5,8,4.1c-0.1-0.4,0.1-0.8,0.5-1c2.5-0.8,5.1-0.2,6.9,1.6c1.8,1.8,2.4,4.5,1.6,7C16.9,12,16.6,12.2,16.3,12.2z"/>
				<path fill="#008ECB" d="M13.9,11.3c-0.1,0-0.2,0-0.3,0c-0.4-0.1-0.6-0.6-0.5-1c0.3-0.9,0.1-2-0.6-2.7C11.8,6.9,10.8,6.7,9.9,7
					C9.5,7.1,9,6.9,8.9,6.5C8.8,6.1,9,5.7,9.4,5.6c1.5-0.5,3.1-0.1,4.2,1c1.1,1.1,1.5,2.8,1,4.3C14.5,11.1,14.2,11.3,13.9,11.3z"/>
			</g>
		</g>
	</g>
	<path fill="#008ECB" d="M12.8,17.8c-2.5,2.5-7.8,3-10.7,0s-2.5-8.2,0-10.7L12.8,17.8z"/>
</g>
</svg>
