<?xml version="1.0" encoding="utf-8"?>
<!-- Generator: Adobe Illustrator 18.1.1, SVG Export Plug-In . SVG Version: 6.00 Build 0)  -->
<!DOCTYPE svg PUBLIC "-//W3C//DTD SVG 1.1//EN" "http://www.w3.org/Graphics/SVG/1.1/DTD/svg11.dtd">
<svg version="1.1" id="Ebene_1" xmlns="http://www.w3.org/2000/svg" xmlns:xlink="http://www.w3.org/1999/xlink" x="0px" y="0px"
	 viewBox="0 0 30 30" enable-background="new 0 0 30 30" xml:space="preserve">
<g>
	<g>
		<g>
			<g>
				<path fill="#008ECB" d="M22.2,17.6c-0.1,0-0.1,0-0.2,0c-0.3-0.1-0.5-0.5-0.4-0.8c0.8-2.4,0.2-5.1-1.5-6.8
					c-1.8-1.8-4.4-2.4-6.8-1.6c-0.3,0.1-0.7-0.1-0.8-0.4c-0.1-0.3,0.1-0.7,0.4-0.8c2.8-1,6-0.3,8.1,1.9c2.1,2.1,2.8,5.3,1.8,8.2
					C22.7,17.4,22.5,17.6,22.2,17.6z"/>
				<path fill="#008ECB" d="M20.1,16.9c-0.1,0-0.1,0-0.2,0c-0.3-0.1-0.5-0.5-0.4-0.8c0.6-1.6,0.2-3.4-1-4.6c-1.2-1.2-2.9-1.6-4.5-1
					c-0.3,0.1-0.7-0.1-0.8-0.4c-0.1-0.3,0.1-0.7,0.4-0.8c2.1-0.7,4.3-0.2,5.9,1.3c1.5,1.5,2.1,3.8,1.3,5.9
					C20.6,16.7,20.4,16.9,20.1,16.9z"/>
				<path fill="#008ECB" d="M18.1,16.1c-0.1,0-0.1,0-0.2,0c-0.3-0.1-0.5-0.5-0.4-0.8c0.3-0.8,0.1-1.7-0.5-2.3
					c-0.6-0.6-1.5-0.8-2.3-0.5c-0.3,0.1-0.7-0.1-0.8-0.4c-0.1-0.3,0.1-0.7,0.4-0.8c1.3-0.4,2.6-0.1,3.6,0.8c0.9,0.9,1.3,2.4,0.8,3.6
					C18.6,16,18.3,16.1,18.1,16.1z"/>
			</g>
		</g>
	</g>
	<path fill="#008ECB" d="M17.1,21.6c-2.1,2.1-6.6,2.5-9.1,0s-2.1-6.9,0-9.1L17.1,21.6z"/>
</g>
</svg>
