<?xml version="1.0" encoding="utf-8"?>
<!-- Generator: Adobe Illustrator 18.1.1, SVG Export Plug-In . SVG Version: 6.00 Build 0)  -->
<svg version="1.1" id="Ebene_1" xmlns="http://www.w3.org/2000/svg" xmlns:xlink="http://www.w3.org/1999/xlink" x="0px" y="0px"
	 viewBox="0 0 26 23" enable-background="new 0 0 26 23" xml:space="preserve">
<path fill="#008ECB" d="M11.4,9.5h-7c-0.5,0-0.9-0.5-0.9-1s0.4-1,0.9-1h7c1.3,0,2.5-1,2.5-2.4s-1.2-2.5-2.5-2.5
	C10.1,2.5,9,3.7,9,5.1c0,0.5-0.4,1-0.9,1S7.1,5.7,7.1,5.2c0-2.5,1.9-4.4,4.3-4.4c2.3,0,4.3,1.9,4.3,4.4S13.8,9.5,11.4,9.5z
	 M25.5,8.2c0-2.4-2-4.4-4.3-4.4c-2.4,0-4.3,2-4.3,4.5c0,0.5,0.4,0.9,0.9,0.9s0.9-0.4,0.9-0.9c0-1.4,1.1-2.6,2.5-2.6
	c1.3,0,2.5,1,2.5,2.4c0,1.4-1.2,2.4-2.5,2.4H1.4c-0.5,0-0.9,0.5-0.9,1s0.4,1,0.9,1h19.7C23.5,12.5,25.5,10.6,25.5,8.2z M20.8,17.9
	c0-2.3-1.9-4.4-4.3-4.4h-12c-0.5,0-0.9,0.5-0.9,1s0.4,1,0.9,1h12c1.4,0,2.5,1.2,2.5,2.5c0,1.3-1,2.4-2.5,2.4c-1.4,0-2.5-1-2.5-2.3
	c0-0.5-0.4-0.9-0.9-0.9s-0.9,0.4-0.9,0.9c0,2.3,1.9,4.1,4.3,4.1C19,22.1,20.8,20.2,20.8,17.9z"/>
</svg>
