<?xml version="1.0" encoding="utf-8"?>
<!-- Generator: Adobe Illustrator 18.1.1, SVG Export Plug-In . SVG Version: 6.00 Build 0)  -->
<!DOCTYPE svg PUBLIC "-//W3C//DTD SVG 1.1//EN" "http://www.w3.org/Graphics/SVG/1.1/DTD/svg11.dtd">
<svg version="1.1" id="Ebene_1" xmlns="http://www.w3.org/2000/svg" xmlns:xlink="http://www.w3.org/1999/xlink" x="0px" y="0px"
	 viewBox="0 0 30 30" enable-background="new 0 0 30 30" xml:space="preserve">
<path fill="#008ECB" d="M13.3,13H6.4c-0.5,0-0.9-0.5-0.9-1s0.4-1,0.9-1h6.9c1.3,0,2.5-1.2,2.5-2.6s-1.1-2.6-2.5-2.6
	c-1.3,0-2.5,1.2-2.5,2.6c0,0.5-0.4,0.9-0.9,0.9c-0.5,0-0.9-0.4-0.9-0.9c0-2.4,1.9-4.4,4.3-4.4c2.3,0,4.3,2.1,4.3,4.5
	S15.7,13,13.3,13z M27.3,11.5c0-2.4-2-4.5-4.3-4.5c-2.4,0-4.3,2-4.3,4.4c0,0.5,0.4,0.9,0.9,0.9c0.5,0,0.9-0.4,0.9-0.9
	c0-1.4,1.1-2.6,2.4-2.6c1.3,0,2.5,1.2,2.5,2.6c0,1.4-1.2,2.6-2.5,2.6H3.4c-0.5,0-0.9,0.5-0.9,1s0.4,1,0.9,1H23
	C25.3,16,27.3,13.9,27.3,11.5z M22.7,21.2c0-2.3-1.9-4.2-4.3-4.2H6.4c-0.5,0-0.9,0.5-0.9,1s0.4,1,0.9,1h11.9c1.4,0,2.5,0.9,2.5,2.2
	c0,1.3-1,2.2-2.5,2.2c-1.4,0-2.5-1-2.5-2.3c0-0.5-0.4-0.9-0.9-0.9s-0.9,0.4-0.9,0.9c0,2.3,1.9,4.1,4.3,4.1
	C20.8,25.3,22.7,23.5,22.7,21.2z"/>
</svg>
