<svg width="32" height="32" xmlns="http://www.w3.org/2000/svg">
 <g>
  <title>Refresh</title>
  <g>
   <path fill="#ffffff" id="svg_2" d="m17.81253,11.31248c-0.3,0 -0.5,-0.1 -0.7,-0.3l-4,-4c-0.4,-0.4 -0.4,-1 0,-1.4l4,-4c0.4,-0.4 1,-0.4 1.4,0s0.4,1 0,1.4l-3.3,3.3l3.3,3.3c0.4,0.4 0.4,1 0,1.4c-0.2,0.2 -0.4,0.3 -0.7,0.3z"/>
  </g>
  <g id="svg_3">
   <path fill="#ffffff" id="svg_4" d="m17.125,29.0625c-6.6,0 -12,-5.4 -12,-12c0,-3 1.1,-5.9 3.2,-8.1c0.4,-0.4 1,-0.4 1.4,-0.1c0.4,0.4 0.4,1 0.1,1.4c-1.8,1.9 -2.7,4.3 -2.7,6.8c0,5.5 4.5,10 10,10s10,-4.5 10,-10s-4.5,-10 -10,-10l-1,0c-0.6,0 -1,-0.4 -1,-1s0.4,-1 1,-1l1,0c6.6,0 12,5.4 12,12s-5.4,12 -12,12z"/>
  </g>
 </g>
</svg>
