<?xml version="1.0" encoding="UTF-8" standalone="no"?>
<!-- Generator: Adobe Illustrator 19.1.0, SVG Export Plug-In . SVG Version: 6.00 Build 0)  -->

<svg
   xmlns:dc="http://purl.org/dc/elements/1.1/"
   xmlns:cc="http://creativecommons.org/ns#"
   xmlns:rdf="http://www.w3.org/1999/02/22-rdf-syntax-ns#"
   xmlns:svg="http://www.w3.org/2000/svg"
   xmlns="http://www.w3.org/2000/svg"
   xmlns:sodipodi="http://sodipodi.sourceforge.net/DTD/sodipodi-0.dtd"
   xmlns:inkscape="http://www.inkscape.org/namespaces/inkscape"
   version="1.1"
   id="Ebene_1"
   x="0px"
   y="0px"
   viewBox="0 0 30 30"
   style="enable-background:new 0 0 30 30;"
   xml:space="preserve"
   inkscape:version="0.91 r13725"
   sodipodi:docname="reload.svg"><metadata
     id="metadata3369"><rdf:RDF><cc:Work
         rdf:about=""><dc:format>image/svg+xml</dc:format><dc:type
           rdf:resource="http://purl.org/dc/dcmitype/StillImage" /></cc:Work></rdf:RDF></metadata><defs
     id="defs3367" /><sodipodi:namedview
     pagecolor="#ffffff"
     bordercolor="#666666"
     borderopacity="1"
     objecttolerance="10"
     gridtolerance="10"
     guidetolerance="10"
     inkscape:pageopacity="0"
     inkscape:pageshadow="2"
     inkscape:window-width="944"
     inkscape:window-height="1042"
     id="namedview3365"
     showgrid="false"
     inkscape:zoom="25"
     inkscape:cx="15"
     inkscape:cy="15"
     inkscape:window-x="1600"
     inkscape:window-y="0"
     inkscape:window-maximized="0"
     inkscape:current-layer="g3359"
     inkscape:snap-grids="false" /><style
     type="text/css"
     id="style3357">
	.st0{fill:#FFFFFF;}
</style><g
     id="g3359"
     transform="matrix(1.0121457,0,0,1.0121457,-0.66265173,-0.30364294)"><g
       id="g3361"
       transform="matrix(1.2000001,0,0,1.2000001,-3.0653002,-2.900502)"><path
         class="st0"
         d="m 21.4,19.2 c -1.3,1.8 -3.5,3 -5.9,3 -4,0 -7.2,-3.2 -7.2,-7.2 l 2.4,0 -3.8,-3.7 -3.8,3.7 2.4,0 c 0,5.5 4.5,10 10,10 3.2,0 6,-1.5 7.9,-3.8 l -0.8,-0.8 -1.2,-1.2 z m 4.9,-4.1 0,0 -0.8,0 c 0,0 0,0 0,0 0,0 0,0 0,-0.1 C 25.5,9.5 21,5 15.5,5 12.3,5 9.4,6.5 7.6,8.9 l 0.9,0.8 1.1,1.1 c 1.3,-1.9 3.5,-3.1 5.9,-3.1 4,0 7.2,3.2 7.2,7.2 0,0 0,0 0,0.1 0,0 0,0 0,0 l -0.9,0 0,0 -1.5,0 3.8,3.7 3.7,-3.7 -1.5,0 z"
         id="path3363"
         inkscape:connector-curvature="0"
         style="fill:#ffffff" /></g></g></svg>