<svg width="438.529" height="438.529" xmlns="http://www.w3.org/2000/svg" fill="white">
 <g>
  <title>Trash</title>
  <g id="svg_1">
   <path id="svg_2" d="m416.80762,76.1086c-1.711,-1.709 -3.901,-2.568 -6.563,-2.568l-88.224,0l-19.98501,-47.676c-2.854,-7.044 -7.994,-13.04 -15.413,-17.989c-7.42599,-4.948 -14.94799,-7.42099 -22.55898,-7.42099l-91.363,0c-7.611,0 -15.131,2.473 -22.554,7.421c-7.424,4.949 -12.563,10.944 -15.419,17.989l-19.985,47.676l-88.22,0c-2.667,0 -4.853,0.859 -6.567,2.568c-1.709,1.713 -2.568,3.903 -2.568,6.567l0,18.274c0,2.664 0.855,4.854 2.568,6.564c1.714,1.712 3.904,2.568 6.567,2.568l27.406,0l0,271.8c0,15.803 4.473,29.266 13.418,40.398c8.947,11.139 19.701,16.703 32.264,16.703l237.542,0c12.566,0 23.319,-5.756 32.265,-17.268c8.945,-11.52 13.415,-25.174 13.415,-40.971l0,-270.66201l27.411,0c2.662,0 4.853,-0.856 6.563,-2.568c1.708,-1.709 2.57,-3.9 2.57,-6.564l0,-18.27399c0.002,-2.66401 -0.861,-4.85401 -2.56901,-6.56701m-248.388,-35.97599c1.331,-1.712 2.95,-2.762 4.853,-3.14l90.504,0c1.903,0.381 3.525,1.43 4.854,3.14l13.709,33.404l-127.90999,0l13.98999,-33.404m177.87201,340.613c0,4.18599 -0.664,8.04199 -1.999,11.56099c-1.334,3.518 -2.717,6.08801 -4.141,7.70601c-1.431,1.622 -2.423,2.427 -2.998,2.427l-237.54201,0c-0.571,0 -1.565,-0.805 -2.996,-2.427c-1.429,-1.618 -2.81,-4.188 -4.143,-7.70601c-1.331,-3.519 -1.997,-7.379 -1.997,-11.56099l0,-270.66401l255.815,0l0,270.66401"/>
   <path id="svg_3" d="m142.61861,346.11084l18.271,0c2.667,0 4.858,-0.855 6.567,-2.567c1.709,-1.718 2.568,-3.901 2.568,-6.57l0,-164.45393c0,-2.663 -0.859,-4.853 -2.568,-6.567c-1.714,-1.709 -3.899,-2.565 -6.567,-2.565l-18.271,0c-2.667,0 -4.854,0.855 -6.567,2.565c-1.711,1.714 -2.568,3.904 -2.568,6.567l0,164.454c0,2.669 0.854,4.853 2.568,6.57c1.71301,1.71097 3.9,2.56693 6.567,2.56693"/>
   <path id="svg_4" d="m213.87694,345.94452l18.271,0c2.666,0 4.856,-0.855 6.564,-2.567c1.718,-1.718 2.569,-3.901 2.569,-6.57l0,-164.45379c0,-2.663 -0.852,-4.853 -2.569,-6.567c-1.708,-1.709 -3.898,-2.565 -6.564,-2.565l-18.271,0c-2.664,0 -4.854,0.855 -6.567,2.565c-1.714,1.714 -2.568,3.904 -2.568,6.567l0,164.454c0,2.669 0.854,4.853 2.568,6.57c1.712,1.71077 3.903,2.56679 6.567,2.56679"/>
   <path id="svg_5" d="m281.10886,345.63275l18.268,0c2.669,0 4.859,-0.855 6.57,-2.567c1.711,-1.718 2.562,-3.901 2.562,-6.57l0,-164.454c0,-2.663 -0.852,-4.853 -2.562,-6.567c-1.711,-1.709 -3.901,-2.565 -6.57,-2.565l-18.268,0c-2.67,0 -4.853,0.855 -6.571,2.565c-1.711,1.714 -2.566,3.904 -2.566,6.567l0,164.454c0,2.669 0.855,4.853 2.566,6.57c1.718,1.71104 3.90098,2.567 6.571,2.567"/>
  </g>
 </g>
</svg>
