<?xml version="1.0" encoding="UTF-8" standalone="no"?>
<!-- Created with Inkscape (http://www.inkscape.org/) -->

<svg
   xmlns:dc="http://purl.org/dc/elements/1.1/"
   xmlns:cc="http://creativecommons.org/ns#"
   xmlns:rdf="http://www.w3.org/1999/02/22-rdf-syntax-ns#"
   xmlns:svg="http://www.w3.org/2000/svg"
   xmlns="http://www.w3.org/2000/svg"
   xmlns:sodipodi="http://sodipodi.sourceforge.net/DTD/sodipodi-0.dtd"
   xmlns:inkscape="http://www.inkscape.org/namespaces/inkscape"
   width="660"
   height="300"
   id="svg2"
   version="1.1"
   inkscape:version="0.48.2 r9819"
   sodipodi:docname="49er_Sails2.svg">
  <defs
     id="defs4" />
  <sodipodi:namedview
     id="base"
     pagecolor="#ffffff"
     bordercolor="#666666"
     borderopacity="1.0"
     inkscape:pageopacity="0.0"
     inkscape:pageshadow="2"
     inkscape:zoom="1.98"
     inkscape:cx="403"
     inkscape:cy="145"
     inkscape:document-units="px"
     inkscape:current-layer="svg2"
     showgrid="false"
     inkscape:window-width="1920"
     inkscape:window-height="1005"
     inkscape:window-x="-9"
     inkscape:window-y="-9"
     inkscape:window-maximized="1">
    <inkscape:grid
       type="xygrid"
       id="grid2985"
       units="mm"
       empspacing="5"
       visible="true"
       enabled="true"
       snapvisiblegridlinesonly="true" />
  </sodipodi:namedview>
  <metadata
     id="metadata7">
    <rdf:RDF>
      <cc:Work
         rdf:about="">
        <dc:format>image/svg+xml</dc:format>
        <dc:type
           rdf:resource="http://purl.org/dc/dcmitype/StillImage" />
        <dc:title />
      </cc:Work>
    </rdf:RDF>
  </metadata>
  <path
     style="fill:none;stroke:#000000;stroke-width:3.001;stroke-linecap:butt;stroke-linejoin:round;stroke-miterlimit:4;stroke-opacity:1;stroke-dasharray:none"
     d="m 2.04,2.47 229.96,0 3,34.03 4,32 c 0,0 57,12.9 86,20 38,9.5 114,30.5 114,30.5 l 60,18 0,14 c 0,0 -51,18 -77,26 -31,9 -62,18 -94,25 -29,7 -89,17 -89,17 l -5,39 -4,30 -227.96,0 c 0,0 25.86,-6 40.46,-22 9.2,-11 13.7,-56 13.7,-56 l -25.9,-18 0,-98.5 25.9,-17 c 0,0 -2.3,-39 -11.2,-52 C 34.9,9.5 2.04,2.47 2.04,2.47 z"
     id="path3818"
     inkscape:connector-curvature="0"
     sodipodi:nodetypes="ccccscccaaccccsccccsc" />
  <path
     style="fill:none;stroke:#000000;stroke-width:3;stroke-linecap:butt;stroke-linejoin:miter;stroke-miterlimit:4;stroke-opacity:1;stroke-dasharray:none"
     d="M 65.1,220 224,220"
     id="path3822"
     inkscape:connector-curvature="0" />
  <path
     style="fill:none;stroke:#000000;stroke-width:3;stroke-linecap:butt;stroke-linejoin:miter;stroke-miterlimit:4;stroke-opacity:1;stroke-dasharray:none"
     d="m 66.7,68.5 159.3,0"
     id="path3822-1"
     inkscape:connector-curvature="0" />
  <path
     style="fill:#00fcff;fill-opacity:1;stroke:none"
     d="m 59.6,98 32.8,-27.8 146.6,0 59,13.7 c 0,0 -21,37.1 -21,58.1 0,23 22,65 22,65 l -61,11 -146.1,0 -32.3,-28 z"
     id="path2996"
     inkscape:connector-curvature="0"
     sodipodi:nodetypes="ccccaccccc" />
  <path
     sodipodi:nodetypes="cczc"
     inkscape:connector-curvature="0"
     id="path5403-3"
     d="m 496,148 -212,35 c 0,0 143,24 173,6 32,-17 39,-41 39,-41 z"
     style="fill:#ff0000;fill-opacity:1;stroke:#000000;stroke-width:3;stroke-linecap:butt;stroke-linejoin:miter;stroke-miterlimit:4;stroke-opacity:1;stroke-dasharray:none"
     inkscape:transform-center-x="106"
     inkscape:transform-center-y="25.4" />
  <path
     inkscape:transform-center-y="29.6"
     inkscape:transform-center-x="129"
     sodipodi:nodetypes="cczc"
     inkscape:connector-curvature="0"
     id="path5403"
     d="M 275,149 23.2,191 c 0,0 168.8,27 206.8,7 39,-22 45,-49 45,-49 z"
     style="fill:#ff0000;fill-opacity:1;stroke:#000000;stroke-width:3;stroke-linecap:butt;stroke-linejoin:miter;stroke-miterlimit:4;stroke-opacity:1;stroke-dasharray:none" />
  <path
     sodipodi:nodetypes="cczc"
     inkscape:connector-curvature="0"
     id="path5403-3-1"
     d="M 499,148 286,250 c 0,0 158,-19 186,-48 27,-26 27,-54 27,-54 z"
     style="fill:#0000ff;fill-opacity:1;stroke:#000000;stroke-width:3;stroke-linecap:round;stroke-linejoin:miter;stroke-miterlimit:4;stroke-opacity:1;stroke-dasharray:none"
     inkscape:transform-center-x="108"
     inkscape:transform-center-y="51.5" />
  <path
     style="fill:none;stroke:#000000;stroke-width:2.714;stroke-linecap:round;stroke-linejoin:round;stroke-miterlimit:4;stroke-opacity:1;stroke-dasharray:none"
     d="M 314,304 178,257 178,40.2"
     id="path3886"
     inkscape:connector-curvature="0"
     sodipodi:nodetypes="ccc" />
  <path
     inkscape:transform-center-y="368"
     inkscape:transform-center-x="617"
     sodipodi:nodetypes="cczc"
     inkscape:connector-curvature="0"
     id="path5403-7"
     d="M 275,150 44.8,285 c 0,0 172.2,-37 203.2,-71 29,-34 27,-64 27,-64 z"
     style="fill:#0000ff;fill-opacity:1;stroke:#000000;stroke-width:3;stroke-linecap:butt;stroke-linejoin:miter;stroke-miterlimit:4;stroke-opacity:1;stroke-dasharray:none" />
  <path
     style="fill:#0000ff;fill-opacity:1;stroke:#000000;stroke-width:3;stroke-linecap:round;stroke-linejoin:round;stroke-miterlimit:4;stroke-opacity:1;stroke-dasharray:none"
     d="M 655,148 316,304 c 0,0 193,32 248,-4 63,-38 91,-152 91,-152 z"
     id="path3116"
     inkscape:connector-curvature="0"
     sodipodi:nodetypes="cczc" />
  <path
     style="fill:none;stroke:#000000;stroke-width:1px;stroke-linecap:butt;stroke-linejoin:miter;stroke-opacity:1"
     d="m 34.6,147 620.4,0 -54,0"
     id="path3801"
     inkscape:connector-curvature="0" />
  <path
     sodipodi:nodetypes="cczc"
     inkscape:connector-curvature="0"
     id="path5403-3-17"
     d="M 496,147 284,112 c 0,0 143,-23.6 173,-6 32,17 39,41 39,41 z"
     style="fill:#ff0000;fill-opacity:1;stroke:#000000;stroke-width:3;stroke-linecap:butt;stroke-linejoin:miter;stroke-miterlimit:4;stroke-opacity:1;stroke-dasharray:none"
     inkscape:transform-center-x="106"
     inkscape:transform-center-y="-25.8" />
  <path
     inkscape:transform-center-y="-30"
     inkscape:transform-center-x="129"
     sodipodi:nodetypes="cczc"
     inkscape:connector-curvature="0"
     id="path5403-4"
     d="M 275,146 23.3,104 c 0,0 168.7,-26.6 206.7,-6.6 39,21.6 45,48.6 45,48.6 z"
     style="fill:#ff0000;fill-opacity:1;stroke:#000000;stroke-width:3;stroke-linecap:butt;stroke-linejoin:miter;stroke-miterlimit:4;stroke-opacity:1;stroke-dasharray:none" />
  <path
     sodipodi:nodetypes="cczc"
     inkscape:connector-curvature="0"
     id="path5403-3-1-0"
     d="M 499,146 286,43.5 c 0,0 158,18.9 186,48.1 27,26.4 27,54.4 27,54.4 z"
     style="fill:#0000ff;fill-opacity:1;stroke:#000000;stroke-width:3;stroke-linecap:round;stroke-linejoin:miter;stroke-miterlimit:4;stroke-opacity:1;stroke-dasharray:none"
     inkscape:transform-center-x="108"
     inkscape:transform-center-y="-51.5" />
  <path
     style="fill:none;stroke:#000000;stroke-width:2.714;stroke-linecap:round;stroke-linejoin:round;stroke-miterlimit:4;stroke-opacity:1;stroke-dasharray:none"
     d="m 316,-10.5 -136,47 0,216.5"
     id="path3886-9"
     inkscape:connector-curvature="0"
     sodipodi:nodetypes="ccc" />
  <path
     inkscape:transform-center-y="-368"
     inkscape:transform-center-x="617"
     sodipodi:nodetypes="cczc"
     inkscape:connector-curvature="0"
     id="path5403-7-4"
     d="M 275,144 43.8,8.4 c 0,0 173.2,37.1 204.2,71.1 29,34.5 27,64.5 27,64.5 z"
     style="fill:#0000ff;fill-opacity:1;stroke:#000000;stroke-width:3;stroke-linecap:butt;stroke-linejoin:miter;stroke-miterlimit:4;stroke-opacity:1;stroke-dasharray:none" />
  <path
     style="fill:#0000ff;fill-opacity:1;stroke:#000000;stroke-width:3;stroke-linecap:round;stroke-linejoin:round;stroke-miterlimit:4;stroke-opacity:1;stroke-dasharray:none"
     d="M 655,146 316,-10.5 c 0,0 193,-31.6 248,4.01 C 627,31.5 655,146 655,146 z"
     id="path3116-8"
     inkscape:connector-curvature="0"
     sodipodi:nodetypes="cczc" />
</svg>
