<?xml version="1.0" encoding="UTF-8" standalone="no"?>
<!-- Created with Inkscape (http://www.inkscape.org/) -->

<svg
   xmlns:dc="http://purl.org/dc/elements/1.1/"
   xmlns:cc="http://creativecommons.org/ns#"
   xmlns:rdf="http://www.w3.org/1999/02/22-rdf-syntax-ns#"
   xmlns:svg="http://www.w3.org/2000/svg"
   xmlns="http://www.w3.org/2000/svg"
   xmlns:sodipodi="http://sodipodi.sourceforge.net/DTD/sodipodi-0.dtd"
   xmlns:inkscape="http://www.inkscape.org/namespaces/inkscape"
   width="500"
   height="300"
   id="svg2"
   version="1.1"
   inkscape:version="0.48.2 r9819"
   sodipodi:docname="49er_Core.svg">
  <defs
     id="defs4" />
  <sodipodi:namedview
     id="base"
     pagecolor="#ffffff"
     bordercolor="#666666"
     borderopacity="1.0"
     inkscape:pageopacity="0.0"
     inkscape:pageshadow="2"
     inkscape:zoom="1.98"
     inkscape:cx="17.3"
     inkscape:cy="191"
     inkscape:document-units="px"
     inkscape:current-layer="svg2"
     showgrid="false"
     inkscape:window-width="1920"
     inkscape:window-height="1005"
     inkscape:window-x="-9"
     inkscape:window-y="-9"
     inkscape:window-maximized="1">
    <inkscape:grid
       type="xygrid"
       id="grid2985"
       units="mm"
       empspacing="5"
       visible="true"
       enabled="true"
       snapvisiblegridlinesonly="true" />
  </sodipodi:namedview>
  <metadata
     id="metadata7">
    <rdf:RDF>
      <cc:Work
         rdf:about="">
        <dc:format>image/svg+xml</dc:format>
        <dc:type
           rdf:resource="http://purl.org/dc/dcmitype/StillImage" />
        <dc:title />
      </cc:Work>
    </rdf:RDF>
  </metadata>
  <path
     style="fill:none;stroke:#000000;stroke-width:3.001;stroke-linecap:butt;stroke-linejoin:round;stroke-miterlimit:4;stroke-opacity:1;stroke-dasharray:none"
     d="m 2.04,2.47 229.96,0 3,34.03 4,32 c 0,0 57,12.9 86,20 38,9.5 114,30.5 114,30.5 l 60,18 0,14 c 0,0 -51,18 -77,26 -31,9 -62,18 -94,25 -29,7 -89,17 -89,17 l -5,39 -4,30 -227.96,0 c 0,0 25.86,-6 40.46,-22 9.2,-11 13.7,-56 13.7,-56 l -25.9,-18 0,-98.5 25.9,-17 c 0,0 -2.3,-39 -11.2,-52 C 34.9,9.5 2.04,2.47 2.04,2.47 z"
     id="path3818"
     inkscape:connector-curvature="0"
     sodipodi:nodetypes="ccccscccaaccccsccccsc" />
  <path
     style="fill:none;stroke:#000000;stroke-width:3;stroke-linecap:butt;stroke-linejoin:miter;stroke-miterlimit:4;stroke-opacity:1;stroke-dasharray:none"
     d="M 65.1,220 224,220"
     id="path3822"
     inkscape:connector-curvature="0" />
  <path
     style="fill:none;stroke:#000000;stroke-width:3;stroke-linecap:butt;stroke-linejoin:miter;stroke-miterlimit:4;stroke-opacity:1;stroke-dasharray:none"
     d="m 66.7,68.5 159.3,0"
     id="path3822-1"
     inkscape:connector-curvature="0" />
  <path
     style="fill:#00fcff;stroke:none;stroke-width:1px;stroke-linecap:butt;stroke-linejoin:miter;stroke-opacity:1;fill-opacity:1"
     d="m 59.6,98 32.8,-27.8 146.6,0 59,13.7 c 0,0 -21,37.1 -21,58.1 0,23 22,65 22,65 l -61,11 -146.1,0 -32.3,-28 z"
     id="path2996"
     inkscape:connector-curvature="0"
     sodipodi:nodetypes="ccccaccccc" />
</svg>
