<?xml version="1.0" encoding="UTF-8" standalone="no"?>
<!-- Created with Inkscape (http://www.inkscape.org/) -->

<svg
   xmlns:dc="http://purl.org/dc/elements/1.1/"
   xmlns:cc="http://creativecommons.org/ns#"
   xmlns:rdf="http://www.w3.org/1999/02/22-rdf-syntax-ns#"
   xmlns:svg="http://www.w3.org/2000/svg"
   xmlns="http://www.w3.org/2000/svg"
   xmlns:sodipodi="http://sodipodi.sourceforge.net/DTD/sodipodi-0.dtd"
   xmlns:inkscape="http://www.inkscape.org/namespaces/inkscape"
   width="530"
   height="220"
   viewBox="0 0 530 220"
   id="svg4701"
   version="1.1"
   inkscape:version="0.91 r13725"
   sodipodi:docname="DinghyWithSpinnaker.svg">
  <defs
     id="defs4703" />
  <sodipodi:namedview
     id="base"
     pagecolor="#ffffff"
     bordercolor="#666666"
     borderopacity="1.0"
     inkscape:pageopacity="0.0"
     inkscape:pageshadow="2"
     inkscape:zoom="1"
     inkscape:cx="82"
     inkscape:cy="126"
     inkscape:document-units="px"
     inkscape:current-layer="layer1"
     showgrid="false"
     units="px"
     inkscape:window-width="1422"
     inkscape:window-height="820"
     inkscape:window-x="3"
     inkscape:window-y="0"
     inkscape:window-maximized="0" />
  <metadata
     id="metadata4706">
    <rdf:RDF>
      <cc:Work
         rdf:about="">
        <dc:format>image/svg+xml</dc:format>
        <dc:type
           rdf:resource="http://purl.org/dc/dcmitype/StillImage" />
        <dc:title />
      </cc:Work>
    </rdf:RDF>
  </metadata>
  <g
     inkscape:label="Layer 1"
     inkscape:groupmode="layer"
     id="layer1"
     transform="translate(0,-823)">
    <rect
       style="fill:#cccccc;fill-opacity:1;stroke:#000000;stroke-opacity:1"
       id="rect5423"
       width="17"
       height="10"
       x="308.42856"
       y="932"
       ry="2" />
    <path
       style="fill:none;fill-rule:evenodd;stroke:#000000;stroke-width:8;stroke-linecap:round;stroke-linejoin:miter;stroke-miterlimit:4;stroke-dasharray:none;stroke-opacity:1"
       d="m 304.42857,936.99996 -258,14"
       id="path5429"
       inkscape:connector-curvature="0" />
    <path
       inkscape:connector-curvature="0"
       id="path5453"
       d="m 305.42857,936.99996 -259,-15"
       style="fill:none;fill-rule:evenodd;stroke:#020202;stroke-width:8;stroke-linecap:round;stroke-linejoin:miter;stroke-miterlimit:4;stroke-dasharray:none;stroke-opacity:1" />
    <path
       style="fill:#b3b3b3;fill-rule:evenodd;stroke:#000000;stroke-width:1px;stroke-linecap:butt;stroke-linejoin:miter;stroke-opacity:1"
       d="m 309.42857,939.99996 c -25,26 -37,52 -85,51 -36,4 -126,-25 -180,-37 z"
       id="path5457"
       inkscape:connector-curvature="0"
       sodipodi:nodetypes="cccc" />
    <path
       inkscape:connector-curvature="0"
       id="path5486"
       d="M 489.44644,1119.9788 327.4107,940.02111"
       style="fill:none;fill-rule:evenodd;stroke:#000000;stroke-width:6.2930603;stroke-linecap:square;stroke-linejoin:miter;stroke-miterlimit:4;stroke-dasharray:none;stroke-opacity:1" />
    <path
       sodipodi:nodetypes="cccc"
       inkscape:connector-curvature="0"
       id="path4208"
       d="M 308,933 C 276,900 260,882 219,882 172,881 90.4,906 43.4,918 Z"
       style="fill:#b3b3b3;fill-rule:evenodd;stroke:#000000;stroke-width:1px;stroke-linecap:butt;stroke-linejoin:miter;stroke-opacity:1" />
    <path
       style="fill:none;fill-rule:evenodd;stroke:#020202;stroke-width:7.84078741;stroke-linecap:round;stroke-linejoin:miter;stroke-miterlimit:4;stroke-dasharray:none;stroke-opacity:1"
       d="M 302.80389,933.12438 173.05327,732.44697"
       id="path4210"
       inkscape:connector-curvature="0" />
    <path
       inkscape:connector-curvature="0"
       id="path4212"
       d="M 303.89922,935.5301 176.81505,1133.4699"
       style="fill:none;fill-rule:evenodd;stroke:#000000;stroke-width:7.55966282;stroke-linecap:round;stroke-linejoin:miter;stroke-miterlimit:4;stroke-dasharray:none;stroke-opacity:1" />
    <path
       style="fill:#b3b3b3;fill-rule:evenodd;stroke:#000000;stroke-width:0.99152732px;stroke-linecap:butt;stroke-linejoin:miter;stroke-opacity:1"
       d="m 308.21838,933.17535 c 8.38672,-35.20174 21.487,-74.17678 -11.49481,-133.79913 -37.20502,-49.92862 -85.61012,-62.08737 -122.39416,-69.47058 z"
       id="path4214"
       inkscape:connector-curvature="0"
       sodipodi:nodetypes="cccc" />
    <path
       sodipodi:nodetypes="cccc"
       inkscape:connector-curvature="0"
       id="path4216"
       d="M 307.81752,937.22012 C 327.345,973.93511 320.56174,1038 293.42062,1072.3229 c 1.73553,3.4711 -68.72338,68.1185 -112.63923,61.6739 z"
       style="fill:#b3b3b3;fill-rule:evenodd;stroke:#000000;stroke-width:0.94374472px;stroke-linecap:butt;stroke-linejoin:miter;stroke-opacity:1" />
    <path
       style="fill:none;fill-rule:evenodd;stroke:#000000;stroke-width:1px;stroke-linecap:butt;stroke-linejoin:miter;stroke-opacity:1"
       d="M 7,871 C 203.08186,821.33557 387.86061,795.01762 518,938 398.86654,1076.7397 202.1551,1045.3186 9,1000 Z"
       id="path3410"
       inkscape:connector-curvature="0"
       sodipodi:nodetypes="cccc" />
    <path
       style="fill:none;fill-rule:evenodd;stroke:#000000;stroke-width:1px;stroke-linecap:butt;stroke-linejoin:miter;stroke-opacity:1"
       d="m 15,970 -1,-71 c 90,-18.90824 180,-25.71954 270,-26 l 26,65 -21,62 c -88.86341,4.8195 -179.80914,-2.85485 -274,-30 z"
       id="path3414"
       inkscape:connector-curvature="0"
       sodipodi:nodetypes="cccccc" />
    <path
       style="fill:#b3b3b3;fill-rule:evenodd;stroke:#000000;stroke-width:1.09211671px;stroke-linecap:butt;stroke-linejoin:miter;stroke-opacity:1"
       d="m 483.38386,939.9212 c 10.01767,-55.4152 -22.97158,-81.7461 -41.95621,-97.1686 -28.97849,-16.4225 -96.9712,-17.2393 -152.9543,17.3944 51.17612,-3.1356 157.63099,-38.8646 194.91051,79.7742 z"
       id="path3418"
       inkscape:connector-curvature="0"
       sodipodi:nodetypes="cccc" />
    <path
       style="fill:none;fill-rule:evenodd;stroke:#000000;stroke-width:6.17779255;stroke-linecap:square;stroke-linejoin:miter;stroke-miterlimit:4;stroke-dasharray:none;stroke-opacity:1"
       d="M 327.08094,930.88705 488.7762,755.11286 Z"
       id="path4222"
       inkscape:connector-curvature="0" />
    <path
       style="fill:none;fill-rule:evenodd;stroke:#000000;stroke-width:1px;stroke-linecap:butt;stroke-linejoin:miter;stroke-opacity:1"
       d="m 491,756 c -24.40933,87.59728 -79.25741,147.40265 -165,179 52.86232,76.5883 66.18243,156.7713 2,244 233.60771,-64.5096 328.52336,-188.19448 163,-423 z"
       id="path4226"
       inkscape:connector-curvature="0"
       sodipodi:nodetypes="cccc" />
    <path
       sodipodi:nodetypes="cccc"
       inkscape:connector-curvature="0"
       id="path4228"
       d="M 489.77217,1118.8474 C 465.78351,1029.7929 411.8807,968.99104 327.61588,936.86809 c 51.95125,-77.86286 65.0418,-159.38011 1.96553,-248.0607 229.58159,65.58346 322.86142,191.32672 160.19076,430.04001 z"
       style="fill:none;fill-rule:evenodd;stroke:#000000;stroke-width:0.9995597px;stroke-linecap:butt;stroke-linejoin:miter;stroke-opacity:1" />
    <path
       sodipodi:nodetypes="cccc"
       inkscape:connector-curvature="0"
       id="path4230"
       d="m 483.39385,940.24997 c 10.01871,52.50858 -22.97396,77.45843 -41.96056,92.07193 -28.98149,15.5611 -96.98125,16.3351 -152.97015,-16.482 51.18143,2.9711 157.64733,36.8261 194.93071,-75.58993 z"
       style="fill:#b3b3b3;fill-rule:evenodd;stroke:#000000;stroke-width:1.06314433px;stroke-linecap:butt;stroke-linejoin:miter;stroke-opacity:1" />
    <path
       style="fill:none;fill-rule:evenodd;stroke:#000000;stroke-width:1px;stroke-linecap:butt;stroke-linejoin:miter;stroke-opacity:1"
       d="m 331,936 151,4 c -53.74421,-59.49766 -123.68924,-75.34213 -190,-80 17.42057,19.09774 37.05764,43.69536 39,76 z"
       id="path3352"
       inkscape:connector-curvature="0"
       sodipodi:nodetypes="cccc" />
    <path
       style="fill:none;fill-rule:evenodd;stroke:#000000;stroke-width:1px;stroke-linecap:butt;stroke-linejoin:miter;stroke-opacity:1"
       d="m 329,939 153,0 c -50.7967,53.12409 -116.97122,71.6481 -189,77 15.37324,-24.22079 37.90565,-45.37389 36,-77 z"
       id="path3354"
       inkscape:connector-curvature="0"
       sodipodi:nodetypes="cccc" />
  </g>
</svg>
