<?xml version="1.0" encoding="UTF-8" standalone="no"?>
<!-- Created with Inkscape (http://www.inkscape.org/) -->

<svg
   xmlns:dc="http://purl.org/dc/elements/1.1/"
   xmlns:cc="http://creativecommons.org/ns#"
   xmlns:rdf="http://www.w3.org/1999/02/22-rdf-syntax-ns#"
   xmlns:svg="http://www.w3.org/2000/svg"
   xmlns="http://www.w3.org/2000/svg"
   xmlns:sodipodi="http://sodipodi.sourceforge.net/DTD/sodipodi-0.dtd"
   xmlns:inkscape="http://www.inkscape.org/namespaces/inkscape"
   width="1600"
   height="1600"
   id="svg4158"
   version="1.1"
   inkscape:version="0.48.2 r9819"
   sodipodi:docname="extreme40_sails.svg">
  <defs
     id="defs4160" />
  <sodipodi:namedview
     id="base"
     pagecolor="#ffffff"
     bordercolor="#666666"
     borderopacity="1.0"
     inkscape:pageopacity="0.0"
     inkscape:pageshadow="2"
     inkscape:zoom="0.707"
     inkscape:cx="702"
     inkscape:cy="1.28e+003"
     inkscape:document-units="px"
     inkscape:current-layer="layer1"
     showgrid="true"
     inkscape:window-width="1920"
     inkscape:window-height="1005"
     inkscape:window-x="-9"
     inkscape:window-y="-9"
     inkscape:window-maximized="1">
    <inkscape:grid
       type="xygrid"
       id="grid4166"
       units="mm"
       empspacing="5"
       visible="true"
       enabled="true"
       snapvisiblegridlinesonly="true" />
  </sodipodi:namedview>
  <metadata
     id="metadata4163">
    <rdf:RDF>
      <cc:Work
         rdf:about="">
        <dc:format>image/svg+xml</dc:format>
        <dc:type
           rdf:resource="http://purl.org/dc/dcmitype/StillImage" />
        <dc:title />
      </cc:Work>
    </rdf:RDF>
  </metadata>
  <g
     inkscape:label="Layer 1"
     inkscape:groupmode="layer"
     id="layer1">
    <line
       x1="1580"
       y1="356"
       x2="747"
       y2="356"
       id="line33"
       style="fill:none;stroke:#000000;stroke-width:2.602;stroke-miterlimit:4;stroke-dasharray:none" />
    <line
       x1="1050"
       y1="651"
       x2="1050"
       y2="49"
       id="line75"
       style="fill:none;stroke:#000000;stroke-width:2.616" />
    <rect
       style="fill:#00ffff;fill-opacity:1;stroke:#000000;stroke-width:5.084;stroke-miterlimit:1;stroke-opacity:1;stroke-dasharray:none"
       id="rect3772"
       width="549"
       height="550"
       x="195"
       y="72" />
    <path
       style="fill:#00ffff;fill-opacity:1;stroke:#000000;stroke-width:5.001;stroke-linecap:butt;stroke-linejoin:round;stroke-miterlimit:4;stroke-opacity:1;stroke-dasharray:none;marker-start:none"
       d="M 3.54,2 801,2 1170,37 801,72 3.54,72 z"
       id="path4185"
       inkscape:connector-curvature="0" />
    <path
       style="fill:none;stroke:#000000;stroke-width:2.5;stroke-linecap:butt;stroke-linejoin:miter;stroke-miterlimit:4;stroke-opacity:1;stroke-dasharray:none"
       d="m 1170,37 410,319 -410,301 0,0"
       id="path4893"
       inkscape:connector-curvature="0" />
    <path
       style="fill:#00ffff;fill-opacity:1;stroke:#000000;stroke-width:4.991;stroke-linecap:butt;stroke-linejoin:round;stroke-miterlimit:4;stroke-opacity:1;stroke-dasharray:none;marker-start:none"
       d="M 3.54,622 798,622 1170,657 798,692 3.54,692 z"
       id="path4185-0"
       inkscape:connector-curvature="0" />
    <rect
       style="fill:#ffffff;fill-opacity:1;stroke:#000000;stroke-width:2.112;stroke-linecap:butt;stroke-linejoin:round;stroke-miterlimit:4;stroke-opacity:1;stroke-dasharray:none"
       id="rect3020"
       width="400"
       height="380"
       x="271"
       y="163" />
    <path
       style="fill:#0000ff;fill-opacity:1;stroke:#000000;stroke-width:5;stroke-miterlimit:4;stroke-opacity:1;stroke-dasharray:none"
       inkscape:connector-curvature="0"
       d="M 744,357 200,465 c 0,0 342,62 446,9 103,-56 98,-117 98,-117 z"
       id="path79" />
    <path
       style="fill:#0000ff;fill-opacity:1;stroke:#000000;stroke-width:5;stroke-miterlimit:4;stroke-opacity:1;stroke-dasharray:none"
       inkscape:connector-curvature="0"
       d="M 1050,359 792,529 c 0,0 206,-53 238,-93 40,-37 20,-77 20,-77 z"
       id="path87" />
    <path
       style="fill:#0000ff;fill-opacity:1;stroke:#000000;stroke-width:4.956;stroke-miterlimit:4;stroke-opacity:1;stroke-dasharray:none"
       inkscape:connector-curvature="0"
       d="M 1580,360 780,944 c 0,0 430,-54 560,-181 150,-129 240,-403 240,-403 z"
       id="path95" />
    <path
       style="fill:none;stroke:#000000;stroke-width:2.5;stroke-linecap:butt;stroke-linejoin:miter;stroke-miterlimit:4;stroke-opacity:1;stroke-dasharray:none"
       d="M 479,40.9 567,661 780,944"
       id="path3773"
       inkscape:connector-curvature="0" />
    <path
       style="fill:#ff0000;fill-opacity:1;stroke:#000000;stroke-width:5;stroke-miterlimit:4;stroke-opacity:1;stroke-dasharray:none"
       inkscape:connector-curvature="0"
       d="m 1050,360 -299,48 c 0,0 208,39 259,14 60,-10 40,-62 40,-62 z"
       id="path87-1" />
    <path
       style="fill:#ff0000;fill-opacity:1;stroke:#000000;stroke-width:5;stroke-miterlimit:4;stroke-opacity:1;stroke-dasharray:none"
       inkscape:connector-curvature="0"
       d="m 744,358 -551,60 c 0,0 335,92 443,48 108,-47 108,-108 108,-108 z"
       id="path79-4" />
    <path
       style="fill:#0000ff;fill-opacity:1;stroke:#000000;stroke-width:4.956;stroke-miterlimit:4;stroke-opacity:1;stroke-dasharray:none"
       inkscape:connector-curvature="0"
       d="M 1580,355 778,-229 c 0,0 442,54 572,181.4 140,129 230,402.6 230,402.6 z"
       id="path95-9" />
    <path
       style="fill:#0000ff;fill-opacity:1;stroke:#000000;stroke-width:5;stroke-miterlimit:4;stroke-opacity:1;stroke-dasharray:none"
       inkscape:connector-curvature="0"
       d="M 1050,354 791,183 c 0,0 206,53 239,94 40,37 20,77 20,77 z"
       id="path87-4" />
    <path
       style="fill:#0000ff;fill-opacity:1;stroke:#000000;stroke-width:5;stroke-miterlimit:4;stroke-opacity:1;stroke-dasharray:none"
       inkscape:connector-curvature="0"
       d="M 744,355 199,247 c 0,0 343,-62 447,-9 103,56 98,117 98,117 z"
       id="path79-8" />
    <path
       style="fill:none;stroke:#000000;stroke-width:2.5;stroke-linecap:butt;stroke-linejoin:miter;stroke-miterlimit:4;stroke-opacity:1;stroke-dasharray:none"
       d="M 479,675 567,55.2 780,-225"
       id="path3773-2"
       inkscape:connector-curvature="0" />
    <path
       style="fill:#ff0000;fill-opacity:1;stroke:#000000;stroke-width:5;stroke-miterlimit:4;stroke-opacity:1;stroke-dasharray:none"
       inkscape:connector-curvature="0"
       d="M 1050,355 751,307 c 0,0 208,-39 259,-14 60,10 40,62 40,62 z"
       id="path87-1-4" />
    <path
       style="fill:#ff0000;fill-opacity:1;stroke:#000000;stroke-width:5;stroke-miterlimit:4;stroke-opacity:1;stroke-dasharray:none"
       inkscape:connector-curvature="0"
       d="M 745,357 194,297 c 0,0 335,-92 443,-48 108,47 108,108 108,108 z"
       id="path79-4-5" />
  </g>
</svg>
