<?xml version="1.0" encoding="UTF-8" standalone="no"?>
<!-- Created with Inkscape (http://www.inkscape.org/) -->

<svg
   xmlns:dc="http://purl.org/dc/elements/1.1/"
   xmlns:cc="http://creativecommons.org/ns#"
   xmlns:rdf="http://www.w3.org/1999/02/22-rdf-syntax-ns#"
   xmlns:svg="http://www.w3.org/2000/svg"
   xmlns="http://www.w3.org/2000/svg"
   xmlns:sodipodi="http://sodipodi.sourceforge.net/DTD/sodipodi-0.dtd"
   xmlns:inkscape="http://www.inkscape.org/namespaces/inkscape"
   width="655"
   height="240"
   viewBox="0 0 655 240"
   id="svg4701"
   version="1.1"
   inkscape:version="0.91 r13725"
   sodipodi:docname="J70WithSails.svg">
  <defs
     id="defs4703" />
  <sodipodi:namedview
     id="base"
     pagecolor="#ffffff"
     bordercolor="#666666"
     borderopacity="1.0"
     inkscape:pageopacity="0.0"
     inkscape:pageshadow="2"
     inkscape:zoom="1"
     inkscape:cx="429.76197"
     inkscape:cy="78.687487"
     inkscape:document-units="px"
     inkscape:current-layer="layer1"
     showgrid="false"
     units="px"
     inkscape:window-width="1440"
     inkscape:window-height="826"
     inkscape:window-x="0"
     inkscape:window-y="0"
     inkscape:window-maximized="0" />
  <metadata
     id="metadata4706">
    <rdf:RDF>
      <cc:Work
         rdf:about="">
        <dc:format>image/svg+xml</dc:format>
        <dc:type
           rdf:resource="http://purl.org/dc/dcmitype/StillImage" />
        <dc:title></dc:title>
      </cc:Work>
    </rdf:RDF>
  </metadata>
  <g
     inkscape:label="Layer 1"
     inkscape:groupmode="layer"
     id="layer1"
     transform="translate(0,-803)">
    <path
       style="fill:none;fill-rule:evenodd;stroke:#000000;stroke-width:1.02400005px;stroke-linecap:butt;stroke-linejoin:miter;stroke-opacity:1"
       d="m 2.4885714,1009.9999 -1.051,-155.99994 0,-21 c 0,0 242.9909986,-53 425.9909986,-2 152,42 227,90 227,90 0,0 -71,41 -226,88.99994 -172,60 -425.9399986,0 -425.9399986,0 z"
       id="path4713"
       inkscape:connector-curvature="0" />
    <path
       style="fill:none;fill-rule:evenodd;stroke:#000000;stroke-width:1.00999999px;stroke-linecap:butt;stroke-linejoin:miter;stroke-opacity:1"
       d="m 342.42857,982.99996 5,-30 -1,-60 -3,-30 79,8 c 24,4 61,5 71,14 9,28 5,48 1,68 -1,8 -45,13 -72,19 z"
       id="path4735"
       inkscape:connector-curvature="0"
       sodipodi:nodetypes="ccccccccc" />
    <path
       style="fill:none;fill-rule:evenodd;stroke:#000000;stroke-width:1.01199996px;stroke-linecap:butt;stroke-linejoin:miter;stroke-opacity:1"
       d="m 343.42857,966.99996 c -83,22.99997 -215,16 -342.99399857,14 l 0,-120 c 128.99399857,-2 259.99399857,-13 341.99399857,17 l 3,14 0,63 z"
       id="path5419"
       inkscape:connector-curvature="0"
       sodipodi:nodetypes="ccccccc" />
    <rect
       style="fill:#cccccc;fill-opacity:1;stroke:#000000;stroke-opacity:1"
       id="rect5423"
       width="17"
       height="10"
       x="398.42856"
       y="917"
       ry="2" />
    <path
       style="fill:none;fill-rule:evenodd;stroke:#000000;stroke-width:8;stroke-linecap:round;stroke-linejoin:miter;stroke-miterlimit:4;stroke-dasharray:none;stroke-opacity:1"
       d="m 393.42857,921.99996 -258,14"
       id="path5429"
       inkscape:connector-curvature="0" />
    <path
       inkscape:connector-curvature="0"
       id="path5453"
       d="m 394.42857,921.99996 -259,-15"
       style="fill:none;fill-rule:evenodd;stroke:#020202;stroke-width:8;stroke-linecap:round;stroke-linejoin:miter;stroke-miterlimit:4;stroke-dasharray:none;stroke-opacity:1" />
    <path
       style="fill:#b3b3b3;fill-rule:evenodd;stroke:#000000;stroke-width:1px;stroke-linecap:butt;stroke-linejoin:miter;stroke-opacity:1"
       d="m 397.42857,917.99996 c -41,-21 -83,-33 -124,-33 -47,-1 -94,6 -141,18 z"
       id="path5455"
       inkscape:connector-curvature="0"
       sodipodi:nodetypes="cccc" />
    <path
       style="fill:#b3b3b3;fill-rule:evenodd;stroke:#000000;stroke-width:1px;stroke-linecap:butt;stroke-linejoin:miter;stroke-opacity:1"
       d="m 399.42857,924.99996 c -37,15 -74,31 -122,30 -36,4 -89,-4 -143,-16 z"
       id="path5457"
       inkscape:connector-curvature="0"
       sodipodi:nodetypes="cccc" />
    <path
       sodipodi:nodetypes="cccc"
       inkscape:connector-curvature="0"
       id="path5480"
       d="m 630.42857,921.99996 c -46,-41 -74,-52 -114,-60 -56,-8 -75,-14 -119,-2 76,9 152,22 233,62 z"
       style="fill:#b3b3b3;fill-rule:evenodd;stroke:#000000;stroke-width:0.95700002px;stroke-linecap:butt;stroke-linejoin:miter;stroke-opacity:1" />
    <path
       style="fill:#b3b3b3;fill-rule:evenodd;stroke:#000000;stroke-width:0.903px;stroke-linecap:butt;stroke-linejoin:miter;stroke-opacity:1"
       d="m 628.42857,920.99996 c -46,38 -74,52 -114,60 -56,7 -75,7 -119,0 76,-8 152,-22 233,-60 z"
       id="path5482"
       inkscape:connector-curvature="0"
       sodipodi:nodetypes="cccc" />
    <path
       inkscape:connector-curvature="0"
       id="path5486"
       d="m 790.42857,923.99996 -166,11"
       style="fill:none;fill-rule:evenodd;stroke:#000000;stroke-width:6.79099989;stroke-linecap:square;stroke-linejoin:miter;stroke-miterlimit:4;stroke-dasharray:none;stroke-opacity:1" />
    <path
       style="fill:#e6e6e6;fill-rule:evenodd;stroke:#000000;stroke-width:1px;stroke-linecap:butt;stroke-linejoin:miter;stroke-opacity:1"
       d="m 792.42857,922.99996 c -163,-60 -358,-21 -376,-1 3,-92 -62,-170.99996 -128,-216.99996 264,-110 522,-26 504,217.99996 z"
       id="path5492"
       inkscape:connector-curvature="0"
       sodipodi:nodetypes="cccc" />
    <path
       sodipodi:nodetypes="cccc"
       inkscape:connector-curvature="0"
       id="path5494"
       d="m 792.42857,921.99996 c -162,60 -358,20 -376,0 4,87.99994 -59,167.99994 -125,207.99994 267,110 530,10 501,-207.99994 z"
       style="fill:#e6e6e6;fill-rule:evenodd;stroke:#000000;stroke-width:1px;stroke-linecap:butt;stroke-linejoin:miter;stroke-opacity:1" />
    <path
       sodipodi:nodetypes="cccc"
       inkscape:connector-curvature="0"
       id="path4208"
       d="m 397.42857,917.99996 c -41,-21 -83,-33 -124,-33 -47,-1 -94,6 -141,18 z"
       style="fill:#b3b3b3;fill-rule:evenodd;stroke:#000000;stroke-width:1px;stroke-linecap:butt;stroke-linejoin:miter;stroke-opacity:1" />
    <path
       style="fill:none;fill-rule:evenodd;stroke:#020202;stroke-width:8;stroke-linecap:round;stroke-linejoin:miter;stroke-miterlimit:4;stroke-dasharray:none;stroke-opacity:1"
       d="M 393.72086,920.03959 181.1363,792.53176"
       id="path4210"
       inkscape:connector-curvature="0" />
    <path
       inkscape:connector-curvature="0"
       id="path4212"
       d="M 394.67324,922.7569 182.04103,1055.2431"
       style="fill:none;fill-rule:evenodd;stroke:#000000;stroke-width:8;stroke-linecap:round;stroke-linejoin:miter;stroke-miterlimit:4;stroke-dasharray:none;stroke-opacity:1" />
    <path
       style="fill:#b3b3b3;fill-rule:evenodd;stroke:#000000;stroke-width:0.98938853px;stroke-linecap:butt;stroke-linejoin:miter;stroke-opacity:1"
       d="m 394.28886,917.2931 c -8.85812,-45.55619 -46.57341,-80.87402 -87.57438,-105.87402 -25.57255,-13.83601 -78.28794,-34.1268 -125.28906,-22.3804 z"
       id="path4214"
       inkscape:connector-curvature="0"
       sodipodi:nodetypes="cccc" />
    <path
       sodipodi:nodetypes="cccc"
       inkscape:connector-curvature="0"
       id="path4216"
       d="m 395.85714,927.14281 c -4.14286,18.57143 -0.42857,47.42858 -72.71429,98.57139 C 271.42857,1049 248.42857,1068.8571 183,1059 Z"
       style="fill:#b3b3b3;fill-rule:evenodd;stroke:#000000;stroke-width:1px;stroke-linecap:butt;stroke-linejoin:miter;stroke-opacity:1" />
  </g>
</svg>
