<?xml version="1.0" encoding="UTF-8" standalone="no"?>
<!-- Created with Inkscape (http://www.inkscape.org/) -->

<svg
   xmlns:dc="http://purl.org/dc/elements/1.1/"
   xmlns:cc="http://creativecommons.org/ns#"
   xmlns:rdf="http://www.w3.org/1999/02/22-rdf-syntax-ns#"
   xmlns:svg="http://www.w3.org/2000/svg"
   xmlns="http://www.w3.org/2000/svg"
   xmlns:sodipodi="http://sodipodi.sourceforge.net/DTD/sodipodi-0.dtd"
   xmlns:inkscape="http://www.inkscape.org/namespaces/inkscape"
   version="1.1"
   width="500"
   height="500"
   id="svg3018"
   inkscape:version="0.48.4 r"
   sodipodi:docname="Laser_Simplified.svg">
  <sodipodi:namedview
     pagecolor="#ffffff"
     bordercolor="#666666"
     borderopacity="1"
     objecttolerance="10"
     gridtolerance="10"
     guidetolerance="10"
     inkscape:pageopacity="0"
     inkscape:pageshadow="2"
     inkscape:window-width="1920"
     inkscape:window-height="1005"
     id="namedview3025"
     showgrid="true"
     units="px"
     inkscape:document-units="px"
     fit-margin-top="0"
     fit-margin-left="0"
     fit-margin-right="0"
     fit-margin-bottom="0"
     inkscape:zoom="2.79"
     inkscape:cx="234"
     inkscape:cy="447"
     inkscape:window-x="-9"
     inkscape:window-y="-9"
     inkscape:window-maximized="1"
     inkscape:current-layer="svg3018">
    <inkscape:grid
       type="xygrid"
       id="grid4925"
       units="mm"
       empspacing="5"
       visible="true"
       enabled="true"
       snapvisiblegridlinesonly="true" />
  </sodipodi:namedview>
  <metadata
     id="metadata3024">
    <rdf:RDF>
      <cc:Work
         rdf:about="">
        <dc:format>image/svg+xml</dc:format>
        <dc:type
           rdf:resource="http://purl.org/dc/dcmitype/StillImage" />
        <dc:title />
      </cc:Work>
    </rdf:RDF>
  </metadata>
  <defs
     id="defs3022" />
  <path
     d="m 1.72,27 -0.28,78 c 0,0 81.16,28 169.56,28 87,0 251,-51.5 251,-62.9 C 422,55.7 261,1.11 171,1.11 85.8,1.11 1.72,27 1.72,27 z"
     id="path5361"
     style="fill:none;stroke:#000000;stroke-width:2.873;stroke-linecap:butt;stroke-linejoin:miter;stroke-miterlimit:1;stroke-opacity:1;stroke-dasharray:none"
     inkscape:connector-curvature="0" />
  <path
     d="M 48.2,44.2 47.9,90.1 C 47.9,90.1 107,107 171,107 235,107 354,78.7 354,70.1 352,61.4 235,29.9 171,29.9 109,29.9 48.2,44.2 48.2,44.2 z"
     id="path5361-1"
     style="fill:none;stroke:#000000;stroke-width:2.873;stroke-linecap:butt;stroke-linejoin:miter;stroke-miterlimit:1;stroke-opacity:1;stroke-dasharray:none"
     inkscape:connector-curvature="0" />
  <path
     style="fill:#ff0000;fill-opacity:1;stroke:#000000;stroke-width:3;stroke-linecap:butt;stroke-linejoin:miter;stroke-miterlimit:1;stroke-opacity:1;stroke-dasharray:none"
     d="M 300,68.9 39.4,5.94 c 0,0 180.6,-15.04 218.6,7.96 38,24 42,55 42,55 z"
     id="path5403-4"
     inkscape:connector-curvature="0"
     sodipodi:nodetypes="cczc" />
  <path
     style="fill:#00ff00;fill-opacity:1;stroke:#000000;stroke-width:3;stroke-linecap:butt;stroke-linejoin:miter;stroke-miterlimit:1;stroke-opacity:1;stroke-dasharray:none"
     d="M 301,70 92.2,-97.1 c 0,0 176.8,53.5 201.8,90.41 24,37.79 7,76.69 7,76.69 z"
     id="path5403-4-0"
     inkscape:connector-curvature="0"
     sodipodi:nodetypes="cczc" />
  <path
     style="fill:#ff0000;fill-opacity:1;stroke:#000000;stroke-width:3;stroke-linecap:butt;stroke-linejoin:miter;stroke-miterlimit:1;stroke-opacity:1;stroke-dasharray:none"
     d="M 301,71.4 40.3,134 c 0,0 180.7,15 218.7,-8 38,-24 42,-54.6 42,-54.6 z"
     id="path5403-4-9"
     inkscape:connector-curvature="0"
     sodipodi:nodetypes="cczc" />
  <path
     style="fill:#00ff00;fill-opacity:1;stroke:#000000;stroke-width:3;stroke-linecap:butt;stroke-linejoin:miter;stroke-miterlimit:1;stroke-opacity:1;stroke-dasharray:none"
     d="M 301,72.1 92.1,240 c 0,0 176.9,-54 201.9,-91 24,-38 7,-76.9 7,-76.9 z"
     id="path5403-4-0-4"
     inkscape:connector-curvature="0"
     sodipodi:nodetypes="cczc" />
  <path
     style="fill:#0000ff;fill-opacity:1;stroke:#000000;stroke-width:3;stroke-linecap:butt;stroke-linejoin:miter;stroke-miterlimit:1;stroke-opacity:1;stroke-dasharray:none"
     d="M 300,69.8 182,-171 c 0,0 137,123.9 144,167.85 6,44.75 -26,72.95 -26,72.95 z"
     id="path5403-4-0-1"
     inkscape:connector-curvature="0"
     sodipodi:nodetypes="cczc" />
  <path
     style="fill:#0000ff;fill-opacity:1;stroke:#000000;stroke-width:3;stroke-linecap:butt;stroke-linejoin:miter;stroke-miterlimit:1;stroke-opacity:1;stroke-dasharray:none"
     d="M 300,71.2 182,312 c 0,0 137,-124 144,-168 6,-45 -26,-72.8 -26,-72.8 z"
     id="path5403-4-0-1-7"
     inkscape:connector-curvature="0"
     sodipodi:nodetypes="cczc" />
</svg>
