<?xml version="1.0" encoding="UTF-8" standalone="no"?>
<!-- Created with Inkscape (http://www.inkscape.org/) -->

<svg
   xmlns:dc="http://purl.org/dc/elements/1.1/"
   xmlns:cc="http://creativecommons.org/ns#"
   xmlns:rdf="http://www.w3.org/1999/02/22-rdf-syntax-ns#"
   xmlns:svg="http://www.w3.org/2000/svg"
   xmlns="http://www.w3.org/2000/svg"
   xmlns:sodipodi="http://sodipodi.sourceforge.net/DTD/sodipodi-0.dtd"
   xmlns:inkscape="http://www.inkscape.org/namespaces/inkscape"
   width="800"
   height="400"
   id="svg4158"
   version="1.1"
   inkscape:version="0.48.2 r9819"
   sodipodi:docname="nacra17_sails.svg">
  <defs
     id="defs4160" />
  <sodipodi:namedview
     id="base"
     pagecolor="#ffffff"
     bordercolor="#666666"
     borderopacity="1.0"
     inkscape:pageopacity="0.0"
     inkscape:pageshadow="2"
     inkscape:zoom="1.41"
     inkscape:cx="120"
     inkscape:cy="180"
     inkscape:document-units="px"
     inkscape:current-layer="layer1"
     showgrid="true"
     inkscape:window-width="1920"
     inkscape:window-height="1005"
     inkscape:window-x="-9"
     inkscape:window-y="-9"
     inkscape:window-maximized="1">
    <inkscape:grid
       type="xygrid"
       id="grid4166"
       units="mm"
       empspacing="5"
       visible="true"
       enabled="true"
       snapvisiblegridlinesonly="true" />
  </sodipodi:namedview>
  <metadata
     id="metadata4163">
    <rdf:RDF>
      <cc:Work
         rdf:about="">
        <dc:format>image/svg+xml</dc:format>
        <dc:type
           rdf:resource="http://purl.org/dc/dcmitype/StillImage" />
        <dc:title />
      </cc:Work>
    </rdf:RDF>
  </metadata>
  <g
     inkscape:label="Layer 1"
     inkscape:groupmode="layer"
     id="layer1">
    <line
       x1="707"
       y1="132"
       x2="266"
       y2="132"
       id="line33"
       style="fill:none;stroke:#000000;stroke-width:1.27;stroke-miterlimit:4;stroke-dasharray:none" />
    <line
       x1="475"
       y1="242"
       x2="475"
       y2="27.7"
       id="line75"
       style="fill:none;stroke:#000000;stroke-width:1.062" />
    <rect
       style="fill:#00ffff;fill-opacity:1;stroke:#000000;stroke-width:1.724;stroke-miterlimit:1;stroke-opacity:1;stroke-dasharray:none"
       id="rect3772"
       width="187"
       height="187"
       x="88.6"
       y="37.7" />
    <path
       style="fill:#00ffff;fill-opacity:1;stroke:#000000;stroke-width:2.261;stroke-linecap:butt;stroke-linejoin:round;stroke-miterlimit:4;stroke-opacity:1;stroke-dasharray:none;marker-start:none"
       d="M 1.98,1.67 362,1.67 529,21.7 362,41.7 1.98,41.7 z"
       id="path4185"
       inkscape:connector-curvature="0" />
    <path
       style="fill:none;stroke:#000000;stroke-width:0.986;stroke-linecap:butt;stroke-linejoin:miter;stroke-miterlimit:4;stroke-opacity:1;stroke-dasharray:none"
       d="M 529,21.7 709,132 529,242 l 0,0"
       id="path4893"
       inkscape:connector-curvature="0" />
    <path
       style="fill:#00ffff;fill-opacity:1;stroke:#000000;stroke-width:2.257;stroke-linecap:butt;stroke-linejoin:round;stroke-miterlimit:4;stroke-opacity:1;stroke-dasharray:none;marker-start:none"
       d="M 1.98,222 361,222 529,242 361,262 1.98,262 z"
       id="path4185-0"
       inkscape:connector-curvature="0" />
    <rect
       style="fill:#ffffff;fill-opacity:1;stroke:#000000;stroke-width:0.716;stroke-linecap:butt;stroke-linejoin:round;stroke-miterlimit:4;stroke-opacity:1;stroke-dasharray:none"
       id="rect3020"
       width="136"
       height="128"
       x="114"
       y="71.7" />
    <path
       style="fill:#0000ff;fill-opacity:1;stroke:#000000;stroke-width:2.26;stroke-miterlimit:4;stroke-opacity:1;stroke-dasharray:none"
       inkscape:connector-curvature="0"
       d="M 336,132 90.6,182 c 0,0 155.4,30 200.4,10 48,-30 45,-60 45,-60 z"
       id="path79" />
    <path
       style="fill:#0000ff;fill-opacity:1;stroke:#000000;stroke-width:2.26;stroke-miterlimit:4;stroke-opacity:1;stroke-dasharray:none"
       inkscape:connector-curvature="0"
       d="m 473,132 -117,70 c 0,0 92,-20 108,-40 18,-20 9,-30 9,-30 z"
       id="path87" />
    <path
       style="fill:#0000ff;fill-opacity:1;stroke:#000000;stroke-width:2.24;stroke-miterlimit:4;stroke-opacity:1;stroke-dasharray:none"
       inkscape:connector-curvature="0"
       d="M 706,132 321,355 c 0,0 196,0 260,-53 75,-60 125,-170 125,-170 z"
       id="path95" />
    <path
       style="fill:#ff0000;fill-opacity:1;stroke:#000000;stroke-width:2.26;stroke-miterlimit:4;stroke-opacity:1;stroke-dasharray:none"
       inkscape:connector-curvature="0"
       d="m 473,132 -136,20 c 0,0 94,10 118,0 27,0 18,-20 18,-20 z"
       id="path87-1" />
    <path
       style="fill:#ff0000;fill-opacity:1;stroke:#000000;stroke-width:2.26;stroke-miterlimit:4;stroke-opacity:1;stroke-dasharray:none"
       inkscape:connector-curvature="0"
       d="M 336,132 87.6,152 c 0,0 151.4,40 200.4,20 48,-20 48,-40 48,-40 z"
       id="path79-4" />
    <path
       style="fill:#0000ff;fill-opacity:1;stroke:#000000;stroke-width:2.24;stroke-miterlimit:4;stroke-opacity:1;stroke-dasharray:none"
       inkscape:connector-curvature="0"
       d="M 706,132 320,-88.3 c 0,0 201,0 265,50 71,60 121,170.3 121,170.3 z"
       id="path95-9" />
    <path
       style="fill:#0000ff;fill-opacity:1;stroke:#000000;stroke-width:2.26;stroke-miterlimit:4;stroke-opacity:1;stroke-dasharray:none"
       inkscape:connector-curvature="0"
       d="M 473,132 355,61.7 c 0,0 93,20 109,40.3 18,20 9,30 9,30 z"
       id="path87-4" />
    <path
       style="fill:#0000ff;fill-opacity:1;stroke:#000000;stroke-width:2.26;stroke-miterlimit:4;stroke-opacity:1;stroke-dasharray:none"
       inkscape:connector-curvature="0"
       d="M 336,132 90.6,91.7 c 0,0 155.4,-30 200.4,-10 48,30.3 45,50.3 45,50.3 z"
       id="path79-8" />
    <path
       style="fill:none;stroke:#000000;stroke-width:1.028;stroke-linecap:butt;stroke-linejoin:miter;stroke-miterlimit:4;stroke-opacity:1;stroke-dasharray:none"
       d="m 177,242 41,-220.3 99,-110"
       id="path3773-2"
       inkscape:connector-curvature="0" />
    <path
       style="fill:#ff0000;fill-opacity:1;stroke:#000000;stroke-width:2.26;stroke-miterlimit:4;stroke-opacity:1;stroke-dasharray:none"
       inkscape:connector-curvature="0"
       d="M 473,132 337,112 c 0,0 94,-20.3 118,0 27,0 18,20 18,20 z"
       id="path87-1-4" />
    <path
       style="fill:#ff0000;fill-opacity:1;stroke:#000000;stroke-width:2.26;stroke-miterlimit:4;stroke-opacity:1;stroke-dasharray:none"
       inkscape:connector-curvature="0"
       d="M 337,132 87.6,112 C 87.6,112 239,71.7 288,91.7 337,112 337,132 337,132 z"
       id="path79-4-5" />
    <path
       style="fill:none;stroke:#000000;stroke-width:1.028;stroke-linecap:butt;stroke-linejoin:miter;stroke-miterlimit:4;stroke-opacity:1;stroke-dasharray:none"
       d="M 177,21.7 218,242 318,355"
       id="path3773-2-7"
       inkscape:connector-curvature="0" />
  </g>
</svg>
