<svg viewBox="0 0 80 78">
  <path d="M 71.8968 69.7728 C 39.6621 73.5704 38.9409 73.566 0.302557 77.9307 C 10.3021 54.5182 36.3285 22.5686 79.0953 0.331485 C 82.4061 -1.39026 67.2067 17.2405 71.8968 69.7728 Z M 49.4723 46.5189 C 48.8674 42.8197 44.2322 40.914 38.9467 42.2556 C 33.5354 43.6297 29.4796 47.8912 29.8982 51.7703 C 29.8982 51.7703 35.1556 49.2284 39.2374 48.0585 C 42.7172 47.0608 47.7317 46.8428 49.1329 46.8003 C 46.3178 49.1961 47.0085 54.1209 50.7797 58.0026 C 54.6739 62.011 60.3867 63.3971 63.5294 61.0963 C 63.5294 61.0963 58.7036 57.806 55.6509 54.8502 C 53.0222 52.3041 50.2986 48.0031 49.5942 46.86 C 53.0948 48.1866 57.0593 45.1172 58.543 39.861 C 60.0612 34.4785 58.4031 28.831 54.8418 27.2548 C 54.8418 27.2548 54.4113 33.087 53.3811 37.2116 C 52.4797 40.825 50.0595 45.4307 49.4723 46.5189 Z" />
</svg>
