<?xml version="1.0" encoding="UTF-8" standalone="no"?>
<svg
   xmlns:dc="http://purl.org/dc/elements/1.1/"
   xmlns:cc="http://creativecommons.org/ns#"
   xmlns:rdf="http://www.w3.org/1999/02/22-rdf-syntax-ns#"
   xmlns:svg="http://www.w3.org/2000/svg"
   xmlns="http://www.w3.org/2000/svg"
   xmlns:sodipodi="http://sodipodi.sourceforge.net/DTD/sodipodi-0.dtd"
   xmlns:inkscape="http://www.inkscape.org/namespaces/inkscape"
   fill-opacity="0"
   color-rendering="auto"
   color-interpolation="auto"
   stroke="rgb(0,0,0)"
   text-rendering="auto"
   stroke-linecap="square"
   width="639"
   stroke-miterlimit="10"
   stroke-opacity="0"
   shape-rendering="auto"
   fill="rgb(0,0,0)"
   stroke-dasharray="none"
   font-weight="normal"
   stroke-width="1"
   height="503"
   font-family="'Dialog'"
   font-style="normal"
   stroke-linejoin="miter"
   font-size="12"
   stroke-dashoffset="0"
   image-rendering="auto"
   id="svg2"
   version="1.1"
   inkscape:version="0.48.2 r9819"
   sodipodi:docname="AbstractQueryProcess.svg">
  <metadata
     id="metadata447">
    <rdf:RDF>
      <cc:Work
         rdf:about="">
        <dc:format>image/svg+xml</dc:format>
        <dc:type
           rdf:resource="http://purl.org/dc/dcmitype/StillImage" />
      </cc:Work>
    </rdf:RDF>
  </metadata>
  <sodipodi:namedview
     pagecolor="#ffffff"
     bordercolor="#666666"
     borderopacity="1"
     objecttolerance="10"
     gridtolerance="10"
     guidetolerance="10"
     inkscape:pageopacity="0"
     inkscape:pageshadow="2"
     inkscape:window-width="1858"
     inkscape:window-height="1058"
     id="namedview445"
     showgrid="false"
     inkscape:zoom="1.0717735"
     inkscape:cx="602.57876"
     inkscape:cy="211.14544"
     inkscape:window-x="54"
     inkscape:window-y="-8"
     inkscape:window-maximized="1"
     inkscape:current-layer="svg2" />
  <!--Generated by the Batik Graphics2D SVG Generator-->
  <defs
     id="genericDefs">
    <defs
       id="defs1">
      <clipPath
         id="clipPath1"
         clipPathUnits="userSpaceOnUse">
        <path
           id="path9"
           d="M-7 -7 L642 -7 L642 508 L-7 508 L-7 -7 Z" />
      </clipPath>
      <clipPath
         id="clipPath2"
         clipPathUnits="userSpaceOnUse">
        <path
           id="path12"
           d="M0 0 L0 22 L133 22 L133 0 Z" />
      </clipPath>
      <clipPath
         id="clipPath3"
         clipPathUnits="userSpaceOnUse">
        <path
           id="path15"
           d="M-7 -7 L251 -7 L251 261 L-7 261 L-7 -7 Z" />
      </clipPath>
      <clipPath
         id="clipPath4"
         clipPathUnits="userSpaceOnUse">
        <path
           id="path18"
           d="M0 0 L0 22 L95 22 L95 0 Z" />
      </clipPath>
      <clipPath
         id="clipPath5"
         clipPathUnits="userSpaceOnUse">
        <path
           id="path21"
           d="M-7 -7 L201 -7 L201 51 L-7 51 L-7 -7 Z" />
      </clipPath>
      <clipPath
         id="clipPath6"
         clipPathUnits="userSpaceOnUse">
        <path
           id="path24"
           d="M0 0 L0 40 L190 40 L190 0 Z" />
      </clipPath>
      <clipPath
         id="clipPath7"
         clipPathUnits="userSpaceOnUse">
        <path
           id="path27"
           d="M-7 -7 L23 -7 L23 23 L-7 23 L-7 -7 Z" />
      </clipPath>
      <clipPath
         id="clipPath8"
         clipPathUnits="userSpaceOnUse">
        <path
           id="path30"
           d="M-7 -7 L161 -7 L161 71 L-7 71 L-7 -7 Z" />
      </clipPath>
      <clipPath
         id="clipPath9"
         clipPathUnits="userSpaceOnUse">
        <path
           id="path33"
           d="M0 0 L0 60 L150 60 L150 0 Z" />
      </clipPath>
      <clipPath
         id="clipPath10"
         clipPathUnits="userSpaceOnUse">
        <path
           id="path36"
           d="M-7 -7 L141 -7 L141 101 L-7 101 L-7 -7 Z" />
      </clipPath>
      <clipPath
         id="clipPath11"
         clipPathUnits="userSpaceOnUse">
        <path
           id="path39"
           d="M0 0 L0 90 L130 90 L130 0 Z" />
      </clipPath>
      <clipPath
         id="clipPath12"
         clipPathUnits="userSpaceOnUse">
        <path
           id="path42"
           d="M-7 -7 L141 -7 L141 71 L-7 71 L-7 -7 Z" />
      </clipPath>
      <clipPath
         id="clipPath13"
         clipPathUnits="userSpaceOnUse">
        <path
           id="path45"
           d="M0 0 L0 60 L130 60 L130 0 Z" />
      </clipPath>
      <clipPath
         id="clipPath14"
         clipPathUnits="userSpaceOnUse">
        <path
           id="path48"
           d="M-7 -7 L311 -7 L311 71 L-7 71 L-7 -7 Z" />
      </clipPath>
      <clipPath
         id="clipPath15"
         clipPathUnits="userSpaceOnUse">
        <path
           id="path51"
           d="M0 0 L0 60 L285 60 L285 0 Z" />
      </clipPath>
      <clipPath
         id="clipPath16"
         clipPathUnits="userSpaceOnUse">
        <path
           id="path54"
           d="M-7 -7 L111 -7 L111 51 L-7 51 L-7 -7 Z" />
      </clipPath>
      <clipPath
         id="clipPath17"
         clipPathUnits="userSpaceOnUse">
        <path
           id="path57"
           d="M0 0 L0 40 L100 40 L100 0 Z" />
      </clipPath>
      <clipPath
         id="clipPath18"
         clipPathUnits="userSpaceOnUse">
        <path
           id="path60"
           d="M-87 -16 L174 -16 L174 32 L-87 32 L-87 -16 Z" />
      </clipPath>
      <clipPath
         id="clipPath19"
         clipPathUnits="userSpaceOnUse">
        <path
           id="path63"
           d="M-123 -16 L246 -16 L246 32 L-123 32 L-123 -16 Z" />
      </clipPath>
      <clipPath
         id="clipPath20"
         clipPathUnits="userSpaceOnUse">
        <path
           id="path66"
           d="M-176 -16 L352 -16 L352 32 L-176 32 L-176 -16 Z" />
      </clipPath>
      <clipPath
         id="clipPath21"
         clipPathUnits="userSpaceOnUse">
        <path
           id="path69"
           d="M-169 -33 L338 -33 L338 66 L-169 66 L-169 -33 Z" />
      </clipPath>
      <clipPath
         id="clipPath22"
         clipPathUnits="userSpaceOnUse">
        <path
           id="path72"
           d="M-115 -16 L230 -16 L230 32 L-115 32 L-115 -16 Z" />
      </clipPath>
      <clipPath
         id="clipPath23"
         clipPathUnits="userSpaceOnUse">
        <path
           id="path75"
           d="M-114 -37 L228 -37 L228 74 L-114 74 L-114 -37 Z" />
      </clipPath>
      <clipPath
         id="clipPath24"
         clipPathUnits="userSpaceOnUse">
        <path
           id="path78"
           d="M-44 -16 L88 -16 L88 32 L-44 32 L-44 -16 Z" />
      </clipPath>
      <clipPath
         id="clipPath25"
         clipPathUnits="userSpaceOnUse">
        <path
           id="path81"
           d="M-53 -35 L106 -35 L106 70 L-53 70 L-53 -35 Z" />
      </clipPath>
      <clipPath
         id="clipPath26"
         clipPathUnits="userSpaceOnUse">
        <path
           id="path84"
           d="M0 0 L213 0 L213 104 L0 104 L0 0 Z" />
      </clipPath>
      <clipPath
         id="clipPath27"
         clipPathUnits="userSpaceOnUse">
        <path
           id="path87"
           d="M0 0 L104 0 L104 152 L0 152 L0 0 Z" />
      </clipPath>
      <clipPath
         id="clipPath28"
         clipPathUnits="userSpaceOnUse">
        <path
           id="path90"
           d="M0 0 L277 0 L277 241 L0 241 L0 0 Z" />
      </clipPath>
      <clipPath
         id="clipPath29"
         clipPathUnits="userSpaceOnUse">
        <path
           id="path93"
           d="M0 0 L273 0 L273 104 L0 104 L0 0 Z" />
      </clipPath>
      <clipPath
         id="clipPath30"
         clipPathUnits="userSpaceOnUse">
        <path
           id="path96"
           d="M0 0 L104 0 L104 160 L0 160 L0 0 Z" />
      </clipPath>
      <clipPath
         id="clipPath31"
         clipPathUnits="userSpaceOnUse">
        <path
           id="path99"
           d="M0 0 L104 0 L104 153 L0 153 L0 0 Z" />
      </clipPath>
    </defs>
  </defs>
  <g
     style="fill:#ffffff;fill-opacity:1;stroke:#ffffff;stroke-opacity:1"
     id="g101"
     text-rendering="geometricPrecision">
    <rect
       style="stroke:none"
       id="rect103"
       y="0"
       height="503"
       width="639"
       x="0" />
  </g>
  <g
     style="font-weight:bold;fill:#e1ffff;fill-opacity:1;stroke:#e1ffff;stroke-opacity:1;font-family:sans-serif"
     id="g105"
     font-weight="bold"
     text-rendering="geometricPrecision"
     transform="translate(2,2)">
    <rect
       style="stroke:none"
       id="rect107"
       height="495"
       ry="15"
       rx="15"
       width="629"
       clip-path="url(#clipPath1)"
       y="1"
       x="1" />
  </g>
  <g
     style="font-weight:bold;fill:#000000;fill-opacity:1;stroke:#000000;stroke-linecap:butt;stroke-linejoin:round;stroke-miterlimit:0;stroke-opacity:1;font-family:sans-serif"
     id="g109"
     stroke-miterlimit="0"
     font-weight="bold"
     text-rendering="geometricPrecision"
     transform="translate(2,2)">
    <rect
       style="fill:none"
       id="rect111"
       height="495"
       ry="15"
       rx="15"
       width="629"
       clip-path="url(#clipPath1)"
       y="1"
       x="1" />
  </g>
  <g
     style="font-weight:bold;fill:#000000;fill-opacity:1;stroke:#000000;stroke-opacity:1;font-family:sans-serif"
     id="g113"
     font-weight="bold"
     text-rendering="geometricPrecision"
     transform="translate(2,2)">
    <text
       style="stroke:none"
       id="text115"
       clip-path="url(#clipPath2)"
       y="19"
       xml:space="preserve"
       x="10">Data Mining Process</text>
  </g>
  <g
     style="font-weight:bold;fill:#c0ffff;fill-opacity:1;stroke:#c0ffff;stroke-opacity:1;font-family:sans-serif"
     id="g117"
     font-weight="bold"
     text-rendering="geometricPrecision"
     transform="translate(55,29)">
    <rect
       style="stroke:none"
       id="rect119"
       height="248"
       ry="15"
       rx="15"
       width="238"
       clip-path="url(#clipPath3)"
       y="1"
       x="1" />
  </g>
  <g
     style="font-weight:bold;fill:#000000;fill-opacity:1;stroke:#000000;stroke-linecap:butt;stroke-linejoin:round;stroke-miterlimit:0;stroke-opacity:1;font-family:sans-serif"
     id="g121"
     stroke-miterlimit="0"
     font-weight="bold"
     text-rendering="geometricPrecision"
     transform="translate(55,29)">
    <rect
       style="fill:none"
       id="rect123"
       height="248"
       ry="15"
       rx="15"
       width="238"
       clip-path="url(#clipPath3)"
       y="1"
       x="1" />
  </g>
  <g
     style="font-weight:bold;fill:#000000;fill-opacity:1;stroke:#000000;stroke-opacity:1;font-family:sans-serif"
     id="g125"
     font-weight="bold"
     text-rendering="geometricPrecision"
     transform="translate(55,29)">
    <text
       style="stroke:none"
       id="text127"
       clip-path="url(#clipPath4)"
       y="19"
       xml:space="preserve"
       x="10">Data Retrieval</text>
  </g>
  <g
     style="fill:#c0c0ff;fill-opacity:1;stroke:#c0c0ff;stroke-opacity:1;font-family:sans-serif"
     id="g129"
     text-rendering="geometricPrecision"
     transform="translate(75,59)">
    <rect
       style="stroke:none"
       id="rect131"
       height="40"
       ry="15"
       rx="15"
       width="190"
       clip-path="url(#clipPath5)"
       y="0"
       x="0" />
  </g>
  <g
     style="fill:#000000;fill-opacity:1;stroke:#000000;stroke-linecap:butt;stroke-linejoin:round;stroke-miterlimit:0;stroke-opacity:1;font-family:sans-serif"
     id="g133"
     stroke-miterlimit="0"
     text-rendering="geometricPrecision"
     transform="translate(75,59)">
    <rect
       style="fill:none"
       id="rect135"
       height="40"
       ry="15"
       rx="15"
       width="190"
       clip-path="url(#clipPath5)"
       y="0"
       x="0" />
  </g>
  <g
     style="fill:#000000;fill-opacity:1;stroke:#000000;stroke-opacity:1;font-family:sans-serif"
     id="g137"
     text-rendering="geometricPrecision"
     transform="translate(75,59)">
    <text
       style="stroke:none"
       id="text139"
       clip-path="url(#clipPath6)"
       y="17"
       xml:space="preserve"
       x="40">DataSourceProvider</text>
    <text
       style="stroke:none"
       id="text141"
       clip-path="url(#clipPath6)"
       y="33"
       xml:space="preserve"
       x="42">&lt;DataSourceType&gt;</text>
  </g>
  <g
     style="fill:#c0c0ff;fill-opacity:1;stroke:#c0c0ff;stroke-opacity:1;font-family:sans-serif"
     id="g143"
     text-rendering="geometricPrecision"
     transform="translate(164,98)">
    <rect
       style="stroke:none"
       id="rect145"
       clip-path="url(#clipPath7)"
       y="0"
       height="12"
       width="12"
       x="0" />
  </g>
  <g
     style="fill:#000000;fill-opacity:1;stroke:#000000;stroke-linecap:butt;stroke-linejoin:round;stroke-miterlimit:0;stroke-opacity:1;font-family:sans-serif"
     id="g147"
     stroke-miterlimit="0"
     text-rendering="geometricPrecision"
     transform="translate(164,98)">
    <rect
       style="fill:none"
       id="rect149"
       clip-path="url(#clipPath7)"
       y="0"
       height="12"
       width="12"
       x="0" />
  </g>
  <g
     style="fill:#c0c0ff;fill-opacity:1;stroke:#c0c0ff;stroke-opacity:1;font-family:sans-serif"
     id="g151"
     text-rendering="geometricPrecision"
     transform="translate(95,179)">
    <rect
       style="stroke:none"
       id="rect153"
       height="60"
       ry="15"
       rx="15"
       width="150"
       clip-path="url(#clipPath8)"
       y="0"
       x="0" />
  </g>
  <g
     style="fill:#000000;fill-opacity:1;stroke:#000000;stroke-linecap:butt;stroke-linejoin:round;stroke-miterlimit:0;stroke-opacity:1;font-family:sans-serif"
     id="g155"
     stroke-miterlimit="0"
     text-rendering="geometricPrecision"
     transform="translate(95,179)">
    <rect
       style="fill:none"
       id="rect157"
       height="60"
       ry="15"
       rx="15"
       width="150"
       clip-path="url(#clipPath8)"
       y="0"
       x="0" />
  </g>
  <g
     style="fill:#000000;fill-opacity:1;stroke:#000000;stroke-opacity:1;font-family:sans-serif"
     id="g159"
     text-rendering="geometricPrecision"
     transform="translate(95,179)">
    <text
       style="stroke:none"
       id="text161"
       clip-path="url(#clipPath9)"
       y="19"
       xml:space="preserve"
       x="50">Retriever</text>
    <text
       style="stroke:none"
       id="text163"
       clip-path="url(#clipPath9)"
       y="35"
       xml:space="preserve"
       x="24">&lt;DataSourceType,</text>
    <text
       style="stroke:none"
       id="text165"
       clip-path="url(#clipPath9)"
       y="51"
       xml:space="preserve"
       x="32">RetrievedType&gt;</text>
  </g>
  <g
     style="fill:#c0c0ff;fill-opacity:1;stroke:#c0c0ff;stroke-opacity:1;font-family:sans-serif"
     id="g167"
     text-rendering="geometricPrecision"
     transform="translate(164,168)">
    <rect
       style="stroke:none"
       id="rect169"
       clip-path="url(#clipPath7)"
       y="0"
       height="12"
       width="12"
       x="0" />
  </g>
  <g
     style="fill:#000000;fill-opacity:1;stroke:#000000;stroke-linecap:butt;stroke-linejoin:round;stroke-miterlimit:0;stroke-opacity:1;font-family:sans-serif"
     id="g171"
     stroke-miterlimit="0"
     text-rendering="geometricPrecision"
     transform="translate(164,168)">
    <rect
       style="fill:none"
       id="rect173"
       clip-path="url(#clipPath7)"
       y="0"
       height="12"
       width="12"
       x="0" />
  </g>
  <g
     style="fill:#c0c0ff;fill-opacity:1;stroke:#c0c0ff;stroke-opacity:1;font-family:sans-serif"
     id="g175"
     text-rendering="geometricPrecision"
     transform="translate(244,203)">
    <rect
       style="stroke:none"
       id="rect177"
       clip-path="url(#clipPath7)"
       y="0"
       height="12"
       width="12"
       x="0" />
  </g>
  <g
     style="fill:#000000;fill-opacity:1;stroke:#000000;stroke-linecap:butt;stroke-linejoin:round;stroke-miterlimit:0;stroke-opacity:1;font-family:sans-serif"
     id="g179"
     stroke-miterlimit="0"
     text-rendering="geometricPrecision"
     transform="translate(244,203)">
    <rect
       style="fill:none"
       id="rect181"
       clip-path="url(#clipPath7)"
       y="0"
       height="12"
       width="12"
       x="0" />
  </g>
  <g
     style="fill:#c0c0ff;fill-opacity:1;stroke:#c0c0ff;stroke-opacity:1;font-family:sans-serif"
     id="g183"
     text-rendering="geometricPrecision"
     transform="translate(378,165)">
    <rect
       style="stroke:none"
       id="rect185"
       height="90"
       ry="15"
       rx="15"
       width="130"
       clip-path="url(#clipPath10)"
       y="0"
       x="0" />
  </g>
  <g
     style="fill:#000000;fill-opacity:1;stroke:#000000;stroke-linecap:butt;stroke-linejoin:round;stroke-miterlimit:0;stroke-opacity:1;font-family:sans-serif"
     id="g187"
     stroke-miterlimit="0"
     text-rendering="geometricPrecision"
     transform="translate(378,165)">
    <rect
       style="fill:none"
       id="rect189"
       height="90"
       ry="15"
       rx="15"
       width="130"
       clip-path="url(#clipPath10)"
       y="0"
       x="0" />
  </g>
  <g
     style="fill:#000000;fill-opacity:1;stroke:#000000;stroke-opacity:1;font-family:sans-serif"
     id="g191"
     text-rendering="geometricPrecision"
     transform="translate(378,165)">
    <text
       style="stroke:none"
       id="text193"
       clip-path="url(#clipPath11)"
       y="42"
       xml:space="preserve"
       x="42">Grouper</text>
    <text
       style="stroke:none"
       id="text195"
       clip-path="url(#clipPath11)"
       y="58"
       xml:space="preserve"
       x="18">&lt;RetrievedType&gt;</text>
  </g>
  <g
     style="fill:#c0c0ff;fill-opacity:1;stroke:#c0c0ff;stroke-opacity:1;font-family:sans-serif"
     id="g197"
     text-rendering="geometricPrecision"
     transform="translate(367,203)">
    <rect
       style="stroke:none"
       id="rect199"
       clip-path="url(#clipPath7)"
       y="0"
       height="12"
       width="12"
       x="0" />
  </g>
  <g
     style="fill:#000000;fill-opacity:1;stroke:#000000;stroke-linecap:butt;stroke-linejoin:round;stroke-miterlimit:0;stroke-opacity:1;font-family:sans-serif"
     id="g201"
     stroke-miterlimit="0"
     text-rendering="geometricPrecision"
     transform="translate(367,203)">
    <rect
       style="fill:none"
       id="rect203"
       clip-path="url(#clipPath7)"
       y="0"
       height="12"
       width="12"
       x="0" />
  </g>
  <g
     style="fill:#ffc0c0;fill-opacity:1;stroke:#ffc0c0;stroke-opacity:1;font-family:sans-serif"
     id="g205"
     text-rendering="geometricPrecision"
     transform="translate(507,180)">
    <rect
       style="stroke:none"
       id="rect207"
       clip-path="url(#clipPath7)"
       y="0"
       height="12"
       width="12"
       x="0" />
  </g>
  <g
     style="fill:#000000;fill-opacity:1;stroke:#000000;stroke-linecap:butt;stroke-linejoin:round;stroke-miterlimit:0;stroke-opacity:1;font-family:sans-serif"
     id="g209"
     stroke-miterlimit="0"
     text-rendering="geometricPrecision"
     transform="translate(507,180)">
    <rect
       style="fill:none"
       id="rect211"
       clip-path="url(#clipPath7)"
       y="0"
       height="12"
       width="12"
       x="0" />
  </g>
  <g
     style="fill:#ffc0c0;fill-opacity:1;stroke:#ffc0c0;stroke-opacity:1;font-family:sans-serif"
     id="g213"
     text-rendering="geometricPrecision"
     transform="translate(507,204)">
    <rect
       style="stroke:none"
       id="rect215"
       clip-path="url(#clipPath7)"
       y="0"
       height="12"
       width="12"
       x="0" />
  </g>
  <g
     style="fill:#000000;fill-opacity:1;stroke:#000000;stroke-linecap:butt;stroke-linejoin:round;stroke-miterlimit:0;stroke-opacity:1;font-family:sans-serif"
     id="g217"
     stroke-miterlimit="0"
     text-rendering="geometricPrecision"
     transform="translate(507,204)">
    <rect
       style="fill:none"
       id="rect219"
       clip-path="url(#clipPath7)"
       y="0"
       height="12"
       width="12"
       x="0" />
  </g>
  <g
     style="fill:#ffc0c0;fill-opacity:1;stroke:#ffc0c0;stroke-opacity:1;font-family:sans-serif"
     id="g221"
     text-rendering="geometricPrecision"
     transform="translate(507,227)">
    <rect
       style="stroke:none"
       id="rect223"
       clip-path="url(#clipPath7)"
       y="0"
       height="12"
       width="12"
       x="0" />
  </g>
  <g
     style="fill:#000000;fill-opacity:1;stroke:#000000;stroke-linecap:butt;stroke-linejoin:round;stroke-miterlimit:0;stroke-opacity:1;font-family:sans-serif"
     id="g225"
     stroke-miterlimit="0"
     text-rendering="geometricPrecision"
     transform="translate(507,227)">
    <rect
       style="fill:none"
       id="rect227"
       clip-path="url(#clipPath7)"
       y="0"
       height="12"
       width="12"
       x="0" />
  </g>
  <g
     style="fill:#c0c0ff;fill-opacity:1;stroke:#c0c0ff;stroke-opacity:1;font-family:sans-serif"
     id="g229"
     text-rendering="geometricPrecision"
     transform="translate(437,254)">
    <rect
       style="stroke:none"
       id="rect231"
       clip-path="url(#clipPath7)"
       y="0"
       height="12"
       width="12"
       x="0" />
  </g>
  <g
     style="fill:#000000;fill-opacity:1;stroke:#000000;stroke-linecap:butt;stroke-linejoin:round;stroke-miterlimit:0;stroke-opacity:1;font-family:sans-serif"
     id="g233"
     stroke-miterlimit="0"
     text-rendering="geometricPrecision"
     transform="translate(437,254)">
    <rect
       style="fill:none"
       id="rect235"
       clip-path="url(#clipPath7)"
       y="0"
       height="12"
       width="12"
       x="0" />
  </g>
  <g
     style="fill:#c0c0ff;fill-opacity:1;stroke:#c0c0ff;stroke-opacity:1;font-family:sans-serif"
     id="g237"
     text-rendering="geometricPrecision"
     transform="translate(377,327)">
    <rect
       style="stroke:none"
       id="rect239"
       height="60"
       ry="15"
       rx="15"
       width="130"
       clip-path="url(#clipPath12)"
       y="0"
       x="0" />
  </g>
  <g
     style="fill:#000000;fill-opacity:1;stroke:#000000;stroke-linecap:butt;stroke-linejoin:round;stroke-miterlimit:0;stroke-opacity:1;font-family:sans-serif"
     id="g241"
     stroke-miterlimit="0"
     text-rendering="geometricPrecision"
     transform="translate(377,327)">
    <rect
       style="fill:none"
       id="rect243"
       height="60"
       ry="15"
       rx="15"
       width="130"
       clip-path="url(#clipPath12)"
       y="0"
       x="0" />
  </g>
  <g
     style="fill:#000000;fill-opacity:1;stroke:#000000;stroke-opacity:1;font-family:sans-serif"
     id="g245"
     text-rendering="geometricPrecision"
     transform="translate(377,327)">
    <text
       style="stroke:none"
       id="text247"
       clip-path="url(#clipPath13)"
       y="19"
       xml:space="preserve"
       x="40">Extractor</text>
    <text
       style="stroke:none"
       id="text249"
       clip-path="url(#clipPath13)"
       y="35"
       xml:space="preserve"
       x="20">&lt;RetrievedType,</text>
    <text
       style="stroke:none"
       id="text251"
       clip-path="url(#clipPath13)"
       y="51"
       xml:space="preserve"
       x="22">ExtractedType&gt;</text>
  </g>
  <g
     style="fill:#c0c0ff;fill-opacity:1;stroke:#c0c0ff;stroke-opacity:1;font-family:sans-serif"
     id="g253"
     text-rendering="geometricPrecision"
     transform="translate(435,316)">
    <rect
       style="stroke:none"
       id="rect255"
       clip-path="url(#clipPath7)"
       y="0"
       height="12"
       width="12"
       x="0" />
  </g>
  <g
     style="fill:#000000;fill-opacity:1;stroke:#000000;stroke-linecap:butt;stroke-linejoin:round;stroke-miterlimit:0;stroke-opacity:1;font-family:sans-serif"
     id="g257"
     stroke-miterlimit="0"
     text-rendering="geometricPrecision"
     transform="translate(435,316)">
    <rect
       style="fill:none"
       id="rect259"
       clip-path="url(#clipPath7)"
       y="0"
       height="12"
       width="12"
       x="0" />
  </g>
  <g
     style="fill:#ffc0c0;fill-opacity:1;stroke:#ffc0c0;stroke-opacity:1;font-family:sans-serif"
     id="g261"
     text-rendering="geometricPrecision"
     transform="translate(506,351)">
    <rect
       style="stroke:none"
       id="rect263"
       clip-path="url(#clipPath7)"
       y="0"
       height="12"
       width="12"
       x="0" />
  </g>
  <g
     style="fill:#000000;fill-opacity:1;stroke:#000000;stroke-linecap:butt;stroke-linejoin:round;stroke-miterlimit:0;stroke-opacity:1;font-family:sans-serif"
     id="g265"
     stroke-miterlimit="0"
     text-rendering="geometricPrecision"
     transform="translate(506,351)">
    <rect
       style="fill:none"
       id="rect267"
       clip-path="url(#clipPath7)"
       y="0"
       height="12"
       width="12"
       x="0" />
  </g>
  <g
     style="fill:#c0c0ff;fill-opacity:1;stroke:#c0c0ff;stroke-opacity:1;font-family:sans-serif"
     id="g269"
     text-rendering="geometricPrecision"
     transform="translate(366,350)">
    <rect
       style="stroke:none"
       id="rect271"
       clip-path="url(#clipPath7)"
       y="0"
       height="12"
       width="12"
       x="0" />
  </g>
  <g
     style="fill:#000000;fill-opacity:1;stroke:#000000;stroke-linecap:butt;stroke-linejoin:round;stroke-miterlimit:0;stroke-opacity:1;font-family:sans-serif"
     id="g273"
     stroke-miterlimit="0"
     text-rendering="geometricPrecision"
     transform="translate(366,350)">
    <rect
       style="fill:none"
       id="rect275"
       clip-path="url(#clipPath7)"
       y="0"
       height="12"
       width="12"
       x="0" />
  </g>
  <g
     style="font-size:11px;fill:#7acff5;fill-opacity:1;stroke:#7acff5;stroke-opacity:1;font-family:sans-serif"
     id="g277"
     text-rendering="geometricPrecision"
     transform="translate(305,93)"
     font-size="11">
    <polygon
       style="stroke:none"
       id="polygon279"
       clip-path="url(#clipPath14)"
       points="299,15 284,15 284,0 299,15 299,59 0,59 0,0 284,0 " />
  </g>
  <g
     style="font-size:11px;fill:#000000;fill-opacity:1;stroke:#000000;stroke-linecap:butt;stroke-linejoin:round;stroke-miterlimit:0;stroke-opacity:1;font-family:sans-serif"
     id="g281"
     stroke-miterlimit="0"
     text-rendering="geometricPrecision"
     transform="translate(305,93)"
     font-size="11">
    <polygon
       style="fill:none"
       id="polygon283"
       clip-path="url(#clipPath14)"
       points="299,15 284,15 284,0 299,15 299,59 0,59 0,0 284,0 " />
  </g>
  <g
     style="font-size:11px;fill:#000000;fill-opacity:1;stroke:#000000;stroke-opacity:1;font-family:Tahoma"
     id="g285"
     text-rendering="geometricPrecision"
     transform="translate(305,93)"
     font-size="11">
    <path
       style="stroke:none"
       inkscape:connector-curvature="0"
       id="path287"
       clip-path="url(#clipPath15)"
       d="m 5.8594,14.4189 0,-6.9375 -2.5938,0 0,-0.9375 6.2344,0 0,0.9375 -2.6094,0 0,6.9375 -1.0312,0 z m 3.8594,0 0,-7.875 0.9687,0 0,2.8282 q 0.6875,-0.7813 1.7187,-0.7813 0.625,0 1.0938,0.25 0.4688,0.25 0.6719,0.6875 0.2031,0.4375 0.2031,1.2813 l 0,3.6093 -0.9688,0 0,-3.6093 q 0,-0.7344 -0.3124,-1.0625 -0.3126,-0.3282 -0.8907,-0.3282 -0.4375,0 -0.8125,0.2188 -0.375,0.2187 -0.539,0.6016 -0.1641,0.3828 -0.1641,1.0546 l 0,3.125 -0.9687,0 z m 9.9062,-1.8437 1,0.125 q -0.2344,0.875 -0.875,1.3594 -0.6406,0.4843 -1.625,0.4843 -1.25,0 -1.9844,-0.7656 -0.7344,-0.7656 -0.7344,-2.1562 0,-1.4532 0.7422,-2.2422 0.7422,-0.7891 1.9141,-0.7891 1.1563,0 1.875,0.7735 0.7187,0.7734 0.7187,2.1953 0,0.0781 0,0.25 l -4.25,0 q 0.0469,0.9375 0.5235,1.4375 0.4765,0.5 1.1953,0.5 0.5312,0 0.9062,-0.2735 0.375,-0.2734 0.5938,-0.8984 z m -3.1719,-1.5625 3.1875,0 Q 19.5781,10.2939 19.2812,9.9346 18.8125,9.3877 18.0781,9.3877 q -0.6719,0 -1.125,0.4453 -0.4531,0.4453 -0.5,1.1797 z m 12.0781,0.3125 0,-0.9219 3.3438,0 0,2.9219 q -0.7812,0.6094 -1.5938,0.9219 -0.8124,0.3125 -1.6718,0.3125 -1.1563,0 -2.1094,-0.5 -0.9531,-0.5 -1.4375,-1.4375 -0.4844,-0.9375 -0.4844,-2.1094 0,-1.1406 0.4844,-2.1406 0.4844,-1 1.3906,-1.4844 0.9063,-0.4844 2.0781,-0.4844 0.8438,0 1.5391,0.2813 0.6953,0.2812 1.0859,0.7734 0.3907,0.4922 0.5938,1.2891 l -0.9375,0.25 Q 30.6406,8.4033 30.375,8.0596 30.1094,7.7158 29.6172,7.5127 29.125,7.3096 28.5312,7.3096 q -0.7187,0 -1.2343,0.2109 -0.5157,0.2109 -0.836,0.5703 -0.3203,0.3594 -0.5078,0.7813 -0.2969,0.7343 -0.2969,1.5781 0,1.0625 0.3672,1.7656 0.3672,0.7031 1.0547,1.0469 0.6875,0.3437 1.4688,0.3437 0.6719,0 1.3203,-0.2578 0.6484,-0.2578 0.9766,-0.5547 l 0,-1.4687 -2.3126,0 z m 4.1876,3.0937 0,-5.7031 0.8593,0 0,0.8594 q 0.3438,-0.6094 0.625,-0.7969 0.2813,-0.1875 0.6094,-0.1875 0.5,0 1,0.3125 L 35.4844,9.7939 Q 35.125,9.5908 34.7656,9.5908 q -0.3125,0 -0.5625,0.1875 -0.25,0.1875 -0.3593,0.5313 -0.1563,0.5156 -0.1563,1.125 l 0,2.9843 -0.9687,0 z m 3.6406,-2.8593 q 0,-1.5782 0.8906,-2.3438 0.7344,-0.625 1.7969,-0.625 1.1719,0 1.914,0.7656 0.7422,0.7657 0.7422,2.125 0,1.1094 -0.3281,1.7422 -0.3281,0.6328 -0.9609,0.9766 -0.6329,0.3437 -1.3672,0.3437 -1.2031,0 -1.9453,-0.7656 -0.7422,-0.7656 -0.7422,-2.2187 z m 1,0 q 0,1.1093 0.4765,1.6484 0.4766,0.5391 1.211,0.5391 0.7187,0 1.1953,-0.5469 0.4766,-0.5469 0.4766,-1.6719 0,-1.0469 -0.4844,-1.5937 -0.4844,-0.5469 -1.1875,-0.5469 -0.7344,0 -1.211,0.5391 -0.4765,0.539 -0.4765,1.6328 z m 9.1094,2.8593 0,-0.8437 q -0.6719,0.9687 -1.8126,0.9687 -0.5,0 -0.9453,-0.1953 -0.4453,-0.1953 -0.6562,-0.4843 -0.2109,-0.2891 -0.2891,-0.711 -0.0625,-0.2812 -0.0625,-0.9062 l 0,-3.5313 0.9688,0 0,3.1563 q 0,0.7656 0.0625,1.0312 0.0937,0.375 0.3828,0.5938 0.289,0.2187 0.7266,0.2187 0.4374,0 0.8203,-0.2265 0.3828,-0.2266 0.539,-0.6094 0.1563,-0.3828 0.1563,-1.1016 l 0,-3.0625 0.9687,0 0,5.7031 -0.8593,0 z m 2.25,2.1875 0,-7.8906 0.8906,0 0,0.7344 q 0.3125,-0.4219 0.7031,-0.6406 0.3906,-0.2188 0.9531,-0.2188 0.7188,0 1.2813,0.375 0.5625,0.375 0.8437,1.0547 0.2813,0.6797 0.2813,1.5078 0,0.875 -0.3125,1.5703 -0.3125,0.6953 -0.9141,1.0703 -0.6015,0.375 -1.2578,0.375 -0.4844,0 -0.8672,-0.2031 -0.3828,-0.2031 -0.6328,-0.5156 l 0,2.7812 -0.9687,0 z m 0.875,-5 q 0,1.0938 0.4531,1.6172 0.4531,0.5235 1.0781,0.5235 0.6406,0 1.1016,-0.5391 0.4609,-0.5391 0.4609,-1.6953 0,-1.0781 -0.4453,-1.625 -0.4453,-0.5469 -1.0703,-0.5469 -0.625,0 -1.1016,0.5781 -0.4765,0.5782 -0.4765,1.6875 z m 8.2187,2.8125 0,-7.875 1.0313,0 0,3.9063 3.9218,-3.9063 1.4063,0 -3.2969,3.1875 3.4375,4.6875 -1.375,0 -2.7969,-3.9843 -1.2968,1.25 0,2.7343 -1.0313,0 z m 10.8125,-1.8437 1,0.125 q -0.2344,0.875 -0.875,1.3594 -0.6406,0.4843 -1.625,0.4843 -1.25,0 -1.9844,-0.7656 -0.7344,-0.7656 -0.7344,-2.1562 0,-1.4532 0.7422,-2.2422 0.7422,-0.7891 1.9141,-0.7891 1.1563,0 1.875,0.7735 0.7187,0.7734 0.7187,2.1953 0,0.0781 0,0.25 l -4.25,0 q 0.0469,0.9375 0.5235,1.4375 0.4765,0.5 1.1953,0.5 0.5312,0 0.9062,-0.2735 0.375,-0.2734 0.5938,-0.8984 z m -3.1719,-1.5625 3.1875,0 Q 68.5781,10.2939 68.2812,9.9346 67.8125,9.3877 67.0781,9.3877 q -0.6719,0 -1.125,0.4453 -0.4531,0.4453 -0.5,1.1797 z m 5.2344,5.6094 -0.1094,-0.9063 q 0.3125,0.0781 0.5469,0.0781 0.3281,0 0.5234,-0.1093 0.1954,-0.1094 0.3047,-0.2969 0.0938,-0.1406 0.2969,-0.7188 0.0312,-0.0781 0.0938,-0.2343 l -2.1719,-5.7188 1.0469,0 1.1874,3.2969 q 0.2344,0.6406 0.4063,1.3281 0.1719,-0.6719 0.4063,-1.2969 l 1.2187,-3.3281 0.9687,0 -2.1718,5.7969 q -0.3438,0.9375 -0.5469,1.2969 -0.25,0.4843 -0.5859,0.7031 -0.336,0.2187 -0.7891,0.2187 -0.2813,0 -0.625,-0.1093 z m 12.7656,-4.2969 0.9375,0.125 q -0.1406,0.9844 -0.789,1.5391 -0.6485,0.5546 -1.5704,0.5546 -1.1718,0 -1.8828,-0.7656 -0.7109,-0.7656 -0.7109,-2.1875 0,-0.9219 0.3047,-1.6172 0.3047,-0.6953 0.9297,-1.039 0.625,-0.3438 1.3593,-0.3438 0.9219,0 1.5157,0.4688 0.5937,0.4687 0.7656,1.3281 l -0.9531,0.1406 Q 83.2344,9.9658 82.8906,9.6768 82.5469,9.3877 82.0625,9.3877 q -0.7187,0 -1.1797,0.5234 -0.4609,0.5235 -0.4609,1.6485 0,1.1562 0.4375,1.6718 0.4375,0.5157 1.1562,0.5157 0.5625,0 0.9453,-0.3438 0.3829,-0.3437 0.4922,-1.0781 z m 1.9063,-0.7656 q 0,-1.5782 0.8906,-2.3438 0.7344,-0.625 1.7969,-0.625 1.1719,0 1.914,0.7656 0.7422,0.7657 0.7422,2.125 0,1.1094 -0.3281,1.7422 -0.3281,0.6328 -0.9609,0.9766 -0.6329,0.3437 -1.3672,0.3437 -1.2031,0 -1.9453,-0.7656 -0.7422,-0.7656 -0.7422,-2.2187 z m 1,0 q 0,1.1093 0.4765,1.6484 0.4766,0.5391 1.211,0.5391 0.7187,0 1.1953,-0.5469 0.4766,-0.5469 0.4766,-1.6719 0,-1.0469 -0.4844,-1.5937 -0.4844,-0.5469 -1.1875,-0.5469 -0.7344,0 -1.211,0.5391 -0.4765,0.539 -0.4765,1.6328 z m 5.3594,2.8593 0,-5.7031 0.875,0 0,0.8125 q 0.625,-0.9375 1.8124,-0.9375 0.5157,0 0.9532,0.1797 0.4375,0.1797 0.6484,0.4844 0.211,0.3047 0.3047,0.7109 0.0469,0.2813 0.0469,0.9531 l 0,3.5 -0.9688,0 0,-3.4687 q 0,-0.5938 -0.1094,-0.8828 -0.1093,-0.2891 -0.3984,-0.4688 -0.289,-0.1797 -0.6797,-0.1797 -0.6093,0 -1.0625,0.3907 -0.4531,0.3906 -0.4531,1.5 l 0,3.1093 -0.9687,0 z m 5.625,-1.7031 0.9531,-0.1562 q 0.0781,0.5781 0.4453,0.8828 0.3672,0.3047 1.0234,0.3047 0.6719,0 0.9922,-0.2657 0.3203,-0.2656 0.3203,-0.6406 0,-0.3281 -0.2812,-0.5156 -0.2031,-0.125 -0.9844,-0.3281 -1.0625,-0.2657 -1.4766,-0.461 -0.414,-0.1953 -0.625,-0.539 Q 97.5,10.6533 97.5,10.2314 q 0,-0.3906 0.1719,-0.7109 0.1719,-0.3203 0.4843,-0.5391 0.2188,-0.1718 0.6094,-0.2812 0.3906,-0.1094 0.8282,-0.1094 0.6718,0 1.1796,0.1875 0.5078,0.1875 0.75,0.5235 0.2422,0.3359 0.336,0.8828 l -0.9375,0.125 q -0.0781,-0.4375 -0.3828,-0.6797 -0.3047,-0.2422 -0.8672,-0.2422 -0.6719,0 -0.9531,0.2187 -0.2813,0.2188 -0.2813,0.5157 0,0.1875 0.1094,0.3281 0.125,0.1562 0.375,0.2656 0.1406,0.0469 0.8593,0.25 1.0157,0.2656 1.4219,0.4375 0.4063,0.1719 0.6407,0.5078 0.2343,0.336 0.2343,0.836 0,0.4843 -0.2812,0.9062 -0.2813,0.4219 -0.8125,0.6563 -0.5313,0.2343 -1.2032,0.2343 -1.1093,0 -1.6953,-0.4609 Q 97.5,13.6221 97.3438,12.7158 z m 6.3906,-5.0625 0,-1.1094 0.9687,0 0,1.1094 -0.9687,0 z m 0,6.7656 0,-5.7031 0.9687,0 0,5.7031 -0.9687,0 z m 1.6094,-1.7031 0.9531,-0.1562 q 0.0781,0.5781 0.4453,0.8828 0.3672,0.3047 1.0234,0.3047 0.6719,0 0.9922,-0.2657 0.3203,-0.2656 0.3203,-0.6406 0,-0.3281 -0.2812,-0.5156 -0.2031,-0.125 -0.9844,-0.3281 -1.0625,-0.2657 -1.4766,-0.461 -0.414,-0.1953 -0.625,-0.539 -0.2109,-0.3438 -0.2109,-0.7657 0,-0.3906 0.1719,-0.7109 0.1719,-0.3203 0.4843,-0.5391 0.2188,-0.1718 0.6094,-0.2812 0.3906,-0.1094 0.8282,-0.1094 0.6718,0 1.1796,0.1875 0.5078,0.1875 0.75,0.5235 0.2422,0.3359 0.336,0.8828 l -0.9375,0.125 q -0.0781,-0.4375 -0.3828,-0.6797 -0.3047,-0.2422 -0.8672,-0.2422 -0.6719,0 -0.9531,0.2187 -0.2813,0.2188 -0.2813,0.5157 0,0.1875 0.1094,0.3281 0.125,0.1562 0.375,0.2656 0.1406,0.0469 0.8593,0.25 1.0157,0.2656 1.4219,0.4375 0.4063,0.1719 0.6407,0.5078 0.2343,0.336 0.2343,0.836 0,0.4843 -0.2812,0.9062 -0.2813,0.4219 -0.8125,0.6563 -0.5313,0.2343 -1.2032,0.2343 -1.1093,0 -1.6953,-0.4609 -0.5859,-0.4609 -0.7421,-1.3672 z m 8.5,0.8438 0.125,0.8437 q -0.4063,0.0938 -0.7188,0.0938 -0.5312,0 -0.8203,-0.1719 -0.2891,-0.1719 -0.4063,-0.4375 -0.1172,-0.2656 -0.1172,-1.1406 l 0,-3.2813 -0.7187,0 0,-0.75 0.7187,0 0,-1.4062 0.9532,-0.5938 0,2 0.9844,0 0,0.75 -0.9844,0 0,3.3438 q 0,0.4062 0.0547,0.5234 0.0547,0.1172 0.1718,0.1875 0.1172,0.0703 0.3203,0.0703 0.1719,0 0.4376,-0.0312 z m 0.5,-0.8438 0.9531,-0.1562 q 0.0781,0.5781 0.4453,0.8828 0.3672,0.3047 1.0234,0.3047 0.6719,0 0.9922,-0.2657 0.3203,-0.2656 0.3203,-0.6406 0,-0.3281 -0.2812,-0.5156 -0.2031,-0.125 -0.9844,-0.3281 -1.0625,-0.2657 -1.4766,-0.461 -0.414,-0.1953 -0.625,-0.539 -0.2109,-0.3438 -0.2109,-0.7657 0,-0.3906 0.1719,-0.7109 0.1719,-0.3203 0.4843,-0.5391 0.2188,-0.1718 0.6094,-0.2812 0.3906,-0.1094 0.8282,-0.1094 0.6718,0 1.1796,0.1875 0.5078,0.1875 0.75,0.5235 0.2422,0.3359 0.336,0.8828 l -0.9375,0.125 q -0.0781,-0.4375 -0.3828,-0.6797 -0.3047,-0.2422 -0.8672,-0.2422 -0.6719,0 -0.9531,0.2187 -0.2813,0.2188 -0.2813,0.5157 0,0.1875 0.1094,0.3281 0.125,0.1562 0.375,0.2656 0.1406,0.0469 0.8593,0.25 1.0157,0.2656 1.4219,0.4375 0.4063,0.1719 0.6407,0.5078 0.2343,0.336 0.2343,0.836 0,0.4843 -0.2812,0.9062 -0.2813,0.4219 -0.8125,0.6563 -0.5313,0.2343 -1.2032,0.2343 -1.1093,0 -1.6953,-0.4609 -0.5859,-0.4609 -0.7421,-1.3672 z m 9.0156,-1.1562 q 0,-1.5782 0.8906,-2.3438 0.7344,-0.625 1.7969,-0.625 1.1719,0 1.914,0.7656 0.7422,0.7657 0.7422,2.125 0,1.1094 -0.3281,1.7422 -0.3281,0.6328 -0.9609,0.9766 -0.6329,0.3437 -1.3672,0.3437 -1.2031,0 -1.9453,-0.7656 -0.7422,-0.7656 -0.7422,-2.2187 z m 1,0 q 0,1.1093 0.4765,1.6484 0.4766,0.5391 1.211,0.5391 0.7187,0 1.1953,-0.5469 0.4766,-0.5469 0.4766,-1.6719 0,-1.0469 -0.4844,-1.5937 -0.4844,-0.5469 -1.1875,-0.5469 -0.7344,0 -1.211,0.5391 -0.4765,0.539 -0.4765,1.6328 z m 5.5937,2.8593 0,-4.9531 -0.8437,0 0,-0.75 0.8437,0 0,-0.6094 q 0,-0.5781 0.1094,-0.8593 0.1406,-0.375 0.4922,-0.6094 0.3515,-0.2344 0.9765,-0.2344 0.4063,0 0.9063,0.1094 l -0.1406,0.8437 q -0.3125,-0.0625 -0.5781,-0.0625 -0.4376,0 -0.6172,0.1875 -0.1797,0.1875 -0.1797,0.7032 l 0,0.5312 1.1093,0 0,0.75 -1.1093,0 0,4.9531 -0.9688,0 z m 8.8907,-0.8593 0.125,0.8437 q -0.4063,0.0938 -0.7188,0.0938 -0.5312,0 -0.8203,-0.1719 -0.2891,-0.1719 -0.4063,-0.4375 -0.1172,-0.2656 -0.1172,-1.1406 l 0,-3.2813 -0.7187,0 0,-0.75 0.7187,0 0,-1.4062 0.9532,-0.5938 0,2 0.9844,0 0,0.75 -0.9844,0 0,3.3438 q 0,0.4062 0.0547,0.5234 0.0547,0.1172 0.1718,0.1875 0.1172,0.0703 0.3203,0.0703 0.1719,0 0.4376,-0.0312 z m 0.875,0.8593 0,-7.875 0.9687,0 0,2.8282 q 0.6875,-0.7813 1.7187,-0.7813 0.625,0 1.0938,0.25 0.4688,0.25 0.6719,0.6875 0.2031,0.4375 0.2031,1.2813 l 0,3.6093 -0.9688,0 0,-3.6093 q 0,-0.7344 -0.3124,-1.0625 -0.3126,-0.3282 -0.8907,-0.3282 -0.4375,0 -0.8125,0.2188 -0.375,0.2187 -0.539,0.6016 -0.1641,0.3828 -0.1641,1.0546 l 0,3.125 -0.9687,0 z m 9.9062,-1.8437 1,0.125 q -0.2344,0.875 -0.875,1.3594 -0.6406,0.4843 -1.625,0.4843 -1.25,0 -1.9844,-0.7656 -0.7344,-0.7656 -0.7344,-2.1562 0,-1.4532 0.7422,-2.2422 0.7422,-0.7891 1.9141,-0.7891 1.1563,0 1.875,0.7735 0.7187,0.7734 0.7187,2.1953 0,0.0781 0,0.25 l -4.25,0 q 0.0469,0.9375 0.5235,1.4375 0.4765,0.5 1.1953,0.5 0.5312,0 0.9062,-0.2735 0.375,-0.2734 0.5938,-0.8984 z m -3.1719,-1.5625 3.1875,0 q -0.0625,-0.7188 -0.3594,-1.0781 -0.4687,-0.5469 -1.2031,-0.5469 -0.6719,0 -1.125,0.4453 -0.4531,0.4453 -0.5,1.1797 z m 11.9688,3.4062 0,-0.7187 q -0.5313,0.8437 -1.5938,0.8437 -0.6719,0 -1.25,-0.375 -0.5781,-0.375 -0.8906,-1.0468 -0.3125,-0.6719 -0.3125,-1.5469 0,-0.8594 0.2891,-1.5547 0.289,-0.6953 0.8515,-1.0625 0.5625,-0.3672 1.2656,-0.3672 0.5157,0 0.9219,0.2188 0.4063,0.2187 0.6563,0.5625 l 0,-2.8282 0.9687,0 0,7.875 -0.9062,0 z m -3.0469,-2.8437 q 0,1.0937 0.4609,1.6328 0.461,0.5391 1.086,0.5391 0.6406,0 1.0781,-0.5157 0.4375,-0.5156 0.4375,-1.5781 0,-1.1719 -0.4453,-1.7187 -0.4453,-0.5469 -1.1172,-0.5469 -0.6406,0 -1.0703,0.5234 -0.4297,0.5235 -0.4297,1.6641 z m 5.3594,-3.9219 0,-1.1094 0.9687,0 0,1.1094 -0.9687,0 z m 0,6.7656 0,-5.7031 0.9687,0 0,5.7031 -0.9687,0 z m 1.9844,0 0,-5.7031 0.875,0 0,0.7969 q 0.2656,-0.4219 0.7109,-0.6719 0.4453,-0.25 1.0078,-0.25 0.6406,0 1.0469,0.2578 0.4062,0.2578 0.5781,0.7422 0.6719,-1 1.75,-1 0.8594,0 1.3125,0.4688 0.4531,0.4687 0.4531,1.4375 l 0,3.9218 -0.9531,0 0,-3.5937 q 0,-0.5781 -0.0938,-0.8359 -0.0937,-0.2579 -0.3437,-0.4141 -0.25,-0.1563 -0.5781,-0.1563 -0.6094,0 -1.0078,0.4063 -0.3985,0.4062 -0.3985,1.2812 l 0,3.3125 -0.9687,0 0,-3.7031 q 0,-0.6406 -0.2344,-0.9687 -0.2344,-0.3282 -0.7656,-0.3282 -0.4063,0 -0.7578,0.2188 -0.3516,0.2187 -0.5078,0.6328 -0.1563,0.4141 -0.1563,1.1953 l 0,2.9531 -0.9687,0 z m 11.9062,-1.8437 1,0.125 q -0.2344,0.875 -0.875,1.3594 -0.6406,0.4843 -1.625,0.4843 -1.25,0 -1.9844,-0.7656 -0.7344,-0.7656 -0.7344,-2.1562 0,-1.4532 0.7422,-2.2422 0.7422,-0.7891 1.9141,-0.7891 1.1563,0 1.875,0.7735 0.7187,0.7734 0.7187,2.1953 0,0.0781 0,0.25 l -4.25,0 q 0.0469,0.9375 0.5235,1.4375 0.4765,0.5 1.1953,0.5 0.5312,0 0.9062,-0.2735 0.375,-0.2734 0.5938,-0.8984 z m -3.1719,-1.5625 3.1875,0 q -0.0625,-0.7188 -0.3594,-1.0781 -0.4687,-0.5469 -1.2031,-0.5469 -0.6719,0 -1.125,0.4453 -0.4531,0.4453 -0.5,1.1797 z m 5.2657,3.4062 0,-5.7031 0.875,0 0,0.8125 q 0.625,-0.9375 1.8124,-0.9375 0.5157,0 0.9532,0.1797 0.4375,0.1797 0.6484,0.4844 0.211,0.3047 0.3047,0.7109 0.0469,0.2813 0.0469,0.9531 l 0,3.5 -0.9688,0 0,-3.4687 q 0,-0.5938 -0.1094,-0.8828 -0.1093,-0.2891 -0.3984,-0.4688 -0.289,-0.1797 -0.6797,-0.1797 -0.6093,0 -1.0625,0.3907 -0.4531,0.3906 -0.4531,1.5 l 0,3.1093 -0.9687,0 z m 5.625,-1.7031 0.9531,-0.1562 q 0.0781,0.5781 0.4453,0.8828 0.3672,0.3047 1.0234,0.3047 0.6719,0 0.9922,-0.2657 0.3203,-0.2656 0.3203,-0.6406 0,-0.3281 -0.2812,-0.5156 -0.2031,-0.125 -0.9844,-0.3281 -1.0625,-0.2657 -1.4766,-0.461 -0.414,-0.1953 -0.625,-0.539 -0.2109,-0.3438 -0.2109,-0.7657 0,-0.3906 0.1719,-0.7109 0.1719,-0.3203 0.4843,-0.5391 0.2188,-0.1718 0.6094,-0.2812 0.3906,-0.1094 0.8282,-0.1094 0.6718,0 1.1796,0.1875 0.5078,0.1875 0.75,0.5235 0.2422,0.3359 0.336,0.8828 l -0.9375,0.125 q -0.0781,-0.4375 -0.3828,-0.6797 -0.3047,-0.2422 -0.8672,-0.2422 -0.6719,0 -0.9531,0.2187 -0.2813,0.2188 -0.2813,0.5157 0,0.1875 0.1094,0.3281 0.125,0.1562 0.375,0.2656 0.1406,0.0469 0.8593,0.25 1.0157,0.2656 1.4219,0.4375 0.4063,0.1719 0.6407,0.5078 0.2343,0.336 0.2343,0.836 0,0.4843 -0.2812,0.9062 -0.2813,0.4219 -0.8125,0.6563 -0.5313,0.2343 -1.2032,0.2343 -1.1093,0 -1.6953,-0.4609 -0.5859,-0.4609 -0.7421,-1.3672 z m 6.3906,-5.0625 0,-1.1094 0.9687,0 0,1.1094 -0.9687,0 z m 0,6.7656 0,-5.7031 0.9687,0 0,5.7031 -0.9687,0 z m 1.625,-2.8593 q 0,-1.5782 0.8906,-2.3438 0.7344,-0.625 1.7969,-0.625 1.1719,0 1.914,0.7656 0.7422,0.7657 0.7422,2.125 0,1.1094 -0.3281,1.7422 -0.3281,0.6328 -0.9609,0.9766 -0.6329,0.3437 -1.3672,0.3437 -1.2031,0 -1.9453,-0.7656 -0.7422,-0.7656 -0.7422,-2.2187 z m 1,0 q 0,1.1093 0.4765,1.6484 0.4766,0.5391 1.211,0.5391 0.7187,0 1.1953,-0.5469 0.4766,-0.5469 0.4766,-1.6719 0,-1.0469 -0.4844,-1.5937 -0.4844,-0.5469 -1.1875,-0.5469 -0.7344,0 -1.211,0.5391 -0.4765,0.539 -0.4765,1.6328 z m 5.3594,2.8593 0,-5.7031 0.875,0 0,0.8125 q 0.625,-0.9375 1.8124,-0.9375 0.5157,0 0.9532,0.1797 0.4375,0.1797 0.6484,0.4844 0.211,0.3047 0.3047,0.7109 0.0469,0.2813 0.0469,0.9531 l 0,3.5 -0.9688,0 0,-3.4687 q 0,-0.5938 -0.1094,-0.8828 -0.1093,-0.2891 -0.3984,-0.4688 -0.289,-0.1797 -0.6797,-0.1797 -0.6093,0 -1.0625,0.3907 -0.4531,0.3906 -0.4531,1.5 l 0,3.1093 -0.9687,0 z m 9.7343,-0.7031 q -0.5469,0.4531 -1.039,0.6406 -0.4922,0.1875 -1.0703,0.1875 -0.9376,0 -1.4454,-0.4609 -0.5078,-0.4609 -0.5078,-1.1641 0,-0.4218 0.1953,-0.7656 0.1953,-0.3437 0.5,-0.5547 0.3047,-0.2109 0.6953,-0.3203 0.2813,-0.0781 0.8594,-0.1406 1.1719,-0.1406 1.7188,-0.3438 0.0156,-0.1875 0.0156,-0.25 0,-0.5937 -0.2812,-0.8281 Q 205.7344,9.3877 205,9.3877 q -0.6875,0 -1.0078,0.2344 -0.3203,0.2343 -0.4766,0.8437 l -0.9531,-0.125 q 0.125,-0.6094 0.4219,-0.9844 0.2968,-0.375 0.8594,-0.5703 0.5624,-0.1953 1.2968,-0.1953 0.7344,0 1.1875,0.1719 0.4531,0.1719 0.6641,0.4297 0.2109,0.2578 0.3047,0.6484 0.0469,0.25 0.0469,0.9063 l 0,1.2812 q 0,1.3438 0.0624,1.7031 0.0626,0.3594 0.25,0.6875 l -1.0156,0 q -0.1562,-0.2968 -0.1875,-0.7031 z m -0.0937,-2.1562 q -0.5156,0.2187 -1.5782,0.3593 -0.5937,0.0938 -0.8359,0.1954 -0.2422,0.1015 -0.3828,0.3125 -0.1406,0.2109 -0.1406,0.4609 0,0.3906 0.2969,0.6484 0.2968,0.2578 0.8593,0.2578 0.5625,0 0.9922,-0.25 0.4297,-0.25 0.6485,-0.6718 0.1406,-0.3282 0.1406,-0.9688 l 0,-0.3437 z m 2.3437,2.8593 0,-7.875 0.9688,0 0,7.875 -0.9688,0 z m 6.6094,0 -2.1719,-5.7031 1.0156,0 1.2344,3.4219 q 0.1875,0.5469 0.3594,1.1406 0.125,-0.4531 0.3594,-1.0781 l 1.2656,-3.4844 1,0 -2.1562,5.7031 -0.9063,0 z m 8.1406,-0.7031 q -0.5469,0.4531 -1.039,0.6406 -0.4922,0.1875 -1.0703,0.1875 -0.9376,0 -1.4454,-0.4609 -0.5078,-0.4609 -0.5078,-1.1641 0,-0.4218 0.1953,-0.7656 0.1953,-0.3437 0.5,-0.5547 0.3047,-0.2109 0.6953,-0.3203 0.2813,-0.0781 0.8594,-0.1406 1.1719,-0.1406 1.7188,-0.3438 0.0156,-0.1875 0.0156,-0.25 0,-0.5937 -0.2812,-0.8281 Q 222.7344,9.3877 222,9.3877 q -0.6875,0 -1.0078,0.2344 -0.3203,0.2343 -0.4766,0.8437 l -0.9531,-0.125 q 0.125,-0.6094 0.4219,-0.9844 0.2968,-0.375 0.8594,-0.5703 0.5624,-0.1953 1.2968,-0.1953 0.7344,0 1.1875,0.1719 0.4531,0.1719 0.6641,0.4297 0.2109,0.2578 0.3047,0.6484 0.0469,0.25 0.0469,0.9063 l 0,1.2812 q 0,1.3438 0.0624,1.7031 0.0626,0.3594 0.25,0.6875 l -1.0156,0 q -0.1562,-0.2968 -0.1875,-0.7031 z m -0.0937,-2.1562 q -0.5156,0.2187 -1.5782,0.3593 -0.5937,0.0938 -0.8359,0.1954 -0.2422,0.1015 -0.3828,0.3125 -0.1406,0.2109 -0.1406,0.4609 0,0.3906 0.2969,0.6484 0.2968,0.2578 0.8593,0.2578 0.5625,0 0.9922,-0.25 0.4297,-0.25 0.6485,-0.6718 0.1406,-0.3282 0.1406,-0.9688 l 0,-0.3437 z m 2.3437,2.8593 0,-7.875 0.9688,0 0,7.875 -0.9688,0 z m 5.7657,0 0,-0.8437 q -0.6719,0.9687 -1.8126,0.9687 -0.5,0 -0.9453,-0.1953 -0.4453,-0.1953 -0.6562,-0.4843 -0.2109,-0.2891 -0.2891,-0.711 -0.0625,-0.2812 -0.0625,-0.9062 l 0,-3.5313 0.9688,0 0,3.1563 q 0,0.7656 0.0625,1.0312 0.0937,0.375 0.3828,0.5938 0.289,0.2187 0.7266,0.2187 0.4374,0 0.8203,-0.2265 0.3828,-0.2266 0.539,-0.6094 0.1563,-0.3828 0.1563,-1.1016 l 0,-3.0625 0.9687,0 0,5.7031 -0.8593,0 z m 6.1562,-1.8437 1,0.125 q -0.2344,0.875 -0.875,1.3594 -0.6406,0.4843 -1.625,0.4843 -1.25,0 -1.9844,-0.7656 -0.7344,-0.7656 -0.7344,-2.1562 0,-1.4532 0.7422,-2.2422 0.7422,-0.7891 1.9141,-0.7891 1.1563,0 1.875,0.7735 0.7187,0.7734 0.7187,2.1953 0,0.0781 0,0.25 l -4.25,0 q 0.0469,0.9375 0.5235,1.4375 0.4765,0.5 1.1953,0.5 0.5312,0 0.9062,-0.2735 0.375,-0.2734 0.5938,-0.8984 z m -3.1719,-1.5625 3.1875,0 q -0.0625,-0.7188 -0.3594,-1.0781 -0.4687,-0.5469 -1.2031,-0.5469 -0.6719,0 -1.125,0.4453 -0.4531,0.4453 -0.5,1.1797 z m 4.8907,1.7031 0.9531,-0.1562 q 0.0781,0.5781 0.4453,0.8828 0.3672,0.3047 1.0234,0.3047 0.6719,0 0.9922,-0.2657 0.3203,-0.2656 0.3203,-0.6406 0,-0.3281 -0.2812,-0.5156 -0.2031,-0.125 -0.9844,-0.3281 -1.0625,-0.2657 -1.4766,-0.461 -0.414,-0.1953 -0.625,-0.539 -0.2109,-0.3438 -0.2109,-0.7657 0,-0.3906 0.1719,-0.7109 0.1719,-0.3203 0.4843,-0.5391 0.2188,-0.1718 0.6094,-0.2812 0.3906,-0.1094 0.8282,-0.1094 0.6718,0 1.1796,0.1875 0.5078,0.1875 0.75,0.5235 0.2422,0.3359 0.336,0.8828 l -0.9375,0.125 q -0.0781,-0.4375 -0.3828,-0.6797 -0.3047,-0.2422 -0.8672,-0.2422 -0.6719,0 -0.9531,0.2187 -0.2813,0.2188 -0.2813,0.5157 0,0.1875 0.1094,0.3281 0.125,0.1562 0.375,0.2656 0.1406,0.0469 0.8593,0.25 1.0157,0.2656 1.4219,0.4375 0.4063,0.1719 0.6407,0.5078 0.2343,0.336 0.2343,0.836 0,0.4843 -0.2812,0.9062 -0.2813,0.4219 -0.8125,0.6563 -0.5313,0.2343 -1.2032,0.2343 -1.1093,0 -1.6953,-0.4609 -0.5859,-0.4609 -0.7421,-1.3672 z m 9.0156,-1.1562 q 0,-1.5782 0.8906,-2.3438 0.7344,-0.625 1.7969,-0.625 1.1719,0 1.914,0.7656 0.7422,0.7657 0.7422,2.125 0,1.1094 -0.3281,1.7422 -0.3281,0.6328 -0.9609,0.9766 -0.6329,0.3437 -1.3672,0.3437 -1.2031,0 -1.9453,-0.7656 -0.7422,-0.7656 -0.7422,-2.2187 z m 1,0 q 0,1.1093 0.4765,1.6484 0.4766,0.5391 1.211,0.5391 0.7187,0 1.1953,-0.5469 0.4766,-0.5469 0.4766,-1.6719 0,-1.0469 -0.4844,-1.5937 -0.4844,-0.5469 -1.1875,-0.5469 -0.7344,0 -1.211,0.5391 -0.4765,0.539 -0.4765,1.6328 z m 5.5937,2.8593 0,-4.9531 -0.8437,0 0,-0.75 0.8437,0 0,-0.6094 q 0,-0.5781 0.1094,-0.8593 0.1406,-0.375 0.4922,-0.6094 0.3515,-0.2344 0.9765,-0.2344 0.4063,0 0.9063,0.1094 l -0.1406,0.8437 q -0.3125,-0.0625 -0.5781,-0.0625 -0.4376,0 -0.6172,0.1875 -0.1797,0.1875 -0.1797,0.7032 l 0,0.5312 1.1093,0 0,0.75 -1.1093,0 0,4.9531 -0.9688,0 z m 8.8907,-0.8593 0.125,0.8437 q -0.4063,0.0938 -0.7188,0.0938 -0.5312,0 -0.8203,-0.1719 -0.2891,-0.1719 -0.4063,-0.4375 -0.1172,-0.2656 -0.1172,-1.1406 l 0,-3.2813 -0.7187,0 0,-0.75 0.7187,0 0,-1.4062 0.9532,-0.5938 0,2 0.9844,0 0,0.75 -0.9844,0 0,3.3438 q 0,0.4062 0.0547,0.5234 0.0547,0.1172 0.1718,0.1875 0.1172,0.0703 0.3203,0.0703 0.1719,0 0.4376,-0.0312 z m 0.875,0.8593 0,-7.875 0.9687,0 0,2.8282 q 0.6875,-0.7813 1.7187,-0.7813 0.625,0 1.0938,0.25 0.4688,0.25 0.6719,0.6875 0.2031,0.4375 0.2031,1.2813 l 0,3.6093 -0.9688,0 0,-3.6093 q 0,-0.7344 -0.3124,-1.0625 -0.3126,-0.3282 -0.8907,-0.3282 -0.4375,0 -0.8125,0.2188 -0.375,0.2187 -0.539,0.6016 -0.1641,0.3828 -0.1641,1.0546 l 0,3.125 -0.9687,0 z m 9.9062,-1.8437 1,0.125 q -0.2344,0.875 -0.875,1.3594 -0.6406,0.4843 -1.625,0.4843 -1.25,0 -1.9844,-0.7656 -0.7344,-0.7656 -0.7344,-2.1562 0,-1.4532 0.7422,-2.2422 0.7422,-0.7891 1.9141,-0.7891 1.1563,0 1.875,0.7735 0.7187,0.7734 0.7187,2.1953 0,0.0781 0,0.25 l -4.25,0 q 0.0469,0.9375 0.5235,1.4375 0.4765,0.5 1.1953,0.5 0.5312,0 0.9062,-0.2735 0.375,-0.2734 0.5938,-0.8984 z m -3.1719,-1.5625 3.1875,0 q -0.0625,-0.7188 -0.3594,-1.0781 -0.4687,-0.5469 -1.2031,-0.5469 -0.6719,0 -1.125,0.4453 -0.4531,0.4453 -0.5,1.1797 z" />
    <path
       style="stroke:none"
       inkscape:connector-curvature="0"
       id="path289"
       clip-path="url(#clipPath15)"
       d="m 3.5469,29.8877 0.9375,0.1406 q 0.0625,0.4375 0.3281,0.6406 0.3594,0.2657 0.9844,0.2657 0.6719,0 1.039,-0.2657 0.3672,-0.2656 0.4922,-0.75 0.0781,-0.2968 0.0781,-1.25 -0.6406,0.75 -1.5937,0.75 -1.1719,0 -1.8125,-0.8515 -0.6406,-0.8516 -0.6406,-2.0391 0,-0.8125 0.2968,-1.5 0.2969,-0.6875 0.8516,-1.0625 0.5547,-0.375 1.3203,-0.375 1,0 1.6563,0.8125 l 0,-0.6875 0.8906,0 0,4.9219 q 0,1.3437 -0.2656,1.8984 -0.2656,0.5547 -0.8594,0.875 -0.5938,0.3203 -1.4531,0.3203 -1.0157,0 -1.6407,-0.4609 -0.625,-0.4609 -0.6093,-1.3828 z m 0.7969,-3.4219 q 0,1.125 0.4453,1.6406 0.4453,0.5157 1.1171,0.5157 0.6719,0 1.125,-0.5157 0.4532,-0.5156 0.4532,-1.6093 0,-1.0469 -0.4688,-1.5782 -0.4687,-0.5312 -1.125,-0.5312 -0.6406,0 -1.0937,0.5234 -0.4531,0.5235 -0.4531,1.5547 z m 5.3906,-3.8125 0,-1.1094 0.9687,0 0,1.1094 -0.9687,0 z m 0,6.7656 0,-5.7031 0.9687,0 0,5.7031 -0.9687,0 z m 3.5781,0 -2.1719,-5.7031 1.0156,0 1.2344,3.4219 q 0.1875,0.5469 0.3594,1.1406 0.125,-0.4531 0.3594,-1.0781 l 1.2656,-3.4844 1,0 -2.1562,5.7031 -0.9063,0 z m 8.3125,-1.8437 1,0.125 q -0.2344,0.875 -0.875,1.3594 -0.6406,0.4843 -1.625,0.4843 -1.25,0 -1.9844,-0.7656 -0.7344,-0.7656 -0.7344,-2.1562 0,-1.4532 0.7422,-2.2422 0.7422,-0.7891 1.9141,-0.7891 1.1563,0 1.875,0.7735 0.7187,0.7734 0.7187,2.1953 0,0.0781 0,0.25 l -4.25,0 q 0.0469,0.9375 0.5235,1.4375 0.4765,0.5 1.1953,0.5 0.5312,0 0.9062,-0.2735 0.375,-0.2734 0.5938,-0.8984 z m -3.1719,-1.5625 3.1875,0 q -0.0625,-0.7188 -0.3594,-1.0781 -0.4687,-0.5469 -1.2031,-0.5469 -0.6719,0 -1.125,0.4453 -0.4531,0.4453 -0.5,1.1797 z m 5.2657,3.4062 0,-5.7031 0.875,0 0,0.8125 q 0.625,-0.9375 1.8124,-0.9375 0.5157,0 0.9532,0.1797 0.4375,0.1797 0.6484,0.4844 0.211,0.3047 0.3047,0.7109 0.0469,0.2813 0.0469,0.9531 l 0,3.5 -0.9688,0 0,-3.4687 q 0,-0.5938 -0.1094,-0.8828 -0.1093,-0.2891 -0.3984,-0.4688 -0.289,-0.1797 -0.6797,-0.1797 -0.6093,0 -1.0625,0.3907 -0.4531,0.3906 -0.4531,1.5 l 0,3.1093 -0.9687,0 z m 9.1874,0 0,-7.875 5.3126,0 0,0.9375 -4.2813,0 0,2.4375 3.7031,0 0,0.9219 -3.7031,0 0,3.5781 -1.0313,0 z m 9.5469,-0.7031 q -0.5469,0.4531 -1.039,0.6406 -0.4922,0.1875 -1.0703,0.1875 -0.9376,0 -1.4454,-0.4609 -0.5078,-0.4609 -0.5078,-1.1641 0,-0.4218 0.1953,-0.7656 0.1953,-0.3437 0.5,-0.5547 0.3047,-0.2109 0.6953,-0.3203 0.2813,-0.0781 0.8594,-0.1406 1.1719,-0.1406 1.7188,-0.3438 0.0156,-0.1875 0.0156,-0.25 0,-0.5937 -0.2812,-0.8281 Q 41.7344,24.3877 41,24.3877 q -0.6875,0 -1.0078,0.2344 -0.3203,0.2343 -0.4766,0.8437 l -0.9531,-0.125 q 0.125,-0.6094 0.4219,-0.9844 0.2968,-0.375 0.8594,-0.5703 0.5624,-0.1953 1.2968,-0.1953 0.7344,0 1.1875,0.1719 0.4531,0.1719 0.6641,0.4297 0.2109,0.2578 0.3047,0.6484 0.0469,0.25 0.0469,0.9063 l 0,1.2812 q 0,1.3438 0.0624,1.7031 0.0626,0.3594 0.25,0.6875 l -1.0156,0 q -0.1562,-0.2968 -0.1875,-0.7031 z m -0.0937,-2.1562 q -0.5156,0.2187 -1.5782,0.3593 -0.5937,0.0938 -0.8359,0.1954 -0.2422,0.1015 -0.3828,0.3125 -0.1406,0.2109 -0.1406,0.4609 0,0.3906 0.2969,0.6484 0.2968,0.2578 0.8593,0.2578 0.5625,0 0.9922,-0.25 0.4297,-0.25 0.6485,-0.6718 0.1406,-0.3282 0.1406,-0.9688 l 0,-0.3437 z m 6.0937,0.7656 0.9375,0.125 q -0.1406,0.9844 -0.789,1.5391 -0.6485,0.5546 -1.5704,0.5546 -1.1718,0 -1.8828,-0.7656 -0.7109,-0.7656 -0.7109,-2.1875 0,-0.9219 0.3047,-1.6172 0.3047,-0.6953 0.9297,-1.039 0.625,-0.3438 1.3593,-0.3438 0.9219,0 1.5157,0.4688 0.5937,0.4687 0.7656,1.3281 l -0.9531,0.1406 q -0.125,-0.5625 -0.4688,-0.8515 -0.3437,-0.2891 -0.8281,-0.2891 -0.7187,0 -1.1797,0.5234 -0.4609,0.5235 -0.4609,1.6485 0,1.1562 0.4375,1.6718 0.4375,0.5157 1.1562,0.5157 0.5625,0 0.9453,-0.3438 0.3829,-0.3437 0.4922,-1.0781 z m 4.3907,1.2344 0.125,0.8437 q -0.4063,0.0938 -0.7188,0.0938 -0.5312,0 -0.8203,-0.1719 -0.2891,-0.1719 -0.4063,-0.4375 -0.1172,-0.2656 -0.1172,-1.1406 l 0,-3.2813 -0.7187,0 0,-0.75 0.7187,0 0,-1.4062 0.9532,-0.5938 0,2 0.9844,0 0,0.75 -0.9844,0 0,3.3438 q 0,0.4062 0.0547,0.5234 0.0547,0.1172 0.1718,0.1875 0.1172,0.0703 0.3203,0.0703 0.1719,0 0.4376,-0.0312 z M 54,29.4189 l 0,-1.0937 1.0938,0 0,1.0937 -1.0938,0 z" />
    <path
       style="stroke:none"
       inkscape:connector-curvature="0"
       id="path291"
       clip-path="url(#clipPath15)"
       d="m 4.0312,44.4189 0,-7.875 1.0313,0 0,7.875 -1.0313,0 z m 3.8126,-0.8593 0.125,0.8437 Q 7.5625,44.4971 7.25,44.4971 6.7188,44.4971 6.4297,44.3252 6.1406,44.1533 6.0234,43.8877 5.9062,43.6221 5.9062,42.7471 l 0,-3.2813 -0.7187,0 0,-0.75 0.7187,0 0,-1.4062 0.9532,-0.5938 0,2 0.9844,0 0,0.75 -0.9844,0 0,3.3438 q 0,0.4062 0.0547,0.5234 0.0547,0.1172 0.1718,0.1875 0.1172,0.0703 0.3203,0.0703 0.1719,0 0.4376,-0.0312 z m 3.875,0.8593 0,-7.875 0.9687,0 0,2.8282 q 0.6875,-0.7813 1.7187,-0.7813 0.625,0 1.0938,0.25 0.4688,0.25 0.6719,0.6875 0.2031,0.4375 0.2031,1.2813 l 0,3.6093 -0.9688,0 0,-3.6093 q 0,-0.7344 -0.3124,-1.0625 -0.3126,-0.3282 -0.8907,-0.3282 -0.4375,0 -0.8125,0.2188 -0.375,0.2187 -0.539,0.6016 -0.1641,0.3828 -0.1641,1.0546 l 0,3.125 -0.9687,0 z m 9.7343,-0.7031 q -0.5469,0.4531 -1.039,0.6406 -0.4922,0.1875 -1.0703,0.1875 -0.9376,0 -1.4454,-0.4609 -0.5078,-0.4609 -0.5078,-1.1641 0,-0.4218 0.1953,-0.7656 0.1953,-0.3437 0.5,-0.5547 0.3047,-0.2109 0.6953,-0.3203 0.2813,-0.0781 0.8594,-0.1406 1.1719,-0.1406 1.7188,-0.3438 0.0156,-0.1875 0.0156,-0.25 0,-0.5937 -0.2812,-0.8281 Q 20.7344,39.3877 20,39.3877 q -0.6875,0 -1.0078,0.2344 -0.3203,0.2343 -0.4766,0.8437 l -0.9531,-0.125 q 0.125,-0.6094 0.4219,-0.9844 0.2968,-0.375 0.8594,-0.5703 0.5624,-0.1953 1.2968,-0.1953 0.7344,0 1.1875,0.1719 0.4531,0.1719 0.6641,0.4297 0.2109,0.2578 0.3047,0.6484 0.0469,0.25 0.0469,0.9063 l 0,1.2812 q 0,1.3438 0.0624,1.7031 0.0626,0.3594 0.25,0.6875 l -1.0156,0 q -0.1562,-0.2968 -0.1875,-0.7031 z m -0.0937,-2.1562 q -0.5156,0.2187 -1.5782,0.3593 -0.5937,0.0938 -0.8359,0.1954 -0.2422,0.1015 -0.3828,0.3125 -0.1406,0.2109 -0.1406,0.4609 0,0.3906 0.2969,0.6484 0.2968,0.2578 0.8593,0.2578 0.5625,0 0.9922,-0.25 0.4297,-0.25 0.6485,-0.6718 0.1406,-0.3282 0.1406,-0.9688 l 0,-0.3437 z m 1.9844,1.1562 0.9531,-0.1562 q 0.0781,0.5781 0.4453,0.8828 0.3672,0.3047 1.0234,0.3047 0.6719,0 0.9922,-0.2657 0.3203,-0.2656 0.3203,-0.6406 0,-0.3281 -0.2812,-0.5156 -0.2031,-0.125 -0.9844,-0.3281 -1.0625,-0.2657 -1.4766,-0.461 -0.414,-0.1953 -0.625,-0.539 Q 23.5,40.6533 23.5,40.2314 q 0,-0.3906 0.1719,-0.7109 0.1719,-0.3203 0.4843,-0.5391 0.2188,-0.1718 0.6094,-0.2812 0.3906,-0.1094 0.8282,-0.1094 0.6718,0 1.1796,0.1875 0.5078,0.1875 0.75,0.5235 0.2422,0.3359 0.336,0.8828 l -0.9375,0.125 q -0.0781,-0.4375 -0.3828,-0.6797 -0.3047,-0.2422 -0.8672,-0.2422 -0.6719,0 -0.9531,0.2187 -0.2813,0.2188 -0.2813,0.5157 0,0.1875 0.1094,0.3281 0.125,0.1562 0.375,0.2656 0.1406,0.0469 0.8593,0.25 1.0157,0.2656 1.4219,0.4375 0.4063,0.1719 0.6407,0.5078 0.2343,0.336 0.2343,0.836 0,0.4843 -0.2812,0.9062 -0.2813,0.4219 -0.8125,0.6563 -0.5313,0.2343 -1.2032,0.2343 -1.1093,0 -1.6953,-0.4609 Q 23.5,43.6221 23.3438,42.7158 z m 11.5,0.8438 0.125,0.8437 q -0.4063,0.0938 -0.7188,0.0938 -0.5312,0 -0.8203,-0.1719 -0.2891,-0.1719 -0.4063,-0.4375 -0.1172,-0.2656 -0.1172,-1.1406 l 0,-3.2813 -0.7187,0 0,-0.75 0.7187,0 0,-1.4062 0.9532,-0.5938 0,2 0.9844,0 0,0.75 -0.9844,0 0,3.3438 q 0,0.4062 0.0547,0.5234 0.0547,0.1172 0.1718,0.1875 0.1172,0.0703 0.3203,0.0703 0.1719,0 0.4376,-0.0312 z m 0.875,0.8593 0,-7.875 0.9687,0 0,2.8282 q 0.6875,-0.7813 1.7187,-0.7813 0.625,0 1.0938,0.25 0.4688,0.25 0.6719,0.6875 0.2031,0.4375 0.2031,1.2813 l 0,3.6093 -0.9688,0 0,-3.6093 q 0,-0.7344 -0.3124,-1.0625 -0.3126,-0.3282 -0.8907,-0.3282 -0.4375,0 -0.8125,0.2188 -0.375,0.2187 -0.539,0.6016 -0.1641,0.3828 -0.1641,1.0546 l 0,3.125 -0.9687,0 z m 9.9062,-1.8437 1,0.125 q -0.2344,0.875 -0.875,1.3594 -0.6406,0.4843 -1.625,0.4843 -1.25,0 -1.9844,-0.7656 -0.7344,-0.7656 -0.7344,-2.1562 0,-1.4532 0.7422,-2.2422 0.7422,-0.7891 1.9141,-0.7891 1.1563,0 1.875,0.7735 0.7187,0.7734 0.7187,2.1953 0,0.0781 0,0.25 l -4.25,0 q 0.0469,0.9375 0.5235,1.4375 0.4765,0.5 1.1953,0.5 0.5312,0 0.9062,-0.2735 0.375,-0.2734 0.5938,-0.8984 z m -3.1719,-1.5625 3.1875,0 q -0.0625,-0.7188 -0.3594,-1.0781 -0.4687,-0.5469 -1.2031,-0.5469 -0.6719,0 -1.125,0.4453 -0.4531,0.4453 -0.5,1.1797 z m 7.8907,1.7031 0.9531,-0.1562 q 0.0781,0.5781 0.4453,0.8828 0.3672,0.3047 1.0234,0.3047 0.6719,0 0.9922,-0.2657 0.3203,-0.2656 0.3203,-0.6406 0,-0.3281 -0.2812,-0.5156 -0.2031,-0.125 -0.9844,-0.3281 -1.0625,-0.2657 -1.4766,-0.461 -0.414,-0.1953 -0.625,-0.539 Q 50.5,40.6533 50.5,40.2314 q 0,-0.3906 0.1719,-0.7109 0.1719,-0.3203 0.4843,-0.5391 0.2188,-0.1718 0.6094,-0.2812 0.3906,-0.1094 0.8282,-0.1094 0.6718,0 1.1796,0.1875 0.5078,0.1875 0.75,0.5235 0.2422,0.3359 0.336,0.8828 l -0.9375,0.125 q -0.0781,-0.4375 -0.3828,-0.6797 -0.3047,-0.2422 -0.8672,-0.2422 -0.6719,0 -0.9531,0.2187 -0.2813,0.2188 -0.2813,0.5157 0,0.1875 0.1094,0.3281 0.125,0.1562 0.375,0.2656 0.1406,0.0469 0.8593,0.25 1.0157,0.2656 1.4219,0.4375 0.4063,0.1719 0.6407,0.5078 0.2343,0.336 0.2343,0.836 0,0.4843 -0.2812,0.9062 -0.2813,0.4219 -0.8125,0.6563 -0.5313,0.2343 -1.2032,0.2343 -1.1093,0 -1.6953,-0.4609 Q 50.5,43.6221 50.3438,42.7158 z m 8.5,0.8438 0.125,0.8437 q -0.4063,0.0938 -0.7188,0.0938 -0.5312,0 -0.8203,-0.1719 -0.2891,-0.1719 -0.4063,-0.4375 -0.1172,-0.2656 -0.1172,-1.1406 l 0,-3.2813 -0.7187,0 0,-0.75 0.7187,0 0,-1.4062 0.9532,-0.5938 0,2 0.9844,0 0,0.75 -0.9844,0 0,3.3438 q 0,0.4062 0.0547,0.5234 0.0547,0.1172 0.1718,0.1875 0.1172,0.0703 0.3203,0.0703 0.1719,0 0.4376,-0.0312 z m 0.875,0.8593 0,-5.7031 0.8593,0 0,0.8594 q 0.3438,-0.6094 0.625,-0.7969 0.2813,-0.1875 0.6094,-0.1875 0.5,0 1,0.3125 l -0.3281,0.8906 q -0.3594,-0.2031 -0.7188,-0.2031 -0.3125,0 -0.5625,0.1875 -0.25,0.1875 -0.3593,0.5313 -0.1563,0.5156 -0.1563,1.125 l 0,2.9843 -0.9687,0 z m 7.75,0 0,-0.8437 q -0.6719,0.9687 -1.8126,0.9687 -0.5,0 -0.9453,-0.1953 -0.4453,-0.1953 -0.6562,-0.4843 -0.2109,-0.2891 -0.2891,-0.711 -0.0625,-0.2812 -0.0625,-0.9062 l 0,-3.5313 0.9688,0 0,3.1563 q 0,0.7656 0.0625,1.0312 0.0937,0.375 0.3828,0.5938 0.289,0.2187 0.7266,0.2187 0.4374,0 0.8203,-0.2265 0.3828,-0.2266 0.539,-0.6094 0.1563,-0.3828 0.1563,-1.1016 l 0,-3.0625 0.9687,0 0,5.7031 -0.8593,0 z m 5.9843,-2.0937 0.9375,0.125 q -0.1406,0.9844 -0.789,1.5391 -0.6485,0.5546 -1.5704,0.5546 -1.1718,0 -1.8828,-0.7656 -0.7109,-0.7656 -0.7109,-2.1875 0,-0.9219 0.3047,-1.6172 0.3047,-0.6953 0.9297,-1.039 0.625,-0.3438 1.3593,-0.3438 0.9219,0 1.5157,0.4688 0.5937,0.4687 0.7656,1.3281 l -0.9531,0.1406 q -0.125,-0.5625 -0.4688,-0.8515 -0.3437,-0.2891 -0.8281,-0.2891 -0.7187,0 -1.1797,0.5234 -0.4609,0.5235 -0.4609,1.6485 0,1.1562 0.4375,1.6718 0.4375,0.5157 1.1562,0.5157 0.5625,0 0.9453,-0.3438 0.3829,-0.3437 0.4922,-1.0781 z m 4.3907,1.2344 0.125,0.8437 q -0.4063,0.0938 -0.7188,0.0938 -0.5312,0 -0.8203,-0.1719 -0.2891,-0.1719 -0.4063,-0.4375 -0.1172,-0.2656 -0.1172,-1.1406 l 0,-3.2813 -0.7187,0 0,-0.75 0.7187,0 0,-1.4062 0.9532,-0.5938 0,2 0.9844,0 0,0.75 -0.9844,0 0,3.3438 q 0,0.4062 0.0547,0.5234 0.0547,0.1172 0.1718,0.1875 0.1172,0.0703 0.3203,0.0703 0.1719,0 0.4376,-0.0312 z m 4.625,0.8593 0,-0.8437 q -0.6719,0.9687 -1.8126,0.9687 -0.5,0 -0.9453,-0.1953 -0.4453,-0.1953 -0.6562,-0.4843 -0.2109,-0.2891 -0.2891,-0.711 -0.0625,-0.2812 -0.0625,-0.9062 l 0,-3.5313 0.9688,0 0,3.1563 q 0,0.7656 0.0625,1.0312 0.0937,0.375 0.3828,0.5938 0.289,0.2187 0.7266,0.2187 0.4374,0 0.8203,-0.2265 0.3828,-0.2266 0.539,-0.6094 0.1563,-0.3828 0.1563,-1.1016 l 0,-3.0625 0.9687,0 0,5.7031 -0.8593,0 z m 2.25,0 0,-5.7031 0.8593,0 0,0.8594 q 0.3438,-0.6094 0.625,-0.7969 0.2813,-0.1875 0.6094,-0.1875 0.5,0 1,0.3125 l -0.3281,0.8906 q -0.3594,-0.2031 -0.7188,-0.2031 -0.3125,0 -0.5625,0.1875 -0.25,0.1875 -0.3593,0.5313 -0.1563,0.5156 -0.1563,1.125 l 0,2.9843 -0.9687,0 z m 7.9062,-1.8437 1,0.125 q -0.2344,0.875 -0.875,1.3594 -0.6406,0.4843 -1.625,0.4843 -1.25,0 -1.9844,-0.7656 -0.7344,-0.7656 -0.7344,-2.1562 0,-1.4532 0.7422,-2.2422 0.7422,-0.7891 1.9141,-0.7891 1.1563,0 1.875,0.7735 0.7187,0.7734 0.7187,2.1953 0,0.0781 0,0.25 l -4.25,0 q 0.0469,0.9375 0.5235,1.4375 0.4765,0.5 1.1953,0.5 0.5312,0 0.9062,-0.2735 0.375,-0.2734 0.5938,-0.8984 z m -3.1719,-1.5625 3.1875,0 q -0.0625,-0.7188 -0.3594,-1.0781 -0.4687,-0.5469 -1.2031,-0.5469 -0.6719,0 -1.125,0.4453 -0.4531,0.4453 -0.5,1.1797 z M 95,39.8096 l 0,-1.0938 1.0938,0 0,1.0938 -1.0938,0 z m 0,4.6093 0,-1.0937 1.0938,0 0,1.0937 -1.0938,0 z m 5.6094,-3.4375 0,-0.9062 5.2031,-2.2031 0,0.9531 -4.125,1.7031 4.125,1.7188 0,0.9531 -5.2031,-2.2188 z m 8.4844,3.4375 -3.0469,-7.875 1.125,0 2.0469,5.7188 q 0.25,0.6875 0.4218,1.2969 0.1719,-0.6563 0.4219,-1.2969 l 2.125,-5.7188 1.0625,0 -3.0781,7.875 -1.0781,0 z m 9.3593,-0.7031 q -0.5469,0.4531 -1.039,0.6406 -0.4922,0.1875 -1.0703,0.1875 -0.9376,0 -1.4454,-0.4609 -0.5078,-0.4609 -0.5078,-1.1641 0,-0.4218 0.1953,-0.7656 0.1953,-0.3437 0.5,-0.5547 0.3047,-0.2109 0.6953,-0.3203 0.2813,-0.0781 0.8594,-0.1406 1.1719,-0.1406 1.7188,-0.3438 0.0156,-0.1875 0.0156,-0.25 0,-0.5937 -0.2812,-0.8281 -0.3594,-0.3281 -1.0938,-0.3281 -0.6875,0 -1.0078,0.2344 -0.3203,0.2343 -0.4766,0.8437 l -0.9531,-0.125 q 0.125,-0.6094 0.4219,-0.9844 0.2968,-0.375 0.8594,-0.5703 0.5624,-0.1953 1.2968,-0.1953 0.7344,0 1.1875,0.1719 0.4531,0.1719 0.6641,0.4297 0.2109,0.2578 0.3047,0.6484 0.0469,0.25 0.0469,0.9063 l 0,1.2812 q 0,1.3438 0.0624,1.7031 0.0626,0.3594 0.25,0.6875 l -1.0156,0 q -0.1562,-0.2968 -0.1875,-0.7031 z m -0.0937,-2.1562 q -0.5156,0.2187 -1.5782,0.3593 -0.5937,0.0938 -0.8359,0.1954 -0.2422,0.1015 -0.3828,0.3125 -0.1406,0.2109 -0.1406,0.4609 0,0.3906 0.2969,0.6484 0.2968,0.2578 0.8593,0.2578 0.5625,0 0.9922,-0.25 0.4297,-0.25 0.6485,-0.6718 0.1406,-0.3282 0.1406,-0.9688 l 0,-0.3437 z m 2.3437,2.8593 0,-7.875 0.9688,0 0,7.875 -0.9688,0 z m 5.7657,0 0,-0.8437 q -0.6719,0.9687 -1.8126,0.9687 -0.5,0 -0.9453,-0.1953 -0.4453,-0.1953 -0.6562,-0.4843 -0.2109,-0.2891 -0.2891,-0.711 -0.0625,-0.2812 -0.0625,-0.9062 l 0,-3.5313 0.9688,0 0,3.1563 q 0,0.7656 0.0625,1.0312 0.0937,0.375 0.3828,0.5938 0.289,0.2187 0.7266,0.2187 0.4374,0 0.8203,-0.2265 0.3828,-0.2266 0.539,-0.6094 0.1563,-0.3828 0.1563,-1.1016 l 0,-3.0625 0.9687,0 0,5.7031 -0.8593,0 z m 6.1562,-1.8437 1,0.125 q -0.2344,0.875 -0.875,1.3594 -0.6406,0.4843 -1.625,0.4843 -1.25,0 -1.9844,-0.7656 -0.7344,-0.7656 -0.7344,-2.1562 0,-1.4532 0.7422,-2.2422 0.7422,-0.7891 1.9141,-0.7891 1.1563,0 1.875,0.7735 0.7187,0.7734 0.7187,2.1953 0,0.0781 0,0.25 l -4.25,0 q 0.0469,0.9375 0.5235,1.4375 0.4765,0.5 1.1953,0.5 0.5312,0 0.9062,-0.2735 0.375,-0.2734 0.5938,-0.8984 z m -3.1719,-1.5625 3.1875,0 q -0.0625,-0.7188 -0.3594,-1.0781 -0.4687,-0.5469 -1.2031,-0.5469 -0.6719,0 -1.125,0.4453 -0.4531,0.4453 -0.5,1.1797 z m 11.6407,3.4062 -0.9688,0 0,-6.1562 q -0.3438,0.3281 -0.9062,0.6641 -0.5626,0.3359 -1.0157,0.4921 l 0,-0.9375 q 0.8125,-0.375 1.4141,-0.914 0.6016,-0.5391 0.8516,-1.0547 l 0.625,0 0,7.9062 z m 5.5156,-3.4375 0,-0.9062 5.2031,-2.2031 0,0.9531 -4.125,1.7031 4.125,1.7188 0,0.9531 -5.2031,-2.2188 z m 8.4844,3.4375 -3.0469,-7.875 1.125,0 2.0469,5.7188 q 0.25,0.6875 0.4218,1.2969 0.1719,-0.6563 0.4219,-1.2969 l 2.125,-5.7188 1.0625,0 -3.0781,7.875 -1.0781,0 z m 9.3593,-0.7031 q -0.5469,0.4531 -1.039,0.6406 -0.4922,0.1875 -1.0703,0.1875 -0.9376,0 -1.4454,-0.4609 -0.5078,-0.4609 -0.5078,-1.1641 0,-0.4218 0.1953,-0.7656 0.1953,-0.3437 0.5,-0.5547 0.3047,-0.2109 0.6953,-0.3203 0.2813,-0.0781 0.8594,-0.1406 1.1719,-0.1406 1.7188,-0.3438 0.0156,-0.1875 0.0156,-0.25 0,-0.5937 -0.2812,-0.8281 -0.3594,-0.3281 -1.0938,-0.3281 -0.6875,0 -1.0078,0.2344 -0.3203,0.2343 -0.4766,0.8437 l -0.9531,-0.125 q 0.125,-0.6094 0.4219,-0.9844 0.2968,-0.375 0.8594,-0.5703 0.5624,-0.1953 1.2968,-0.1953 0.7344,0 1.1875,0.1719 0.4531,0.1719 0.6641,0.4297 0.2109,0.2578 0.3047,0.6484 0.0469,0.25 0.0469,0.9063 l 0,1.2812 q 0,1.3438 0.0624,1.7031 0.0626,0.3594 0.25,0.6875 l -1.0156,0 q -0.1562,-0.2968 -0.1875,-0.7031 z m -0.0937,-2.1562 q -0.5156,0.2187 -1.5782,0.3593 -0.5937,0.0938 -0.8359,0.1954 -0.2422,0.1015 -0.3828,0.3125 -0.1406,0.2109 -0.1406,0.4609 0,0.3906 0.2969,0.6484 0.2968,0.2578 0.8593,0.2578 0.5625,0 0.9922,-0.25 0.4297,-0.25 0.6485,-0.6718 0.1406,-0.3282 0.1406,-0.9688 l 0,-0.3437 z m 2.3437,2.8593 0,-7.875 0.9688,0 0,7.875 -0.9688,0 z m 5.7657,0 0,-0.8437 q -0.6719,0.9687 -1.8126,0.9687 -0.5,0 -0.9453,-0.1953 -0.4453,-0.1953 -0.6562,-0.4843 -0.2109,-0.2891 -0.2891,-0.711 -0.0625,-0.2812 -0.0625,-0.9062 l 0,-3.5313 0.9688,0 0,3.1563 q 0,0.7656 0.0625,1.0312 0.0937,0.375 0.3828,0.5938 0.289,0.2187 0.7266,0.2187 0.4374,0 0.8203,-0.2265 0.3828,-0.2266 0.539,-0.6094 0.1563,-0.3828 0.1563,-1.1016 l 0,-3.0625 0.9687,0 0,5.7031 -0.8593,0 z m 6.1562,-1.8437 1,0.125 q -0.2344,0.875 -0.875,1.3594 -0.6406,0.4843 -1.625,0.4843 -1.25,0 -1.9844,-0.7656 -0.7344,-0.7656 -0.7344,-2.1562 0,-1.4532 0.7422,-2.2422 0.7422,-0.7891 1.9141,-0.7891 1.1563,0 1.875,0.7735 0.7187,0.7734 0.7187,2.1953 0,0.0781 0,0.25 l -4.25,0 q 0.0469,0.9375 0.5235,1.4375 0.4765,0.5 1.1953,0.5 0.5312,0 0.9062,-0.2735 0.375,-0.2734 0.5938,-0.8984 z m -3.1719,-1.5625 3.1875,0 q -0.0625,-0.7188 -0.3594,-1.0781 -0.4687,-0.5469 -1.2031,-0.5469 -0.6719,0 -1.125,0.4453 -0.4531,0.4453 -0.5,1.1797 z m 10.0781,2.4844 0,0.9218 -5.2031,0 q 0,-0.3437 0.125,-0.6718 0.1875,-0.5313 0.625,-1.0469 0.4375,-0.5156 1.2657,-1.1875 1.2812,-1.0625 1.7343,-1.6719 0.4531,-0.6094 0.4531,-1.1562 0,-0.5782 -0.4062,-0.9766 -0.4062,-0.3984 -1.0781,-0.3984 -0.6875,0 -1.1094,0.4218 -0.4219,0.4219 -0.4219,1.1563 l -1,-0.0938 q 0.1094,-1.1093 0.7735,-1.6953 0.664,-0.5859 1.789,-0.5859 1.125,0 1.7891,0.625 0.664,0.625 0.664,1.5625 0,0.4687 -0.1953,0.9297 -0.1953,0.4609 -0.6406,0.9609 -0.4453,0.5 -1.4922,1.3906 -0.875,0.7188 -1.1172,0.9844 -0.2421,0.2656 -0.414,0.5313 l 3.8593,0 z m 1.0782,-2.5157 0,-0.9062 5.2031,-2.2031 0,0.9531 -4.125,1.7031 4.125,1.7188 0,0.9531 -5.2031,-2.2188 z m 6.3906,3.4375 0,-1.0937 1.0938,0 0,1.0937 -1.0938,0 z m 3,0 0,-1.0937 1.0938,0 0,1.0937 -1.0938,0 z m 3,0 0,-1.0937 1.0938,0 0,1.0937 -1.0938,0 z m 2.6094,-3.4375 0,-0.9062 5.2031,-2.2031 0,0.9531 -4.125,1.7031 4.125,1.7188 0,0.9531 -5.2031,-2.2188 z m 8.4844,3.4375 -3.0469,-7.875 1.125,0 2.0469,5.7188 q 0.25,0.6875 0.4218,1.2969 0.1719,-0.6563 0.4219,-1.2969 l 2.125,-5.7188 1.0625,0 -3.0781,7.875 -1.0781,0 z m 9.3593,-0.7031 q -0.5469,0.4531 -1.039,0.6406 -0.4922,0.1875 -1.0703,0.1875 -0.9376,0 -1.4454,-0.4609 -0.5078,-0.4609 -0.5078,-1.1641 0,-0.4218 0.1953,-0.7656 0.1953,-0.3437 0.5,-0.5547 0.3047,-0.2109 0.6953,-0.3203 0.2813,-0.0781 0.8594,-0.1406 1.1719,-0.1406 1.7188,-0.3438 0.0156,-0.1875 0.0156,-0.25 0,-0.5937 -0.2812,-0.8281 -0.3594,-0.3281 -1.0938,-0.3281 -0.6875,0 -1.0078,0.2344 -0.3203,0.2343 -0.4766,0.8437 l -0.9531,-0.125 q 0.125,-0.6094 0.4219,-0.9844 0.2968,-0.375 0.8594,-0.5703 0.5624,-0.1953 1.2968,-0.1953 0.7344,0 1.1875,0.1719 0.4531,0.1719 0.6641,0.4297 0.2109,0.2578 0.3047,0.6484 0.0469,0.25 0.0469,0.9063 l 0,1.2812 q 0,1.3438 0.0624,1.7031 0.0626,0.3594 0.25,0.6875 l -1.0156,0 q -0.1562,-0.2968 -0.1875,-0.7031 z m -0.0937,-2.1562 q -0.5156,0.2187 -1.5782,0.3593 -0.5937,0.0938 -0.8359,0.1954 -0.2422,0.1015 -0.3828,0.3125 -0.1406,0.2109 -0.1406,0.4609 0,0.3906 0.2969,0.6484 0.2968,0.2578 0.8593,0.2578 0.5625,0 0.9922,-0.25 0.4297,-0.25 0.6485,-0.6718 0.1406,-0.3282 0.1406,-0.9688 l 0,-0.3437 z m 2.3437,2.8593 0,-7.875 0.9688,0 0,7.875 -0.9688,0 z m 5.7657,0 0,-0.8437 q -0.6719,0.9687 -1.8126,0.9687 -0.5,0 -0.9453,-0.1953 -0.4453,-0.1953 -0.6562,-0.4843 -0.2109,-0.2891 -0.2891,-0.711 -0.0625,-0.2812 -0.0625,-0.9062 l 0,-3.5313 0.9688,0 0,3.1563 q 0,0.7656 0.0625,1.0312 0.0937,0.375 0.3828,0.5938 0.289,0.2187 0.7266,0.2187 0.4374,0 0.8203,-0.2265 0.3828,-0.2266 0.539,-0.6094 0.1563,-0.3828 0.1563,-1.1016 l 0,-3.0625 0.9687,0 0,5.7031 -0.8593,0 z m 6.1562,-1.8437 1,0.125 q -0.2344,0.875 -0.875,1.3594 -0.6406,0.4843 -1.625,0.4843 -1.25,0 -1.9844,-0.7656 -0.7344,-0.7656 -0.7344,-2.1562 0,-1.4532 0.7422,-2.2422 0.7422,-0.7891 1.9141,-0.7891 1.1563,0 1.875,0.7735 0.7187,0.7734 0.7187,2.1953 0,0.0781 0,0.25 l -4.25,0 q 0.0469,0.9375 0.5235,1.4375 0.4765,0.5 1.1953,0.5 0.5312,0 0.9062,-0.2735 0.375,-0.2734 0.5938,-0.8984 z m -3.1719,-1.5625 3.1875,0 q -0.0625,-0.7188 -0.3594,-1.0781 -0.4687,-0.5469 -1.2031,-0.5469 -0.6719,0 -1.125,0.4453 -0.4531,0.4453 -0.5,1.1797 z m 8.2657,3.4062 0,-5.7031 0.875,0 0,0.8125 q 0.625,-0.9375 1.8124,-0.9375 0.5157,0 0.9532,0.1797 0.4375,0.1797 0.6484,0.4844 0.211,0.3047 0.3047,0.7109 0.0469,0.2813 0.0469,0.9531 l 0,3.5 -0.9688,0 0,-3.4687 q 0,-0.5938 -0.1094,-0.8828 -0.1093,-0.2891 -0.3984,-0.4688 -0.289,-0.1797 -0.6797,-0.1797 -0.6093,0 -1.0625,0.3907 -0.4531,0.3906 -0.4531,1.5 l 0,3.1093 -0.9687,0 z m 11.0937,-3.4375 -5.2031,2.2188 0,-0.9531 4.125,-1.7188 -4.125,-1.7031 0,-0.9531 5.2031,2.2031 0,0.9062 z m 1.1875,3.4375 0,-1.0937 1.0938,0 0,1.0937 -1.0938,0 z m 3,0 0,-1.0937 1.0938,0 0,1.0937 -1.0938,0 z m 3,0 0,-1.0937 1.0938,0 0,1.0937 -1.0938,0 z m 7.8125,-3.4375 -5.2031,2.2188 0,-0.9531 4.125,-1.7188 -4.125,-1.7031 0,-0.9531 5.2031,2.2031 0,0.9062 z m 6,0 -5.2031,2.2188 0,-0.9531 4.125,-1.7188 -4.125,-1.7031 0,-0.9531 5.2031,2.2031 0,0.9062 z" />
  </g>
  <g
     style="fill:#c0c0ff;fill-opacity:1;stroke:#c0c0ff;stroke-opacity:1;font-family:sans-serif"
     id="g293"
     text-rendering="geometricPrecision"
     transform="translate(54,327)">
    <rect
       style="stroke:none"
       id="rect295"
       height="60"
       ry="15"
       rx="15"
       width="130"
       clip-path="url(#clipPath12)"
       y="0"
       x="0" />
  </g>
  <g
     style="fill:#000000;fill-opacity:1;stroke:#000000;stroke-linecap:butt;stroke-linejoin:round;stroke-miterlimit:0;stroke-opacity:1;font-family:sans-serif"
     id="g297"
     stroke-miterlimit="0"
     text-rendering="geometricPrecision"
     transform="translate(54,327)">
    <rect
       style="fill:none"
       id="rect299"
       height="60"
       ry="15"
       rx="15"
       width="130"
       clip-path="url(#clipPath12)"
       y="0"
       x="0" />
  </g>
  <g
     style="fill:#000000;fill-opacity:1;stroke:#000000;stroke-opacity:1;font-family:sans-serif"
     id="g301"
     text-rendering="geometricPrecision"
     transform="translate(54,327)">
    <text
       style="stroke:none"
       id="text303"
       clip-path="url(#clipPath13)"
       y="19"
       xml:space="preserve"
       x="34">Aggregator</text>
    <text
       style="stroke:none"
       id="text305"
       clip-path="url(#clipPath13)"
       y="35"
       xml:space="preserve"
       x="18">&lt;Extracted Type,</text>
    <text
       style="stroke:none"
       id="text307"
       clip-path="url(#clipPath13)"
       y="51"
       xml:space="preserve"
       x="14">Aggregated Type&gt;</text>
  </g>
  <g
     style="fill:#c0c0ff;fill-opacity:1;stroke:#c0c0ff;stroke-opacity:1;font-family:sans-serif"
     id="g309"
     text-rendering="geometricPrecision"
     transform="translate(183,351)">
    <rect
       style="stroke:none"
       id="rect311"
       clip-path="url(#clipPath7)"
       y="0"
       height="12"
       width="12"
       x="0" />
  </g>
  <g
     style="fill:#000000;fill-opacity:1;stroke:#000000;stroke-linecap:butt;stroke-linejoin:round;stroke-miterlimit:0;stroke-opacity:1;font-family:sans-serif"
     id="g313"
     stroke-miterlimit="0"
     text-rendering="geometricPrecision"
     transform="translate(183,351)">
    <rect
       style="fill:none"
       id="rect315"
       clip-path="url(#clipPath7)"
       y="0"
       height="12"
       width="12"
       x="0" />
  </g>
  <g
     style="fill:#c0c0ff;fill-opacity:1;stroke:#c0c0ff;stroke-opacity:1;font-family:sans-serif"
     id="g317"
     text-rendering="geometricPrecision"
     transform="translate(113,386)">
    <rect
       style="stroke:none"
       id="rect319"
       clip-path="url(#clipPath7)"
       y="0"
       height="12"
       width="12"
       x="0" />
  </g>
  <g
     style="fill:#000000;fill-opacity:1;stroke:#000000;stroke-linecap:butt;stroke-linejoin:round;stroke-miterlimit:0;stroke-opacity:1;font-family:sans-serif"
     id="g321"
     stroke-miterlimit="0"
     text-rendering="geometricPrecision"
     transform="translate(113,386)">
    <rect
       style="fill:none"
       id="rect323"
       clip-path="url(#clipPath7)"
       y="0"
       height="12"
       width="12"
       x="0" />
  </g>
  <g
     style="font-weight:bold;fill:#ffffc0;fill-opacity:1;stroke:#ffffc0;stroke-opacity:1;font-family:sans-serif"
     id="g325"
     font-weight="bold"
     text-rendering="geometricPrecision"
     transform="translate(69,449)">
    <rect
       style="stroke:none"
       id="rect327"
       clip-path="url(#clipPath16)"
       y="0"
       height="40"
       width="100"
       x="0" />
  </g>
  <g
     style="font-weight:bold;fill:#000000;fill-opacity:1;stroke:#000000;stroke-linecap:butt;stroke-linejoin:round;stroke-miterlimit:0;stroke-opacity:1;font-family:sans-serif"
     id="g329"
     stroke-miterlimit="0"
     font-weight="bold"
     text-rendering="geometricPrecision"
     transform="translate(69,449)">
    <rect
       style="fill:none"
       id="rect331"
       clip-path="url(#clipPath16)"
       y="0"
       height="40"
       width="100"
       x="0" />
  </g>
  <g
     style="font-weight:bold;fill:#000000;fill-opacity:1;stroke:#000000;stroke-opacity:1;font-family:sans-serif"
     id="g333"
     font-weight="bold"
     text-rendering="geometricPrecision"
     transform="translate(69,449)">
    <text
       style="stroke:none"
       id="text335"
       clip-path="url(#clipPath17)"
       y="25"
       xml:space="preserve"
       x="6">Process Result</text>
  </g>
  <g
     style="fill:#000000;fill-opacity:1;stroke:#000000;stroke-opacity:1;font-family:sans-serif"
     id="g337"
     text-rendering="geometricPrecision"
     transform="translate(513,178)">
    <text
       style="stroke:none"
       id="text339"
       clip-path="url(#clipPath18)"
       y="13"
       xml:space="preserve"
       x="8">Dimension 1</text>
  </g>
  <g
     style="fill:#000000;fill-opacity:1;stroke:#000000;stroke-opacity:1;font-family:sans-serif"
     id="g341"
     text-rendering="geometricPrecision"
     transform="translate(513,202)">
    <text
       style="stroke:none"
       id="text343"
       clip-path="url(#clipPath18)"
       y="13"
       xml:space="preserve"
       x="8">Dimension 2</text>
  </g>
  <g
     style="fill:#000000;fill-opacity:1;stroke:#000000;stroke-opacity:1;font-family:sans-serif"
     id="g345"
     text-rendering="geometricPrecision"
     transform="translate(513,225)">
    <text
       style="stroke:none"
       id="text347"
       clip-path="url(#clipPath18)"
       y="13"
       xml:space="preserve"
       x="8">Dimension n</text>
  </g>
  <g
     style="fill:#000000;fill-opacity:1;stroke:#000000;stroke-opacity:1;font-family:sans-serif"
     id="g349"
     text-rendering="geometricPrecision"
     transform="translate(512,349)">
    <text
       style="stroke:none"
       id="text351"
       clip-path="url(#clipPath19)"
       y="13"
       xml:space="preserve"
       x="10">Extraction Function</text>
  </g>
  <g
     style="fill:#000000;fill-opacity:1;stroke:#000000;stroke-opacity:1;font-family:sans-serif"
     id="g353"
     text-rendering="geometricPrecision"
     transform="translate(170,164)">
    <text
       style="stroke:none"
       id="text355"
       clip-path="url(#clipPath18)"
       y="13"
       xml:space="preserve"
       x="9">Data Source</text>
  </g>
  <g
     style="fill:#000000;fill-opacity:1;stroke:#000000;stroke-opacity:1;font-family:sans-serif"
     id="g357"
     text-rendering="geometricPrecision"
     transform="translate(83,98)">
    <text
       style="stroke:none"
       id="text359"
       clip-path="url(#clipPath18)"
       y="13"
       xml:space="preserve"
       x="9">Data Source</text>
  </g>
  <g
     style="fill:#000000;fill-opacity:1;stroke:#000000;stroke-opacity:1;font-family:sans-serif"
     id="g361"
     text-rendering="geometricPrecision"
     transform="translate(210,334)">
    <text
       style="stroke:none"
       id="text363"
       clip-path="url(#clipPath20)"
       y="13"
       xml:space="preserve"
       x="11">[Group Key, Extracted Value]</text>
  </g>
  <g
     style="fill:#000000;fill-opacity:1;stroke:#000000;stroke-opacity:1;font-family:sans-serif"
     id="g365"
     text-rendering="geometricPrecision"
     transform="translate(183,363)">
    <text
       style="stroke:none"
       id="text367"
       clip-path="url(#clipPath21)"
       y="13"
       xml:space="preserve"
       x="6">[Group Key, Extracted Value]</text>
    <text
       style="stroke:none"
       id="text369"
       clip-path="url(#clipPath21)"
       y="29"
       xml:space="preserve"
       x="47">multiple times</text>
  </g>
  <g
     style="fill:#000000;fill-opacity:1;stroke:#000000;stroke-opacity:1;font-family:sans-serif"
     id="g371"
     text-rendering="geometricPrecision"
     transform="translate(441,306)">
    <text
       style="stroke:none"
       id="text373"
       clip-path="url(#clipPath22)"
       y="13"
       xml:space="preserve"
       x="11">[Group Key, Fact]</text>
  </g>
  <g
     style="fill:#000000;fill-opacity:1;stroke:#000000;stroke-opacity:1;font-family:sans-serif"
     id="g375"
     text-rendering="geometricPrecision"
     transform="translate(328,254)">
    <text
       style="stroke:none"
       id="text377"
       clip-path="url(#clipPath22)"
       y="13"
       xml:space="preserve"
       x="11">[Group Key, Fact]</text>
  </g>
  <g
     style="fill:#000000;fill-opacity:1;stroke:#000000;stroke-opacity:1;font-family:sans-serif"
     id="g379"
     text-rendering="geometricPrecision"
     transform="translate(5,386)">
    <text
       style="stroke:none"
       id="text381"
       clip-path="url(#clipPath23)"
       y="15"
       xml:space="preserve"
       x="10">Map&lt;Group Key,</text>
    <text
       style="stroke:none"
       id="text383"
       clip-path="url(#clipPath23)"
       y="31"
       xml:space="preserve"
       x="4">Aggregated Value&gt;</text>
  </g>
  <g
     style="fill:#000000;fill-opacity:1;stroke:#000000;stroke-opacity:1;font-family:sans-serif"
     id="g385"
     text-rendering="geometricPrecision"
     transform="translate(341,187)">
    <text
       style="stroke:none"
       id="text387"
       clip-path="url(#clipPath24)"
       y="13"
       xml:space="preserve"
       x="10">Fact</text>
  </g>
  <g
     style="fill:#000000;fill-opacity:1;stroke:#000000;stroke-opacity:1;font-family:sans-serif"
     id="g389"
     text-rendering="geometricPrecision"
     transform="translate(244,215)">
    <text
       style="stroke:none"
       id="text391"
       clip-path="url(#clipPath25)"
       y="14"
       xml:space="preserve"
       x="5">multiple</text>
    <text
       style="stroke:none"
       id="text393"
       clip-path="url(#clipPath25)"
       y="30"
       xml:space="preserve"
       x="11">Facts</text>
  </g>
  <g
     style="font-size:11px;fill:#000000;fill-opacity:1;stroke:#000000;stroke-linecap:butt;stroke-linejoin:round;stroke-opacity:1;font-family:sans-serif"
     id="g395"
     text-rendering="geometricPrecision"
     transform="translate(207,159)"
     font-size="11">
    <line
       style="fill:none"
       id="line397"
       y1="50"
       x2="159"
       clip-path="url(#clipPath26)"
       x1="50"
       y2="50" />
    <line
       style="fill:none"
       id="line399"
       y1="50"
       x2="147"
       clip-path="url(#clipPath26)"
       x1="159"
       y2="44" />
    <line
       style="fill:none"
       id="line401"
       y1="50"
       x2="147"
       clip-path="url(#clipPath26)"
       x1="159"
       y2="56" />
  </g>
  <g
     style="font-size:11px;fill:#000000;fill-opacity:1;stroke:#000000;stroke-linecap:butt;stroke-linejoin:round;stroke-opacity:1;font-family:sans-serif"
     id="g403"
     text-rendering="geometricPrecision"
     transform="translate(392,217)"
     font-size="11">
    <line
       style="fill:none"
       id="line405"
       y1="50"
       x2="50"
       clip-path="url(#clipPath27)"
       x1="50"
       y2="98" />
    <line
       style="fill:none"
       id="line407"
       y1="98"
       x2="56"
       clip-path="url(#clipPath27)"
       x1="50"
       y2="86" />
    <line
       style="fill:none"
       id="line409"
       y1="98"
       x2="44"
       clip-path="url(#clipPath27)"
       x1="50"
       y2="86" />
  </g>
  <g
     style="font-size:11px;fill:#000000;fill-opacity:1;stroke:#000000;stroke-linecap:butt;stroke-linejoin:round;stroke-opacity:1;stroke-dasharray:4;font-family:sans-serif"
     id="g411"
     text-rendering="geometricPrecision"
     transform="translate(400,73)"
     font-size="11">
    <path
       style="fill:none"
       inkscape:connector-curvature="0"
       id="path413"
       clip-path="url(#clipPath28)"
       d="m 50,187 166,0 c 0,0 7,0 7,-7 m 0,0 0,-123 c 0,0 0,-7 -7,-7 m 0,0 -11,0" />
  </g>
  <g
     style="font-size:11px;fill:#000000;fill-opacity:1;stroke:#000000;stroke-linecap:butt;stroke-linejoin:round;stroke-opacity:1;font-family:sans-serif"
     id="g415"
     text-rendering="geometricPrecision"
     transform="translate(146,307)"
     font-size="11">
    <line
       style="fill:none"
       id="line417"
       y1="50"
       x2="50"
       clip-path="url(#clipPath29)"
       x1="219"
       y2="50" />
    <line
       style="fill:none"
       id="line419"
       y1="50"
       x2="62"
       clip-path="url(#clipPath29)"
       x1="50"
       y2="56" />
    <line
       style="fill:none"
       id="line421"
       y1="50"
       x2="62"
       clip-path="url(#clipPath29)"
       x1="50"
       y2="44" />
  </g>
  <g
     style="font-size:11px;fill:#000000;fill-opacity:1;stroke:#000000;stroke-linecap:butt;stroke-linejoin:round;stroke-opacity:1;font-family:sans-serif"
     id="g423"
     text-rendering="geometricPrecision"
     transform="translate(120,61)"
     font-size="11">
    <line
       style="fill:none"
       id="line425"
       y1="50"
       x2="50"
       clip-path="url(#clipPath30)"
       x1="50"
       y2="106" />
    <line
       style="fill:none"
       id="line427"
       y1="106"
       x2="56"
       clip-path="url(#clipPath30)"
       x1="50"
       y2="94" />
    <line
       style="fill:none"
       id="line429"
       y1="106"
       x2="44"
       clip-path="url(#clipPath30)"
       x1="50"
       y2="94" />
  </g>
  <g
     style="font-size:11px;fill:#000000;fill-opacity:1;stroke:#000000;stroke-linecap:butt;stroke-linejoin:round;stroke-opacity:1;font-family:sans-serif"
     id="g431"
     text-rendering="geometricPrecision"
     transform="translate(69,349)"
     font-size="11">
    <line
       style="fill:none"
       id="line433"
       y1="50"
       x2="50"
       clip-path="url(#clipPath31)"
       x1="50"
       y2="99" />
    <line
       style="fill:none"
       id="line435"
       y1="99"
       x2="56"
       clip-path="url(#clipPath31)"
       x1="50"
       y2="87" />
    <line
       style="fill:none"
       id="line437"
       y1="99"
       x2="44"
       clip-path="url(#clipPath31)"
       x1="50"
       y2="87" />
  </g>
</svg>
