<svg xmlns="http://www.w3.org/2000/svg" viewBox="0 0 30 30"><g fill="#fff"><path d="M15.4 16.1l-.7-.5c-.2-.2-.5-.4-.5-.8s.3-.7.5-1c.8-.6 1.6-1.3 1.6-2.8 0-1.5-.9-2.3-1.4-2.6h1.2l1.3-.8h-3.8c-1.1 0-2.6.2-3.7 1.2-.8.7-1.2 1.7-1.2 2.6 0 1.5 1.2 3.1 3.2 3.1h.6c-.1.2-.2.4-.2.8 0 .6.3 1 .6 1.3-.9.1-2.5.2-3.7.9-1.1.5-1.5 1.5-1.5 2.2 0 1.4 1.4 2.8 4.2 2.8 3.4 0 5.1-1.9 5.1-3.7 0-1.3-.7-2-1.6-2.7zm-2.6-2.3c-1.7 0-2.4-2.2-2.4-3.5 0-.5.1-1 .4-1.4.3-.4.9-.6 1.4-.6 1.6 0 2.5 2.2 2.5 3.6 0 .4 0 1-.5 1.4-.3.3-.9.5-1.4.5zm.1 7.9c-2.1 0-3.4-1-3.4-2.4s1.2-1.9 1.7-2c.8-.3 1.9-.3 2-.3h.4c1.5 1.1 2.1 1.6 2.1 2.6 0 1.2-1 2.1-2.8 2.1zM20.3 13.8v-2h-.9v2h-2v1h2v1.9h.9v-1.9h2v-1"/></g></svg>