<?xml version="1.0" encoding="UTF-8" standalone="no"?><!DOCTYPE svg PUBLIC "-//W3C//DTD SVG 1.1//EN" "http://www.w3.org/Graphics/SVG/1.1/DTD/svg11.dtd"><svg width="100%" height="100%" viewBox="0 0 100 23" version="1.1" xmlns="http://www.w3.org/2000/svg" xmlns:xlink="http://www.w3.org/1999/xlink" xml:space="preserve" xmlns:serif="http://www.serif.com/" style="fill-rule:evenodd;clip-rule:evenodd;stroke-linejoin:round;stroke-miterlimit:2;"><rect id="Artboard1" x="0" y="0" width="99.997" height="22.94" style="fill:none;"/><path d="M7.044,22.474l-3.981,0l2.681,-16.956l-4.117,0l0.542,-3.468l12.216,0l-0.542,3.468l-4.117,0l-2.682,16.956Z" style="fill:#005a84;fill-rule:nonzero;"/><path d="M16.185,8.781l0.054,0c0.948,-1.165 2.167,-1.815 3.576,-1.815c0.542,0 1.084,0.135 1.517,0.325l-1.002,3.522c-0.406,-0.325 -0.921,-0.488 -1.49,-0.488c-2.627,0 -3.278,2.329 -3.603,4.388l-0.948,5.986l-3.792,0l2.113,-13.299l3.792,0l-0.217,1.381Z" style="fill:#005a84;fill-rule:nonzero;"/><path d="M30.362,14.036c0.271,-1.788 -0.623,-3.711 -2.573,-3.711c-1.951,0 -3.467,1.923 -3.738,3.711c-0.271,1.787 0.596,3.738 2.546,3.738c1.95,0 3.494,-1.951 3.765,-3.738m2.303,6.664l-3.739,0l0.19,-1.219l-0.054,0c-0.975,1.056 -2.492,1.652 -3.873,1.652c-3.901,0 -5.554,-3.548 -4.985,-7.151c0.569,-3.522 3.359,-7.016 7.178,-7.016c1.382,0 2.709,0.596 3.441,1.68l0.216,-1.246l3.738,0l-2.112,13.3Z" style="fill:#005a84;fill-rule:nonzero;"/><path d="M45.568,11.462c-0.677,-0.812 -1.408,-1.299 -2.573,-1.299c-2.14,0 -3.684,2.004 -4.009,3.954c-0.325,2.086 0.731,3.82 2.898,3.82c1.03,0 2.059,-0.515 2.872,-1.274l-0.596,3.657c-1.111,0.569 -2.249,0.813 -3.414,0.813c-3.927,0 -6.203,-3.224 -5.579,-7.043c0.622,-3.955 4.009,-7.124 8.017,-7.124c1.057,0 2.14,0.271 2.953,0.84l-0.569,3.656Z" style="fill:#005a84;fill-rule:nonzero;"/><path d="M51.914,22.474l-3.982,0l2.682,-16.956l-4.118,0l0.542,-3.468l12.217,0l-0.542,3.468l-4.117,0l-2.682,16.956Z" style="fill:#009fc2;fill-rule:nonzero;"/><path d="M61.18,8.781l0.055,0c0.947,-1.165 2.167,-1.815 3.575,-1.815c0.541,0 1.084,0.135 1.517,0.325l-1.002,3.522c-0.406,-0.325 -0.921,-0.488 -1.49,-0.488c-2.627,0 -3.277,2.329 -3.603,4.388l-0.948,5.986l-3.792,0l2.113,-13.299l3.792,0l-0.217,1.381Z" style="fill:#009fc2;fill-rule:nonzero;"/><path d="M75.357,14.036c0.271,-1.788 -0.623,-3.711 -2.573,-3.711c-1.95,0 -3.467,1.923 -3.738,3.711c-0.271,1.787 0.596,3.738 2.546,3.738c1.951,0 3.494,-1.951 3.765,-3.738m2.302,6.664l-3.738,0l0.19,-1.219l-0.054,0c-0.975,1.056 -2.492,1.652 -3.874,1.652c-3.901,0 -5.553,-3.548 -4.983,-7.151c0.569,-3.522 3.358,-7.016 7.178,-7.016c1.381,0 2.708,0.596 3.439,1.68l0.218,-1.246l3.737,0l-2.113,13.3Z" style="fill:#009fc2;fill-rule:nonzero;"/><path d="M90.563,11.462c-0.677,-0.812 -1.409,-1.299 -2.573,-1.299c-2.14,0 -3.684,2.004 -4.009,3.954c-0.325,2.086 0.731,3.82 2.899,3.82c1.029,0 2.058,-0.515 2.871,-1.274l-0.597,3.657c-1.11,0.569 -2.248,0.813 -3.412,0.813c-3.928,0 -6.204,-3.224 -5.58,-7.043c0.623,-3.955 4.009,-7.124 8.017,-7.124c1.057,0 2.141,0.271 2.953,0.84l-0.569,3.656Z" style="fill:#009fc2;fill-rule:nonzero;"/><path d="M89.199,14.063c0,0.93 -0.753,1.683 -1.683,1.683c-0.929,0 -1.682,-0.753 -1.682,-1.683c0,-0.929 0.753,-1.683 1.682,-1.683c0.93,0 1.683,0.754 1.683,1.683" style="fill:#005a84;fill-rule:nonzero;"/><path d="M96.407,2.836c-1.148,-1.262 -2.668,-2.087 -4.333,-2.37l-0.161,1.206c1.38,0.245 2.639,0.935 3.593,1.984c1.034,1.137 1.608,2.588 1.647,4.115l1.217,0c-0.04,-1.831 -0.724,-3.573 -1.963,-4.935m-4.627,-0.169l-0.161,1.212c0.861,0.173 1.646,0.613 2.245,1.271c0.658,0.723 1.032,1.649 1.071,2.621l1.218,0c-0.039,-1.276 -0.526,-2.493 -1.389,-3.44c-0.792,-0.872 -1.837,-1.451 -2.984,-1.664m-0.294,2.207l-0.162,1.219c0.342,0.097 0.656,0.285 0.897,0.551c0.283,0.311 0.452,0.71 0.489,1.127l1.225,0c-0.038,-0.721 -0.326,-1.412 -0.813,-1.947c-0.435,-0.477 -1.009,-0.809 -1.636,-0.95" style="fill:#005a84;fill-rule:nonzero;"/></svg>