<?xml version="1.0" standalone="no"?>
<!DOCTYPE svg PUBLIC "-//W3C//DTD SVG 20010904//EN"
 "http://www.w3.org/TR/2001/REC-SVG-20010904/DTD/svg10.dtd">
<svg version="1.0" xmlns="http://www.w3.org/2000/svg"
 width="296.000000pt" height="218.000000pt" viewBox="0 0 296.000000 218.000000"
 preserveAspectRatio="xMidYMid meet">

<g transform="translate(0.000000,218.000000) scale(0.100000,-0.100000)"
fill="#000000" stroke="none">
<path d="M141 1263 c0 -505 4 -939 8 -966 7 -42 6 -47 -10 -47 -12 0 -22 11
-28 33 -6 20 -10 25 -10 12 -3 -74 62 -164 134 -184 56 -15 2434 -15 2490 0
72 20 137 110 134 184 0 13 -4 8 -10 -12 -5 -18 -15 -33 -22 -33 -9 0 -11 210
-9 965 l3 965 -1341 0 -1340 0 1 -917z m1913 491 c27 -26 18 -71 -39 -201 -31
-69 -57 -130 -58 -135 -1 -6 39 -19 88 -29 177 -38 352 -109 437 -179 42 -35
78 -103 78 -149 0 -198 -421 -358 -995 -378 -97 -3 -224 -1 -295 6 l-125 11
-130 -134 c-105 -109 -138 -137 -170 -145 -22 -6 -109 -11 -193 -11 -139 0
-154 2 -172 20 -25 25 -26 74 -2 98 9 9 79 68 155 131 l138 114 -83 31 c-455
171 -356 451 204 580 171 39 541 73 644 59 40 -5 43 -3 230 149 104 85 198
159 209 166 28 16 61 15 79 -4z m-594 -1209 c0 -8 -9 -15 -20 -15 -18 0 -20
-7 -20 -65 0 -51 -3 -65 -15 -65 -12 0 -15 14 -15 65 0 58 -2 65 -20 65 -11 0
-20 7 -20 15 0 12 13 15 55 15 42 0 55 -3 55 -15z m130 -5 c24 -24 25 -34 4
-55 -14 -14 -15 -18 -2 -33 25 -29 28 -40 13 -46 -10 -3 -20 5 -30 24 -21 40
-45 39 -45 -1 0 -20 -4 -29 -12 -27 -13 5 -24 118 -14 144 8 21 63 17 86 -6z
m180 -57 c23 -60 25 -73 13 -77 -9 -4 -17 1 -20 14 -8 28 -69 28 -78 0 -3 -11
-10 -20 -15 -20 -19 0 -19 21 1 67 11 26 25 58 30 71 16 40 39 21 69 -55z
m174 71 c26 -10 8 -24 -30 -24 -44 0 -64 -34 -45 -76 10 -22 17 -26 46 -22 36
4 50 -14 19 -26 -30 -12 -55 -6 -79 19 -62 62 6 161 89 129z m86 -31 l0 -38
33 39 c24 28 36 36 41 27 5 -8 -2 -23 -18 -40 l-27 -28 26 -31 c15 -18 23 -37
19 -44 -5 -8 -18 1 -41 28 l-33 39 0 -37 c0 -27 -4 -38 -15 -38 -12 0 -15 15
-15 73 0 41 3 77 7 80 15 16 23 5 23 -30z m158 -40 c-2 -50 -7 -78 -15 -81
-10 -3 -13 17 -13 77 0 66 3 81 15 81 13 0 15 -13 13 -77z m120 22 c18 -30 34
-55 35 -55 2 0 3 23 2 52 0 33 5 53 13 56 10 3 12 -14 10 -74 -2 -47 -8 -79
-14 -81 -7 -2 -27 22 -45 54 l-34 58 -3 -58 c-2 -40 -7 -57 -15 -54 -8 3 -11
25 -8 73 5 104 12 108 59 29z m240 38 c2 -9 -8 -13 -31 -13 -37 0 -67 -21 -67
-46 0 -30 21 -54 46 -54 19 0 26 6 31 30 8 43 23 37 23 -9 0 -26 -5 -41 -16
-45 -32 -12 -66 -5 -89 19 -53 53 -13 139 62 133 20 -2 38 -9 41 -15z"/>
<path d="M1824 1557 c-161 -134 -401 -332 -633 -522 -80 -65 -112 -85 -135
-85 -88 0 -286 77 -325 126 -67 85 29 173 244 224 125 30 146 42 62 35 -92 -8
-285 -58 -364 -94 -183 -86 -233 -173 -151 -267 36 -41 162 -105 265 -133 84
-23 93 -27 93 -46 0 -8 -80 -80 -178 -160 -97 -81 -178 -151 -180 -156 -5 -12
254 -11 299 1 29 8 98 75 360 352 558 589 672 707 685 712 22 9 27 -13 8 -41
-19 -30 -172 -243 -377 -526 -76 -104 -137 -195 -137 -202 0 -22 103 -27 295
-15 477 29 804 141 830 284 16 84 -82 165 -280 230 -84 28 -267 68 -274 60
-10 -10 17 -22 83 -38 90 -22 189 -68 221 -102 36 -39 34 -88 -6 -125 -62 -58
-224 -113 -403 -138 -107 -15 -124 -14 -136 9 -12 22 4 61 188 465 132 290
134 295 125 295 -5 0 -85 -65 -179 -143z"/>
<path d="M1530 510 c0 -16 5 -21 23 -18 12 2 22 10 22 18 0 8 -10 16 -22 18
-18 3 -23 -2 -23 -18z"/>
<path d="M1712 496 c-10 -23 -9 -26 8 -26 21 0 23 4 11 33 -6 17 -8 16 -19 -7z"/>
</g>
</svg>
