<?xml version="1.0" encoding="UTF-8" standalone="no"?>
<!-- Created with Inkscape (http://www.inkscape.org/) -->

<svg
   xmlns:dc="http://purl.org/dc/elements/1.1/"
   xmlns:cc="http://creativecommons.org/ns#"
   xmlns:rdf="http://www.w3.org/1999/02/22-rdf-syntax-ns#"
   xmlns:svg="http://www.w3.org/2000/svg"
   xmlns="http://www.w3.org/2000/svg"
   xmlns:sodipodi="http://sodipodi.sourceforge.net/DTD/sodipodi-0.dtd"
   xmlns:inkscape="http://www.inkscape.org/namespaces/inkscape"
   width="150"
   height="300"
   id="svg3305"
   version="1.1"
   inkscape:version="0.48.2 r9819"
   sodipodi:docname="finish_buoy.svg">
  <defs
     id="defs3307" />
  <sodipodi:namedview
     id="base"
     pagecolor="#ffffff"
     bordercolor="#666666"
     borderopacity="1.0"
     inkscape:pageopacity="0.0"
     inkscape:pageshadow="2"
     inkscape:zoom="5.6"
     inkscape:cx="74.7"
     inkscape:cy="264"
     inkscape:document-units="px"
     inkscape:current-layer="svg3305"
     showgrid="true"
     inkscape:window-width="1920"
     inkscape:window-height="1005"
     inkscape:window-x="-9"
     inkscape:window-y="-9"
     inkscape:window-maximized="1">
    <inkscape:grid
       type="xygrid"
       id="grid4104"
       units="mm"
       empspacing="5"
       visible="true"
       enabled="true"
       snapvisiblegridlinesonly="true" />
  </sodipodi:namedview>
  <metadata
     id="metadata3310">
    <rdf:RDF>
      <cc:Work
         rdf:about="">
        <dc:format>image/svg+xml</dc:format>
        <dc:type
           rdf:resource="http://purl.org/dc/dcmitype/StillImage" />
        <dc:title />
      </cc:Work>
    </rdf:RDF>
  </metadata>
  <circle
     transform="matrix(12.5,0,0,12.5,-578,22.2)"
     style="fill:#000000;fill-opacity:1"
     sodipodi:ry="2.66"
     sodipodi:rx="2.66"
     sodipodi:cy="12.8"
     sodipodi:cx="49.7"
     cx="49.7"
     cy="12.8"
     r="2.66"
     id="circle29"
     d="m 52.4,12.8 c 0,1.5 -1.2,2.7 -2.7,2.7 -1.5,0 -2.7,-1.2 -2.7,-2.7 0,-1.5 1.2,-2.7 2.7,-2.7 1.5,0 2.7,1.2 2.7,2.7 z" />
  <circle
     transform="matrix(12.5,0,0,12.5,-578,22.2)"
     style="fill:#f0f0f0;fill-opacity:1"
     sodipodi:ry="3.37"
     sodipodi:rx="3.37"
     sodipodi:cy="11.3"
     sodipodi:cx="49.7"
     cx="49.7"
     cy="11.3"
     r="3.37"
     id="circle31"
     d="m 53.1,11.3 c 0,1.9 -1.5,3.4 -3.4,3.4 -1.9,0 -3.4,-1.5 -3.4,-3.4 0,-1.86 1.5,-3.37 3.4,-3.37 1.9,0 3.4,1.51 3.4,3.37 z" />
  <circle
     transform="matrix(12.5,0,0,12.5,-578,22.2)"
     style="fill:#000000;fill-opacity:1"
     sodipodi:ry="2.66"
     sodipodi:rx="2.66"
     sodipodi:cy="10.6"
     sodipodi:cx="49.6"
     cx="49.6"
     cy="10.6"
     r="2.66"
     id="circle33"
     d="m 52.3,10.6 c 0,1.5 -1.2,2.7 -2.7,2.7 -1.5,0 -2.7,-1.2 -2.7,-2.7 0,-1.47 1.2,-2.66 2.7,-2.66 1.5,0 2.7,1.19 2.7,2.66 z" />
  <polygon
     transform="matrix(4.98,0,0,10.8,-205,50.4)"
     style="fill:#f0f0f0;fill-opacity:1"
     points="50.8,9.84 48.5,9.84 48.5,1.44 50.8,1.9 "
     id="polygon35" />
  <rect
     style="fill:#f0f0f0;fill-opacity:1;stroke:none"
     id="rect3055"
     width="105"
     height="71.7"
     x="36.9"
     y="-0.5"
     ry="0" />
  <rect
     style="fill:#000000;fill-opacity:1;stroke:none"
     id="rect3035-0"
     width="30.3"
     height="30.3"
     x="46"
     y="4.04" />
  <rect
     style="fill:#ffffff;fill-opacity:1;stroke:none"
     id="rect3035-0-5"
     width="30.3"
     height="30.3"
     x="46.1"
     y="34.3" />
  <rect
     style="fill:#ffffff;fill-opacity:1;stroke:none"
     id="rect3035-0-7"
     width="30.3"
     height="30.3"
     x="76"
     y="3.95" />
  <rect
     style="fill:#000000;fill-opacity:1;stroke:none"
     id="rect3035-0-5-1"
     width="30.3"
     height="30.3"
     x="76.1"
     y="34.2" />
  <rect
     style="fill:#000000;fill-opacity:1;stroke:none"
     id="rect3035-0-1"
     width="30.3"
     height="30.3"
     x="106"
     y="3.96" />
  <rect
     style="fill:#ffffff;fill-opacity:1;stroke:none"
     id="rect3035-0-5-5"
     width="30.3"
     height="30.3"
     x="106"
     y="34.3" />
</svg>
