<?xml version="1.0" standalone="no"?>
<!DOCTYPE svg PUBLIC "-//W3C//DTD SVG 20010904//EN"
 "http://www.w3.org/TR/2001/REC-SVG-20010904/DTD/svg10.dtd">
<svg version="1.0" xmlns="http://www.w3.org/2000/svg"
 width="93.000000pt" height="107.000000pt" viewBox="0 0 93.000000 107.000000"
 preserveAspectRatio="xMidYMid meet">
<metadata>
Created by potrace 1.11, written by Peter Selinger 2001-2013
</metadata>
<g transform="translate(0.000000,107.000000) scale(0.100000,-0.100000)"
fill="#000000" stroke="none">
<path d="M80 650 l0 -360 70 0 70 0 0 360 0 360 -70 0 -70 0 0 -360z"/>
<path d="M490 993 c-25 -8 -57 -24 -72 -34 -34 -25 -68 -95 -68 -142 l0 -37
68 0 69 0 18 41 c21 46 40 59 85 59 41 0 80 -39 80 -80 0 -51 -27 -89 -162
-227 -128 -131 -178 -204 -178 -260 l0 -23 265 0 265 0 0 60 0 59 -147 3
c-102 2 -148 7 -148 14 0 7 21 29 47 51 64 52 152 164 190 240 25 52 30 71 25
109 -11 103 -113 184 -231 184 -33 -1 -81 -8 -106 -17z"/>
<path d="M80 125 l0 -65 390 0 390 0 0 65 0 65 -390 0 -390 0 0 -65z"/>
</g>
</svg>
