<?xml version="1.0" encoding="utf-8"?>
<!-- Generator: Adobe Illustrator 16.0.0, SVG Export Plug-In . SVG Version: 6.00 Build 0)  -->
<!DOCTYPE svg PUBLIC "-//W3C//DTD SVG 1.1//EN" "http://www.w3.org/Graphics/SVG/1.1/DTD/svg11.dtd">
<svg version="1.1" id="Layer_1" xmlns="http://www.w3.org/2000/svg" xmlns:xlink="http://www.w3.org/1999/xlink" x="0px" y="0px"
	 width="500px" height="187px" viewBox="0 0 500 187" enable-background="new 0 0 500 187" xml:space="preserve">
<g>
	<path d="M310.919,134.382c6.238-4.214,21.003-2.922,29.283-5.683c9.759-3.253,19.458-7.087,27.535-13.549
		c12.356-9.885,30.309-35.572,13.986-49.825c-17.388-15.184-47.494-3.642-62.97,6.572c-17.973,11.863-35.004,28.496-42.801,48.499
		c-5.631,14.447-9.29,36.97-0.874,49.825c6.65,10.16,19.944,14.043,32.343,15.734c14.826,2.022,28.689-0.749,41.085-9.615
		c7.172-5.13,24.476-15.923,24.476-25.787c0-8.46-14.389,1.58-16.608,3.06c-6.602,4.401-14.934,11.248-22.728,13.112
		c-8.958,2.142-14.27-3.387-18.794-9.179C307.568,148.222,309.607,143.123,310.919,134.382z M312.667,125.64
		c1.947-8.696,22.12-57.559,34.966-51.136c8.568,4.284-0.425,20.872-4.371,26.661c-3.767,5.526-9.105,11.637-14.828,15.93
		C323.332,120.92,317.798,122.762,312.667,125.64z"/>
</g>
<g>
	<path d="M453.403,76.689c1.748-6.119,3.496-12.238,5.244-18.357c-8.407,1.801-16.978,2.933-25.317,5.019
		c-6.753,1.688-13.144,4.597-20.138,4.597c-3.104,0-7.183,0.039-8.741,1.748c-1.292,1.418-1.781,7.272,0.874,5.245
		c2.305,2.571,8.132-1.167,10.49,4.371c2.015,4.73-0.874,11.308-0.874,17.045c0,10.122-6.913,25.395-9.908,35.685
		c-5.147,17.68-10.295,35.36-15.442,53.04c13.056,0,26.11,0,39.167,0c0.9,0,9.424-29.512,10.659-33.217
		c3.737-11.213,7.171-22.209,12.497-32.861c2.894-5.789,7.812-23.084,15.912-23.084c5.153,0,4.447,7.442,9.179,10.49
		c6.715,4.325,11.604-0.24,16.171-4.808c3.937-3.937,6.142-13.683,6.557-18.793c0.238-2.947,0.457-6.704,0-9.616
		c-0.378-2.402-2.623-5.408-2.623-7.43c0-5.206-8.683-5.682-12.237-5.682c-3.129,0-5.852-0.206-8.741,0.874
		c-2.93,1.095-4.279,3.45-6.993,4.808c-4.306,2.153-8.778,8.637-11.364,12.675c-2.192,3.423-3.951,10.983-7.867,11.364
		C450.474,85.424,452.184,80.957,453.403,76.689z"/>
</g>
<g>
	<path d="M152.701,184.207c11.034-3.134,22.222-4.202,33.217-7.867c10.206-3.402,20.95-10.19,28.846-17.482
		c17.743-16.385,30.443-36.154,40.209-58.13c9.267-20.848,12.926-47.328,5.683-69.057c-7.52-22.557-27.942-30.158-50.521-30.158
		c-33.764,0-52.499,29.828-57.571,60.261c-2.592,15.551-1.086,32.005,6.766,45.748c7.722,13.514,31.452,9.377,44.07,9.377
		c-12.767,20.271-24.424,46.312-49.389,54.634c-4.14,1.381-15.297,5.933-15.297,10.927
		C138.715,187.908,148.82,184.325,152.701,184.207z M208.646,103.787c-12.955,0-16.148-4.689-18.583-16.868
		c-1.852-9.255-1.381-22.018,1.538-30.772c1.586-4.76,2.979-9.761,4.808-14.423c1.175-2.997,3.776-7.607,5.245-10.927
		c1.692-3.825,8.109-15.338,13.112-16.171c5.245-0.875,5.973,0.291,8.304,1.748c3.1,1.937,5.682,18.502,4.808,27.098
		c-1.102,10.827-4.325,21.991-7.43,32.343c-1.018,3.394-7.576,26.515-11.364,27.972
		C208.947,103.839,208.792,103.787,208.646,103.787z"/>
</g>
<g>
	<path d="M0.602,175.466c19.275-17.523,36.489-37.477,54.606-56.218c14.308-14.801,34.718-34.879,36.304-56.545
		c0.719-9.826,0.139-23.551-8.742-29.721c-8.194-5.693-21.703-6.669-29.688-0.68C50.258,34.42,36.404,48.68,34.256,46.531
		c-5.53-5.529,3.859-19.12,7.009-23.845C53.351,4.559,72.869-3.629,94.134,1.513c18.622,4.503,36.893,26.784,34.966,46.329
		c-2.16,21.898-19.299,38.194-32.553,54.098c-14.644,17.572-33.497,32.882-50.49,48.176c14.533,0,29.066,0,43.6,0
		c6.589,0,7.852,0.244,11.018-6.088c2.985-5.97,3.48-6.15,10.069-6.15c-4.122,14.168-8.244,28.337-12.366,42.505
		c-1.034,3.557-0.356,5.572-3.998,5.572c-6.005,0-12.01,0-18.015,0c-18.457,0-36.914,0-55.371,0c-6.005,0-12.01,0-18.015,0
		C-1.793,185.955,0.602,179.39,0.602,175.466z"/>
</g>
</svg>
