<?xml version="1.0" encoding="utf-8"?>
<!-- Generator: Adobe Illustrator 16.0.0, SVG Export Plug-In . SVG Version: 6.00 Build 0)  -->
<!DOCTYPE svg PUBLIC "-//W3C//DTD SVG 1.1//EN" "http://www.w3.org/Graphics/SVG/1.1/DTD/svg11.dtd">
<svg version="1.1" id="Layer_1" xmlns="http://www.w3.org/2000/svg" xmlns:xlink="http://www.w3.org/1999/xlink" x="0px" y="0px"
	 width="500px" height="207px" viewBox="0 0 500 207" enable-background="new 0 0 500 207" xml:space="preserve">
<path d="M500,206.604v-20.654H0v20.654H500z"/>
<path d="M459.553,127.43H500v-21.515h-40.447V0.062h-44.752L287.436,105.054v22.376h136.832v37.005h35.285V127.43z M424.268,25.019
	v80.896H322.719L424.268,25.019z"/>
<circle cx="234.94" cy="152.387" r="15.49"/>
<path d="M0,56h36.044c0,0,0-3.767,0-16.248c0-6.208,2.963-19.037,35.5-19.037c40.448,0,32.821-0.247,42.914-0.247
	c16.297,0,45.611,0.417,45.611,19.428c0,3.555,0,11.674,0,17.203c0,3.474-4.144,10.422-10.327,12.669
	c-9.467,3.442-107.573,20.654-107.573,20.654S0,99.915,0,127.859c0,30.615,0,36.575,0,36.575h195.626V143.78H36.044
	c0,0,0-10.978,0-16.906c0-4.32,5.323-13.395,15.161-15.365c14.232-2.852,107.434-18.768,110.241-19.436
	c7.373-1.752,34.18-12.812,34.18-34.973c0-8.875,0-10.701,0-17.203c0-26.239-27.345-39.835-81.168-39.835
	c-76.934,0-42.914,0-42.914,0S0-3.316,0,39.753V56z"/>
</svg>
