<?xml version="1.0" encoding="UTF-8" standalone="no"?>
<!-- Gegenereerd door Microsoft Visio, SVG Export 470.svg Page-1 -->

<svg
   xmlns:v="http://schemas.microsoft.com/visio/2003/SVGExtensions/"
   xmlns:dc="http://purl.org/dc/elements/1.1/"
   xmlns:cc="http://creativecommons.org/ns#"
   xmlns:rdf="http://www.w3.org/1999/02/22-rdf-syntax-ns#"
   xmlns:svg="http://www.w3.org/2000/svg"
   xmlns="http://www.w3.org/2000/svg"
   xmlns:sodipodi="http://sodipodi.sourceforge.net/DTD/sodipodi-0.dtd"
   xmlns:inkscape="http://www.inkscape.org/namespaces/inkscape"
   width="26.3372in"
   height="9.56554in"
   viewBox="0 0 1896.28 688.719"
   xml:space="preserve"
   color-interpolation-filters="sRGB"
   class="st2"
   id="svg2985"
   version="1.1"
   inkscape:version="0.48.2 r9819"
   sodipodi:docname="470.svg"><metadata
   id="metadata3004"><rdf:RDF><cc:Work
       rdf:about=""><dc:format>image/svg+xml</dc:format><dc:type
         rdf:resource="http://purl.org/dc/dcmitype/StillImage" /><dc:title>470</dc:title></cc:Work></rdf:RDF></metadata><defs
   id="defs3002" /><sodipodi:namedview
   pagecolor="#ffffff"
   bordercolor="#666666"
   borderopacity="1"
   objecttolerance="10"
   gridtolerance="10"
   guidetolerance="10"
   inkscape:pageopacity="0"
   inkscape:pageshadow="2"
   inkscape:window-width="1680"
   inkscape:window-height="987"
   id="namedview3000"
   showgrid="false"
   inkscape:zoom="0.65391245"
   inkscape:cx="1185.174"
   inkscape:cy="430.44931"
   inkscape:window-x="-8"
   inkscape:window-y="-8"
   inkscape:window-maximized="1"
   inkscape:current-layer="svg2985" />
	<title
   id="title2987">470</title>
	<v:documentProperties
   v:langID="1043"
   v:metric="true"
   v:viewMarkup="false">
		<v:userDefs>
			<v:ud
   v:nameU="msvNoAutoConnect"
   v:val="VT0(1):26" />
		</v:userDefs>
	</v:documentProperties>

	<style
   type="text/css"
   id="style2989">
	
		.st1 {fill:#0033cc;stroke:#0033cc;stroke-linecap:round;stroke-linejoin:round;stroke-width:0.75}
		.st2 {fill:none;fill-rule:evenodd;font-size:12px;overflow:visible;stroke-linecap:square;stroke-miterlimit:3}
	
	</style>

	<g
   v:mID="0"
   v:index="1"
   v:groupContext="foregroundPage"
   id="g2991"
   style="fill:#000000">
		<title
   id="title2993">Pagina-1</title>
		<v:pageProperties
   v:drawingScale="0.0393701"
   v:pageScale="0.0393701"
   v:drawingUnits="24"
   v:shadowOffsetX="8.50394"
   v:shadowOffsetY="-8.50394" />
		<g
   id="shape320-1"
   v:mID="320"
   v:groupContext="shape"
   transform="translate(18.375,-18.375)"
   style="fill:#000000">
			<title
   id="title2996">Blad.320</title>
			<path
   d="M212.6 688.72 L342.99 688.72 L457.55 490.29 L735.35 490.29 L620.79 688.72 L751.18 688.72 L865.74 490.29 L1143.54        490.29 L1028.98 688.72 L1499.53 688.72 L1859.53 65.18 L1859.53 65.1 L1389.02 65.1 L1209 376.91 L931.21 376.91        L1111.23 65.1 L703.04 65.1 L637.58 178.48 L915.37 178.48 L800.81 376.91 L523.02 376.91 L555.75 320.21 L425.35        320.21 L392.62 376.91 L195.86 376.91 L392.25 36.75 L261.85 36.75 L0 490.29 L327.16 490.29 L212.6 688.72        ZM1404.59 376.91 L1339.39 376.91 L1372.13 320.21 L1453.96 178.48 L1663.72 178.48 L1434.6 575.33 L1224.83        575.33 L1273.93 490.29 L1339.13 490.29 L1404.59 376.91 Z"
   class="st1"
   id="path2998"
   style="fill:#000000" />
		</g>
	</g>
</svg>