<?xml version="1.0" encoding="UTF-8" standalone="no"?>
<!-- Generator: Adobe Illustrator 10.0, SVG Export Plug-In . SVG Version: 3.0.0 Build 76)  -->

<svg
   xmlns:ns0="http://ns.adobe.com/SaveForWeb/1.0/"
   xmlns:ns="http://ns.adobe.com/Variables/1.0/"
   xmlns:i="http://ns.adobe.com/AdobeIllustrator/10.0/"
   xmlns:dc="http://purl.org/dc/elements/1.1/"
   xmlns:cc="http://creativecommons.org/ns#"
   xmlns:rdf="http://www.w3.org/1999/02/22-rdf-syntax-ns#"
   xmlns:svg="http://www.w3.org/2000/svg"
   xmlns="http://www.w3.org/2000/svg"
   xmlns:sodipodi="http://sodipodi.sourceforge.net/DTD/sodipodi-0.dtd"
   xmlns:inkscape="http://www.inkscape.org/namespaces/inkscape"
   i:viewOrigin="157.2441 604.2559"
   i:rulerOrigin="0 0"
   i:pageBounds="0 850.3936 850.3936 0"
   width="1441.9717"
   height="527.69568"
   viewBox="0 0 1441.9717 527.69568"
   overflow="visible"
   enable-background="new 0 0 535.5 358.5"
   xml:space="preserve"
   id="svg2"
   version="1.1"
   inkscape:version="0.48.4 r"
   sodipodi:docname="49er.svg"
   style="overflow:visible"><defs
     id="defs29"><clipPath
       id="XMLID_2_"><path
         d="M 0,0 H 535.5 V 358.5 H 0 V 0 z"
         id="use15"
         inkscape:connector-curvature="0" /></clipPath><clipPath
       id="clipPath3102"><path
         d="M 0,0 H 535.5 V 358.5 H 0 V 0 z"
         id="use3104"
         inkscape:connector-curvature="0" /></clipPath><clipPath
       id="clipPath3106"><path
         d="M 0,0 H 535.5 V 358.5 H 0 V 0 z"
         id="use3108"
         inkscape:connector-curvature="0" /></clipPath><clipPath
       id="clipPath3110"><path
         d="M 0,0 H 535.5 V 358.5 H 0 V 0 z"
         id="use3112"
         inkscape:connector-curvature="0" /></clipPath><clipPath
       id="clipPath3114"><path
         d="M 0,0 H 535.5 V 358.5 H 0 V 0 z"
         id="use3116"
         inkscape:connector-curvature="0" /></clipPath></defs><sodipodi:namedview
     pagecolor="#ffffff"
     bordercolor="#666666"
     borderopacity="1"
     objecttolerance="10"
     gridtolerance="10"
     guidetolerance="10"
     inkscape:pageopacity="0"
     inkscape:pageshadow="2"
     inkscape:window-width="1920"
     inkscape:window-height="1005"
     id="namedview27"
     showgrid="false"
     fit-margin-top="0"
     fit-margin-left="0"
     fit-margin-right="0"
     fit-margin-bottom="0"
     inkscape:zoom="0.801"
     inkscape:cx="718"
     inkscape:cy="281"
     inkscape:window-x="-9"
     inkscape:window-y="-9"
     inkscape:window-maximized="1"
     inkscape:current-layer="svg2" /><metadata
     id="metadata4"><ns:variableSets><ns:variableSet
         varSetName="binding1"
         locked="none"><ns:variables /><ns:sampleDataSets /></ns:variableSet></ns:variableSets><ns0:sfw><ns0:slices /><ns0:sliceSourceBounds
         y="245.756"
         x="157.244"
         width="535.5"
         height="358.5"
         bottomLeftOrigin="true" /></ns0:sfw><rdf:RDF><cc:Work
         rdf:about=""><dc:format>image/svg+xml</dc:format><dc:type
           rdf:resource="http://purl.org/dc/dcmitype/StillImage" /><dc:title></dc:title></cc:Work></rdf:RDF></metadata><path
     style="fill:#000000"
     d="m 889.97164,526.98708 c -0.825,-0.5426 -3.80592,-0.99344 -6.62427,-1.00186 -2.81835,-0.008 -7.03743,-0.69031 -9.37573,-1.51531 -2.3383,-0.825 -5.44604,-1.5 -6.90609,-1.5 -1.46004,0 -6.3891,-1.575 -10.95345,-3.5 -4.56435,-1.925 -9.55809,-3.5 -11.09719,-3.5 -1.53911,0 -3.35858,-0.675 -4.04327,-1.5 -0.68469,-0.825 -2.33301,-1.5 -3.66294,-1.5 -2.24851,0 -6.03926,-2.1421 -10.83706,-6.12387 -1.1,-0.91291 -4.25299,-2.8234 -7.00665,-4.24554 -7.22903,-3.73347 -19.49335,-16.86847 -19.49335,-20.87724 0,-0.70058 -1.125,-2.48705 -2.5,-3.96992 -1.375,-1.48288 -2.5,-3.78568 -2.5,-5.11734 0,-1.33166 -0.675,-2.9814 -1.5,-3.66609 -0.825,-0.68469 -1.5,-2.44979 -1.5,-3.92244 0,-1.47266 -0.40536,-3.10506 -0.9008,-3.62756 -2.47649,-2.61175 -4.0992,-17.1922 -4.0992,-36.83223 0,-28.75132 3.43848,-47.97436 14.68863,-82.11777 5.07135,-15.39118 6.49727,-18.46686 15.06735,-32.5 5.20624,-8.525 11.65684,-18.65 14.33467,-22.5 2.67783,-3.85 7.64088,-11.05 11.02901,-16 3.38813,-4.95 9.21253,-12.15 12.94312,-16 3.73059,-3.85 9.69568,-10.52826 13.25576,-14.84059 4.05612,-4.91317 9.03204,-9.54087 13.32717,-12.39452 3.76986,-2.50466 9.32929,-6.87515 12.35429,-9.71219 8.04971,-7.54952 12.97895,-10.62729 31.15069,-19.45015 42.20001,-20.48922 55.05441,-25.94788 71.34931,-30.29879 11.83006,-3.15879 12.37816,-3.20941 38.71836,-3.57625 29.1932,-0.40658 38.6052,0.63404 47.7983,5.2848 2.4843,1.25674 6.5343,2.81858 9,3.47075 6.079,1.60781 13.0792,6.21645 15.3937,10.13447 1.0485,1.77507 3.4068,4.88815 5.2406,6.91796 1.8338,2.02981 4.5751,6.3397 6.0916,9.57754 2.4967,5.33033 2.7884,7.14116 3.0851,19.15114 0.3131,12.67177 0.1849,13.69898 -2.8717,23 -5.4903,16.70642 -11.2188,31.63961 -13.0552,34.03279 -0.9694,1.26333 -2.0485,3.599 -2.398,5.19038 -0.3924,1.78655 -1.8534,3.61625 -3.8192,4.78297 -1.8492,1.09755 -4.7899,4.64985 -7.016,8.47507 -3.663,6.29465 -16.2978,19.75462 -18.5435,19.75462 -0.5887,0 -4.8616,3.4875 -9.4953,7.75 -4.6338,4.2625 -11.3432,9.85845 -14.9098,12.43544 -9.2285,6.66798 -37.1141,20.41651 -43.9868,21.687 -3.0942,0.572 -7.78726,2.13046 -10.42906,3.46324 -2.6417,1.33278 -7.2781,3.14763 -10.3031,4.033 -10.0971,2.95525 -38.35795,7.77423 -50.5,8.61113 -6.6,0.45491 -16.43704,1.77056 -21.86008,2.92365 -5.42304,1.1531 -9.98146,2.09654 -10.12981,2.09654 -0.83395,0 -1.78824,14.49142 -1.81093,27.5 -0.035,20.06868 1.28929,25.61205 8.01451,33.54828 1.53247,1.80843 3.68631,4.73508 4.78631,6.50368 5.10265,8.20412 7.70095,11.52592 10.24658,13.09974 1.51438,0.93626 4.55342,3.38111 6.75342,5.43299 3.02182,2.81837 5.10046,3.85779 8.5,4.25039 7.2537,0.8377 13.3294,2.20391 15.83319,3.56033 1.95083,1.05686 2.61924,1.00512 4.07874,-0.31571 1.19799,-1.08417 3.70201,-1.5797 7.98257,-1.5797 6.7591,0 8.8627,-0.77942 13.8903,-5.14665 1.8066,-1.56934 3.8316,-2.85371 4.5,-2.85414 2.343,-0.002 14.245,-6.15535 17.21516,-8.90096 1.65,-1.52523 5.2373,-3.59663 7.9718,-4.60312 2.7345,-1.00649 7.0562,-3.77964 9.6037,-6.16256 2.8313,-2.64828 5.5756,-4.33257 7.0595,-4.33257 1.6501,0 4.3393,-1.94858 8.3963,-6.08394 4.4008,-4.48578 8.5251,-7.37532 15.7005,-11 13.283,-6.70994 18.4277,-6.70578 26.0182,0.021 2.2627,2.00528 2.75,3.26816 2.75,7.12756 0,2.94935 -0.5568,5.15257 -1.5,5.93535 -0.825,0.68469 -1.5,1.8709 -1.5,2.63601 0,3.09405 -6.3219,11.36399 -8.6871,11.36399 -0.7221,0 -1.3129,0.48341 -1.3129,1.07424 0,1.58241 -11.0808,12.92576 -12.6265,12.92576 -0.7272,0 -1.974,1.2375 -2.7708,2.75 -2.3331,4.42908 -16.8248,17.52527 -25.1742,22.75 -7.2991,4.5675 -11.1416,7.50954 -14.8814,11.39411 -2.6567,2.7594 -4.8131,4.10589 -6.5757,4.10589 -1.4964,0 -3.6197,1.06116 -4.94406,2.47098 -1.2768,1.35904 -3.9427,2.98742 -5.9244,3.61862 -1.9816,0.6312 -4.9529,2.39026 -6.6029,3.90903 -4.28,3.93959 -6.7712,5.00137 -11.7343,5.00137 -2.4011,0 -4.7932,0.42054 -5.3157,0.93452 -1.271,1.25028 -13.82661,5.972 -19.45,7.31445 -5.9311,1.41591 -58.99905,2.08422 -61,0.7682 z m 26.53837,-176.89231 c 3.87111,-1.57756 8.82111,-3.76512 11,-4.86125 2.1789,-1.09613 5.76163,-2.5617 7.96163,-3.25683 2.44902,-0.77381 6.74583,-3.83131 11.08154,-7.88533 9.38742,-8.77752 24.13236,-21.56599 28.10026,-24.37163 1.75,-1.2374 3.9781,-3.59982 4.9515,-5.24982 0.9733,-1.65 4.4915,-6.02738 7.8182,-9.72752 10.766,-11.97454 12.3995,-14.29211 13.61926,-19.3223 0.6602,-2.7226 2.2643,-6.0998 3.5648,-7.5049 1.5476,-1.67222 2.3644,-3.76213 2.3644,-6.05 0,-1.9224 0.5411,-4.03638 1.2024,-4.69773 1.3458,-1.34577 5.3936,-11.5742 7.0037,-17.69755 0.5785,-2.2 1.2488,-7.60546 1.4896,-12.01212 0.3923,-7.18033 0.1922,-8.37423 -1.9274,-11.5 -1.3009,-1.91834 -2.6658,-4.2728 -3.0332,-5.23216 -1.7553,-4.58367 -12.95006,-7.61143 -15.73506,-4.25572 -0.6847,0.825 -2.466,1.5 -3.9584,1.5 -2.0456,0 -4.3536,1.69892 -9.3775,6.90277 -3.6653,3.79652 -6.6641,7.40658 -6.6641,8.02234 0,0.61577 -1.7275,3.02202 -3.8388,5.34723 -5.3364,5.8769 -11.99039,15.99209 -13.69145,20.81339 -1.59355,4.5166 -7.72886,15.08416 -10.98124,18.91427 -1.1676,1.375 -2.94967,4.41509 -3.96017,6.75575 -1.0105,2.34067 -2.41384,4.73426 -3.11853,5.3191 -0.70469,0.58484 -1.57827,2.41568 -1.9413,4.06853 -0.36303,1.65285 -1.96901,4.496 -3.56885,6.31812 -1.59983,1.82211 -3.59507,5.27618 -4.43386,7.67572 -0.83878,2.39953 -3.04161,6.83778 -4.89518,9.86278 -1.85356,3.025 -3.90329,7.525 -4.55496,10 -0.65167,2.475 -2.51097,5.88606 -4.13179,7.58014 -3.29707,3.4461 -6.88387,11.94166 -6.88387,16.30486 0,1.57495 -0.65504,4.72012 -1.45564,6.98927 -1.78052,5.04654 -1.44828,5.09852 7.99401,1.25059 z M 413.97164,524.46991 c -0.68469,-0.825 -1.86479,-1.5 -2.62244,-1.5 -0.97878,0 -1.37756,-1.38972 -1.37756,-4.80064 0,-5.09075 1.78505,-10.17857 3.57569,-10.19156 0.59162,-0.004 2.13256,-1.1328 3.42431,-2.5078 1.29175,-1.375 3.08191,-2.5 3.97815,-2.5 0.89623,0 3.15607,-1.575 5.02185,-3.5 1.96047,-2.0227 4.37319,-3.5 5.71615,-3.5 1.2781,0 6.25232,-1.96554 11.05383,-4.36787 4.80151,-2.40232 9.85502,-4.70982 11.23002,-5.12777 4.88552,-1.48502 28.59491,-17.0127 34.5,-22.59464 3.3,-3.11942 8.25,-6.8138 11,-8.20974 4.78772,-2.43032 30.35052,-27.58455 48.628,-47.85079 6.20961,-6.88527 15.872,-21.29268 15.872,-23.66645 0,-0.58519 2.4428,-4.63086 5.42844,-8.99038 4.97297,-7.26136 25.13486,-45.9624 24.35241,-46.74484 -0.18535,-0.18535 -2.12437,0.0774 -4.30892,0.58388 -2.18456,0.50649 -16.47321,0.93162 -31.75255,0.94474 -25.50461,0.0219 -28.90461,-0.18353 -41.5,-2.50751 -17.16636,-3.16738 -20.45799,-4.05408 -26.70263,-7.1932 -9.85986,-4.95645 -14.38316,-9.14331 -21.78097,-20.1609 -8.06292,-12.00815 -11.04335,-19.30138 -16.39305,-40.11453 l -3.72701,-14.5 -0.37301,-30.7534 c -0.29859,-24.61681 -0.0699,-32.29916 1.14585,-38.5 0.83538,-4.26063 2.03748,-11.34661 2.67133,-15.74661 0.63385,-4.4 3.40656,-14.3 6.16158,-22 2.75501,-7.7 6.69185,-19.4 8.74853,-26 2.05667,-6.6 5.33331,-15.149998 7.28142,-18.999998 5.42609,-10.72347 17.55887,-28.570724 29.47958,-43.364307 5.92295,-7.350369 10.994,-13.656555 11.269,-14.013748 1.07815,-1.400389 10.96207,-9.133505 20,-15.647874 10.82914,-7.80544 17.36103,-10.7643505 29.77475,-13.4877965 4.79889,-1.052827 12.06657,-3.055441 16.1504,-4.450253 7.21583,-2.46452805 8.16023,-2.53503105 33.5,-2.50089205 18.79645,0.02532 27.88923,0.43422 32.57485,1.46487105 3.575,0.786358 8.83927,1.44555 11.69838,1.464871 2.85911,0.01932 8.70911,1.142417 13,2.49577 4.29089,1.353352 10.27662,2.982901 13.30162,3.62122 7.30184,1.5407925 17.5529,5.6201255 22.5,8.9537095 2.2,1.482461 6.25,3.846883 9,5.254272 9.35594,4.788164 29.73518,28.20833 36.72949,42.210157 1.37371,2.75 3.73357,9.725 5.24415,15.5 1.51058,5.775 4.11658,13.875 5.79112,18 2.38842,5.883558 3.20306,9.763008 3.77978,17.999998 0.40435,5.775 1.32495,15.5625 2.04579,21.75 1.06881,9.17452 1.07648,13.32548 0.0416,22.5 -0.69797,6.1875 -2.10701,18.90001 -3.13119,28.25001 -2.36499,21.59072 -5.38739,35.94964 -12.83981,61 -7.76308,26.09457 -13.45979,40.1165 -28.56109,70.30052 -13.72932,27.44175 -20.49781,38.67714 -38.07299,63.19948 -14.86879,20.74616 -23.10136,30.27022 -44.20274,51.13711 -17.83993,17.64167 -22.32031,21.20482 -48.09676,38.25037 -19.23012,12.71657 -29.16607,17.59952 -50.72731,24.92958 -8.8,2.99169 -20.275,7.0236 -25.5,8.95979 -5.225,1.93619 -12.65,4.0428 -16.5,4.68134 -3.85,0.63854 -11.275,2.23131 -16.5,3.53947 -12.10733,3.03128 -26.30575,5.49504 -31.69098,5.49915 -2.30504,0.002 -4.4691,0.45319 -4.80902,1.00319 -0.36546,0.59133 -6.46957,1 -14.93657,1 -11.50764,0 -14.56293,0.29447 -15.56343,1.5 -0.68469,0.825 -1.58469,1.5 -2,1.5 -0.41531,0 -1.31531,-0.675 -2,-1.5 z m 197.49342,-227.75 c 2.81057,-6.25182 8.50658,-21.71928 8.50658,-23.09951 0,-0.76592 2.07606,-6.06311 4.61348,-11.77153 10.44304,-23.49375 25.97724,-69.69007 28.41756,-84.50946 0.62217,-3.77823 2.42295,-11.59451 4.00175,-17.36951 3.73114,-13.648 7.96816,-41.35105 7.96369,-52.06928 -0.002,-5.04865 -1.40778,-16.654508 -3.50401,-28.930718 -3.46868,-20.313709 -5.69612,-29.030627 -8.19711,-32.078741 -0.71245,-0.868307 -1.29536,-2.189304 -1.29536,-2.935548 0,-1.969517 -4.06058,-5.985711 -6.05187,-5.985711 -0.93678,0 -2.26344,-0.675 -2.94813,-1.5 -1.90031,-2.289737 -14.05222,-2.027632 -18.78984,0.405279 -5.42147,2.784088 -19.79888,17.91177 -20.62774,21.704179 -0.37378,1.710202 -2.00773,4.381893 -3.63101,5.937091 -1.62327,1.555199 -2.95141,3.573698 -2.95141,4.485555 0,0.911856 -0.94607,2.514103 -2.10238,3.560546 -2.79753,2.53173 -4.89762,6.73339 -4.89762,9.79867 0,1.36986 -0.46209,2.77623 -1.02686,3.12528 -1.31685,0.81386 -8.67167,15.420998 -11.0596,21.965048 -1.00715,2.76009 -3.69009,10.64335 -5.96207,17.51835 -2.27199,6.875 -4.81111,13.85 -5.6425,15.5 -2.70578,5.36999 -6.30897,19.40865 -6.30897,24.58085 0,2.77786 -0.54321,6.03356 -1.20714,7.2349 -2.11627,3.82929 -2.99056,13.55603 -3.44661,38.34485 -0.42887,23.3119 -0.35165,24.57648 2.19828,36 3.47775,15.58011 7.68332,28.54872 10.38721,32.03081 1.1995,1.54473 3.17877,4.37289 4.39838,6.2848 2.6241,4.11366 8.07145,8.0238 11.17822,8.0238 1.21691,0 3.87035,1.125 5.89652,2.5 2.89929,1.96751 4.93991,2.5 9.58053,2.5 3.24312,0 6.17469,0.45 6.51461,1 1.33965,2.1676 4.54911,0.96273 5.99342,-2.25 z m -486.03071,223.5 c 0.37374,-1.5125 7.62252,-26.71509 16.10841,-56.00575 8.48588,-29.29066 15.42888,-53.47816 15.42888,-53.75 0,-0.27184 -35.325,-0.49425 -78.500005,-0.49425 -43.175,0 -78.48722983,-0.3375 -78.4716298332393,-0.75 C 0.01560517,408.80741 5.5460752,390.91104 12.289935,369.4502 L 24.551495,330.43049 168.01157,166.77187 311.47164,3.1132675 l 35.31739,-0.07168 c 33.19219,-0.06737 35.28507,0.03362 34.78031,1.678317 -2.1243,6.9218595 -96.5977,329.4685955 -96.5977,329.7994255 0,0.23169 13.42028,0.54035 29.82284,0.68592 l 29.82284,0.26466 -11.09806,37 -11.09806,37 -30.06907,0.26443 -30.06907,0.26443 -14.23954,49.23557 c -7.83175,27.07956 -15.19197,52.49807 -16.35605,56.48557 l -2.1165,7.25 -52.40807,0 -52.40808,0 0.67953,-2.75 z m 59.42502,-203.5 c 2.81583,-10.0375 12.27972,-43.45 21.03085,-74.25 8.75113,-30.8 15.82619,-56.08577 15.72235,-56.1906 -0.21614,-0.2182 -124.182395,142.58832 -126.974345,146.27176 l -1.8334,2.41884 43.467425,0 43.46743,0 5.11969,-18.25 z m 970.79753,109 c 25.167,-86.33654 31.0905,-107.30136 36.8016,-130.25 0.8213,-3.3 2.1727,-8.0854 3.0032,-10.63421 0.8304,-2.54882 1.5099,-6.20622 1.5099,-8.12756 0,-1.92134 0.6329,-4.01863 1.4065,-4.66064 1.47,-1.22002 2.3255,-6.34887 3.2134,-19.26676 0.3357,-4.88351 1.0488,-8.12092 1.9543,-8.87244 2.0762,-1.7231 2.0149,-18.20461 -0.074,-19.93839 -0.825,-0.68469 -1.5,-2.46135 -1.5,-3.94813 0,-2.92306 -3.6254,-7.05187 -6.192,-7.05187 -0.8597,0 -2.1118,-0.6611 -2.7824,-1.4691 -0.9157,-1.10343 -4.0932,-1.53902 -12.7656,-1.75 -10.3492,-0.25178 -11.6612,-0.48827 -12.6532,-2.2809 -0.6087,-1.1 -1.5568,-2.37176 -2.1068,-2.82613 -0.6478,-0.53521 -0.5598,-1.00474 0.25,-1.33333 0.6875,-0.27897 1.25,-1.50101 1.25,-2.71567 0,-1.28111 1.7846,-3.94952 4.25,-6.35478 l 4.25,-4.14633 9.5,-0.48671 c 13.1407,-0.67324 23.2613,-2.14367 31.4784,-4.57351 3.8381,-1.13495 9.5979,-2.06354 12.7996,-2.06354 3.2296,0 7.1182,-0.67066 8.7344,-1.5064 1.6021,-0.82851 7.3173,-2.58579 12.7003,-3.90505 5.383,-1.31926 13.8373,-3.76225 18.7873,-5.42885 4.95,-1.6666 15.3,-4.21107 23,-5.6544 7.7,-1.44331 18.1743,-3.43909 23.2762,-4.43506 8.4821,-1.65582 9.2318,-1.67097 8.7577,-0.17694 -0.2853,0.89866 -3.8899,13.7778 -8.0103,28.62031 -4.1204,14.84252 -9.3167,32.83639 -11.5472,39.98639 -6.7872,21.75602 -6.4655,26.7715 1.2024,18.75 4.3624,-4.56353 5.8212,-7.27329 5.8212,-10.81306 0,-1.65547 1.3005,-4.13401 3.3724,-6.42743 2.0062,-2.22053 4.2987,-6.52364 5.6586,-10.6212 2.007,-6.04755 3.4321,-8.10886 11.6755,-16.88831 11.6344,-12.39111 9.9757,-10.74739 21.4,-21.20577 10.6972,-9.79295 15.8319,-13.29423 19.4959,-13.29423 1.3551,0 4.73,-1.14835 7.4998,-2.5519 4.8038,-2.43424 5.6666,-2.53521 18.7168,-2.19016 9.0224,0.23856 14.8726,0.86134 17.1808,1.82901 10.9239,4.57957 20,14.03707 20,20.84046 0,1.62501 0.4215,3.21506 0.9367,3.53345 0.5151,0.3184 1.6401,1.98909 2.5,3.71266 1.2706,2.54711 1.5633,7.11882 1.5633,24.4211 0,13.11288 -0.384,21.52467 -1,21.90538 -0.55,0.33992 -1,2.40644 -1,4.59226 0,2.25691 -1.0803,6.10607 -2.5,8.90774 -1.375,2.71343 -2.5,6.27191 -2.5,7.90774 0,1.63582 -0.4639,3.2609 -1.0308,3.61129 -0.5669,0.35038 -3.4972,5.43944 -6.5118,11.30901 -6.3652,12.39362 -11.1248,19.20608 -14.5375,20.80755 -6.7853,3.18411 -10.0114,3.81456 -19.4199,3.795 -14.9182,-0.031 -20.0793,-2.75944 -25.5186,-13.49042 -1.55,-3.05791 -3.5299,-6.15051 -4.3998,-6.87245 -0.8699,-0.72193 -1.5816,-2.38862 -1.5816,-3.70373 0,-1.31512 -0.5199,-3.39752 -1.1554,-4.62756 -0.6355,-1.23004 -1.4688,-2.91143 -1.8519,-3.73643 -0.4077,-0.87829 -2.355,-1.62448 -4.698,-1.80034 -3.2627,-0.24488 -5.0906,0.41947 -9.8982,3.59762 -3.2431,2.14388 -6.7968,4.37231 -7.8971,4.95207 -3.1241,1.64604 -14.0111,20.70314 -18.0579,31.6092 -2.0119,5.42221 -5.8094,13.58392 -8.439,18.13715 -2.6296,4.55322 -6.8726,12.90319 -9.4288,18.55548 -4.9942,11.04291 -26.5737,67.13627 -26.5737,69.07524 0,0.64358 -4.0214,13.36591 -8.9365,28.27186 -4.915,14.90594 -12.1363,37.67672 -16.0473,50.60172 -3.9111,12.925 -7.5746,24.9625 -8.1412,26.75 l -1.0301,3.25 -56.2539,0 -56.2539,0 28.3482,-97.25 z"
     id="path3246"
     inkscape:connector-curvature="0"
     inkscape:export-xdpi="72"
     inkscape:export-ydpi="72" /></svg>