<?xml version="1.0" standalone="no"?>
<!DOCTYPE svg PUBLIC "-//W3C//DTD SVG 20010904//EN"
 "http://www.w3.org/TR/2001/REC-SVG-20010904/DTD/svg10.dtd">
<svg version="1.0" xmlns="http://www.w3.org/2000/svg"
 width="140.000000pt" height="140.000000pt" viewBox="0 0 140.000000 140.000000"
 preserveAspectRatio="xMidYMid meet">
<metadata>
Created by potrace 1.11, written by Peter Selinger 2001-2013
</metadata>
<g transform="translate(0.000000,140.000000) scale(0.100000,-0.100000)"
fill="#000000" stroke="none">
<path d="M280 818 c-56 -172 -116 -359 -135 -416 l-34 -102 97 0 97 0 50 163
50 162 114 5 114 5 17 51 c10 28 21 65 25 82 l7 32 -112 0 c-91 0 -111 3 -107
14 3 7 15 46 27 85 l21 71 83 0 84 0 51 -115 52 -115 -149 -207 c-82 -115
-152 -214 -156 -220 -6 -10 15 -13 88 -13 l96 0 77 112 c43 61 87 122 98 136
l21 24 60 -134 60 -133 92 -3 c51 -1 92 -1 92 1 0 2 -43 97 -95 211 -52 114
-95 211 -95 217 0 6 58 92 128 192 71 100 132 188 136 195 5 9 -14 12 -87 12
l-94 0 -78 -110 c-42 -60 -80 -112 -83 -114 -4 -2 -30 46 -59 107 l-51 112
-200 3 -201 2 -101 -312z"/>
</g>
</svg>
