<?xml version="1.0" encoding="utf-8"?>
<!-- Generator: Adobe Illustrator 16.0.0, SVG Export Plug-In . SVG Version: 6.00 Build 0)  -->
<!DOCTYPE svg PUBLIC "-//W3C//DTD SVG 1.1//EN" "http://www.w3.org/Graphics/SVG/1.1/DTD/svg11.dtd">
<svg version="1.1" id="Layer_1" xmlns="http://www.w3.org/2000/svg" xmlns:xlink="http://www.w3.org/1999/xlink" x="0px" y="0px"
	 width="500px" height="318px" viewBox="0 0 500 318" enable-background="new 0 0 500 318" xml:space="preserve">
<path d="M248.072,317.924c-56.953,0-103.123-46.17-103.123-103.123c0-56.954,46.17-103.124,103.123-103.124
	s103.123,46.17,103.123,103.124C351.195,271.754,305.025,317.924,248.072,317.924z M327.064,214.801
	c0-43.627-35.365-78.993-78.992-78.993c-43.626,0-78.992,35.366-78.992,78.993c0,43.625,35.366,78.992,78.992,78.992
	C291.699,293.793,327.064,258.426,327.064,214.801z"/>
<g>
	<path d="M0,138.248l25.484-0.842c1.888,12.404,7.508,21.655,14.385,27.9c6.877,6.248,15.17,6.152,24.878,6.152
		c11.685,0,21.574-1.182,29.664-9.994c8.09-8.809,12.136-20.496,12.136-35.059c0-13.841-3.89-24.764-11.663-32.766
		c-7.776-8-17.968-9.643-30.553-9.643c-7.819,0-14.867-0.582-21.158,2.969c-6.293,3.552-11.238,8.157-14.832,13.82L6.419,99.035
		L24.699,0h98.298v23.192H44.116L33.464,72.606c11.866-8.27,24.306-10.048,37.34-10.048c17.259,0,31.833,3.622,43.699,15.576
		c11.865,11.957,17.798,27.328,17.798,46.115c0,17.889-5.214,33.352-15.641,46.385c-12.676,16-29.981,20.777-51.913,20.777
		c-17.98,0-32.654-1.811-44.025-11.879C9.35,169.467,1.618,154.88,0,138.248z"/>
</g>
<g>
	<path d="M367.699,138.248l25.484-0.842c1.889,12.404,7.508,21.655,14.385,27.9c6.877,6.248,15.17,6.152,24.879,6.152
		c11.684,0,21.574-1.182,29.664-9.994c8.09-8.809,12.135-20.496,12.135-35.059c0-13.841-3.889-24.764-11.664-32.766
		c-7.775-8-17.967-9.643-30.551-9.643c-7.82,0-14.867-0.582-21.16,2.969c-6.291,3.552-11.236,8.157-14.83,13.82l-21.922-1.752
		L392.398,0h98.299v23.192h-78.881l-10.654,49.414c11.867-8.27,24.307-10.048,37.34-10.048c17.26,0,31.834,3.622,43.701,15.576
		C494.068,90.091,500,105.462,500,124.25c0,17.889-5.213,33.352-15.641,46.385c-12.674,16-29.98,20.777-51.912,20.777
		c-17.98,0-32.654-1.811-44.027-11.879C377.049,169.467,369.318,154.88,367.699,138.248z"/>
</g>
</svg>
