<?xml version="1.0" standalone="no"?>
<!DOCTYPE svg PUBLIC "-//W3C//DTD SVG 20010904//EN"
 "http://www.w3.org/TR/2001/REC-SVG-20010904/DTD/svg10.dtd">
<svg version="1.0" xmlns="http://www.w3.org/2000/svg"
 width="292.000000pt" height="71.000000pt" viewBox="0 0 292.000000 71.000000"
 preserveAspectRatio="xMidYMid meet">
<metadata>
Created by potrace 1.11, written by Peter Selinger 2001-2013
</metadata>
<g transform="translate(0.000000,71.000000) scale(0.100000,-0.100000)"
fill="#000000" stroke="none">
<path d="M0 445 c0 -285 5 -316 51 -349 20 -14 58 -16 269 -16 268 0 291 4
333 61 25 34 34 142 17 193 -14 44 -65 106 -87 106 -12 0 -13 7 -6 33 14 57 8
131 -15 168 -39 63 -42 64 -314 67 l-248 3 0 -266z m495 170 c35 -34 35 -106
0 -140 -24 -25 -26 -25 -213 -25 -133 0 -192 4 -200 12 -7 7 -12 44 -12 95 l0
83 200 0 c200 0 201 0 225 -25z m87 -265 c29 -29 30 -34 26 -97 -7 -104 -3
-103 -284 -103 -220 0 -234 1 -244 19 -5 11 -10 63 -10 115 l0 96 241 0 241 0
30 -30z"/>
<path d="M1066 688 c-8 -13 -87 -147 -176 -298 -89 -151 -166 -279 -171 -284
-16 -18 -10 -26 20 -26 28 0 38 14 189 268 87 147 171 288 186 315 l28 47 -31
0 c-21 0 -35 -7 -45 -22z"/>
<path d="M1185 511 c-51 -13 -73 -30 -101 -77 -51 -87 -43 -224 17 -298 40
-48 77 -56 249 -56 131 0 150 2 190 22 65 33 95 97 94 198 0 110 -47 188 -125
210 -39 11 -279 12 -324 1z m326 -78 c38 -23 59 -70 59 -133 0 -61 -21 -112
-58 -137 -39 -26 -295 -27 -335 0 -39 25 -60 74 -60 137 0 65 22 113 61 134
42 23 293 22 333 -1z"/>
<path d="M1783 505 c-64 -28 -73 -59 -73 -252 l0 -173 35 0 35 0 0 163 c0 146
2 166 18 180 16 15 46 17 209 17 171 0 192 -2 206 -18 14 -16 17 -44 17 -180
l0 -162 41 0 41 0 -4 174 c-3 158 -5 177 -24 203 -41 57 -70 63 -279 63 -140
-1 -198 -4 -222 -15z"/>
<path d="M2443 509 c-57 -17 -63 -36 -63 -211 0 -151 1 -158 24 -185 l24 -28
206 -3 206 -3 0 35 0 36 -179 0 c-99 0 -186 3 -195 6 -12 4 -16 20 -16 55 l0
49 166 0 165 0 -3 38 -3 37 -163 3 -163 3 3 47 3 47 193 3 192 2 0 40 0 40
-182 -1 c-101 0 -197 -5 -215 -10z"/>
</g>
</svg>
