<?xml version="1.0" encoding="UTF-8" standalone="no"?>
<!-- Created with Inkscape (http://www.inkscape.org/) -->

<svg
   xmlns:dc="http://purl.org/dc/elements/1.1/"
   xmlns:cc="http://creativecommons.org/ns#"
   xmlns:rdf="http://www.w3.org/1999/02/22-rdf-syntax-ns#"
   xmlns:svg="http://www.w3.org/2000/svg"
   xmlns="http://www.w3.org/2000/svg"
   xmlns:sodipodi="http://sodipodi.sourceforge.net/DTD/sodipodi-0.dtd"
   xmlns:inkscape="http://www.inkscape.org/namespaces/inkscape"
   id="svg2"
   version="1.1"
   inkscape:version="0.48.0 r9654"
   width="220.875"
   height="335.625"
   xml:space="preserve"
   sodipodi:docname="D_Insignia.ai"><metadata
     id="metadata8"><rdf:RDF><cc:Work
         rdf:about=""><dc:format>image/svg+xml</dc:format><dc:type
           rdf:resource="http://purl.org/dc/dcmitype/StillImage" /><dc:title></dc:title></cc:Work></rdf:RDF></metadata><defs
     id="defs6"><clipPath
       clipPathUnits="userSpaceOnUse"
       id="clipPath16"><path
         d="m 0,841.89 595.28,0 L 595.28,0 0,0 0,841.89 z"
         id="path18"
         inkscape:connector-curvature="0" /></clipPath></defs><sodipodi:namedview
     pagecolor="#ffffff"
     bordercolor="#666666"
     borderopacity="1"
     objecttolerance="10"
     gridtolerance="10"
     guidetolerance="10"
     inkscape:pageopacity="0"
     inkscape:pageshadow="2"
     inkscape:window-width="1680"
     inkscape:window-height="1028"
     id="namedview4"
     showgrid="false"
     fit-margin-top="0"
     fit-margin-left="0"
     fit-margin-right="0"
     fit-margin-bottom="0"
     inkscape:zoom="0.79345279"
     inkscape:cx="139.03099"
     inkscape:cy="416.87535"
     inkscape:window-x="-6"
     inkscape:window-y="-6"
     inkscape:window-maximized="1"
     inkscape:current-layer="g10" /><g
     id="g10"
     inkscape:groupmode="layer"
     inkscape:label="D_Insignia"
     transform="matrix(1.25,0,0,-1.25,-233.019,444.93088)"><path
       inkscape:connector-curvature="0"
       id="path26"
       style="fill:#0359a3;fill-opacity:1;fill-rule:nonzero;stroke:none"
       d="m 315.1152,245.8447 c 0.6,17.4 -2.203,32.198 -8.4,44.4 -6.202,12.197 -15.6,20.798 -28.2,25.8 -3,1.2 -6.403,2.198 -10.2,3 -3.802,0.797 -7.8,1.35 -12,1.65 -4.2,0.3 -8.4,0.347 -12.6,0.15 -4.2,-0.201 -8.203,-0.703 -12,-1.5 l 0,-129.9 c 12.197,-1.603 23.348,-1.603 33.45,0 10.097,1.598 18.75,4.697 25.95,9.3 7.2,4.598 12.9,10.8 17.1,18.6 4.2,7.8 6.497,17.297 6.9,28.5 m -2.4,-111.9 c 8.4,0 15.699,-0.496 21.9,-1.5 6.197,-0.998 12.3,-2.597 18.3,-4.8 l 0,-33.9 c -5.001,2.204 -10.35,3.75 -16.05,4.65 -5.7,0.9 -11.55,1.35 -17.55,1.35 -9,0 -17.55,-0.647 -25.65,-1.95 -8.1,-1.299 -16.153,-2.7 -24.15,-4.2 -8.002,-1.5 -16.05,-2.896 -24.15,-4.2 -8.1,-1.298 -16.65,-1.95 -25.65,-1.95 -6,0 -11.85,0.45 -17.55,1.35 -5.7,0.9 -10.95,2.451 -15.75,4.65 l 0,33.9 c 4.8,-2.198 10.148,-3.75 16.05,-4.65 5.897,-0.9 12.047,-1.35 18.45,-1.35 7.997,0 15.797,0.553 23.4,1.65 7.598,1.102 15.15,2.4 22.65,3.9 7.5,1.5 15,2.953 22.5,4.35 7.5,1.402 15.249,2.301 23.25,2.7 m 50.4,115.2 0,-4.2 c -0.403,-15.6 -3,-28.852 -7.8,-39.75 -4.8,-10.903 -11.55,-19.95 -20.25,-27.15 -8.7,-7.2 -19.153,-12.703 -31.35,-16.5 -12.202,-3.802 -25.8,-6.3 -40.8,-7.5 -6.201,-0.403 -12.502,-0.802 -18.9,-1.2 -6.403,-0.398 -12.502,-0.398 -18.3,0 -6.202,0.398 -11.803,1.097 -16.8,2.1 -5.002,0.999 -9.3,3.197 -12.9,6.6 -3.403,3 -5.752,6.946 -7.05,11.85 -1.303,4.898 -2.152,10.35 -2.55,16.35 l 0,159 c 9.6,2.798 20.1,4.697 31.5,5.7 11.4,0.999 22.8,1.5 34.2,1.5 11.198,0 21.947,-1.2 32.25,-3.6 10.298,-2.4 19.247,-5.602 26.85,-9.6 16.2,-8.4 28.697,-20.4 37.5,-36 8.798,-15.6 13.598,-34.8 14.4,-57.6" /></g></svg>