<?xml version="1.0" encoding="utf-8"?>
<!-- Generator: Adobe Illustrator 10.0, SVG Export Plug-In . SVG Version: 3.0.0 Build 76)  -->
<!DOCTYPE svg PUBLIC "-//W3C//DTD SVG 1.0//EN"    "http://www.w3.org/TR/2001/REC-SVG-20010904/DTD/svg10.dtd" [
	<!ENTITY ns_flows "http://ns.adobe.com/Flows/1.0/">
	<!ENTITY ns_extend "http://ns.adobe.com/Extensibility/1.0/">
	<!ENTITY ns_ai "http://ns.adobe.com/AdobeIllustrator/10.0/">
	<!ENTITY ns_graphs "http://ns.adobe.com/Graphs/1.0/">
	<!ENTITY ns_vars "http://ns.adobe.com/Variables/1.0/">
	<!ENTITY ns_imrep "http://ns.adobe.com/ImageReplacement/1.0/">
	<!ENTITY ns_sfw "http://ns.adobe.com/SaveForWeb/1.0/">
	<!ENTITY ns_custom "http://ns.adobe.com/GenericCustomNamespace/1.0/">
	<!ENTITY ns_adobe_xpath "http://ns.adobe.com/XPath/1.0/">
	<!ENTITY ns_svg "http://www.w3.org/2000/svg">
	<!ENTITY ns_xlink "http://www.w3.org/1999/xlink">
]>
<svg 
	 xmlns:x="&ns_extend;" xmlns:i="&ns_ai;" xmlns:graph="&ns_graphs;" i:viewOrigin="157.6279 693.1279" i:rulerOrigin="0 0" i:pageBounds="0 850.3936 850.3936 0"
	 xmlns="&ns_svg;" xmlns:xlink="&ns_xlink;" xmlns:a="http://ns.adobe.com/AdobeSVGViewerExtensions/3.0/"
	 width="534.75" height="536.25" viewBox="0 0 534.75 536.25" overflow="visible" enable-background="new 0 0 534.75 536.25"
	 xml:space="preserve">
	<metadata>
		<variableSets  xmlns="&ns_vars;">
			<variableSet  varSetName="binding1" locked="none">
				<variables></variables>
				<v:sampleDataSets  xmlns="&ns_custom;" xmlns:v="&ns_vars;"></v:sampleDataSets>
			</variableSet>
		</variableSets>
		<sfw  xmlns="&ns_sfw;">
			<slices></slices>
			<sliceSourceBounds  y="156.878" x="157.628" width="534.75" height="536.25" bottomLeftOrigin="true"></sliceSourceBounds>
		</sfw>
	</metadata>
	<g id="Ebene_1" i:layer="yes" i:dimmedPercent="50" i:rgbTrio="#4F008000FFFF">
		<g>
			<g>
				<defs>
					<path id="XMLID_1_" d="M0,0h534.75v536.25H0V0z"/>
				</defs>
				<clipPath id="XMLID_2_">
					<use xlink:href="#XMLID_1_" />
				</clipPath>
				<path i:knockout="Off" clip-path="url(#XMLID_2_)" fill-rule="evenodd" clip-rule="evenodd" fill="#FFFFFF" d="M1.5,1.5h531V534
					H1.5V1.5z"/>
				<path i:knockout="Off" clip-path="url(#XMLID_2_)" fill-rule="evenodd" clip-rule="evenodd" fill="#240D81" d="M474.75,267.75
					v-1.5v-1.5v-1.5v-0.75V261v-1.5v-0.75v-1.5l-0.75-1.5v-1.5v-0.75V252v-1.5V249v-0.75l-0.75-1.5v-1.5v-1.5V243v-1.5l-0.75-1.5
					v-1.5v-0.75v-1.5l-0.75-1.5V234v-1.5V231l-0.75-1.5v-0.75v-1.5l-0.75-1.5v-1.5v-0.75l-0.75-1.5v-1.5l-0.75-0.75v-1.5v-1.5
					L468,216v-1.5l-0.75-1.5v-0.75l-0.75-1.5v-1.5l-0.75-1.5V207l-0.75-1.5V204l-0.75-0.75v-1.5l-0.75-1.5v-0.75l-0.75-1.5v-0.75
					l-0.75-1.5l-0.75-1.5v-0.75l-0.75-1.5l-0.75-1.5v-0.75l-0.75-1.5l-0.75-0.75V186l-0.75-1.5l-0.75-0.75v-1.5L456,181.5l-0.75-1.5
					v-1.5l-0.75-0.75l-0.75-1.5L453,175.5l-0.75-1.5v-1.5l-0.75-0.75l-0.75-1.5L450,169.5l-0.75-1.5v-0.75l-0.75-1.5l-0.75-0.75
					l-0.75-1.5l-0.75-0.75l-0.75-1.5l-0.75-0.75L444,159v-0.75l-0.75-1.5L442.5,156l-0.75-1.5l-0.75-0.75l-0.75-1.5l-0.75-0.75
					l-0.75-1.5l-0.75-0.75l-0.75-0.75l-0.75-1.5l-0.75-0.75l-0.75-1.5l-0.75-0.75l-0.75-1.5l-0.75-0.75L432,141l-0.75-1.5
					l-0.75-0.75l-0.75-0.75l-1.5-1.5l-0.75-0.75l-0.75-1.5L426,133.5l-0.75-0.75l-0.75-1.5l-0.75-0.75l-0.75-0.75l-1.5-0.75
					l-0.75-1.5l-0.75-0.75l-0.75-0.75l-0.75-1.5l-0.75-0.75l-1.5-0.75l-0.75-0.75l-0.75-1.5L414,120l-1.5-0.75l-0.75-0.75L411,117
					l-0.75-0.75l-1.5-0.75l-0.75-0.75l-0.75-0.75l-0.75-1.5l-1.5-0.75l-0.75-0.75l-0.75-0.75l-1.5-0.75l-0.75-0.75L400.5,108
					l-1.5-1.5l-0.75-0.75L397.5,105l-1.5-0.75l-0.75-0.75l-0.75-0.75L393,102l-0.75-0.75l-1.5-0.75L390,99.75L389.25,99l-1.5-0.75
					L387,97.5l-1.5-0.75L384.75,96l-1.5-0.75l-0.75-0.75l-0.75-0.75l-1.5-0.75l-0.75-0.75L378,91.5l-0.75-0.75l-1.5-0.75L375,89.25
					l-1.5-0.75l-0.75-0.75l-1.5-0.75h-0.75l-1.5-0.75l-0.75-0.75l-1.5-0.75L366,84l-1.5-0.75h-0.75l-1.5-0.75l-1.5-0.75L360,81
					l-1.5-0.75h-0.75l-1.5-0.75l-0.75-0.75L354,78h-0.75l-1.5-0.75l-1.5-0.75h-0.75l-1.5-0.75L347.25,75l-1.5-0.75h-1.5l-0.75-0.75
					H342l-1.5-0.75L339.75,72h-1.5l-0.75-0.75H336l-1.5-0.75l-0.75-0.75h-1.5l-1.5-0.75H330l-1.5-0.75H327l-0.75-0.75h-1.5
					l-1.5-0.75h-0.75L321,66h-1.5l-0.75-0.75h-1.5h-1.5l-1.5-0.75h-0.75l-1.5-0.75h-1.5h-0.75l-1.5-0.75h-1.5H306l-1.5-0.75H303
					h-1.5l-0.75-0.75h-1.5h-1.5H297l-1.5-0.75H294h-1.5h-0.75l-1.5-0.75h-1.5h-1.5h-0.75H285h-1.5l-1.5-0.75h-0.75h-1.5h-1.5h-0.75
					H276h-1.5H273h-0.75h-1.5h-1.5h-1.5H267h-1.5H264h-1.5h-0.75h-1.5h-1.5h-1.5h-0.75H255h-1.5H252h-0.75l-1.5,0.75h-1.5h-0.75H246
					h-1.5H243l-0.75,0.75h-1.5h-1.5h-1.5L237,61.5h-1.5H234h-0.75l-1.5,0.75h-1.5h-1.5L228,63h-1.5H225l-0.75,0.75h-1.5h-1.5
					l-1.5,0.75H219l-1.5,0.75H216h-0.75l-1.5,0.75h-1.5l-0.75,0.75H210l-1.5,0.75h-0.75l-1.5,0.75h-1.5L204,69h-1.5l-1.5,0.75h-0.75
					l-1.5,0.75l-1.5,0.75h-0.75L195,72h-1.5l-0.75,0.75l-1.5,0.75h-0.75l-1.5,0.75h-1.5L186.75,75l-1.5,0.75l-1.5,0.75H183
					l-1.5,0.75L180.75,78h-1.5l-0.75,0.75L177,79.5l-1.5,0.75h-0.75l-1.5,0.75l-0.75,0.75L171,82.5l-0.75,0.75h-1.5L168,84
					l-1.5,0.75L165,85.5l-0.75,0.75l-1.5,0.75H162l-1.5,0.75l-0.75,0.75l-1.5,0.75L157.5,90l-1.5,0.75l-0.75,0.75l-0.75,0.75L153,93
					l-0.75,0.75l-1.5,0.75L150,95.25L148.5,96l-0.75,0.75l-1.5,0.75l-0.75,0.75L144.75,99l-1.5,0.75l-0.75,0.75l-1.5,0.75
					l-0.75,0.75l-0.75,0.75l-1.5,0.75l-0.75,0.75L136.5,105l-1.5,0.75l-0.75,0.75l-0.75,1.5l-1.5,0.75l-0.75,0.75l-0.75,0.75
					L129,111l-0.75,0.75l-0.75,0.75L126,114l-0.75,0.75l-0.75,0.75l-0.75,0.75l-1.5,0.75l-0.75,1.5l-0.75,0.75L120,120l-1.5,0.75
					l-0.75,1.5L117,123l-0.75,0.75l-1.5,0.75L114,126l-0.75,0.75l-0.75,0.75l-0.75,1.5l-0.75,0.75l-1.5,0.75l-0.75,0.75l-0.75,1.5
					l-0.75,0.75l-0.75,0.75l-0.75,1.5L105,136.5l-0.75,1.5l-0.75,0.75l-1.5,0.75l-0.75,1.5l-0.75,0.75l-0.75,0.75L99,144l-0.75,0.75
					l-0.75,1.5L96.75,147L96,148.5l-0.75,0.75L94.5,150l-0.75,1.5L93,152.25l-0.75,1.5l-0.75,0.75l-0.75,1.5v0.75l-0.75,1.5
					L89.25,159l-0.75,1.5l-0.75,0.75l-0.75,1.5l-0.75,0.75L85.5,165l-0.75,0.75v1.5L84,168l-0.75,1.5l-0.75,0.75l-0.75,1.5v0.75
					L81,174l-0.75,1.5l-0.75,0.75l-0.75,1.5v0.75L78,180l-0.75,1.5v0.75l-0.75,1.5l-0.75,0.75L75,186v1.5l-0.75,0.75l-0.75,1.5v0.75
					l-0.75,1.5v1.5L72,194.25l-0.75,1.5v1.5L70.5,198v1.5l-0.75,0.75l-0.75,1.5v1.5L68.25,204v1.5L67.5,207v0.75l-0.75,1.5v1.5
					l-0.75,1.5V213l-0.75,1.5v1.5v0.75l-0.75,1.5v1.5l-0.75,0.75v1.5v1.5L63,224.25v1.5v1.5l-0.75,1.5v0.75v1.5l-0.75,1.5v1.5v0.75
					l-0.75,1.5v1.5v0.75v1.5L60,241.5v1.5v0.75v1.5v1.5v1.5L59.25,249v1.5v1.5v1.5v0.75v1.5v1.5v1.5v0.75L58.5,261v1.5v0.75v1.5v1.5
					v1.5v0.75v1.5v1.5v1.5v0.75l0.75,1.5v1.5v1.5V279v1.5v1.5v1.5v0.75v1.5l0.75,1.5v1.5v0.75v1.5v1.5v1.5l0.75,0.75v1.5v1.5v1.5
					L61.5,300v1.5v1.5l0.75,0.75v1.5v1.5l0.75,1.5V309v1.5l0.75,1.5v0.75v1.5l0.75,1.5v0.75l0.75,1.5v1.5v1.5l0.75,0.75v1.5
					l0.75,1.5v0.75l0.75,1.5v1.5l0.75,0.75v1.5l0.75,1.5V333l0.75,1.5l0.75,1.5v0.75l0.75,1.5v1.5L72,340.5l0.75,1.5v0.75l0.75,1.5
					v1.5l0.75,0.75L75,348v1.5l0.75,0.75l0.75,1.5l0.75,0.75v1.5l0.75,1.5l0.75,0.75v1.5l0.75,0.75l0.75,1.5l0.75,0.75l0.75,1.5v1.5
					l0.75,0.75l0.75,1.5l0.75,0.75l0.75,1.5V369l0.75,1.5l0.75,0.75l0.75,1.5l0.75,0.75l0.75,1.5l0.75,0.75l0.75,1.5l0.75,0.75v1.5
					l0.75,0.75l0.75,1.5L93,382.5l0.75,1.5l0.75,0.75l0.75,0.75L96,387l0.75,0.75l0.75,1.5l0.75,0.75l0.75,1.5l0.75,0.75l0.75,0.75
					l0.75,1.5l0.75,0.75l1.5,1.5l0.75,0.75l0.75,0.75l0.75,1.5l0.75,0.75l0.75,0.75l0.75,1.5l0.75,0.75l0.75,0.75l1.5,1.5l0.75,0.75
					l0.75,0.75l0.75,1.5l0.75,0.75l0.75,0.75l1.5,0.75l0.75,1.5l0.75,0.75l0.75,0.75l1.5,0.75l0.75,1.5l0.75,0.75l0.75,0.75
					l1.5,0.75l0.75,0.75l0.75,1.5l0.75,0.75l1.5,0.75l0.75,0.75l0.75,0.75l1.5,0.75l0.75,1.5l0.75,0.75l1.5,0.75l0.75,0.75L135,429
					l1.5,0.75l0.75,0.75l0.75,0.75l1.5,0.75l0.75,1.5l0.75,0.75l1.5,0.75l0.75,0.75l1.5,0.75l0.75,0.75l0.75,0.75l1.5,0.75
					l0.75,0.75l1.5,0.75l0.75,0.75l1.5,0.75l0.75,0.75l1.5,0.75l0.75,0.75H156l1.5,0.75l0.75,0.75l1.5,0.75l0.75,0.75l1.5,0.75
					l0.75,0.75l1.5,0.75L165,450h1.5l1.5,0.75l0.75,0.75l1.5,0.75L171,453h1.5l0.75,0.75l1.5,0.75l0.75,0.75L177,456h1.5l0.75,0.75
					l1.5,0.75l0.75,0.75h1.5l0.75,0.75l1.5,0.75h1.5l0.75,0.75l1.5,0.75h1.5l0.75,0.75l1.5,0.75h0.75l1.5,0.75h1.5l0.75,0.75
					l1.5,0.75h1.5l0.75,0.75h1.5l1.5,0.75h0.75l1.5,0.75h1.5l0.75,0.75h1.5l1.5,0.75h0.75l1.5,0.75h1.5l0.75,0.75h1.5h1.5l0.75,0.75
					h1.5h1.5l1.5,0.75H225l1.5,0.75h1.5h0.75l1.5,0.75h1.5h1.5H234l1.5,0.75h1.5h0.75h1.5l1.5,0.75h1.5H243h1.5h1.5l1.5,0.75h0.75
					h1.5h1.5H252h1.5h1.5h1.5l0.75,0.75h1.5h1.5h1.5h0.75h1.5h1.5h1.5h0.75h1.5h1.5h1.5H273h1.5h1.5l1.5-0.75h0.75h1.5h1.5H282h1.5
					h1.5h1.5l0.75-0.75h1.5h1.5h1.5h0.75L294,474h1.5h1.5h0.75l1.5-0.75h1.5h0.75h1.5l1.5-0.75h1.5h0.75l1.5-0.75h1.5l0.75-0.75h1.5
					h1.5l0.75-0.75h1.5h1.5l1.5-0.75h0.75l1.5-0.75h1.5l0.75-0.75h1.5l1.5-0.75H327l1.5-0.75h1.5l0.75-0.75h1.5l1.5-0.75h0.75
					l1.5-0.75l1.5-0.75h0.75l1.5-0.75h0.75L342,462l1.5-0.75h0.75l1.5-0.75l1.5-0.75H348l1.5-0.75l0.75-0.75h1.5l1.5-0.75l0.75-0.75
					l1.5-0.75h0.75l1.5-0.75l0.75-0.75l1.5-0.75l0.75-0.75h1.5l1.5-0.75l0.75-0.75l1.5-0.75l0.75-0.75h1.5l0.75-0.75l1.5-0.75
					l0.75-0.75l1.5-0.75l0.75-0.75l1.5-0.75l0.75-0.75l1.5-0.75H378l1.5-0.75l0.75-0.75l1.5-0.75l0.75-0.75l0.75-0.75l1.5-0.75
					l0.75-0.75L387,438l0.75-0.75l1.5-0.75l0.75-0.75l0.75-0.75l1.5-0.75l0.75-0.75l1.5-1.5l0.75-0.75l0.75-0.75l1.5-0.75l0.75-0.75
					l0.75-0.75l1.5-0.75l0.75-0.75L402,426l1.5-1.5l0.75-0.75L405,423l1.5-0.75l0.75-0.75l0.75-0.75l0.75-1.5l1.5-0.75l0.75-0.75
					l0.75-0.75l0.75-0.75l1.5-1.5l0.75-0.75l0.75-0.75l0.75-0.75l1.5-1.5l0.75-0.75l0.75-0.75l0.75-0.75l0.75-1.5l0.75-0.75
					l1.5-0.75l0.75-1.5l0.75-0.75l0.75-0.75l0.75-1.5l0.75-0.75l0.75-0.75l0.75-1.5l1.5-0.75l0.75-0.75l0.75-1.5l0.75-0.75l0.75-1.5
					l0.75-0.75l0.75-0.75L435,390l0.75-0.75l0.75-1.5l0.75-0.75l0.75-1.5l0.75-0.75l0.75-0.75l0.75-1.5l0.75-0.75l0.75-1.5
					l0.75-0.75l0.75-1.5l0.75-0.75v-1.5l0.75-0.75l0.75-1.5l0.75-0.75l0.75-1.5l0.75-0.75l0.75-1.5l0.75-0.75v-1.5L450,366l0.75-1.5
					l0.75-0.75l0.75-1.5v-1.5L453,360l0.75-1.5l0.75-0.75l0.75-1.5v-0.75L456,354l0.75-1.5v-0.75l0.75-1.5l0.75-0.75V348l0.75-1.5
					l0.75-0.75v-1.5l0.75-1.5l0.75-0.75v-1.5l0.75-0.75l0.75-1.5v-1.5l0.75-0.75v-1.5l0.75-1.5v-0.75l0.75-1.5v-1.5l0.75-0.75V327
					l0.75-1.5v-0.75l0.75-1.5v-1.5L468,321v-1.5l0.75-1.5v-1.5v-0.75l0.75-1.5v-1.5l0.75-0.75v-1.5V309l0.75-0.75v-1.5v-1.5
					l0.75-1.5V303v-1.5V300l0.75-0.75v-1.5v-1.5v-1.5l0.75-0.75v-1.5V291v-1.5v-0.75l0.75-1.5v-1.5v-1.5v-0.75V282v-1.5V279
					l0.75-0.75v-1.5v-1.5v-1.5V273v-1.5V270v-1.5V267.75z"/>
				<path i:knockout="Off" clip-path="url(#XMLID_2_)" fill-rule="evenodd" clip-rule="evenodd" fill="#DE152A" d="M174.75,392.25
					H339l3.75-64.5h-81L268.5,285h35.25l5.25-54h-31.5l5.25-34.5H366l7.5-69.75h-156L174.75,392.25z"/>
				<path i:knockout="Off" clip-path="url(#XMLID_2_)" fill-rule="evenodd" clip-rule="evenodd" fill="#FFFFFF" d="M282.75,381
					l46.5-224.25v1.5L330,159l0.75,0.75l0.75,0.75v0.75l0.75,0.75l0.75,0.75v1.5l0.75,0.75l0.75,0.75v0.75l0.75,0.75l0.75,1.5v0.75
					l0.75,0.75l0.75,0.75v0.75l0.75,1.5V174l0.75,0.75l0.75,0.75v0.75l0.75,1.5v0.75l0.75,0.75V180l0.75,1.5l0.75,0.75V183
					l0.75,0.75v1.5l0.75,0.75v0.75l0.75,0.75v1.5l0.75,0.75v0.75l0.75,0.75v1.5v0.75l0.75,0.75v1.5l0.75,0.75v0.75l0.75,0.75v1.5
					v0.75l0.75,0.75v1.5v0.75l0.75,0.75v1.5v0.75L351,207v1.5v0.75l0.75,0.75v0.75v1.5l0.75,0.75v0.75v1.5V216l0.75,0.75v1.5V219
					v0.75l0.75,1.5V222v0.75v1.5V225v1.5l0.75,0.75V228v1.5v0.75V231v1.5v0.75l0.75,0.75v1.5v0.75V237v1.5v0.75V240v1.5v0.75V243
					v1.5v0.75v1.5v0.75v0.75v1.5v0.75v0.75v1.5v0.75v0.75v1.5v0.75v0.75l-0.75,1.5v0.75v1.5v0.75v0.75v1.5v0.75v0.75L354,267v0.75
					v0.75v1.5v0.75l-0.75,0.75v1.5v0.75v0.75l-0.75,1.5v0.75v0.75v1.5l-0.75,0.75v0.75v1.5v0.75L351,283.5v1.5v0.75l-0.75,0.75v1.5
					v0.75l-0.75,0.75v0.75l-0.75,1.5v0.75v0.75l-0.75,1.5v0.75l-0.75,0.75V297v1.5l-0.75,0.75V300l-0.75,1.5v0.75L345,303v0.75
					l-0.75,1.5V306l-0.75,0.75v0.75l-0.75,1.5v0.75L342,310.5v0.75l-0.75,1.5v0.75l-0.75,0.75l-0.75,0.75v1.5l-0.75,0.75V318
					l-0.75,0.75l-0.75,0.75v1.5l-0.75,0.75v0.75l-0.75,0.75l-0.75,0.75v1.5l-0.75,0.75l-0.75,0.75v0.75L333,328.5l-0.75,0.75v1.5
					l-0.75,0.75l-0.75,0.75L330,333v0.75l-0.75,0.75l-0.75,1.5l-0.75,0.75v0.75l-0.75,0.75l-0.75,0.75l-0.75,0.75v0.75l-0.75,0.75
					L324,342l-0.75,0.75l-0.75,1.5V345l-0.75,0.75L321,346.5l-0.75,0.75L319.5,348l-0.75,0.75L318,349.5v0.75l-0.75,0.75l-0.75,0.75
					l-0.75,0.75l-0.75,0.75l-0.75,0.75l-0.75,0.75l-0.75,0.75l-0.75,0.75V357l-0.75,0.75l-0.75,0.75l-0.75,0.75L309,360l-0.75,0.75
					l-0.75,0.75l-0.75,0.75L306,363l-0.75,0.75l-0.75,0.75l-0.75,0.75L303,366h-0.75l-0.75,0.75l-0.75,0.75l-0.75,0.75l-0.75,0.75
					l-0.75,0.75l-0.75,0.75l-0.75,0.75l-0.75,0.75h-0.75l-0.75,0.75L294,373.5l-0.75,0.75l-1.5,0.75l-0.75,0.75h-0.75l-0.75,0.75
					l-0.75,0.75L288,378l-0.75,0.75h-0.75l-0.75,0.75l-0.75,0.75l-1.5,0.75H282.75z"/>
				<path i:knockout="Off" clip-path="url(#XMLID_2_)" fill-rule="evenodd" clip-rule="evenodd" fill="#FFFFFF" d="M242.25,370.5
					l0.75,0.75V372h0.75v0.75h0.75v0.75h0.75v0.75L246,375l0.75,0.75v0.75h0.75v0.75h0.75V378H249v0.75h0.75v0.75h0.75v0.75h0.75
					V381H252v0.75h0.75l0.75,0.75v0.75h0.75L255,384h0.75v0.75h0.75l0.75,0.75v0.75H258l0.75,0.75h0.75v0.75h0.75l0.75,0.75h0.75
					v0.75h0.75h0.75V390H264l0.75,0.75h0.75l0.75,0.75H267v0.75h0.75h0.75V393h0.75H270l0.75,0.75h0.75l0.75,0.75H273h0.75v0.75
					h0.75h0.75H276V396h0.75h0.75l0.75,0.75H279h0.75h0.75v0.75h0.75H282h0.75h0.75v0.75h0.75H285h0.75h0.75h0.75V399H288h0.75h0.75
					h0.75H291h0.75h0.75l0.75,0.75H294h0.75h0.75h0.75H297h0.75h0.75h0.75H300h0.75h0.75h0.75H303h0.75h0.75l0.75-0.75H306h0.75
					h0.75h0.75H309h0.75h0.75l0.75-0.75H312h0.75h0.75h0.75v-0.75H315h0.75h0.75h0.75v-0.75H318h0.75h0.75l0.75-0.75H321h0.75h0.75
					v-0.75h0.75H324l0.75-0.75h0.75l0.75-0.75H327h0.75L242.25,370.5z"/>
			</g>
		</g>
	</g>
</svg>
