<?xml version="1.0" standalone="no"?>
<!DOCTYPE svg PUBLIC "-//W3C//DTD SVG 20010904//EN"
 "http://www.w3.org/TR/2001/REC-SVG-20010904/DTD/svg10.dtd">
<svg version="1.0" xmlns="http://www.w3.org/2000/svg"
 width="2734.000000pt" height="2285.000000pt" viewBox="0 0 2734.000000 2285.000000"
 preserveAspectRatio="xMidYMid meet">
<metadata>
Created by potrace 1.11, written by Peter Selinger 2001-2013
</metadata>
<g transform="translate(0.000000,2285.000000) scale(0.100000,-0.100000)"
fill="#000000" stroke="none">
<path d="M20775 22844 c-33 -2 -132 -8 -220 -14 -1713 -115 -3335 -956 -4436
-2300 -537 -655 -950 -1437 -1180 -2234 -115 -396 -182 -756 -231 -1236 -18
-169 -18 -911 0 -1080 49 -480 116 -840 231 -1236 173 -599 456 -1204 813
-1738 1030 -1542 2680 -2553 4518 -2770 468 -55 1000 -55 1490 0 969 110 1932
464 2759 1016 1354 903 2302 2276 2665 3858 109 475 151 868 151 1410 0 381
-7 510 -46 810 -265 2076 -1542 3883 -3414 4835 -747 379 -1522 595 -2385 665
-133 11 -615 20 -715 14z m-3025 -1671 c4 -4 5 -84 2 -176 -5 -183 -9 -197
-61 -197 -38 0 -77 33 -92 77 -22 69 10 252 53 295 16 16 28 19 56 14 19 -3
38 -9 42 -13z m1488 -36 c4 -48 -37 -143 -127 -297 -127 -214 -141 -262 -106
-376 8 -27 11 -52 7 -56 -4 -4 -42 -26 -86 -50 l-79 -44 -62 -179 c-77 -223
-84 -239 -188 -455 -46 -96 -109 -236 -140 -310 -30 -74 -106 -259 -168 -410
-125 -305 -204 -480 -247 -543 -16 -24 -51 -115 -82 -212 -60 -189 -64 -238
-33 -385 9 -41 15 -115 15 -165 -5 -403 11 -923 34 -1125 18 -156 40 -265 83
-404 43 -139 42 -189 -8 -272 -47 -78 -62 -172 -38 -239 11 -31 12 -57 5 -120
-25 -203 94 -605 212 -720 l40 -39 0 -143 c0 -407 50 -504 310 -598 41 -15
107 -35 145 -44 l70 -17 3 -48 c3 -44 1 -48 -15 -41 -100 43 -157 58 -235 62
l-88 6 0 -50 c0 -63 35 -136 101 -207 27 -30 49 -56 49 -59 0 -8 -189 -147
-200 -147 -17 0 -68 88 -101 174 l-30 79 22 30 22 30 -24 20 c-36 29 -111 65
-163 78 -39 10 -50 9 -71 -5 -45 -30 -57 -95 -65 -376 -6 -193 -11 -268 -24
-307 -38 -119 -107 -148 -176 -73 -66 71 -137 241 -182 435 -24 103 -31 297
-11 330 11 18 12 18 40 -12 19 -20 38 -61 55 -120 35 -115 51 -130 143 -135
l70 -3 3 49 c2 33 -3 65 -18 97 -18 43 -20 66 -18 202 2 144 1 155 -22 202
-33 66 -86 96 -183 103 l-70 5 7 -84 c8 -88 -4 -139 -30 -139 -25 0 -85 43
-99 71 -13 25 -13 33 1 75 8 25 14 47 12 48 -48 32 -188 151 -190 164 -2 9 0
38 5 64 5 32 4 55 -3 69 -7 11 -10 22 -8 24 2 1 40 15 85 30 85 29 139 29 162
1 6 -7 18 -36 26 -63 18 -61 41 -83 93 -90 48 -6 47 -8 89 121 l32 99 -45 51
-44 51 7 65 c5 36 8 135 8 220 0 229 -12 246 -191 275 -54 9 -122 23 -150 32
-47 14 -53 20 -64 57 -8 24 -12 83 -11 144 6 307 -95 885 -165 943 -12 10 -22
5 -60 -32 -25 -24 -56 -62 -69 -84 -13 -22 -64 -173 -115 -335 -51 -162 -99
-303 -107 -312 -9 -9 -35 -20 -58 -24 -24 -3 -53 -15 -64 -25 -25 -23 -61
-137 -61 -192 0 -26 -22 -94 -62 -195 l-63 -156 -65 -47 c-36 -27 -77 -51 -91
-54 -32 -7 -42 -48 -23 -93 11 -26 65 -75 120 -108 29 -18 -165 -78 -210 -66
-23 7 -35 5 -45 -5 -9 -10 -22 -12 -40 -8 -35 9 -45 20 -34 40 7 12 3 24 -18
46 -28 30 -44 84 -33 115 23 69 35 84 67 84 18 0 47 -4 65 -9 54 -16 88 2 106
57 91 285 87 270 75 317 -10 39 -8 53 21 142 18 54 67 170 109 258 81 172 87
201 66 326 -6 37 -3 53 13 86 20 38 74 93 92 93 5 0 18 30 30 68 13 37 47 126
78 197 74 175 78 190 106 330 34 169 57 231 138 374 87 151 106 200 111 283 4
57 13 81 72 192 81 153 86 183 73 401 -10 166 -3 260 37 470 50 267 18 471
-85 541 -51 35 -68 31 -90 -21 -22 -51 -40 -62 -78 -49 -38 13 -52 47 -40 92
15 54 43 80 91 84 41 3 41 3 110 122 l69 120 -23 75 c-19 61 -24 98 -24 191 0
132 7 153 85 236 54 58 70 100 70 191 0 51 -4 67 -25 91 -20 24 -90 62 -157
85 -39 14 -15 23 35 14 68 -12 112 7 147 64 43 70 59 72 175 28 129 -48 189
-57 257 -34 66 21 154 81 208 142 24 26 40 39 36 28 -5 -11 -10 -57 -13 -102
-5 -69 -3 -87 15 -121 l20 -39 -55 -144 c-107 -278 -113 -304 -106 -416 12
-194 -57 -291 -136 -193 -17 22 -39 40 -47 40 -29 0 -60 -130 -43 -179 10 -27
21 -33 122 -66 62 -20 117 -38 123 -40 12 -3 135 135 145 163 4 10 3 26 -1 36
-5 15 2 27 27 49 41 36 75 100 143 272 87 217 103 239 210 274 36 12 76 29 89
37 33 23 61 91 61 147 0 46 3 50 69 112 78 74 116 138 185 319 44 113 51 124
146 231 119 136 183 189 215 181 6 -1 11 -19 13 -39z m-2106 -2948 c19 -59 15
-77 -18 -85 -37 -9 -54 2 -54 37 0 37 28 99 44 99 7 0 20 -23 28 -51z m1996
-176 c-21 -82 -42 -163 -45 -180 l-6 -33 157 0 c145 0 157 -1 152 -17 -2 -10
-24 -91 -47 -180 l-42 -163 -161 -2 -161 -3 -47 -170 c-61 -220 -91 -362 -83
-401 3 -17 17 -41 30 -54 22 -21 34 -24 99 -22 40 1 95 6 121 12 26 6 50 9 52
6 3 -3 -29 -87 -70 -187 l-75 -183 -53 -12 c-93 -22 -279 -37 -379 -31 -233
12 -329 85 -330 247 0 72 35 229 99 435 56 184 101 341 101 354 0 6 -39 11
-103 13 l-104 3 47 175 46 175 116 3 115 3 34 114 c18 63 36 120 39 125 6 9
473 115 521 119 15 1 11 -20 -23 -146z m-2698 -170 c160 -32 286 -117 335
-226 56 -123 54 -253 -8 -448 l-33 -104 -492 -3 -492 -2 0 -63 c1 -160 131
-238 374 -224 110 7 300 43 438 83 13 4 -2 -42 -61 -188 l-77 -193 -100 -17
c-350 -59 -692 -41 -881 48 -265 125 -314 457 -122 834 157 309 425 485 794
524 67 6 245 -5 325 -21z m4181 -21 c14 -6 11 -32 -25 -225 -38 -208 -41 -218
-60 -212 -12 4 -57 9 -102 12 -102 7 -168 -11 -254 -69 -138 -92 -201 -231
-305 -679 -25 -107 -48 -202 -51 -211 -5 -17 -27 -18 -276 -18 -253 0 -270 1
-265 18 2 9 36 125 75 257 86 289 172 616 238 898 l48 207 258 0 c200 0 258
-3 258 -12 0 -7 -7 -38 -15 -68 -8 -30 -13 -55 -12 -57 2 -1 28 16 57 38 114
86 227 128 340 128 41 0 82 -3 91 -7z m1159 -21 c194 -57 295 -164 322 -339
14 -86 -2 -203 -45 -332 l-32 -95 -490 -5 -490 -5 -3 -45 c-17 -234 245 -300
715 -181 l112 29 -13 -32 c-7 -17 -41 -104 -77 -193 l-64 -161 -105 -17 c-183
-28 -321 -37 -470 -31 -337 14 -518 97 -604 276 -28 59 -31 76 -34 180 -4 134
9 212 61 348 105 281 320 493 588 581 129 42 194 50 379 47 144 -3 188 -7 250
-25z m1835 8 c79 -24 148 -81 177 -147 l19 -43 44 40 c67 62 143 108 230 138
73 25 92 27 230 28 172 0 236 -14 306 -68 24 -18 54 -54 68 -82 47 -91 41
-136 -82 -570 -59 -209 -124 -447 -145 -530 l-39 -150 -273 -3 -272 -2 5 22
c2 13 39 141 81 285 108 374 146 526 146 589 0 48 -4 60 -29 85 -41 40 -106
40 -177 0 -117 -68 -172 -195 -298 -691 l-73 -285 -271 -3 c-192 -2 -272 1
-272 9 0 6 31 117 69 247 164 558 183 647 152 705 -17 31 -51 47 -102 47 -56
0 -100 -21 -147 -70 -84 -87 -148 -258 -251 -670 l-66 -265 -272 -3 c-172 -1
-273 1 -273 7 0 6 36 137 80 293 83 292 208 756 258 958 l28 115 257 3 c203 2
257 0 257 -10 0 -7 -9 -45 -20 -83 -11 -38 -20 -71 -20 -73 0 -2 24 17 52 42
68 59 168 112 260 136 105 27 273 27 363 -1z m2502 -11 c297 -90 387 -313 270
-668 l-32 -95 -484 -3 c-373 -2 -487 -5 -493 -15 -26 -41 5 -160 53 -204 100
-92 331 -97 656 -14 l112 29 -13 -32 c-7 -17 -41 -104 -77 -193 l-64 -161
-105 -17 c-180 -28 -320 -37 -465 -32 -264 11 -412 56 -523 161 -89 84 -122
170 -122 323 0 340 222 700 525 850 159 79 281 103 505 99 152 -3 186 -6 257
-28z m-3017 -1740 c0 -13 -5 -115 -10 -228 -15 -309 -28 -1014 -23 -1192 l6
-158 242 0 242 0 6 -232 c4 -128 7 -275 7 -325 l0 -93 -254 0 -253 0 -7 -97
c-4 -53 -4 -226 0 -385 l7 -288 -492 0 -493 0 7 73 c6 74 35 620 35 670 l0 27
-666 0 -665 0 7 368 7 367 147 185 c292 369 549 723 815 1123 l138 207 599 0
598 0 0 -22z m2215 1 c603 -73 954 -422 1071 -1064 22 -123 30 -480 14 -627
-43 -395 -170 -710 -375 -927 -212 -225 -478 -341 -852 -373 -350 -30 -677 46
-917 212 -139 96 -272 253 -355 419 -51 99 -108 284 -132 426 -19 108 -22 167
-22 350 0 309 28 511 103 736 164 495 513 782 1030 848 96 12 332 12 435 0z
m-7904 -828 c50 -51 29 -84 -37 -56 -36 15 -46 49 -22 73 18 18 26 15 59 -17z
m53 -177 c21 -8 21 -57 0 -119 -16 -44 -18 -47 -31 -30 -26 36 -33 85 -18 121
14 35 21 39 49 28z m-1684 -151 c0 -32 -83 -175 -88 -151 -4 22 26 149 39 165
7 7 20 13 30 13 14 0 19 -7 19 -27z m1725 -137 c37 -16 46 -40 19 -50 -17 -6
-84 -8 -84 -2 0 9 23 66 26 66 3 0 20 -7 39 -14z m-1085 -135 c5 -11 10 -33
10 -50 0 -24 -4 -31 -19 -31 -23 0 -63 47 -54 64 23 41 46 47 63 17z m768 -58
l57 -17 -35 -8 c-52 -11 -128 -6 -124 9 12 41 15 45 29 39 9 -3 41 -13 73 -23z
m1602 -143 c20 -20 25 -45 14 -74 -12 -32 -145 -8 -152 27 -2 9 8 28 22 42 32
32 87 34 116 5z m-2540 -213 c0 -30 -74 -122 -91 -112 -22 14 5 106 38 131 20
14 53 2 53 -19z"/>
<path d="M17645 20199 c-8 -23 -1 -34 14 -24 13 8 15 45 2 45 -5 0 -13 -9 -16
-21z"/>
<path d="M17763 19169 c-16 -16 -17 -71 -2 -86 13 -13 42 -6 33 8 -3 5 -8 27
-12 49 -6 33 -9 39 -19 29z"/>
<path d="M16065 17551 c-54 -14 -110 -48 -157 -99 -39 -41 -88 -118 -88 -137
0 -3 103 -5 229 -5 l230 0 6 53 c18 146 -73 224 -220 188z"/>
<path d="M21367 17519 c-89 -14 -188 -94 -236 -192 l-21 -42 226 -3 c125 -1
229 0 232 2 2 3 6 33 9 68 9 129 -67 189 -210 167z"/>
<path d="M25697 17519 c-89 -14 -188 -94 -236 -192 l-21 -42 226 -3 c125 -1
229 0 233 3 3 3 7 34 9 68 7 128 -69 188 -211 166z"/>
<path d="M22220 15431 c0 -25 -304 -460 -603 -863 l-87 -118 343 0 344 0 7
263 c3 144 9 367 12 495 5 170 4 232 -5 232 -6 0 -11 -4 -11 -9z"/>
<path d="M24982 15443 c-24 -8 -69 -39 -101 -69 -102 -94 -168 -250 -212 -499
-20 -114 -23 -163 -24 -395 0 -217 3 -281 18 -354 36 -176 105 -320 186 -386
47 -40 130 -70 190 -70 223 0 375 228 437 657 22 145 24 489 5 608 -55 351
-184 526 -386 524 -38 0 -89 -7 -113 -16z"/>
<path d="M2461 20791 c-48 -48 -77 -248 -47 -313 28 -58 101 -78 130 -36 13
18 16 54 16 185 l0 163 -26 10 c-37 14 -52 12 -73 -9z"/>
<path d="M3963 20761 c-22 -16 -86 -81 -142 -145 -101 -113 -104 -118 -156
-251 -67 -170 -103 -231 -182 -306 -59 -55 -63 -61 -63 -104 0 -52 -21 -109
-52 -142 -12 -13 -52 -32 -89 -43 -115 -34 -140 -67 -226 -289 -57 -147 -98
-224 -138 -260 -26 -22 -31 -34 -28 -57 5 -30 -7 -48 -104 -162 l-29 -34 -114
37 c-124 40 -150 58 -150 109 0 48 29 136 47 143 10 4 28 -9 52 -37 48 -55 76
-53 111 10 23 42 25 54 25 185 l1 140 58 150 c102 263 101 260 80 303 -19 40
-23 111 -11 182 l8 46 -65 -62 c-136 -130 -240 -150 -423 -80 -117 44 -141 43
-173 -9 -11 -19 -35 -46 -53 -61 -29 -24 -37 -26 -94 -21 -68 5 -75 -5 -15
-23 61 -20 121 -59 137 -90 8 -16 15 -50 15 -75 0 -84 -18 -130 -80 -200 -68
-77 -82 -120 -82 -248 0 -60 7 -103 26 -163 l26 -82 -68 -118 c-67 -118 -68
-119 -107 -122 -49 -4 -78 -30 -94 -81 -14 -49 -1 -88 33 -97 40 -10 61 3 84
51 25 51 36 54 83 22 119 -80 144 -256 85 -590 -33 -184 -39 -276 -28 -438 13
-197 6 -235 -78 -394 -60 -113 -70 -140 -70 -182 0 -70 -30 -149 -104 -277
-88 -151 -100 -183 -136 -350 -35 -166 -47 -202 -124 -384 -30 -73 -63 -157
-71 -186 -12 -42 -23 -58 -53 -77 -20 -13 -47 -42 -60 -64 -24 -41 -24 -55 -6
-182 7 -50 -8 -92 -99 -283 -36 -74 -77 -173 -92 -220 -25 -74 -27 -90 -18
-134 9 -45 6 -60 -40 -207 -58 -182 -64 -189 -152 -169 -71 16 -90 8 -110 -45
-21 -55 -14 -103 22 -146 22 -25 24 -34 15 -49 -10 -16 -7 -20 25 -31 30 -10
38 -9 47 3 8 11 19 12 41 6 17 -4 44 -5 60 -2 38 7 147 45 158 54 5 4 -7 17
-26 29 -54 33 -107 97 -107 129 0 36 6 43 70 75 101 50 122 77 184 233 31 77
56 154 56 170 0 38 25 136 49 190 18 39 23 43 76 55 37 8 62 20 70 33 7 12 54
151 104 309 50 158 98 302 107 320 16 31 112 137 125 137 3 0 17 -21 31 -47
72 -135 152 -640 146 -918 -3 -145 6 -170 76 -190 28 -9 93 -22 144 -31 108
-17 131 -25 155 -52 46 -51 60 -215 36 -419 l-11 -95 43 -44 43 -44 -17 -66
c-10 -36 -26 -86 -35 -112 -18 -47 -18 -47 -64 -46 -59 0 -74 14 -94 80 -8 30
-22 61 -30 69 -24 23 -104 18 -183 -11 -67 -25 -70 -27 -56 -48 9 -15 11 -35
5 -70 -4 -27 -5 -56 -3 -65 2 -9 47 -49 99 -90 52 -40 93 -78 90 -85 -27 -65
-29 -87 -9 -114 11 -15 37 -37 58 -49 l39 -22 18 30 c12 20 17 42 14 62 -3 18
-8 56 -11 85 l-6 52 54 0 c107 0 197 -55 218 -133 6 -22 10 -106 10 -187 -1
-128 2 -154 19 -196 14 -31 20 -64 18 -93 l-3 -46 -71 0 c-94 0 -106 11 -144
135 -28 91 -59 140 -88 140 -29 0 -27 -186 3 -332 38 -185 127 -391 192 -448
49 -43 98 -39 130 9 47 70 56 129 58 376 3 263 16 340 67 378 27 20 29 20 85
3 55 -17 114 -47 158 -79 20 -15 20 -16 -4 -41 -23 -24 -23 -28 -11 -68 13
-45 79 -181 102 -210 12 -16 21 -12 107 52 52 38 98 73 104 79 7 7 -7 29 -45
69 -78 82 -117 168 -102 228 l7 27 81 -6 c53 -3 109 -15 164 -35 l83 -29 -3
44 -3 45 -70 18 c-126 33 -244 81 -304 125 -46 34 -66 57 -90 107 -38 78 -48
144 -57 375 l-7 182 -38 41 c-67 71 -145 264 -189 470 -19 88 -22 121 -16 217
5 88 3 123 -8 157 -11 33 -13 58 -6 104 9 64 17 83 61 149 43 62 41 98 -16
283 -61 200 -81 352 -95 715 -6 154 -14 358 -18 453 -4 95 -4 185 0 200 19 68
21 177 4 227 -10 27 -22 96 -28 155 l-11 105 58 180 c31 99 65 191 75 205 52
74 152 299 345 775 65 160 165 389 222 510 62 129 135 305 178 424 71 200 73
205 111 226 22 12 60 34 86 49 l47 26 -14 41 c-41 116 -29 169 81 351 88 145
145 269 152 323 4 43 3 45 -20 45 -14 0 -43 -13 -65 -29z m-1483 -940 c0 -20
-17 -37 -27 -28 -7 8 7 47 18 47 5 0 9 -9 9 -19z m114 -1078 c5 -43 4 -53 -8
-53 -34 0 -42 62 -13 98 13 16 13 16 21 -45z"/>
<path d="M1886 17826 c-9 -19 -16 -50 -16 -71 0 -36 0 -36 38 -33 31 3 37 7
40 28 3 30 -20 102 -35 107 -6 2 -18 -12 -27 -31z"/>
<path d="M3685 17724 c-137 -29 -250 -53 -251 -54 0 0 -6 -19 -13 -42 -7 -24
-24 -80 -37 -125 l-25 -83 -114 0 -114 0 -10 -37 c-60 -225 -81 -306 -81 -314
0 -5 45 -9 100 -9 91 0 100 -2 100 -19 0 -10 -27 -108 -60 -218 -161 -537
-171 -624 -88 -719 64 -72 145 -94 350 -94 133 0 324 21 358 40 18 10 170 374
158 378 -4 2 -31 -1 -58 -7 -28 -6 -82 -11 -119 -11 -79 0 -115 20 -126 70
-10 44 33 232 116 513 l20 67 159 0 159 0 10 38 c5 20 26 98 45 173 20 74 36
138 36 142 0 4 -70 7 -155 7 -102 0 -155 4 -155 11 0 9 71 282 86 332 8 24 -5
23 -291 -39z"/>
<path d="M860 17479 c-103 -12 -236 -52 -322 -95 -241 -120 -419 -339 -504
-619 -24 -79 -28 -107 -28 -230 -1 -172 16 -223 101 -315 87 -94 206 -145 402
-171 151 -20 517 -1 691 36 22 5 34 29 101 198 43 106 76 193 74 195 -1 1 -58
-11 -126 -28 -323 -79 -518 -77 -627 7 -47 35 -74 99 -70 166 l3 52 490 5 490
5 32 98 c103 311 41 528 -180 633 -40 19 -104 41 -142 49 -91 19 -290 26 -385
14z m155 -323 c49 -21 75 -68 75 -138 0 -95 17 -88 -231 -88 -249 0 -242 -3
-188 81 82 128 233 191 344 145z"/>
<path d="M5180 17427 c-72 -24 -135 -59 -205 -112 -42 -33 -46 -34 -39 -13 4
13 13 44 20 71 l12 47 -266 -2 -266 -3 -9 -40 c-74 -338 -299 -1176 -354
-1323 -4 -10 52 -12 273 -10 l278 3 9 40 c34 153 111 456 136 533 42 128 78
197 135 259 57 63 113 98 197 124 73 23 125 24 199 4 30 -8 55 -13 56 -12 0 1
19 101 42 222 30 162 37 222 29 227 -27 17 -181 8 -247 -15z"/>
<path d="M6060 17431 c-168 -36 -327 -116 -447 -225 -112 -101 -229 -290 -282
-453 -48 -149 -52 -337 -11 -446 47 -125 179 -224 356 -269 80 -21 113 -23
334 -23 191 0 272 4 367 19 67 10 126 22 131 25 10 6 164 382 159 387 -1 1
-54 -10 -117 -26 -304 -74 -486 -79 -605 -18 -63 33 -105 104 -105 177 0 77
-43 71 499 71 l486 0 22 63 c118 335 61 561 -168 670 -41 20 -109 43 -151 51
-109 22 -355 20 -468 -3z m243 -305 c60 -25 72 -49 72 -140 l0 -81 -228 -3
-228 -2 27 51 c71 141 241 224 357 175z"/>
<path d="M8042 17430 c-93 -25 -175 -69 -245 -131 l-56 -50 24 86 23 85 -264
0 -263 0 -10 -37 c-6 -21 -31 -121 -56 -223 -55 -219 -140 -533 -236 -867 -38
-133 -69 -245 -69 -248 0 -3 125 -5 278 -5 l279 0 62 252 c131 534 216 712
357 747 105 27 165 -29 150 -140 -7 -50 -102 -396 -186 -680 -28 -91 -50 -169
-50 -173 0 -3 125 -5 278 -4 l277 3 72 283 c114 445 166 579 259 660 73 65
168 76 216 25 49 -53 32 -134 -209 -956 -5 -16 11 -17 273 -15 l278 3 43 165
c24 91 90 327 146 525 91 321 102 369 102 440 0 69 -4 86 -28 127 -59 102
-146 139 -334 146 -214 7 -358 -39 -482 -154 l-58 -54 -18 39 c-23 53 -89 115
-150 143 -72 32 -296 37 -403 8z"/>
<path d="M10390 17430 c-373 -79 -647 -351 -746 -740 -28 -112 -26 -304 5
-383 49 -125 180 -224 357 -269 80 -21 113 -23 334 -23 191 0 272 4 367 19 67
10 126 22 131 25 10 6 164 382 159 387 -1 1 -56 -11 -122 -27 -297 -73 -482
-78 -600 -17 -63 33 -105 104 -105 177 0 77 -43 71 499 71 l487 0 22 63 c93
272 76 463 -52 592 -55 54 -168 109 -268 129 -109 23 -355 20 -468 -4z m243
-304 c60 -25 72 -49 72 -140 l0 -81 -228 -3 -228 -2 27 51 c71 141 241 224
357 175z"/>
<path d="M6600 15552 c-215 -333 -587 -845 -861 -1187 l-144 -180 -3 -367 -4
-368 661 0 661 0 0 -82 c0 -46 -7 -195 -15 -333 -8 -137 -15 -274 -15 -302 l0
-53 491 0 492 0 -8 293 c-4 161 -4 334 0 385 l8 92 253 0 254 0 0 83 c0 46 -3
192 -7 325 l-6 242 -242 0 -242 0 -6 129 c-8 140 7 911 23 1216 5 105 10 205
10 223 l0 32 -602 0 -603 -1 -95 -147z m436 -939 c-4 -241 -9 -462 -13 -490
l-5 -53 -334 0 c-184 0 -334 2 -334 4 0 3 82 117 183 253 202 274 379 526 452
646 27 42 50 77 53 77 2 0 2 -197 -2 -437z"/>
<path d="M9700 15684 c-14 -2 -68 -12 -120 -20 -449 -76 -782 -371 -935 -827
-79 -237 -109 -472 -102 -797 5 -237 18 -335 63 -493 103 -364 341 -640 666
-772 156 -64 276 -86 498 -92 122 -3 230 -1 285 6 624 80 1007 468 1125 1141
28 157 38 493 21 662 -54 520 -275 884 -644 1063 -202 97 -338 125 -622 130
-115 2 -221 2 -235 -1z m271 -617 c213 -51 329 -332 329 -797 0 -482 -131
-863 -327 -953 -67 -30 -179 -30 -246 0 -63 29 -136 106 -175 185 -40 81 -77
223 -93 352 -15 125 -6 473 15 611 55 344 171 548 340 598 64 19 88 20 157 4z"/>
<path d="M2153 14873 c-17 -6 -17 -57 0 -71 19 -16 60 -23 76 -13 12 8 11 14
-5 41 -19 33 -49 51 -71 43z"/>
<path d="M2211 14642 c-13 -30 -4 -87 19 -122 13 -20 43 51 44 105 1 36 -2 40
-25 43 -21 2 -29 -3 -38 -26z"/>
<path d="M531 14537 c-14 -18 -43 -133 -39 -159 2 -16 14 -2 46 54 46 81 53
118 23 118 -10 0 -23 -6 -30 -13z"/>
<path d="M2249 14374 c-15 -41 -11 -45 34 -42 34 2 43 7 45 24 2 16 -5 23 -33
31 -34 11 -37 10 -46 -13z"/>
<path d="M1166 14248 c-20 -29 -20 -34 4 -58 30 -30 60 -26 60 8 0 28 -24 72
-40 72 -5 0 -16 -10 -24 -22z"/>
<path d="M1889 14193 c-5 -13 -9 -25 -9 -27 0 -1 17 -3 37 -4 39 -3 117 7 111
14 -2 2 -32 12 -67 23 l-62 19 -10 -25z"/>
<path d="M3487 14059 c-9 -5 -24 -23 -32 -40 -15 -29 -15 -29 12 -40 15 -6 51
-13 79 -16 49 -5 52 -4 58 21 15 61 -58 109 -117 75z"/>
<path d="M982 13837 c-24 -25 -43 -117 -24 -117 21 0 82 83 82 112 0 35 -27
38 -58 5z"/>
<path d="M8720 4450 l0 -4450 6060 0 6060 0 0 4450 0 4450 -6060 0 -6060 0 0
-4450z m4460 1099 c0 -11 -78 -312 -87 -336 -4 -10 26 -13 155 -13 l160 0 -46
-180 -46 -180 -161 0 -160 0 -52 -187 c-67 -243 -88 -348 -79 -396 13 -69 81
-89 221 -64 44 8 81 13 83 12 2 -1 -32 -86 -74 -188 l-76 -186 -97 -18 c-71
-13 -143 -18 -276 -18 -164 1 -185 3 -238 24 -76 30 -112 62 -134 119 -36 94
-22 183 96 578 69 233 91 310 91 318 0 3 -48 6 -106 6 -81 0 -105 3 -101 13 2
6 24 87 48 180 l44 167 115 0 115 0 35 121 c19 67 40 124 47 126 12 5 495 110
516 112 4 1 7 -4 7 -10z m-2695 -314 c148 -41 251 -120 301 -227 27 -59 29
-71 29 -188 0 -128 -8 -168 -57 -302 l-20 -58 -489 0 -489 0 0 -66 c0 -225
231 -280 703 -168 60 14 110 24 112 22 3 -2 -29 -87 -69 -189 -85 -211 -54
-185 -256 -216 -82 -12 -176 -17 -325 -17 -180 0 -223 3 -305 22 -293 68 -424
228 -406 497 17 275 170 561 387 725 121 91 262 150 428 180 78 15 388 4 456
-15z m4151 -18 c4 -4 -10 -103 -32 -220 -40 -210 -40 -212 -64 -208 -14 1 -70
4 -125 4 -94 2 -104 0 -168 -31 -122 -60 -205 -166 -263 -335 -29 -85 -80
-277 -124 -469 l-32 -138 -269 0 c-148 0 -269 4 -269 9 0 4 22 82 49 172 94
311 196 695 281 1062 l32 137 259 0 c143 0 259 -3 259 -6 0 -3 -7 -33 -16 -66
-8 -33 -13 -62 -11 -64 2 -2 28 15 58 37 67 51 153 95 222 114 53 15 199 16
213 2z m1136 -15 c325 -87 418 -333 275 -727 l-14 -40 -492 -3 -491 -2 0 -68
c0 -78 23 -125 80 -167 101 -75 322 -75 629 0 57 14 106 24 108 21 2 -2 -29
-86 -69 -186 -53 -133 -78 -184 -93 -190 -115 -43 -625 -62 -776 -28 -264 59
-386 168 -420 376 -28 172 41 427 170 622 50 76 163 194 238 246 106 77 239
130 397 160 105 20 359 12 458 -14z m1869 -1 c72 -27 130 -78 154 -133 10 -23
20 -45 22 -47 1 -2 22 14 45 35 130 120 278 174 471 174 252 -1 388 -97 389
-274 0 -69 -3 -83 -117 -486 -71 -251 -110 -394 -166 -612 l-10 -38 -273 0
-273 0 79 273 c165 570 181 658 131 709 -34 34 -103 35 -167 4 -124 -61 -189
-203 -306 -668 -34 -134 -66 -260 -71 -280 l-10 -38 -275 0 c-259 0 -276 1
-269 18 13 33 115 383 175 601 68 247 75 312 37 356 -56 65 -191 32 -262 -65
-75 -102 -135 -274 -229 -655 l-62 -250 -276 -3 -275 -2 58 207 c105 368 198
712 257 946 l57 227 257 0 c142 0 258 -3 258 -8 0 -4 -9 -39 -20 -77 -11 -38
-20 -74 -20 -78 0 -5 24 12 53 38 65 58 194 122 284 140 101 21 282 14 354
-14z m2461 1 c232 -62 340 -193 340 -411 0 -88 -23 -207 -61 -306 l-19 -50
-491 -3 -491 -2 0 -62 c0 -110 54 -180 166 -214 102 -30 316 -14 543 41 57 14
106 24 108 21 2 -2 -29 -86 -69 -186 -53 -133 -78 -184 -93 -190 -65 -25 -272
-44 -475 -45 -231 0 -301 9 -425 53 -231 82 -330 255 -295 515 49 372 301 694
633 808 136 47 223 59 397 55 115 -3 175 -9 232 -24z m-2997 -1804 c-12 -171
-25 -618 -32 -1060 l-6 -458 247 0 c189 0 248 -3 251 -12 2 -7 6 -154 9 -325
l5 -313 -261 0 -261 0 5 -385 6 -385 -489 0 c-424 0 -489 2 -489 15 0 8 7 139
15 292 8 153 16 320 19 371 l4 92 -664 0 -664 0 0 183 c0 100 3 266 7 369 l6
187 115 143 c265 330 604 796 857 1176 l128 192 599 0 599 0 -6 -82z m2305 47
c261 -46 456 -142 628 -309 251 -243 382 -626 382 -1115 0 -692 -257 -1203
-715 -1422 -207 -99 -379 -134 -670 -133 -222 0 -313 12 -475 64 -347 112
-596 367 -719 736 -68 201 -84 318 -85 604 -1 251 8 350 45 533 70 348 238
642 464 812 178 134 396 216 650 246 105 12 387 3 495 -16z"/>
<path d="M10093 4949 c-103 -20 -216 -119 -247 -216 l-7 -23 230 0 231 0 2 48
c3 105 -13 152 -60 175 -37 19 -99 26 -149 16z"/>
<path d="M15350 4911 c-70 -21 -160 -103 -200 -180 -11 -22 -20 -43 -20 -46 0
-3 103 -5 229 -5 l229 0 7 45 c12 84 -14 153 -69 179 -36 17 -131 20 -176 7z"/>
<path d="M19680 4911 c-70 -21 -160 -103 -200 -180 -11 -22 -20 -43 -20 -46 0
-3 103 -5 229 -5 l229 0 7 45 c12 84 -14 153 -69 179 -36 17 -131 20 -176 7z"/>
<path d="M16225 2807 c-71 -123 -288 -434 -537 -768 -76 -103 -138 -189 -138
-193 0 -3 153 -6 340 -6 264 0 342 3 345 13 7 23 23 972 16 979 -4 4 -15 -7
-26 -25z"/>
<path d="M19030 2851 c-83 -26 -169 -99 -223 -193 -97 -163 -148 -444 -148
-797 0 -276 24 -414 97 -567 72 -151 171 -224 304 -224 90 0 146 25 215 94
135 137 211 379 235 749 19 310 -26 612 -116 765 -69 117 -170 183 -279 181
-33 0 -71 -4 -85 -8z"/>
</g>
</svg>
