<?xml version="1.0" standalone="no"?>
<!DOCTYPE svg PUBLIC "-//W3C//DTD SVG 20010904//EN"
 "http://www.w3.org/TR/2001/REC-SVG-20010904/DTD/svg10.dtd">
<svg version="1.0" xmlns="http://www.w3.org/2000/svg"
 width="604.000000pt" height="604.000000pt" viewBox="0 0 604.000000 604.000000"
 preserveAspectRatio="xMidYMid meet">
<metadata>
Created by potrace 1.11, written by Peter Selinger 2001-2013
</metadata>
<g transform="translate(0.000000,604.000000) scale(0.100000,-0.100000)"
fill="#000000" stroke="none">
<path d="M5990 5332 c-103 -43 -312 -51 -725 -27 -137 8 -373 12 -585 10 -320
-3 -371 -5 -520 -28 -276 -42 -495 -102 -597 -164 -213 -128 -471 -435 -716
-854 -105 -180 -150 -271 -130 -265 10 3 108 27 219 55 629 156 1119 216 1575
192 118 -6 263 -11 322 -11 360 0 600 162 909 615 111 162 297 481 286 490 -2
1 -19 -4 -38 -13z"/>
<path d="M4165 4029 c-966 -42 -1310 -102 -1570 -274 -181 -120 -310 -270
-529 -618 -111 -176 -109 -171 -55 -151 83 29 424 112 569 138 181 32 382 52
660 66 241 12 314 21 415 51 189 57 347 183 562 451 89 112 243 328 243 342 0
7 -29 6 -295 -5z"/>
<path d="M5420 3659 c-57 -11 -191 -75 -272 -130 -74 -50 -252 -225 -330 -324
-178 -227 -378 -576 -449 -785 -30 -90 -36 -214 -12 -259 29 -56 73 -73 173
-69 71 3 97 10 154 36 220 103 464 387 583 679 66 162 63 272 -9 309 -53 28
-142 15 -240 -33 -45 -23 -84 -40 -85 -39 -7 7 107 147 166 206 125 124 252
166 359 120 29 -13 54 -21 56 -19 7 9 166 289 166 293 0 2 -20 9 -44 15 -52
13 -151 13 -216 0z m-434 -810 c64 -53 -101 -362 -250 -471 -43 -31 -96 -37
-116 -13 -19 22 -6 88 34 182 76 177 158 294 221 313 36 11 91 6 111 -11z"/>
<path d="M4563 3606 c-25 -43 -120 -138 -156 -155 -23 -11 -71 -25 -107 -30
-42 -7 -70 -17 -78 -28 -19 -25 -132 -221 -132 -228 0 -3 43 -5 95 -5 52 0 95
-2 95 -5 0 -3 -102 -183 -227 -400 l-227 -395 -102 0 -101 0 -71 -128 c-40
-71 -72 -132 -72 -135 0 -4 140 -6 312 -5 l311 3 73 125 c40 69 73 128 73 132
1 4 -42 9 -94 10 l-94 3 359 623 c198 343 360 625 360 628 0 2 -47 4 -105 4
-78 0 -106 -3 -112 -14z"/>
<path d="M2840 2969 c-672 -33 -1080 -182 -1320 -484 -43 -54 -254 -375 -246
-375 1 0 29 9 62 20 179 62 410 108 684 135 195 19 297 39 380 74 178 74 340
233 573 562 50 71 54 80 35 77 -7 0 -83 -5 -168 -9z"/>
<path d="M512 1790 c-56 -83 -105 -157 -108 -165 -5 -13 296 -15 2572 -13
l2579 3 112 160 c62 88 113 161 113 163 0 1 -1162 2 -2582 2 l-2583 -1 -103
-149z"/>
<path d="M218 1363 c-8 -10 -50 -70 -93 -133 -43 -63 -89 -130 -103 -147 l-24
-33 2585 0 2586 0 109 153 c59 83 111 158 115 165 7 9 -511 12 -2576 12 -2449
0 -2585 -1 -2599 -17z"/>
</g>
</svg>
