<?xml version="1.0" standalone="no"?>
<!DOCTYPE svg PUBLIC "-//W3C//DTD SVG 20010904//EN"
 "http://www.w3.org/TR/2001/REC-SVG-20010904/DTD/svg10.dtd">
<svg version="1.0" xmlns="http://www.w3.org/2000/svg"
 width="990.000000pt" height="1002.000000pt" viewBox="0 0 990.000000 1002.000000"
 preserveAspectRatio="xMidYMid meet">
<metadata>
Created by potrace 1.11, written by Peter Selinger 2001-2013
</metadata>
<g transform="translate(0.000000,1002.000000) scale(0.100000,-0.100000)"
fill="#000000" stroke="none">
<path d="M4625 9925 c-99 -7 -198 -15 -220 -18 -22 -3 -65 -9 -95 -12 -717
-83 -1530 -389 -2130 -804 -80 -55 -203 -144 -210 -151 -3 -3 -31 -24 -62 -48
-88 -65 -292 -243 -408 -356 -95 -93 -260 -265 -260 -272 0 -2 -15 -20 -32
-40 -18 -20 -49 -55 -69 -78 -49 -56 -213 -274 -274 -366 -27 -41 -52 -77 -55
-80 -6 -6 -4 -3 -98 -160 -195 -324 -336 -632 -461 -1010 -154 -462 -243
-1023 -241 -1530 2 -673 129 -1300 390 -1925 81 -193 247 -511 356 -682 77
-119 109 -168 114 -173 3 -3 23 -32 45 -64 298 -440 791 -923 1270 -1243 105
-70 302 -193 310 -193 3 0 23 -11 45 -25 43 -27 247 -130 370 -188 138 -64
445 -181 555 -212 28 -7 91 -25 140 -40 185 -53 393 -96 690 -142 318 -49 970
-50 1285 -2 223 34 417 71 550 104 36 9 83 21 105 26 106 26 349 108 520 176
377 150 707 327 1010 542 66 47 125 89 130 93 6 5 35 27 65 50 30 24 57 45 60
48 3 3 25 21 50 40 25 19 52 41 60 50 8 8 37 33 65 55 54 43 356 342 420 415
63 72 136 159 159 188 11 15 25 32 31 38 5 7 25 32 43 55 18 24 53 71 79 104
25 33 75 105 111 160 36 55 76 117 89 137 14 20 32 50 41 66 10 16 43 74 74
129 50 87 184 356 231 463 107 244 242 666 286 890 6 30 17 85 25 122 8 37 20
100 25 140 6 40 17 118 25 173 45 311 48 929 7 1215 -41 279 -44 297 -95 536
-28 131 -152 544 -176 586 -6 10 -10 23 -10 28 0 6 -9 30 -19 54 -11 23 -29
67 -41 97 -60 155 -261 558 -282 567 -5 2 -8 8 -8 13 0 42 -437 667 -511 729
-3 3 -33 37 -66 75 -108 126 -421 429 -538 521 -27 21 -54 44 -60 50 -13 15
-207 160 -265 199 -25 16 -47 32 -50 36 -7 7 -285 181 -351 219 -123 70 -468
237 -544 263 -16 5 -34 13 -40 17 -5 4 -26 13 -45 19 -19 7 -91 33 -160 57
-165 59 -404 129 -510 150 -14 3 -52 11 -85 19 -133 31 -248 50 -490 81 -89
11 -485 34 -580 33 -60 -1 -191 -7 -290 -14z m740 -216 c136 -11 260 -28 410
-54 302 -53 744 -182 965 -282 30 -14 78 -34 105 -45 63 -25 339 -163 425
-213 36 -21 74 -43 85 -49 52 -28 356 -231 391 -260 11 -8 66 -52 124 -97 125
-98 119 -93 295 -256 126 -118 251 -247 361 -373 21 -25 41 -47 44 -50 6 -5
68 -85 147 -186 52 -67 162 -228 230 -336 348 -553 578 -1185 672 -1838 6 -41
16 -115 23 -165 21 -145 17 -897 -5 -1045 -9 -63 -22 -149 -27 -190 -33 -237
-131 -619 -220 -860 -200 -540 -398 -891 -785 -1389 -101 -130 -415 -453 -585
-601 -181 -158 -444 -346 -687 -490 -99 -59 -420 -224 -488 -251 -11 -5 -47
-20 -80 -35 -186 -81 -591 -211 -780 -249 -33 -7 -94 -19 -135 -28 -41 -8
-124 -23 -185 -32 -60 -9 -137 -20 -170 -25 -33 -6 -171 -15 -307 -22 -255
-12 -637 -2 -803 22 -310 45 -329 49 -590 110 -225 54 -580 176 -775 267 -280
131 -485 244 -675 372 -38 26 -92 63 -120 81 -308 208 -696 570 -943 879 -29
36 -58 73 -65 81 -101 121 -313 440 -393 590 -16 30 -31 57 -34 60 -7 6 -170
336 -170 344 0 3 -11 29 -24 58 -57 126 -161 419 -201 568 -50 189 -78 314
-105 460 -6 36 -15 85 -20 110 -5 25 -11 74 -15 110 -3 36 -10 103 -15 150
-54 464 -12 1072 111 1569 64 261 164 561 248 746 10 22 29 65 42 95 30 71
151 307 184 359 14 22 25 42 25 45 0 14 201 323 278 427 198 267 439 532 673
739 103 92 180 157 213 179 12 8 23 18 26 22 11 14 247 182 319 226 42 26 78
50 81 53 3 3 14 10 25 17 11 6 56 33 100 59 91 54 363 193 475 243 321 142
752 274 1065 325 272 44 379 57 561 66 186 9 528 4 699 -11z"/>
<path d="M7695 8130 c-279 -24 -559 -177 -744 -405 -69 -84 -154 -216 -176
-270 -20 -50 -35 -85 -45 -106 -5 -9 -21 -65 -36 -125 -25 -96 -28 -128 -28
-264 -1 -156 7 -215 45 -334 11 -32 19 -62 19 -65 0 -4 -24 -24 -52 -46 -76
-57 -254 -238 -320 -327 -32 -42 -58 -79 -58 -83 0 -3 -15 -29 -33 -58 -82
-131 -150 -315 -181 -487 -53 -303 -14 -591 114 -836 27 -51 53 -99 59 -106 6
-7 32 -40 59 -73 88 -109 227 -222 349 -284 302 -152 705 -145 1048 19 93 45
196 106 207 123 4 7 8 9 8 5 0 -8 10 -1 109 83 382 323 597 826 553 1292 -22
230 -101 427 -244 610 l-22 28 25 22 c37 32 145 198 189 293 84 178 116 344
107 549 -13 300 -135 532 -367 701 -99 72 -243 129 -353 139 -121 11 -153 12
-232 5z m132 -686 c47 -23 90 -68 116 -123 42 -87 22 -257 -40 -340 -83 -111
-182 -176 -285 -187 -132 -14 -239 68 -268 207 -33 156 74 355 232 429 52 25
76 30 136 30 48 0 86 -6 109 -16z m-270 -1378 c150 -32 246 -128 289 -289 28
-107 9 -282 -46 -401 -11 -25 -20 -47 -20 -50 0 -10 -95 -151 -121 -181 -15
-16 -35 -40 -46 -51 -31 -37 -132 -113 -183 -139 -111 -56 -160 -69 -265 -70
-89 0 -106 3 -156 28 -73 35 -142 110 -182 195 -29 63 -31 74 -31 187 0 91 4
135 19 180 10 33 20 65 21 71 3 20 61 129 98 186 45 71 157 184 228 231 77 51
163 87 243 102 89 17 79 17 152 1z"/>
<path d="M5082 7987 c-13 -67 -34 -176 -47 -242 -36 -183 -65 -337 -65 -341 0
-2 97 -4 216 -4 l216 0 -7 -27 c-4 -16 -13 -59 -20 -98 -7 -38 -23 -119 -34
-180 -12 -60 -24 -121 -27 -135 -2 -14 -9 -47 -15 -75 -5 -27 -30 -156 -54
-285 -25 -129 -49 -257 -55 -285 -12 -58 -66 -336 -75 -383 -3 -17 -14 -78
-26 -134 -11 -57 -21 -114 -23 -128 -2 -14 -15 -81 -29 -150 -14 -69 -40 -199
-57 -290 -17 -91 -39 -208 -50 -260 -10 -52 -33 -169 -50 -260 -17 -91 -40
-208 -50 -260 -18 -91 -60 -311 -60 -314 0 0 87 0 192 1 106 2 270 3 364 3
l172 0 16 93 c9 50 21 110 26 132 9 39 50 251 125 645 25 133 67 344 75 380 5
25 17 83 25 130 9 47 25 128 35 180 10 52 33 169 50 260 17 91 35 183 40 205
5 22 21 103 35 180 14 77 30 158 35 180 5 22 23 114 40 205 17 91 38 197 46
235 8 39 21 106 29 150 8 44 17 89 19 100 3 11 24 117 46 235 23 118 48 249
56 290 9 41 26 134 40 205 13 72 27 138 30 148 5 16 -27 17 -578 17 l-583 0
-23 -123z"/>
<path d="M2726 8007 c-17 -88 -31 -159 -55 -292 -6 -33 -16 -78 -21 -100 -5
-22 -16 -80 -25 -130 -9 -49 -36 -189 -60 -310 -38 -192 -96 -489 -110 -565
-5 -23 -12 -59 -34 -170 -5 -25 -12 -62 -15 -83 -3 -22 -13 -69 -21 -105 -8
-37 -32 -164 -55 -282 -22 -118 -45 -235 -50 -260 -11 -50 -50 -248 -75 -380
-8 -47 -20 -105 -25 -130 -6 -25 -33 -164 -60 -310 -28 -146 -55 -283 -60
-305 -5 -22 -23 -114 -40 -205 -17 -91 -35 -182 -39 -202 l-9 -38 388 -2 387
-3 23 120 c12 66 49 255 81 420 33 165 73 370 89 455 16 85 34 175 40 200 5
25 17 83 25 130 9 47 24 119 32 160 9 41 16 83 17 93 0 16 34 17 563 17 543 0
563 1 563 19 0 18 39 223 79 421 11 52 23 115 26 140 4 25 10 59 15 75 4 17
11 47 13 68 l6 37 -555 0 c-622 0 -562 -8 -545 75 12 56 41 202 108 542 l58
293 643 0 c353 0 642 2 642 4 0 5 35 192 60 316 10 52 26 136 35 185 9 50 20
109 26 132 5 23 9 47 9 52 0 8 -312 11 -1027 11 l-1028 0 -19 -93z"/>
<path d="M5018 3753 l-3106 -3 -7 -43 c-4 -23 -17 -96 -30 -162 -27 -140 -80
-423 -90 -478 -3 -21 -9 -45 -12 -53 -4 -12 293 -14 2203 -13 1215 1 2646 5
3179 8 l970 6 16 85 c9 47 31 162 48 255 18 94 41 213 52 265 30 146 32 140
-48 138 -38 -2 -1466 -4 -3175 -5z"/>
<path d="M4750 2700 l-3045 -5 -32 -160 c-18 -88 -35 -169 -37 -180 -11 -51
-36 -175 -45 -225 -20 -101 -30 -145 -36 -163 -7 -16 83 -17 1801 -17 995 0
2426 3 3181 7 l1372 6 9 51 c5 28 33 166 62 306 29 140 56 273 60 295 4 22 11
52 15 68 l7 27 -133 -2 c-74 -2 -1504 -5 -3179 -8z m-2502 -242 c-3 -21 -9
-23 -84 -26 l-82 -3 -6 -31 c-10 -53 -10 -53 66 -53 66 0 73 -2 73 -20 0 -18
-8 -20 -82 -23 -74 -2 -83 -5 -83 -22 0 -10 -5 -42 -11 -70 -10 -46 -13 -50
-40 -50 -16 0 -29 3 -29 8 0 4 9 50 20 102 12 52 26 121 31 153 l11 57 110 0
c108 0 109 0 106 -22z m287 -13 c31 -32 35 -41 35 -90 0 -65 -12 -101 -48
-138 -39 -42 -75 -57 -133 -57 -45 0 -55 4 -85 34 -30 30 -34 40 -34 89 0 121
67 197 172 197 52 0 60 -3 93 -35z m329 24 c64 -29 55 -125 -15 -155 -39 -18
-47 -28 -29 -39 10 -6 50 -91 50 -106 0 -5 -13 -9 -28 -9 -25 0 -30 6 -47 52
-24 67 -44 86 -83 80 -26 -3 -31 -9 -36 -40 -16 -93 -16 -92 -48 -92 -35 0
-35 -17 2 150 12 52 24 112 27 133 l6 37 88 0 c48 0 99 -5 113 -11z m222 -101
l9 -113 55 110 55 110 43 3 c50 4 49 9 22 -118 -12 -52 -26 -119 -32 -147 -9
-47 -14 -53 -35 -53 -23 0 -24 3 -18 38 3 20 17 80 30 132 12 52 22 96 20 98
-2 2 -19 -32 -39 -75 -98 -209 -88 -193 -123 -193 l-33 0 0 135 c0 83 -4 135
-10 135 -5 0 -10 -10 -10 -22 0 -13 -10 -74 -21 -135 -20 -106 -23 -113 -45
-113 -15 0 -24 6 -24 16 0 18 36 202 52 262 10 41 12 42 53 42 l42 0 9 -112z
m336 107 c3 -3 -1 -31 -9 -63 -44 -180 -41 -202 28 -202 50 0 64 16 84 102 41
181 36 168 67 168 26 0 27 -2 22 -32 -3 -18 -10 -46 -14 -63 -5 -16 -12 -50
-15 -75 -16 -100 -66 -150 -150 -150 -57 0 -80 12 -101 52 -15 29 -15 38 6
137 12 58 24 112 26 119 3 12 46 17 56 7z m322 -57 c-7 -35 -18 -83 -23 -108
-5 -25 -12 -57 -15 -72 l-6 -28 80 0 c79 0 80 0 80 -25 l0 -25 -115 0 -114 0
5 33 c4 17 15 68 24 112 10 44 21 101 25 128 7 45 9 47 40 47 l32 0 -13 -62z
m386 60 c0 -2 9 -57 21 -123 36 -210 35 -195 6 -195 -25 0 -37 16 -37 51 0 18
-6 20 -72 17 -72 -3 -73 -4 -87 -35 -12 -26 -21 -33 -43 -33 -34 0 -35 9 -5
58 13 20 37 62 54 92 93 171 92 170 129 170 19 0 34 -1 34 -2z m410 -6 c0 -11
-48 -243 -58 -277 -6 -23 -15 -31 -36 -33 -23 -3 -27 0 -22 15 12 44 38 194
34 198 -3 3 -22 -2 -43 -10 -20 -9 -38 -15 -40 -13 -9 11 19 50 47 64 18 9 46
27 61 40 28 23 57 32 57 16z m254 -17 c33 -30 34 -68 2 -100 -20 -20 -22 -27
-12 -37 21 -22 27 -50 16 -83 -16 -49 -52 -75 -104 -75 -37 0 -48 5 -70 31
-35 42 -33 74 7 114 28 28 31 36 21 47 -30 31 -21 84 19 108 44 27 88 26 121
-5z m436 10 c54 -28 69 -85 22 -85 -21 0 -32 7 -40 25 -9 20 -19 25 -50 25
-50 0 -87 -33 -102 -91 -22 -79 3 -129 63 -129 27 0 41 7 60 30 27 31 42 36
66 21 11 -7 10 -14 -8 -40 -42 -59 -127 -79 -192 -46 -37 20 -49 50 -49 122 0
109 60 181 153 182 26 1 61 -6 77 -14z m301 -30 c4 -22 12 -71 18 -110 6 -38
14 -92 18 -118 l6 -49 -29 4 c-25 2 -29 8 -32 36 l-3 32 -70 0 -69 0 -17 -35
c-13 -28 -23 -35 -45 -35 -15 0 -28 2 -28 6 0 6 51 99 99 179 20 33 45 77 56
98 18 34 23 38 55 35 32 -3 35 -6 41 -43z m317 23 c-3 -20 -10 -23 -50 -26
-55 -4 -48 9 -82 -162 -17 -83 -25 -106 -39 -108 -44 -9 -45 1 -16 137 l27
131 -44 0 c-40 0 -44 2 -44 25 l0 25 126 0 c124 0 125 0 122 -22z m146 0 c5
-20 16 -92 41 -256 7 -43 7 -43 -21 -40 -25 2 -29 8 -32 36 l-3 32 -70 0 -69
0 -17 -35 c-13 -28 -23 -35 -45 -35 -15 0 -28 3 -28 6 0 5 9 22 67 124 11 19
35 62 53 95 53 95 52 95 87 95 26 0 34 -5 37 -22z m256 -88 c0 -60 4 -110 9
-110 4 0 32 50 61 110 l54 110 43 0 c24 0 43 -3 43 -8 0 -4 -7 -39 -15 -77 -9
-39 -23 -107 -32 -152 -16 -80 -17 -83 -44 -83 -18 0 -27 5 -24 13 3 11 33
132 40 166 18 81 9 73 -50 -46 -56 -116 -68 -133 -89 -133 -30 0 -36 15 -37
93 -1 34 -4 87 -8 117 l-6 55 -12 -60 c-7 -33 -18 -93 -25 -132 -12 -69 -14
-73 -39 -73 -21 0 -26 4 -23 18 2 9 15 76 29 147 14 72 28 136 30 143 3 7 22
12 50 12 l45 0 0 -110z m469 -37 c13 -82 26 -154 28 -160 4 -9 -5 -13 -25 -13
-26 0 -31 4 -36 35 l-7 35 -67 0 c-67 0 -68 0 -86 -35 -15 -27 -25 -35 -48
-35 -15 0 -28 2 -28 5 0 2 23 42 50 89 28 47 50 89 50 95 0 6 3 11 8 11 4 0
20 27 37 60 28 56 31 60 65 60 l35 0 24 -147z m344 136 c34 -15 47 -49 37 -94
-9 -40 -30 -61 -73 -71 -28 -6 -28 -6 -10 -27 20 -23 53 -90 53 -107 0 -6 -13
-10 -28 -10 -25 0 -31 6 -43 42 -21 64 -52 96 -88 90 -26 -4 -31 -9 -36 -41
-16 -93 -15 -91 -47 -91 -35 0 -35 -18 6 182 14 70 26 130 26 133 0 10 180 5
203 -6z m288 1 c1 -5 2 -13 3 -17 1 -5 5 -35 10 -68 4 -33 11 -76 16 -95 4
-19 11 -56 14 -82 6 -48 6 -48 -24 -48 -28 0 -30 3 -30 35 l0 35 -72 0 c-72 0
-73 -1 -89 -33 -11 -22 -24 -33 -42 -35 -30 -4 -33 2 -14 38 19 34 137 245
154 273 6 11 73 9 74 -3z m226 -2 c5 -7 26 -58 48 -112 l38 -99 12 49 c7 27
18 77 26 112 11 54 16 62 36 62 30 0 30 -17 -2 -158 -14 -60 -26 -121 -28
-134 -3 -17 -11 -24 -33 -26 -28 -3 -30 0 -73 108 -24 61 -45 109 -47 107 -4
-4 -15 -52 -35 -159 -10 -51 -14 -58 -35 -58 -21 0 -27 7 -26 30 0 3 10 52 22
110 12 58 23 113 25 123 10 46 17 57 39 57 13 0 28 -6 33 -12z"/>
<path d="M2368 2402 c-32 -37 -52 -95 -43 -130 11 -45 34 -62 81 -62 35 0 47
5 68 30 29 35 41 85 33 137 -8 44 -20 53 -73 53 -32 0 -46 -6 -66 -28z"/>
</g>
</svg>
