<?xml version="1.0" standalone="no"?>
<!DOCTYPE svg PUBLIC "-//W3C//DTD SVG 20010904//EN"
 "http://www.w3.org/TR/2001/REC-SVG-20010904/DTD/svg10.dtd">
<svg version="1.0" xmlns="http://www.w3.org/2000/svg"
 width="654.000000pt" height="691.000000pt" viewBox="0 0 654.000000 691.000000"
 preserveAspectRatio="xMidYMid meet">
<metadata>
Created by potrace 1.11, written by Peter Selinger 2001-2013
</metadata>
<g transform="translate(0.000000,691.000000) scale(0.100000,-0.100000)"
fill="#000000" stroke="none">
<path d="M3963 6694 c20 -773 -85 -1634 -308 -2524 -95 -379 -209 -755 -327
-1078 -32 -90 -58 -171 -56 -180 4 -21 67 87 188 321 293 567 500 1186 625
1862 108 585 97 1065 -35 1570 -55 213 -64 238 -79 243 -12 4 -13 -30 -8 -214z"/>
<path d="M4275 6550 c3 -5 44 -27 91 -49 189 -89 476 -280 696 -464 434 -362
841 -900 1016 -1342 220 -556 277 -1179 161 -1760 -50 -254 -192 -707 -288
-924 -56 -125 -55 -121 -41 -121 6 0 10 5 10 11 0 6 39 73 86 148 392 623 595
1457 514 2111 -74 592 -356 1113 -835 1540 -289 258 -650 498 -1030 685 -199
98 -390 181 -380 165z"/>
<path d="M795 5558 c-2 -7 -24 -123 -49 -258 -175 -948 -267 -1456 -446 -2475
-168 -956 -291 -1647 -297 -1672 l-5 -23 215 0 c197 0 216 2 221 18 15 49 151
801 271 1492 25 146 58 321 74 390 l27 125 837 3 837 2 0 29 c0 16 11 90 24
163 13 73 27 152 30 176 l6 42 -836 0 -836 0 6 28 c15 75 82 447 141 782 64
369 131 728 141 763 5 16 55 17 868 17 l863 0 16 78 c19 88 57 306 57 322 0
16 -2159 14 -2165 -2z"/>
<path d="M1237 2853 c-9 -8 -9 -1392 0 -1591 l6 -151 71 -3 71 -3 -3 -70 c-10
-217 77 -384 245 -473 182 -96 485 -107 715 -28 139 49 277 157 343 270 81
139 87 359 13 486 -83 141 -269 241 -509 275 -55 7 -103 16 -105 18 -2 2 4 32
14 68 l17 64 140 7 c217 12 378 49 495 115 191 108 281 250 282 443 1 124 -25
185 -116 276 -119 119 -252 166 -471 166 -249 -1 -428 -67 -551 -205 -56 -63
-103 -152 -131 -244 l-18 -63 -132 0 c-101 0 -133 3 -133 13 0 7 9 46 21 87
23 85 75 194 125 261 75 102 216 213 324 255 25 9 49 21 54 26 6 4 -163 8
-375 8 -212 0 -389 -3 -392 -7z"/>
<path d="M2975 2816 c225 -112 342 -278 352 -501 9 -191 -44 -323 -186 -465
-71 -70 -104 -95 -186 -136 -56 -28 -140 -64 -187 -80 -48 -15 -85 -31 -82
-35 2 -4 42 -32 88 -63 234 -156 323 -355 271 -608 -57 -275 -319 -510 -668
-598 -428 -107 -847 -41 -1082 173 -29 26 -56 47 -59 47 -3 0 -6 -124 -6 -275
l0 -275 1113 0 1112 1 -60 28 c-174 81 -289 218 -330 393 -19 80 -19 255 0
379 16 111 121 658 167 869 78 365 148 523 293 659 178 166 418 247 760 258
210 6 333 -9 478 -57 112 -38 180 -76 252 -142 l55 -50 0 261 0 261 -1092 0
-1093 0 90 -44z"/>
<path d="M4125 2356 c-214 -35 -381 -132 -462 -267 -48 -82 -77 -179 -137
-474 -30 -148 -81 -389 -113 -535 -56 -261 -57 -267 -57 -430 -1 -156 0 -168
25 -227 45 -106 110 -166 234 -214 302 -117 766 -44 919 145 116 143 168 301
246 745 22 128 56 315 75 415 18 99 39 231 45 292 32 300 -76 467 -345 539
-82 22 -326 28 -430 11z"/>
<path d="M5050 933 c-43 -236 -104 -452 -155 -553 -59 -116 -253 -281 -410
-349 l-70 -30 328 -1 327 0 0 500 c0 275 -2 500 -4 500 -2 0 -9 -30 -16 -67z"/>
</g>
</svg>
