<?xml version="1.0" standalone="no"?>
<!DOCTYPE svg PUBLIC "-//W3C//DTD SVG 20010904//EN"
 "http://www.w3.org/TR/2001/REC-SVG-20010904/DTD/svg10.dtd">
<svg version="1.0" xmlns="http://www.w3.org/2000/svg"
 width="643.000000pt" height="378.000000pt" viewBox="0 0 643.000000 378.000000"
 preserveAspectRatio="xMidYMid meet">
<metadata>
Created by potrace 1.11, written by Peter Selinger 2001-2013
</metadata>
<g transform="translate(0.000000,378.000000) scale(0.100000,-0.100000)"
fill="#000000" stroke="none">
<path d="M0 1890 l0 -1890 375 0 375 0 0 748 c0 411 4 753 8 759 6 10 172 13
753 15 l744 3 0 365 0 365 -750 5 -750 5 0 380 0 380 940 5 940 5 3 350 c1
193 0 360 -3 373 l-5 22 -1315 0 -1315 0 0 -1890z"/>
<path d="M3427 3773 c-4 -3 -7 -854 -7 -1890 l0 -1883 793 3 c849 3 869 4
1078 57 524 134 929 540 1074 1074 46 172 55 290 55 756 0 467 -8 578 -56 758
-111 418 -385 756 -773 956 -160 82 -349 136 -547 157 -120 13 -1606 24 -1617
12z m1642 -758 c247 -52 459 -227 553 -458 57 -140 60 -177 55 -708 -3 -473
-4 -486 -26 -554 -68 -205 -198 -363 -381 -459 -160 -84 -184 -88 -668 -93
-325 -4 -426 -2 -437 7 -13 11 -15 157 -15 1140 0 619 3 1130 7 1133 3 4 194
7 424 7 330 0 432 -3 488 -15z"/>
</g>
</svg>
