<?xml version="1.0" encoding="utf-8"?>
<!-- Generator: Adobe Illustrator 13.0.0, SVG Export Plug-In . SVG Version: 6.00 Build 14948)  -->
<!DOCTYPE svg PUBLIC "-//W3C//DTD SVG 1.0//EN" "http://www.w3.org/TR/2001/REC-SVG-20010904/DTD/svg10.dtd">
<svg version="1.0" id="Layer_1" xmlns="http://www.w3.org/2000/svg" xmlns:xlink="http://www.w3.org/1999/xlink" x="0px" y="0px"
	 width="192.756px" height="192.756px" viewBox="0 0 192.756 192.756" enable-background="new 0 0 192.756 192.756"
	 xml:space="preserve">
<g>
	<polygon fill-rule="evenodd" clip-rule="evenodd" fill="#FFFFFF" points="0,0 192.756,0 192.756,192.756 0,192.756 0,0 	"/>
	<path fill-rule="evenodd" clip-rule="evenodd" fill="#3469B3" d="M158.705,95.565l-3.688,10.396h5.792l0.488-1.311h3.993
		l0.457,1.311h5.945l-3.811-10.396H158.705L158.705,95.565z M163.248,98.736l-1.189,3.535h2.438L163.248,98.736L163.248,98.736z"/>
	<polygon fill-rule="evenodd" clip-rule="evenodd" fill="#3469B3" points="30.332,76.695 30.362,76.726 30.393,76.756 
		30.454,76.817 30.515,76.908 30.606,77 30.728,77.152 30.88,77.305 31.033,77.487 31.215,77.67 31.429,77.884 31.643,78.097 
		31.886,78.372 32.161,78.616 32.435,78.92 32.709,79.226 33.045,79.53 33.411,79.866 33.837,80.201 34.325,80.505 34.904,80.811 
		35.514,81.146 36.154,81.451 36.855,81.755 37.557,82.03 38.288,82.274 39.02,82.518 39.751,82.762 40.483,82.944 41.185,83.127 
		41.885,83.28 42.556,83.402 43.166,83.493 43.867,83.523 44.721,83.523 45.727,83.523 46.854,83.432 48.043,83.372 49.293,83.25 
		50.574,83.127 51.824,83.005 53.043,82.883 54.202,82.731 55.269,82.609 56.214,82.487 56.976,82.396 57.555,82.334 57.951,82.274 
		58.073,82.244 49.568,89.286 49.537,89.255 49.446,89.194 49.263,89.103 49.019,88.95 48.714,88.798 48.318,88.584 47.8,88.371 
		47.221,88.157 46.55,87.914 45.757,87.67 44.873,87.396 43.836,87.151 42.739,86.908 41.489,86.633 40.087,86.42 38.593,86.207 
		37.039,86.054 35.514,85.993 34.112,86.023 32.801,86.115 31.551,86.298 30.423,86.511 29.356,86.786 28.411,87.06 27.557,87.365 
		26.795,87.67 26.155,87.975 25.637,88.218 25.21,88.432 24.905,88.615 24.722,88.737 24.661,88.798 24.722,88.767 24.966,88.767 
		25.362,88.737 25.881,88.737 26.49,88.706 27.191,88.676 28.015,88.676 28.868,88.676 29.813,88.706 30.758,88.706 31.764,88.767 
		32.771,88.859 33.776,88.95 34.752,89.072 35.697,89.224 36.611,89.408 37.861,89.743 38.989,90.047 39.996,90.383 40.94,90.688 
		41.764,91.023 42.465,91.328 43.105,91.633 43.654,91.938 44.142,92.212 44.507,92.456 44.842,92.669 45.086,92.852 45.27,93.004 
		45.391,93.126 45.483,93.188 45.513,93.218 45.33,93.34 44.873,93.645 44.142,94.132 43.166,94.742 42.038,95.474 40.696,96.267 
		39.264,97.15 37.77,98.035 36.185,98.918 34.6,99.771 33.045,100.535 31.551,101.236 30.148,101.814 28.868,102.242 
		27.771,102.455 26.887,102.486 26.125,102.363 25.454,102.211 24.844,101.998 24.295,101.723 23.808,101.48 23.381,101.174 
		23.015,100.869 22.71,100.564 22.436,100.26 22.222,99.986 22.04,99.742 21.917,99.498 21.826,99.285 21.704,99.072 21.186,98.828 
		8.504,110.748 8.535,110.777 8.626,110.838 8.809,110.961 9.053,111.082 9.357,111.266 9.724,111.449 10.181,111.662 
		10.699,111.875 11.278,112.119 11.918,112.332 12.62,112.545 13.412,112.76 14.235,112.973 15.15,113.156 16.125,113.309 
		17.162,113.461 18.168,113.553 19.143,113.613 20.088,113.613 20.973,113.582 21.856,113.49 22.68,113.369 23.472,113.217 
		24.295,113.033 25.088,112.789 25.881,112.545 26.673,112.24 27.497,111.936 28.35,111.602 29.234,111.205 30.118,110.809 
		31.063,110.381 32.13,109.832 33.319,109.102 34.6,108.186 35.972,107.15 37.404,106.021 38.867,104.834 40.3,103.582 
		41.703,102.363 43.075,101.145 44.324,99.986 45.483,98.918 46.489,97.975 47.921,96.602 48.318,96.206 48.47,96.083 
		51.549,99.162 51.488,99.193 51.366,99.377 51.153,99.65 50.909,100.016 50.604,100.475 50.269,101.021 49.934,101.662 
		49.568,102.363 49.202,103.125 48.867,103.98 48.592,104.834 48.318,105.748 48.104,106.723 47.982,107.699 47.921,108.734 
		47.982,109.771 48.135,110.594 48.47,111.326 48.958,111.996 49.568,112.545 50.238,113.004 51,113.398 51.824,113.734 
		52.616,114.01 53.439,114.223 54.232,114.375 54.963,114.496 55.634,114.588 56.183,114.648 56.61,114.68 56.884,114.68 
		56.976,114.68 182.637,114.68 184.252,108.033 73.011,108.033 72.645,108.033 72.218,108.033 71.761,107.973 71.243,107.941 
		70.694,107.912 70.115,107.852 69.536,107.76 68.957,107.668 68.377,107.547 67.798,107.395 67.249,107.242 66.731,107.059 
		65.664,106.539 64.75,105.992 63.987,105.381 63.347,104.68 62.859,103.949 62.524,103.125 62.311,102.242 62.28,101.297 
		62.372,100.32 62.646,99.254 63.103,98.156 63.713,96.968 64.475,95.749 65.42,94.468 66.518,93.126 67.829,91.755 69.261,90.353 
		70.816,88.98 72.401,87.67 74.078,86.389 75.724,85.17 77.401,83.981 79.017,82.914 80.602,81.877 82.065,80.963 83.437,80.14 
		84.656,79.438 85.724,78.829 86.607,78.341 87.248,77.975 87.674,77.762 87.796,77.701 87.705,77.701 87.431,77.731 87.004,77.792 
		86.394,77.915 85.632,78.067 84.748,78.25 83.711,78.463 82.553,78.768 81.272,79.103 79.901,79.5 78.407,79.957 76.822,80.505 
		75.175,81.085 73.438,81.755 71.639,82.518 69.81,83.372 67.981,84.255 66.335,85.17 64.811,86.084 63.408,86.999 62.158,87.883 
		61.03,88.767 60.024,89.621 59.14,90.414 58.378,91.175 57.707,91.846 57.159,92.456 56.732,92.974 56.396,93.401 56.153,93.706 
		56.031,93.889 55.97,93.98 53.409,91.999 67.707,77.335 67.554,77.305 67.188,77.305 66.609,77.305 65.847,77.274 64.933,77.244 
		63.926,77.213 62.829,77.183 61.67,77.122 60.512,77.061 59.354,77 58.256,76.908 57.25,76.787 56.335,76.665 55.573,76.542 
		54.994,76.39 54.628,76.208 54.384,76.024 54.171,75.811 53.988,75.598 53.835,75.384 53.683,75.14 53.561,74.927 53.47,74.683 
		53.378,74.469 53.317,74.287 53.256,74.104 53.226,73.921 53.196,73.769 53.165,73.646 53.165,73.585 53.165,73.494 53.104,73.494 
		52.952,73.555 52.677,73.616 52.312,73.708 51.854,73.83 51.306,73.951 50.635,74.104 49.903,74.287 49.05,74.469 48.135,74.652 
		47.099,74.866 46.032,75.049 44.842,75.292 43.562,75.506 42.251,75.72 40.818,75.963 39.782,76.116 38.776,76.238 37.8,76.36 
		36.855,76.451 35.941,76.512 35.057,76.573 34.264,76.634 33.502,76.665 32.801,76.665 32.191,76.695 31.643,76.695 30.332,76.695 
			"/>
	<polygon fill-rule="evenodd" clip-rule="evenodd" fill="#3469B3" points="70.389,95.535 70.389,105.93 76.151,105.93 
		76.151,101.754 78.925,101.754 78.925,101.938 78.956,102.15 78.956,102.424 78.956,102.729 78.956,105.869 78.986,105.93 
		84.626,105.93 84.626,95.535 78.925,95.535 78.925,99.346 78.895,99.346 78.834,99.377 78.681,99.377 78.499,99.377 77.797,99.377 
		77.553,99.377 76.151,99.377 76.151,95.535 70.389,95.535 	"/>
	<polygon fill-rule="evenodd" clip-rule="evenodd" fill="#3469B3" points="115.904,105.93 121.696,105.93 121.696,95.535 
		115.904,95.535 115.904,105.93 	"/>
	<polygon fill-rule="evenodd" clip-rule="evenodd" fill="#3469B3" points="122.672,95.535 122.672,105.93 133.951,105.93 
		133.951,103.156 128.464,103.156 128.464,101.754 133.951,101.754 133.951,99.65 128.464,99.65 128.464,98.309 133.951,98.309 
		133.951,95.535 122.672,95.535 	"/>
	<polygon fill-rule="evenodd" clip-rule="evenodd" fill="#3469B3" points="149.59,99.682 149.56,99.65 149.56,99.59 149.56,99.467 
		149.529,99.314 149.529,99.133 149.469,98.918 149.407,98.705 149.347,98.492 149.255,98.279 149.163,98.035 149.011,97.852 
		148.858,97.67 148.676,97.516 148.462,97.395 148.249,97.334 147.975,97.303 147.7,97.334 147.456,97.395 147.243,97.486 
		147.06,97.639 146.907,97.82 146.786,98.004 146.663,98.248 146.572,98.492 146.512,98.766 146.45,99.041 146.42,99.346 
		146.389,99.65 146.358,99.955 146.358,100.291 146.358,101.846 146.389,102.15 146.389,102.424 146.42,102.729 146.48,102.973 
		146.542,103.248 146.633,103.461 146.755,103.674 146.877,103.857 147.029,104.01 147.212,104.162 147.456,104.254 147.7,104.314 
		147.975,104.346 148.279,104.314 148.523,104.223 148.736,104.102 148.92,103.949 149.072,103.766 149.194,103.553 
		149.315,103.309 149.377,103.096 149.438,102.852 149.499,102.639 149.529,102.424 149.56,102.242 149.56,102.09 149.56,101.875 
		149.59,101.846 155.535,101.846 155.535,101.938 155.565,102.059 155.565,102.363 155.535,102.547 155.535,102.791 
		155.474,103.035 155.443,103.277 155.383,103.553 155.291,103.826 155.169,104.131 155.047,104.406 154.864,104.68 154.65,104.924 
		154.438,105.199 154.254,105.32 154.071,105.443 153.858,105.533 153.614,105.625 153.31,105.688 153.005,105.748 152.669,105.809 
		152.273,105.84 151.877,105.869 151.419,105.9 150.932,105.9 150.413,105.93 149.834,105.93 147.914,105.93 147.212,105.93 
		145.993,105.93 145.444,105.9 144.926,105.9 144.469,105.869 144.042,105.84 143.646,105.809 143.279,105.777 142.944,105.717 
		142.64,105.656 142.365,105.564 142.121,105.473 141.908,105.381 141.725,105.26 141.542,105.107 141.359,104.895 141.176,104.711 
		141.023,104.498 140.901,104.285 140.811,104.07 140.719,103.826 140.627,103.582 140.566,103.309 140.536,103.035 140.506,102.76 
		140.476,102.455 140.444,102.119 140.444,101.785 140.444,99.895 140.444,99.529 140.476,99.193 140.476,98.889 140.506,98.613 
		140.566,98.34 140.627,98.096 140.688,97.852 140.78,97.639 140.871,97.426 140.963,97.242 141.085,97.059 141.237,96.876 
		141.39,96.724 141.572,96.541 141.786,96.358 141.999,96.206 142.213,96.053 142.457,95.932 142.67,95.84 142.944,95.779 
		143.219,95.688 143.555,95.657 143.92,95.626 144.347,95.596 144.804,95.565 145.353,95.565 145.963,95.565 147.396,95.565 
		148.249,95.565 149.895,95.565 150.597,95.596 151.236,95.626 151.815,95.626 152.334,95.657 152.761,95.718 153.157,95.779 
		153.522,95.84 153.828,95.962 154.102,96.053 154.346,96.175 154.56,96.328 154.742,96.511 154.925,96.693 155.077,96.938 
		155.199,97.12 155.321,97.334 155.413,97.578 155.474,97.82 155.535,98.035 155.565,98.279 155.596,98.492 155.626,98.705 
		155.626,98.918 155.656,99.102 155.656,99.406 155.626,99.529 155.626,99.682 149.59,99.682 	"/>
	<polygon fill-rule="evenodd" clip-rule="evenodd" fill="#3469B3" points="169.437,95.565 169.437,98.34 173.277,98.34 
		173.277,105.961 179.161,105.961 179.161,98.34 182.972,98.34 182.972,95.565 169.437,95.565 	"/>
	<polygon fill-rule="evenodd" clip-rule="evenodd" fill="#3469B3" points="83.193,81.969 82.919,83.951 83.163,83.951 
		83.285,83.158 83.589,83.158 83.62,83.158 83.62,83.158 83.65,83.188 83.65,83.219 83.681,83.219 83.681,83.25 83.681,83.28 
		83.681,83.28 83.681,83.341 83.681,83.402 83.681,83.432 83.681,83.493 83.681,83.523 83.65,83.585 83.65,83.646 83.65,83.676 
		83.65,83.951 83.925,83.951 83.925,83.89 83.925,83.89 83.925,83.859 83.925,83.859 83.894,83.859 83.894,83.707 83.925,83.676 
		83.925,83.585 83.925,83.523 83.925,83.493 83.925,83.432 83.955,83.372 83.955,83.188 83.925,83.158 83.925,83.127 83.925,83.097 
		83.925,83.066 83.925,83.066 83.894,83.036 83.894,83.036 83.864,83.005 83.864,83.005 83.833,82.975 83.864,82.975 83.894,82.944 
		83.925,82.944 83.925,82.914 83.955,82.883 83.955,82.853 83.986,82.823 83.986,82.792 84.016,82.762 84.016,82.731 84.047,82.701 
		84.047,82.67 84.077,82.609 84.077,82.579 84.077,82.548 84.107,82.518 84.107,82.304 84.077,82.244 84.077,82.182 84.047,82.121 
		84.016,82.091 83.986,82.03 83.955,82 83.925,82 83.894,81.969 83.833,81.969 83.193,81.969 	"/>
	<polygon fill-rule="evenodd" clip-rule="evenodd" fill="#3469B3" points="83.62,82.762 83.315,82.762 83.376,82.213 83.742,82.213 
		83.772,82.244 83.772,82.244 83.803,82.244 83.803,82.274 83.803,82.274 83.833,82.304 83.833,82.334 83.833,82.365 83.833,82.487 
		83.833,82.518 83.833,82.548 83.803,82.579 83.803,82.609 83.803,82.609 83.772,82.67 83.772,82.67 83.742,82.701 83.742,82.701 
		83.711,82.731 83.681,82.731 83.681,82.731 83.62,82.731 83.62,82.762 	"/>
	<path fill="#3469B3" d="M81.99,82.914c0-0.425,0.172-0.811,0.45-1.089c0.278-0.278,0.663-0.45,1.089-0.45
		c0.426,0,0.82,0.174,1.107,0.455c0.284,0.277,0.462,0.661,0.462,1.084c0,0.425-0.18,0.817-0.466,1.104l0,0
		c-0.286,0.286-0.678,0.465-1.103,0.465c-0.424,0-0.807-0.178-1.085-0.461C82.164,83.735,81.99,83.341,81.99,82.914L81.99,82.914z
		 M82.59,81.975c-0.24,0.24-0.389,0.572-0.389,0.939c0,0.37,0.15,0.711,0.393,0.959c0.239,0.245,0.569,0.398,0.935,0.398
		c0.367,0,0.707-0.156,0.954-0.403l0,0c0.247-0.248,0.403-0.587,0.403-0.954c0-0.365-0.153-0.695-0.398-0.934
		c-0.248-0.243-0.589-0.393-0.958-0.393C83.162,81.587,82.83,81.735,82.59,81.975L82.59,81.975z"/>
	<path fill-rule="evenodd" clip-rule="evenodd" fill="#3469B3" d="M94.381,99.072l-0.031-0.062v-0.092v-0.121l-0.03-0.152
		l-0.031-0.152l-0.061-0.152l-0.061-0.184l-0.092-0.182l-0.091-0.154l-0.152-0.15l-0.122-0.154l-0.183-0.121l-0.244-0.092
		l-0.213-0.061h-0.305l-0.274,0.031l-0.274,0.029l-0.213,0.123l-0.183,0.09l-0.152,0.154l-0.152,0.15l-0.091,0.184l-0.092,0.152
		l-0.061,0.184l-0.061,0.152l-0.031,0.152l-0.03,0.152l-0.031,0.121v0.092v3.201v0.092l0.031,0.152v0.152l0.061,0.184l0.03,0.182
		l0.091,0.215l0.092,0.213l0.091,0.182l0.152,0.184l0.152,0.184l0.183,0.121l0.213,0.092l0.274,0.061l0.274,0.031l0.305-0.031
		l0.213-0.061l0.244-0.092l0.183-0.152l0.122-0.152l0.152-0.184l0.091-0.213l0.092-0.182l0.061-0.215l0.061-0.182l0.031-0.184
		l0.03-0.152v-0.152v-0.092l0.031-0.092V99.072L94.381,99.072z M85.175,99.65v-0.184v-0.121v-0.152l0.03-0.184l0.03-0.213
		l0.061-0.213l0.061-0.244l0.061-0.244l0.061-0.244l0.122-0.244l0.122-0.273l0.122-0.214l0.153-0.244l0.213-0.213l0.183-0.213
		l0.213-0.183l0.213-0.122l0.183-0.122l0.213-0.122l0.183-0.092l0.183-0.091l0.183-0.03l0.183-0.061l0.152-0.03l0.122-0.031h0.122
		l0.091-0.031h8.75l0.091,0.031h0.091l0.152,0.031l0.122,0.03l0.183,0.061l0.152,0.061l0.214,0.061l0.183,0.092l0.213,0.122
		l0.214,0.122l0.213,0.122l0.244,0.183l0.214,0.213l0.183,0.183l0.152,0.213l0.122,0.215l0.122,0.242l0.183,0.488l0.062,0.275
		l0.061,0.213l0.03,0.244l0.03,0.213l0.03,0.213v0.152v0.152v0.092l0.031,0.092v2.469l-0.031,0.152v0.123v0.152l-0.03,0.152
		l-0.03,0.184l-0.03,0.213l-0.061,0.213l-0.062,0.213l-0.092,0.215l-0.091,0.244l-0.122,0.242l-0.122,0.215l-0.183,0.213
		l-0.152,0.213l-0.214,0.184l-0.214,0.152l-0.183,0.152l-0.213,0.121l-0.214,0.092l-0.183,0.092l-0.214,0.092l-0.183,0.029
		l-0.152,0.062l-0.152,0.029l-0.152,0.031h-0.092l-0.122,0.029h-0.061h-0.092h-8.444h-0.122l-0.092-0.029h-0.091l-0.122-0.031
		l-0.152-0.029l-0.152-0.062l-0.183-0.061l-0.183-0.061l-0.183-0.092l-0.244-0.121l-0.213-0.152l-0.244-0.152l-0.244-0.184
		l-0.244-0.213l-0.183-0.184l-0.153-0.213l-0.152-0.184l-0.091-0.213l-0.122-0.244l-0.061-0.213l-0.061-0.215l-0.061-0.213
		l-0.03-0.182l-0.03-0.184v-0.152v-0.152l-0.031-0.123v-0.092L85.175,99.65L85.175,99.65z"/>
	<path fill-rule="evenodd" clip-rule="evenodd" fill="#3469B3" d="M106.575,101.602h1.951h0.092l0.152,0.031l0.091,0.029
		l0.092,0.031l0.092,0.061l0.091,0.092l0.092,0.061l0.092,0.123l0.061,0.121l0.062,0.152l0.03,0.184l0.03,0.182l0.03,0.244
		l-0.03,0.184l-0.061,0.182l-0.031,0.154l-0.061,0.121l-0.092,0.092l-0.091,0.092l-0.092,0.061l-0.061,0.061l-0.122,0.031
		l-0.062,0.061h-0.091l-0.092,0.031h-0.092h-1.981V101.602L106.575,101.602z M106.575,97.578h1.799l0.152,0.029h0.092l0.061,0.031
		l0.122,0.031l0.092,0.061l0.091,0.061l0.092,0.092l0.092,0.092l0.061,0.121l0.03,0.121l0.031,0.152l0.03,0.184v0.184l-0.03,0.152
		l-0.062,0.152l-0.061,0.121l-0.062,0.092l-0.091,0.092l-0.092,0.061l-0.092,0.031l-0.091,0.029l-0.092,0.062h-0.062l-0.091,0.029
		h-0.122h-1.799V97.578L106.575,97.578z M100.875,95.535v10.395h11.798h0.121l0.153-0.029h0.183l0.213-0.061l0.244-0.062l0.244-0.09
		l0.274-0.092l0.274-0.152l0.243-0.152l0.274-0.215l0.214-0.273l0.183-0.275l0.122-0.365l0.092-0.396l0.061-0.457l-0.061-0.457
		l-0.062-0.428l-0.121-0.334l-0.123-0.336l-0.183-0.244l-0.183-0.244l-0.214-0.182l-0.213-0.152l-0.183-0.123l-0.214-0.092
		l-0.183-0.061l-0.183-0.061l-0.122-0.031l-0.122-0.029h-0.092l0.152-0.031l0.092-0.029l0.122-0.031l0.152-0.061l0.152-0.092
		l0.152-0.092l0.152-0.152l0.152-0.152l0.152-0.184l0.122-0.244l0.092-0.273l0.091-0.336l0.062-0.365v-0.396l-0.031-0.426
		l-0.091-0.367l-0.183-0.335l-0.214-0.274l-0.244-0.244l-0.274-0.213l-0.273-0.153l-0.306-0.152l-0.335-0.123l-0.274-0.091
		l-0.274-0.061l-0.244-0.03l-0.213-0.061h-0.152l-0.122-0.031H100.875L100.875,95.535z"/>
</g>
</svg>
