<?xml version="1.0" encoding="utf-8"?>
<!-- Generator: Adobe Illustrator 10.0, SVG Export Plug-In . SVG Version: 3.0.0 Build 76)  -->
<!DOCTYPE svg PUBLIC "-//W3C//DTD SVG 1.0//EN"    "http://www.w3.org/TR/2001/REC-SVG-20010904/DTD/svg10.dtd" [
	<!ENTITY ns_flows "http://ns.adobe.com/Flows/1.0/">
	<!ENTITY ns_extend "http://ns.adobe.com/Extensibility/1.0/">
	<!ENTITY ns_ai "http://ns.adobe.com/AdobeIllustrator/10.0/">
	<!ENTITY ns_graphs "http://ns.adobe.com/Graphs/1.0/">
	<!ENTITY ns_vars "http://ns.adobe.com/Variables/1.0/">
	<!ENTITY ns_imrep "http://ns.adobe.com/ImageReplacement/1.0/">
	<!ENTITY ns_sfw "http://ns.adobe.com/SaveForWeb/1.0/">
	<!ENTITY ns_custom "http://ns.adobe.com/GenericCustomNamespace/1.0/">
	<!ENTITY ns_adobe_xpath "http://ns.adobe.com/XPath/1.0/">
	<!ENTITY ns_svg "http://www.w3.org/2000/svg">
	<!ENTITY ns_xlink "http://www.w3.org/1999/xlink">
]>
<svg 
	 xmlns:x="&ns_extend;" xmlns:i="&ns_ai;" xmlns:graph="&ns_graphs;" i:viewOrigin="244.2441 694.6279" i:rulerOrigin="0 0" i:pageBounds="0 850.3936 850.3936 0"
	 xmlns="&ns_svg;" xmlns:xlink="&ns_xlink;" xmlns:a="http://ns.adobe.com/AdobeSVGViewerExtensions/3.0/"
	 width="361.5" height="539.25" viewBox="0 0 361.5 539.25" overflow="visible" enable-background="new 0 0 361.5 539.25"
	 xml:space="preserve">
	<metadata>
		<variableSets  xmlns="&ns_vars;">
			<variableSet  varSetName="binding1" locked="none">
				<variables></variables>
				<v:sampleDataSets  xmlns="&ns_custom;" xmlns:v="&ns_vars;"></v:sampleDataSets>
			</variableSet>
		</variableSets>
		<sfw  xmlns="&ns_sfw;">
			<slices></slices>
			<sliceSourceBounds  y="155.378" x="244.244" width="361.5" height="539.25" bottomLeftOrigin="true"></sliceSourceBounds>
		</sfw>
	</metadata>
	<g id="Ebene_1" i:layer="yes" i:dimmedPercent="50" i:rgbTrio="#4F008000FFFF">
		<g>
			<g>
				<defs>
					<path id="XMLID_1_" d="M0,0h361.5v539.25H0V0z"/>
				</defs>
				<clipPath id="XMLID_2_">
					<use xlink:href="#XMLID_1_" />
				</clipPath>
				<path i:knockout="Off" clip-path="url(#XMLID_2_)" fill-rule="evenodd" clip-rule="evenodd" fill="#FFFFFF" d="M2.25,535.5V2.25
					h355.5V535.5H2.25z"/>
				<path i:knockout="Off" clip-path="url(#XMLID_2_)" fill-rule="evenodd" clip-rule="evenodd" fill="#1B0A7F" d="M292.5,316.5
					v-38.25h-225v38.25H292.5z"/>
				<path i:knockout="Off" clip-path="url(#XMLID_2_)" fill-rule="evenodd" clip-rule="evenodd" fill="#1B0A7F" d="M105.75,468.75
					l6.75-6l5.25-3.75l6.75-5.25L140.25,441l1.5-0.75l3.75-3l6-6l6-6l6.75-7.5l3.75-6l3.75-6.75l2.25-5.25l1.5-6l0.75-6l-0.75-6
					l-0.75-3.75l-2.25-3.75l-1.5-3l-1.5-2.25l-3-3l-3-2.25l-5.25-3.75l-6-2.25l-4.5-0.75l-4.5-0.75l-6-0.75h-6H126l-5.25,0.75
					l-8.25,2.25l-6.75,3l-5.25,3l-5.25,3l-6,5.25l-3,3l-2.25,3L82.5,381l-1.5,3l-2.25,5.25L78,393v3v3l0.75,2.25v1.5l1.5,2.25
					l0.75,1.5l1.5,1.5l1.5,1.5l2.25,1.5l3,0.75l3,0.75h3l3-0.75l4.5-0.75l3.75-2.25l2.25-2.25l0.75-2.25l0.75-1.5l0.75-3l-0.75-3.75
					l-1.5-3l-0.75-2.25l-0.75-2.25l0.75-3l0.75-3l1.5-2.25l2.25-3l3.75-3l3-1.5l2.25-0.75l2.25-0.75h3h3l4.5,0.75l2.25,1.5l2.25,1.5
					l1.5,1.5L141,378l0.75,2.25l0.75,3v3l-0.75,3.75l-0.75,3.75l-0.75,3l-1.5,3.75l-2.25,3.75l-2.25,3l-3,4.5l-3.75,4.5l-9,9
					l-12,10.5l-9.75,9l-11.25,10.5l-6.75,6l-5.25,5.25l-5.25,6l-3,4.5l-1.5,3l-1.5,3.75l-0.75,1.5V489l0.75,2.25l1.5,1.5l0.75,0.75
					H66h4.5h18h21h41.25h0.75h0.75v-0.75H153h0.75l0.75-0.75l0.75-0.75v-0.75L156,489l1.5-2.25l0.75-2.25l1.5-2.25l1.5-3.75l1.5-3
					l1.5-3.75l0.75-1.5l0.75-0.75V468v-0.75l0.75-0.75v-0.75V465v-0.75v-0.75l-0.75-0.75V462H165v-0.75h-0.75l-0.75-0.75h-0.75h-1.5
					h-0.75l-1.5,0.75l-2.25,0.75l-1.5,1.5l-1.5,1.5l-0.75,0.75l-1.5,0.75l-1.5,0.75l-1.5,0.75l-1.5,0.75h-1.5h-3h-3.75H135h-27h-4.5
					H105.75z"/>
				<path i:knockout="Off" clip-path="url(#XMLID_2_)" fill-rule="evenodd" clip-rule="evenodd" fill="#1B0A7F" d="M261.75,461.25
					h15.75l1.5-0.75l1.5-0.75l0.75-0.75l0.75-1.5l0.75-2.25l0.75-2.25v-2.25l-0.75-2.25V447l-0.75-1.5l-0.75-0.75L280.5,444h-0.75
					H279h-4.5H267h-3v-1.5l0.75-1.5v-2.25l0.75-3.75l0.75-3.75l0.75-3.75l0.75-6l0.75-6l0.75-6l0.75-2.25l0.75-6l1.5-8.25l0.75-7.5
					l0.75-3.75l0.75-2.25v-2.25V375l0.75-3.75l0.75-3.75v-2.25v-1.5l-0.75-2.25l-0.75-1.5l-1.5-1.5l-2.25-1.5l-3.75-0.75h-4.5h-3.75
					l-3,0.75l-3.75,0.75l-4.5,2.25l-4.5,2.25l-4.5,3.75l-4.5,3.75l-5.25,4.5l-4.5,6l-6.75,7.5l-6,7.5l-6.75,8.25l-4.5,6.75
					l-7.5,11.25l-4.5,7.5l-6,11.25l-2.25,4.5l-1.5,5.25l-0.75,3.75v3l1.5,2.25l1.5,0.75l2.25,0.75l0.75,0.75h42.75l-0.75,3l-0.75,3
					l-0.75,3.75v1.5l-0.75,1.5v1.5l-0.75,0.75L222,477v0.75l-1.5,0.75l-0.75,0.75H219l-2.25,0.75l-1.5,0.75l-1.5,0.75H213l-1.5,1.5
					l-0.75,1.5v0.75L210,487.5v1.5l0.75,0.75v1.5l1.5,0.75l1.5,0.75l1.5,0.75H216h32.25h7.5h4.5H261h0.75l1.5-0.75l1.5-0.75l1.5-1.5
					L267,489v-1.5v-2.25l-0.75-2.25l-0.75-0.75l-1.5-1.5l-1.5-0.75l-1.5-0.75l-0.75-0.75l-0.75-1.5v-1.5v-2.25l0.75-2.25v-3
					l0.75-4.5L261.75,461.25z M243,381.75l-6,6.75l-6,6.75l-8.25,10.5l-5.25,7.5l-5.25,8.25l-4.5,7.5l-3.75,7.5l-1.5,3.75l-3,5.25
					h30L243,381.75z"/>
				<path i:knockout="Off" clip-path="url(#XMLID_2_)" fill-rule="evenodd" clip-rule="evenodd" fill="#1B0A7F" d="M215.25,37.5H225
					h52.5h2.25l2.25,0.75l1.5,0.75l1.5,0.75l0.75,1.5l0.75,2.25V45v1.5l-0.75,2.25l-1.5,2.25l-1.5,1.5l-1.5,1.5l-4.5,2.25l-4.5,2.25
					l-3,3l-1.5,1.5L267,65.25l-1.5,4.5l-0.75,3.75l-2.25,12l-3,21l-4.5,30l-4.5,27.75l-4.5,28.5l-1.5,9l-1.5,6.75l-1.5,6.75
					l-2.25,6.75l-3,6l-2.25,3.75l-2.25,3.75l-2.25,3.75l-3,3.75l-3.75,3l-3,3l-3.75,2.25l-3.75,2.25l-7.5,3l-7.5,2.25L189,261
					l-7.5,0.75l-6.75,0.75l-14.25,0.75H150l-5.25-0.75l-5.25-0.75l-5.25-1.5l-5.25-1.5l-5.25-1.5l-5.25-3l-3-2.25l-3.75-2.25
					l-2.25-3l-3-3l-2.25-3.75l-1.5-3.75l-0.75-3l-1.5-3.75l-0.75-6.75V216l0.75-6.75l1.5-6l1.5-4.5l2.25-4.5l4.5-6.75l5.25-5.25
					l3.75-3.75l3.75-2.25l6-3l5.25-2.25l4.5-1.5h4.5h5.25h5.25l4.5,1.5l3,1.5l3.75,2.25l1.5,1.5l1.5,1.5l1.5,3.75l0.75,3.75V189
					v3.75L169.5,195l-0.75,2.25l-2.25,3L165,201h-1.5l-2.25-0.75h-3h-3L153,201l-3,0.75l-3,1.5l-2.25,1.5l-3,3l-2.25,4.5L138,216
					l-0.75,4.5L138,225v2.25l1.5,2.25l1.5,3l3,3l3.75,2.25l3.75,0.75l3,0.75l3.75,0.75l6-0.75l4.5-0.75l4.5-1.5l3.75-2.25l3-3
					l1.5-2.25l1.5-2.25l2.25-5.25l2.25-6l1.5-5.25l1.5-8.25l2.25-8.25l1.5-14.25l3.75-23.25l3-18.75l2.25-15l4.5-27.75l2.25-13.5
					l0.75-6V72v-3.75v-3L210,63l-0.75-1.5l-1.5-1.5l-3-1.5l-3-0.75l-3-0.75l-2.25-1.5L195,54l-1.5-2.25l-0.75-2.25v-2.25v-1.5l1.5-3
					l1.5-2.25l1.5-0.75l1.5-0.75l3-0.75l3.75-0.75H215.25z"/>
			</g>
		</g>
	</g>
</svg>
