<?xml version="1.0" standalone="no"?>
<!DOCTYPE svg PUBLIC "-//W3C//DTD SVG 20010904//EN"
 "http://www.w3.org/TR/2001/REC-SVG-20010904/DTD/svg10.dtd">
<svg version="1.0" xmlns="http://www.w3.org/2000/svg"
 width="180.000000pt" height="180.000000pt" viewBox="0 0 180.000000 180.000000"
 preserveAspectRatio="xMidYMid meet">
<metadata>
Created by potrace 1.11, written by Peter Selinger 2001-2013
</metadata>
<g transform="translate(0.000000,180.000000) scale(0.100000,-0.100000)"
fill="#000000" stroke="none">
<path d="M1002 1793 c-7 -2 -17 -14 -23 -24 -8 -16 -5 -26 20 -55 17 -19 31
-40 31 -45 0 -53 -94 -591 -109 -625 -30 -66 -62 -94 -111 -94 -52 0 -74 12
-89 48 -18 43 -1 76 59 108 70 38 81 96 24 122 -88 41 -224 -34 -253 -141 -17
-58 -2 -123 38 -163 91 -93 332 -99 457 -13 91 62 107 107 160 454 46 301 47
308 89 348 37 36 43 55 23 75 -12 12 -288 17 -316 5z"/>
<path d="M412 683 l3 -88 480 0 480 0 3 88 3 87 -486 0 -486 0 3 -87z"/>
<path d="M1135 514 c-11 -3 -30 -7 -43 -10 -40 -8 -108 -80 -138 -147 -24 -53
-28 -75 -29 -152 0 -67 4 -98 17 -122 56 -101 206 -109 289 -15 18 20 44 61
58 92 22 47 26 69 26 150 0 82 -3 100 -23 133 -33 52 -101 83 -157 71z m55
-64 c37 -37 20 -211 -31 -329 -32 -75 -83 -95 -115 -46 -41 62 22 348 83 384
26 15 41 13 63 -9z"/>
<path d="M500 484 c-6 -14 -13 -43 -16 -65 -8 -46 6 -51 44 -16 20 19 37 22
118 25 74 3 94 1 94 -10 0 -7 -25 -44 -56 -83 -31 -38 -92 -123 -135 -189 -87
-133 -88 -146 -13 -146 71 0 90 12 113 74 28 76 110 244 165 340 25 44 46 83
46 88 0 4 -79 8 -175 8 l-175 0 -10 -26z"/>
</g>
</svg>
