<?xml version="1.0" encoding="UTF-8" standalone="no"?>
<!-- Created with Inkscape (http://www.inkscape.org/) -->

<svg
   xmlns:osb="http://www.openswatchbook.org/uri/2009/osb"
   xmlns:dc="http://purl.org/dc/elements/1.1/"
   xmlns:cc="http://creativecommons.org/ns#"
   xmlns:rdf="http://www.w3.org/1999/02/22-rdf-syntax-ns#"
   xmlns:svg="http://www.w3.org/2000/svg"
   xmlns="http://www.w3.org/2000/svg"
   xmlns:sodipodi="http://sodipodi.sourceforge.net/DTD/sodipodi-0.dtd"
   xmlns:inkscape="http://www.inkscape.org/namespaces/inkscape"
   id="svg3055"
   version="1.1"
   inkscape:version="0.48.3.1 r9886"
   width="327"
   height="636"
   sodipodi:docname="j80.svg">
  <metadata
     id="metadata3061">
    <rdf:RDF>
      <cc:Work
         rdf:about="">
        <dc:format>image/svg+xml</dc:format>
        <dc:type
           rdf:resource="http://purl.org/dc/dcmitype/StillImage" />
      </cc:Work>
    </rdf:RDF>
  </metadata>
  <defs
     id="defs3059">
    <linearGradient
       id="linearGradient5289"
       osb:paint="solid">
      <stop
         style="stop-color:#001e49;stop-opacity:1;"
         offset="0"
         id="stop5291" />
    </linearGradient>
  </defs>
  <sodipodi:namedview
     pagecolor="#ffffff"
     bordercolor="#666666"
     borderopacity="1"
     objecttolerance="10"
     gridtolerance="10"
     guidetolerance="10"
     inkscape:pageopacity="0"
     inkscape:pageshadow="2"
     inkscape:window-width="1363"
     inkscape:window-height="715"
     id="namedview3057"
     showgrid="false"
     inkscape:zoom="0.30908127"
     inkscape:cx="85.884302"
     inkscape:cy="716.9918"
     inkscape:window-x="1"
     inkscape:window-y="29"
     inkscape:window-maximized="1"
     inkscape:current-layer="svg3055" />
  <path
     style="fill:#001e49;stroke:#001e49;stroke-width:1px;stroke-linecap:butt;stroke-linejoin:miter;stroke-opacity:1;fill-opacity:1"
     d="m 24.593525,360.60971 253.370505,0.28597 0.57194,38.03418 -253.656474,0.28597 z"
     id="path3065"
     inkscape:connector-curvature="0" />
  <path
     style="fill:#001e49;fill-opacity:1;stroke:#001e49;stroke-width:1px;stroke-linecap:butt;stroke-linejoin:miter;stroke-opacity:1"
     d="m 200.89632,629.92793 16.22753,-1.76936 18.14854,-8.89734 9.45342,-7.38074 10.51504,-10.91946 12.33494,-20.82786 11.32388,-29.11855 5.66194,-32.15174 1.01107,-22.24334 -1.21328,-24.8721 -2.83097,-13.95264 -6.673,-16.5814 -8.89734,-13.34601 -10.11061,-8.08848 -7.05252,-3.62648 -7.86421,-2.71673 -9.00809,-1.0009 -12.51124,1.14388 -10.86691,3.71763 -10.86691,5.43345 -10.50944,8.72213 -8.43615,11.08138 -10.58093,17.51574 -7.22078,17.08678 -5.00449,15.65692 -4.0036,16.22887 -2.07329,14.8705 -1.35837,18.80261 0.64344,18.58813 1.0009,11.86781 2.9312,14.01259 3.86062,10.15198 5.9339,11.36735 6.86331,7.72122 4.21807,3.36017 4.71853,3.71762 4.86151,2.78822 4.71852,2.14479 6.14839,1.57284 z"
     id="path3839"
     inkscape:connector-curvature="0" />
  <path
     inkscape:connector-curvature="0"
     id="use5305"
     d="m 207.06528,612.54339 -1.88093,-0.13602 -3.57464,-1.0009 -2.57374,-2.85971 -1.0009,-3.57464 -1.28687,-11.58183 -0.42896,-18.15917 1.85882,-15.44245 2.0018,-22.59173 4.00359,-28.88309 3.28867,-26.8813 3.57464,-24.45054 2.85972,-13.72661 1.85881,-4.71853 2.28777,-3.43165 2.28777,-2.28777 2.71672,-1.28687 3.28867,-0.85792 3.86061,0.71493 2.0018,1.0009 1.71583,2.14478 2.14478,4.0036 1.42986,4.86151 -0.28597,8.86511 0.28597,15.44244 -1.0009,12.0108 -1.85881,16.8723 -2.71673,23.59262 -3.86061,32.8867 -6.43435,43.75359 -3.43166,10.009 -3.57464,4.14658 -3.14568,1.0009 -3.0027,0.57194 z"
     style="fill:#ffffff;fill-opacity:1;stroke:#001e49;stroke-width:1px;stroke-linecap:butt;stroke-linejoin:miter;stroke-opacity:1" />
  <path
     style="fill:#001e49;stroke:#001e49;stroke-width:1px;stroke-linecap:butt;stroke-linejoin:miter;stroke-opacity:1;fill-opacity:1"
     d="m 99.375,507.38444 6.0054,6.14838 10.00899,10.86691 5.43345,6.86331 6.29137,14.44155 1.0009,5.50494 1.07239,10.58094 -0.50045,8.65063 -1.64433,9.65153 -3.21718,10.15197 -4.28957,7.79272 -5.79092,7.50674 -3.50314,4.14659 -6.72033,5.64793 -5.9339,4.79002 -7.578237,3.36016 -6.648831,2.78822 -6.791817,1.85881 -7.506744,1.42986 -5.07599,0.42895 -9.079586,-0.28597 -8.436151,-0.85791 -8.007194,-2.07329 -7.149281,-3.14569 -7.935701,-5.50494 -5.07599,-4.28957 -6.577338,-9.72302 -3.1456833,-5.86241 -2.2877698,-10.08049 -0.714928,-8.9366 -0.2144785,-9.07958 2.216277,-7.07779 4.2895686,-11.08139 6.863309,-10.9384 4.361061,-5.21897 5.790918,-5.71943 6.863309,-4.79001 5.36196,-4.14659 2.931205,-2.21627 -2.859712,-3.28867 -6.219874,-8.22168 -6.720324,-11.36735 -3.431654,-9.29407 -2.645234,-10.8669 0.643435,-12.51124 2.502248,-13.08319 5.933903,-11.79631 7.006295,-8.43615 9.580036,-7.22077 9.151079,-4.64704 9.723022,-2.71672 8.15018,-1.57285 7.292266,-0.35746 11.081385,0.42896 5.36196,1.71583 10.151981,3.78911 5.57644,3.78912 6.00539,5.50495 5.64793,7.86421 4.43256,10.15198 1.57284,9.50854 -0.64344,10.65243 -2.64523,8.36466 -3.64613,8.79361 -3.50315,4.71853 -4.28957,5.36196 -6.14838,5.14748 -4.50405,3.36016 -4.43255,2.57374 -2.502249,1.42986 z"
     id="path5330"
     inkscape:connector-curvature="0" />
  <path
     style="fill:#ffffff;stroke:#001e49;stroke-width:1px;stroke-linecap:butt;stroke-linejoin:miter;stroke-opacity:1;fill-opacity:1"
     d="m 85.434651,493.74372 -4.14535,-3.4376 -4.14535,-4.34757 -5.206964,-7.93682 -4.297009,-9.60508 -1.516591,-9.75674 -0.707743,-7.78517 1.061614,-7.83572 2.98263,-7.83573 3.842031,-3.28594 4.600328,-0.85941 4.448668,1.36494 3.336501,2.78041 1.415485,4.8531 2.4771,7.07742 1.263826,8.64457 0.404424,11.02057 0.454978,8.74568 -0.758296,7.07742 -1.213273,5.51028 -2.022122,3.9937 z"
     id="path5332"
     inkscape:connector-curvature="0" />
  <path
     style="fill:#ffffff;stroke:#001e49;stroke-width:1px;stroke-linecap:butt;stroke-linejoin:miter;stroke-opacity:1;fill-opacity:1"
     d="m 58.136005,532.56846 1.516591,0.20222 3.235396,4.14535 7.785169,7.58295 5.864153,7.38075 4.448669,8.18959 2.426546,7.17853 1.011061,7.68407 0.50553,5.76305 -0.909954,6.36968 -1.112168,5.76305 -2.123228,6.16747 -4.448668,6.77411 -5.055305,4.44867 -4.549774,1.51659 -3.336501,0.1011 -4.044244,-0.20221 -4.246456,-2.52765 -4.347562,-5.05531 -2.628758,-8.79623 -1.415486,-10.41392 -0.101106,-9.9084 0.606637,-10.21172 1.112167,-10.61614 2.224334,-9.09955 3.235395,-6.97632 1.921016,-4.04424 z"
     id="path5334"
     inkscape:connector-curvature="0" />
  <path
     style="fill:#001e49;stroke:#001e49;stroke-width:1px;stroke-linecap:butt;stroke-linejoin:miter;stroke-opacity:1;fill-opacity:1"
     d="m 129.83094,348.16996 21.01888,0.14299 20.16097,-1.85881 19.01709,-4.57554 18.8741,-7.14928 17.30126,-9.72303 12.15377,-10.58093 6.86331,-8.43615 4.57554,-8.86511 5.0045,-12.01079 1.57284,-8.57914 2.0018,-19.44604 12.58934,-104.77969 11.7283,-97.061853 1.76936,-5.611389 2.98263,-4.398115 5.25752,-2.780418 7.33019,-2.932077 6.52134,-3.943138 3.89259,-4.549774 2.5782,-5.661941 1.16272,-4.853093 -0.20221,-8.947889 -1.76936,-6.7741088 -130.12354,0 -2.93208,5.4597298 -3.23539,8.79623 1.01106,10.818352 3.79148,4.448668 5.9147,3.589267 5.15641,3.083736 3.74093,4.853092 0.45498,3.336501 -26.13593,212.3228 -1.31438,9.70619 -2.52765,8.49291 -2.93208,6.97632 -3.74092,6.36968 -4.65088,5.56084 -5.56084,4.75199 -7.27964,3.63981 -5.35862,1.71881 -7.68406,1.01106 -11.32389,-0.30332 -11.22277,-1.92101 -8.189597,-4.34757 -3.740926,-4.44867 -2.83097,-6.06636 -0.808849,-8.49291 1.011061,-9.09955 3.235395,-5.96526 4.751986,-4.04425 6.5719,-2.22433 10.0095,-2.02212 7.38075,-1.41549 5.76304,-1.61769 6.06637,-3.13429 5.15641,-4.14535 3.94314,-6.26858 1.81991,-5.76305 0.1011,-8.49291 0,-4.65088 -2.12323,-5.66194 -2.32544,-2.93208 -3.03318,-3.43761 -3.63982,-3.03318 -5.66194,-2.42655 -5.35862,-2.12322 -6.5719,-1.31438 -9.20065,-0.80885 -11.829416,-0.10111 -6.167472,0.20221 -8.2907,2.02213 -8.695124,3.4376 -9.807292,5.45973 -7.279639,5.96526 -5.459729,6.26858 -5.965259,8.2907 -2.932077,5.86415 -3.336501,6.26858 -3.033183,8.79623 -1.213273,9.50398 -1.112167,9.70618 1.213273,11.42499 4.347562,12.84047 4.044244,10.21172 7.077426,9.40287 7.279639,7.17853 10.312822,7.48185 7.987382,4.44867 12.334943,4.9542 7.582958,2.02212 14.963703,2.72986 12.63826,0.70775 z"
     id="path5336"
     inkscape:connector-curvature="0" />
</svg>
