<?xml version="1.0" standalone="no"?>
<!DOCTYPE svg PUBLIC "-//W3C//DTD SVG 20010904//EN"
 "http://www.w3.org/TR/2001/REC-SVG-20010904/DTD/svg10.dtd">
<svg version="1.0" xmlns="http://www.w3.org/2000/svg"
 width="3000.000000pt" height="859.000000pt" viewBox="0 0 3000.000000 859.000000"
 preserveAspectRatio="xMidYMid meet">
<metadata>
Created by potrace 1.11, written by Peter Selinger 2001-2013
</metadata>
<g transform="translate(0.000000,859.000000) scale(0.100000,-0.100000)"
fill="#000000" stroke="none">
<path d="M21690 7583 c-85 -136 -166 -264 -179 -286 l-23 -39 1128 7 c1204 8
1192 8 1240 -40 38 -38 31 -78 -37 -229 -88 -196 -139 -246 -266 -261 -26 -3
-426 -23 -888 -45 -462 -22 -880 -44 -930 -50 -152 -17 -286 -59 -395 -125
-129 -78 -273 -259 -383 -480 -53 -108 -717 -1597 -717 -1609 0 -3 833 -5
1852 -4 l1851 3 149 230 c81 127 162 252 178 278 l30 48 -1210 -3 c-665 -2
-1210 -2 -1210 0 0 1 48 109 106 240 141 314 180 371 274 400 19 6 393 27 830
46 930 41 948 42 1054 62 322 60 498 191 674 498 46 82 407 890 442 992 61
176 66 309 15 403 -51 92 -138 144 -310 182 l-100 23 -1510 3 -1510 4 -155
-248z m298 -950 c-21 -2 -55 -2 -75 0 -21 2 -4 4 37 4 41 0 58 -2 38 -4z"/>
<path d="M26620 7814 c-322 -34 -606 -159 -821 -361 -133 -126 -279 -328 -385
-536 -72 -140 -765 -1585 -816 -1700 -62 -143 -91 -263 -91 -392 -1 -92 3
-120 22 -169 44 -110 146 -184 311 -222 69 -17 173 -18 1275 -22 871 -2 1230
0 1309 8 491 53 839 293 1126 780 64 108 821 1677 887 1840 119 289 116 516
-8 639 -43 43 -132 87 -232 113 l-82 22 -1230 2 c-676 0 -1246 0 -1265 -2z
m1362 -565 c63 -14 108 -54 108 -96 0 -44 -943 -1995 -995 -2059 -20 -24 -56
-55 -79 -69 -82 -48 -148 -55 -553 -55 -396 0 -454 5 -497 45 -43 39 -35 78
45 244 39 80 254 524 476 986 223 462 419 860 437 884 38 54 113 97 198 116
82 18 780 21 860 4z"/>
<path d="M17305 7799 c-374 -5 -2896 -13 -5605 -18 -3257 -6 -4972 -13 -5065
-20 -436 -33 -717 -69 -996 -127 -1188 -248 -1957 -862 -2587 -2064 -136 -259
-309 -659 -351 -812 -71 -253 -68 -494 8 -670 126 -293 463 -510 1006 -647
517 -130 1020 -182 2585 -271 550 -31 660 -40 768 -65 107 -25 162 -65 162
-117 0 -128 -188 -427 -388 -619 -240 -231 -501 -351 -902 -416 -96 -16 -299
-17 -2437 -20 l-2332 -4 -12 -42 c-6 -23 -11 -80 -11 -127 2 -211 112 -441
301 -630 146 -145 307 -243 491 -300 189 -58 31 -55 2735 -55 2362 0 2508 1
2640 18 523 68 972 233 1384 508 366 244 657 534 907 904 188 278 272 449 498
1017 91 229 198 492 237 585 83 196 114 281 136 378 21 95 21 263 0 345 -98
379 -512 639 -1200 755 -212 35 -238 37 -1923 150 -974 65 -1570 108 -1587
116 -29 13 -57 63 -57 103 0 26 80 173 152 278 91 136 199 253 313 343 253
197 529 284 1050 326 110 9 718 14 2260 18 l2110 6 484 318 c266 175 485 316
488 314 2 -3 -246 -557 -550 -1233 -305 -676 -961 -2129 -1457 -3229 -497
-1100 -905 -2008 -907 -2018 -5 -16 147 -17 3088 -17 2940 0 3562 5 3884 30
519 40 925 120 1274 251 239 90 563 271 734 410 323 265 563 569 763 969 158
318 474 1112 508 1282 64 312 -68 536 -389 663 -87 34 -269 80 -355 90 -93 10
-100 18 -33 39 300 94 556 352 752 756 78 160 436 1080 475 1218 43 153 50
203 50 352 0 108 -4 162 -18 210 -118 432 -557 671 -1386 755 -200 21 -790 26
-1695 14z m-186 -1187 c177 -47 303 -137 363 -259 28 -57 32 -75 32 -147 0
-44 -6 -99 -13 -121 -14 -41 -263 -579 -334 -720 -79 -158 -167 -264 -256
-309 -116 -59 -116 -59 -842 -63 l-667 -4 -708 -565 c-390 -311 -718 -574
-729 -585 -19 -19 -4 -19 1355 -19 1166 0 1385 -3 1444 -15 175 -37 225 -106
177 -246 -10 -30 -123 -299 -250 -599 -244 -573 -271 -624 -368 -710 -148
-132 -367 -231 -649 -292 -98 -22 -108 -22 -1376 -25 l-1276 -4 80 178 c44 98
297 664 563 1258 759 1699 1050 2342 1070 2365 7 8 97 204 200 435 103 231
194 433 202 448 l14 28 942 -4 c939 -3 942 -3 1026 -25z"/>
</g>
</svg>
