<?xml version="1.0" standalone="no"?>
<!DOCTYPE svg PUBLIC "-//W3C//DTD SVG 20010904//EN"
 "http://www.w3.org/TR/2001/REC-SVG-20010904/DTD/svg10.dtd">
<svg version="1.0" xmlns="http://www.w3.org/2000/svg"
 width="360.000000pt" height="51.000000pt" viewBox="0 0 360.000000 51.000000"
 preserveAspectRatio="xMidYMid meet">
<metadata>
Created by potrace 1.11, written by Peter Selinger 2001-2013
</metadata>
<g transform="translate(0.000000,51.000000) scale(0.100000,-0.100000)"
fill="#000000" stroke="none">
<path d="M3413 475 c-25 -17 -47 -72 -32 -80 5 -4 11 0 13 7 2 7 7 21 10 31 3
9 15 17 27 17 19 0 21 -4 15 -32 -3 -17 -26 -52 -50 -78 -42 -45 -64 -85 -52
-97 3 -3 24 -6 48 -7 33 -1 43 3 46 17 3 14 -4 17 -32 17 -45 0 -45 12 0 47
19 15 42 40 50 55 17 33 18 90 2 106 -15 15 -19 15 -45 -3z"/>
<path d="M3508 400 c-56 -94 -60 -115 -22 -107 25 4 26 3 21 -30 -4 -24 -2
-33 6 -30 7 2 14 12 15 23 2 10 11 24 19 31 10 8 13 18 8 30 -12 27 -12 34 2
82 15 50 17 81 6 81 -5 0 -29 -36 -55 -80z m22 -27 c-1 -25 -14 -53 -26 -53
-17 0 -17 1 -4 34 9 24 30 37 30 19z"/>
<path d="M2035 319 c-75 -5 -114 -13 -155 -32 -97 -44 -160 -122 -133 -166 5
-9 27 -25 49 -36 34 -18 57 -20 199 -19 l159 1 33 39 c19 22 43 51 54 67 l20
27 -118 0 c-107 0 -119 -2 -131 -20 -12 -19 -10 -20 45 -20 l56 0 -23 -25
c-51 -55 -210 -40 -210 20 0 25 63 88 108 107 57 26 171 27 189 2 9 -12 27
-16 68 -16 63 -1 74 5 59 30 -23 37 -115 51 -269 41z"/>
<path d="M141 198 l-101 -123 57 -3 c64 -3 60 -7 170 135 26 34 52 62 57 62 4
1 6 -14 3 -31 -3 -18 -9 -63 -13 -100 l-6 -68 57 0 c55 0 64 4 179 77 67 42
129 83 139 91 41 35 24 -2 -38 -82 l-66 -86 70 0 70 0 88 116 c48 63 89 119
91 125 2 5 -41 9 -104 9 l-107 0 -105 -67 c-58 -38 -112 -72 -120 -77 -13 -7
-14 3 -10 68 l5 76 -108 0 -107 0 -101 -122z"/>
<path d="M920 203 c-52 -64 -96 -121 -98 -125 -2 -4 82 -8 187 -8 180 0 191 1
201 20 10 19 8 20 -105 20 -63 0 -115 2 -115 5 0 3 10 19 22 35 l22 30 118 0
c106 0 118 2 128 20 10 19 6 19 -100 22 l-110 3 25 28 c25 27 28 27 145 27
109 0 120 2 130 20 11 20 8 20 -172 20 l-183 0 -95 -117z"/>
<path d="M1369 203 c-52 -64 -95 -121 -97 -125 -2 -4 79 -8 181 -8 171 0 185
1 202 20 18 20 17 20 -93 20 -62 0 -112 3 -112 6 0 4 34 49 75 100 41 51 75
96 75 99 0 3 -31 5 -68 5 l-68 0 -95 -117z"/>
<path d="M2375 233 c-38 -47 -83 -103 -98 -124 l-29 -39 189 0 c183 0 213 5
213 32 0 4 -52 8 -115 8 -63 0 -115 3 -115 8 0 4 11 20 25 35 25 26 29 27 138
27 102 0 113 2 125 21 13 20 12 20 -90 18 -57 -1 -105 0 -107 2 -3 2 3 16 13
32 l18 27 124 0 c113 0 124 2 134 20 11 20 8 20 -172 19 l-183 0 -70 -86z"/>
<path d="M2925 311 c-52 -13 -95 -40 -95 -61 0 -27 32 -45 127 -70 45 -12 87
-28 93 -35 18 -22 -27 -39 -103 -40 -54 0 -71 4 -81 18 -18 23 -141 25 -150 2
-9 -24 37 -46 120 -58 140 -19 342 19 361 69 9 23 -24 51 -75 63 -112 28 -152
42 -152 56 0 30 134 40 155 11 9 -12 29 -16 79 -16 59 0 67 2 64 18 -7 37 -65
52 -193 51 -66 -1 -133 -4 -150 -8z"/>
</g>
</svg>
