<?xml version="1.0" encoding="UTF-8" standalone="no"?>
<!-- Created with Inkscape (http://www.inkscape.org/) -->

<svg
   xmlns:dc="http://purl.org/dc/elements/1.1/"
   xmlns:cc="http://creativecommons.org/ns#"
   xmlns:rdf="http://www.w3.org/1999/02/22-rdf-syntax-ns#"
   xmlns:svg="http://www.w3.org/2000/svg"
   xmlns="http://www.w3.org/2000/svg"
   xmlns:sodipodi="http://sodipodi.sourceforge.net/DTD/sodipodi-0.dtd"
   xmlns:inkscape="http://www.inkscape.org/namespaces/inkscape"
   id="svg2"
   version="1.1"
   inkscape:version="0.48.0 r9654"
   width="158"
   height="158"
   sodipodi:docname="std_016Classe Mini.jpg.2011_08_21_04_15_14.0.svg">
  <metadata
     id="metadata8">
    <rdf:RDF>
      <cc:Work
         rdf:about="">
        <dc:format>image/svg+xml</dc:format>
        <dc:type
           rdf:resource="http://purl.org/dc/dcmitype/StillImage" />
        <dc:title></dc:title>
      </cc:Work>
    </rdf:RDF>
  </metadata>
  <defs
     id="defs6">
    <filter
       id="filter4131"
       inkscape:label="Drop shadow"
       width="1.5"
       height="1.5"
       x="-0.25"
       y="-0.25"
       color-interpolation-filters="sRGB">
      <feGaussianBlur
         id="feGaussianBlur4133"
         in="SourceAlpha"
         stdDeviation="6"
         result="blur" />
      <feColorMatrix
         id="feColorMatrix4135"
         result="bluralpha"
         type="matrix"
         values="1 0 0 0 0 0 1 0 0 0 0 0 1 0 0 0 0 0 0.7 0 " />
      <feOffset
         id="feOffset4137"
         in="bluralpha"
         dx="0"
         dy="0"
         result="offsetBlur" />
      <feMerge
         id="feMerge4139">
        <feMergeNode
           id="feMergeNode4141"
           in="offsetBlur" />
        <feMergeNode
           id="feMergeNode4143"
           in="SourceGraphic" />
      </feMerge>
    </filter>
  </defs>
  <sodipodi:namedview
     pagecolor="#ffffff"
     bordercolor="#666666"
     borderopacity="1"
     objecttolerance="10"
     gridtolerance="10"
     guidetolerance="10"
     inkscape:pageopacity="0"
     inkscape:pageshadow="2"
     inkscape:window-width="1920"
     inkscape:window-height="1128"
     id="namedview4"
     showgrid="false"
     inkscape:zoom="3.4142857"
     inkscape:cx="17.673085"
     inkscape:cy="82.14619"
     inkscape:window-x="0"
     inkscape:window-y="24"
     inkscape:window-maximized="1"
     inkscape:current-layer="svg2"
     fit-margin-top="0" />
  <text
     xml:space="preserve"
     style="font-size:40px;font-style:normal;font-weight:normal;line-height:125%;letter-spacing:0px;word-spacing:0px;fill:#000000;fill-opacity:1;stroke:none;font-family:Switzera ADF Extra Bold;-inkscape-font-specification:Switzera ADF Extra Bold"
     x="-149.35565"
     y="95.640167"
     id="text3771"
     sodipodi:linespacing="125%"><tspan
       sodipodi:role="line"
       id="tspan3773"
       x="-149.35565"
       y="95.640167" /></text>
  <g
     id="g4164"
     transform="translate(8.2485629,-2.1272452)">
    <path
       transform="matrix(-0.73325739,0,0,0.73325739,136.61291,9.7419349)"
       d="m 186.30962,98.54393 c 0,52.72355 -42.74088,95.46443 -95.464428,95.46443 -52.72355,0 -95.4644318,-42.74088 -95.4644318,-95.46443 0,-52.72355 42.7408818,-95.4644317 95.4644318,-95.4644317 52.723548,0 95.464428,42.7408817 95.464428,95.4644317 z"
       sodipodi:ry="95.464432"
       sodipodi:rx="95.464432"
       sodipodi:cy="98.54393"
       sodipodi:cx="90.845192"
       id="path2987"
       style="fill:#ff0e00;fill-opacity:1;filter:url(#filter4131)"
       sodipodi:type="arc" />
    <path
       transform="translate(0,12)"
       d="m 60.163248,82.943291 c 0,2.859487 -2.318073,5.17756 -5.177561,5.17756 -2.859487,0 -5.17756,-2.318073 -5.17756,-5.17756 0,-2.859488 2.318073,-5.177561 5.17756,-5.177561 2.859488,0 5.177561,2.318073 5.177561,5.177561 z"
       sodipodi:ry="5.1775603"
       sodipodi:rx="5.1775603"
       sodipodi:cy="82.943291"
       sodipodi:cx="54.985687"
       id="path2985"
       style="fill:#ffffff;fill-opacity:1"
       sodipodi:type="arc" />
    <text
       sodipodi:linespacing="125%"
       id="text2998"
       y="116.37838"
       x="22.781273"
       style="font-size:40px;font-style:normal;font-variant:normal;font-weight:bold;font-stretch:normal;line-height:125%;letter-spacing:-0.31999999px;word-spacing:0px;fill:#ffffff;fill-opacity:1;stroke:none;font-family:Arial;-inkscape-font-specification:Arial Bold"
       xml:space="preserve"><tspan
         style="font-size:20px;font-style:normal;font-variant:normal;font-weight:bold;font-stretch:normal;letter-spacing:-0.31999999px;fill:#ffffff;font-family:Arial;-inkscape-font-specification:Arial Bold"
         y="116.37838"
         x="22.781273"
         id="tspan3000"
         sodipodi:role="line"><tspan
   id="tspan3006"
   style="font-weight:normal;letter-spacing:-0.31999999px;-inkscape-font-specification:Arial">classe</tspan>mini</tspan></text>
    <path
       sodipodi:nodetypes="cccsssccscccccc"
       inkscape:connector-curvature="0"
       id="path2989"
       d="m 61.71651,49.277208 0,26.819762 5.438163,1.457151 c 0,0 2.328177,-3.321073 7.195083,-3.321073 4.866907,0 7.041482,3.934946 6.730829,9.526711 -0.310654,5.591764 -4.239595,8.057082 -7.869892,7.826998 C 65.998535,91.12966 61.88072,90.058615 61.88072,90.058615 l 0.07322,7.710885 c 0,0 22.198611,6.09757 27.410739,-5.725645 5.389866,-12.226402 -2.003006,-22.513504 -2.003006,-22.513504 0,0 -6.747703,-6.182742 -16.325557,-1.43195 0,-5.798866 0.103551,-10.226442 0.103551,-10.226442 l 18.565995,0.128677 0.07322,-8.723428 z"
       style="fill:#ffffff;fill-opacity:1;stroke:none" />
    <path
       inkscape:connector-curvature="0"
       id="path3808"
       d="m 107.05122,48.716196 c 0,0 -15.12225,-0.157165 -15.781246,17.5625 -0.576622,15.504707 -0.293831,16.946375 -0.21875,17.0625 0,0 0.59387,16.158783 15.999996,15.8125 15.40613,0.385934 15.84375,-15.71875 15.84375,-15.71875 0,0 0.5965,0.594665 -0.0625,-17.125 -0.65899,-17.719665 -15.78125,-17.59375 -15.78125,-17.59375 z m -0.21875,7.125 c 5.97716,-0.05815 5.84375,10.9375 5.84375,10.9375 0,0 0.19822,-2.351464 0.125,12 -0.071,13.909881 -5.59456,13.506376 -5.9375,13.46875 0,0 -5.92677,0.851465 -6,-13.5 -0.0732,-14.351464 0.15625,-12 0.15625,-12 0,0 -0.16466,-10.994545 5.8125,-10.90625 z"
       style="fill:#ffffff;fill-opacity:1;stroke:none" />
    <path
       sodipodi:nodetypes="sscscccccssssscs"
       inkscape:connector-curvature="0"
       id="path4159"
       d="m 36.729635,49.07784 c -3.50395,0.09101 -7.53066,0.937108 -11.375,3.5 -10.25157,6.834379 -8.46875,29.625 -8.46875,29.625 0.0391,0.07817 -1.24741,18.27043 18.67678,17.061585 C 55.790767,98.037136 49.323312,74.252922 49.374243,74.151062 50.443567,73.88373 42.648205,59.69023 27.198385,69.51534 c -0.20711,-11.908387 7.90625,-12.78125 7.90625,-12.78125 0,0 7.46335,-1.573439 11.812495,1.84375 l 0.09375,-7.65625 c 0,0 -4.441325,-1.995436 -10.281245,-1.84375 z m -2.81433,24.239278 c 2.83715,-0.215451 6.51906,1.31712 6.9813,7.186846 0.56521,7.177153 -1.27622,9.38198 -4.16789,11.147098 -0.90137,0.550207 -7.1115,1.459005 -8.57322,-2.638468 -2.19414,-6.150627 -1.50185,-11.280073 -1.31158,-13.623169 0.0311,0.24872 3.42362,-1.795299 7.07139,-2.072307 z"
       style="fill:#ffffff;fill-opacity:1;stroke:none" />
  </g>
</svg>
