<?xml version="1.0" standalone="no"?>
<!DOCTYPE svg PUBLIC "-//W3C//DTD SVG 20010904//EN"
 "http://www.w3.org/TR/2001/REC-SVG-20010904/DTD/svg10.dtd">
<svg version="1.0" xmlns="http://www.w3.org/2000/svg"
 width="285.000000pt" height="167.000000pt" viewBox="0 0 285.000000 167.000000"
 preserveAspectRatio="xMidYMid meet">
<metadata>
Created by potrace 1.11, written by Peter Selinger 2001-2013
</metadata>
<g transform="translate(0.000000,167.000000) scale(0.100000,-0.100000)"
fill="#000000" stroke="none">
<path d="M2755 1650 c-23 -25 -13 -67 20 -82 53 -24 100 46 57 85 -25 23 -55
21 -77 -3z m77 -15 c10 -22 9 -29 -9 -46 -38 -38 -89 3 -63 51 16 29 58 26 72
-5z"/>
<path d="M2793 1644 c21 -7 22 -21 2 -26 -13 -2 -13 -5 3 -14 16 -10 18 -8 17
15 0 18 -6 26 -20 28 -16 1 -16 1 -2 -3z"/>
<path d="M2467 1596 c-77 -28 -144 -97 -172 -175 -62 -177 73 -370 260 -371
80 0 149 26 201 76 60 59 77 97 82 185 4 66 1 84 -20 130 -29 63 -74 111 -132
141 -52 27 -165 34 -219 14z m146 -140 c52 -22 79 -59 84 -113 14 -156 -188
-212 -260 -73 -34 66 -6 147 64 182 41 22 69 23 112 4z"/>
<path d="M1620 1584 c-48 -20 -90 -85 -90 -140 0 -60 33 -103 106 -139 34 -16
69 -36 78 -44 36 -30 6 -91 -46 -91 -14 0 -42 11 -62 25 -20 14 -40 25 -44 25
-4 0 -19 -18 -34 -39 l-27 -38 22 -20 c105 -97 291 -69 336 50 25 64 5 147
-43 185 -15 11 -48 29 -74 38 -63 23 -90 49 -76 72 12 18 83 23 115 9 11 -6
23 3 42 30 32 45 25 57 -46 78 -63 19 -111 18 -157 -1z"/>
<path d="M216 1338 c-113 -139 -206 -257 -206 -261 0 -4 44 -6 97 -5 l98 3
125 154 125 153 3 -156 3 -156 69 0 69 0 95 118 c52 64 110 135 130 157 l35
40 1 -157 0 -158 70 0 70 0 0 260 0 260 -92 -1 -93 0 -100 -124 -100 -124 -3
124 -3 125 -94 0 -94 0 -205 -252z"/>
<path d="M1050 1406 c0 -200 6 -233 52 -282 39 -42 99 -58 192 -52 91 6 136
31 165 92 19 38 21 61 21 234 l0 192 -70 0 -70 0 0 -169 c0 -212 -9 -241 -75
-241 -66 0 -75 29 -75 241 l0 169 -70 0 -70 0 0 -184z"/>
<path d="M1890 1530 l0 -59 63 -3 62 -3 3 -197 2 -198 70 0 70 0 0 200 0 200
65 0 65 0 0 60 0 60 -200 0 -200 0 0 -60z"/>
<path d="M0 925 l0 -25 1420 0 1420 0 0 25 0 25 -1420 0 -1420 0 0 -25z"/>
<path d="M0 710 c0 -56 3 -70 15 -70 9 0 15 9 15 25 0 19 5 25 23 25 44 0 62
43 31 74 -8 9 -31 16 -50 16 l-34 0 0 -70z m68 23 c-5 -26 -38 -29 -38 -4 0
15 6 21 21 21 14 0 19 -5 17 -17z"/>
<path d="M270 710 l0 -70 45 0 c25 0 45 5 45 10 0 6 -13 10 -30 10 -23 0 -30
4 -30 20 0 15 7 20 25 20 14 0 25 5 25 10 0 6 -11 10 -25 10 -16 0 -25 6 -25
15 0 10 10 15 30 15 20 0 30 5 30 15 0 11 -12 15 -45 15 l-45 0 0 -70z"/>
<path d="M540 710 c0 -40 4 -70 10 -70 6 0 10 11 10 25 0 14 6 25 13 25 8 0
19 -11 25 -25 6 -14 19 -25 27 -25 14 0 14 3 1 29 -14 26 -14 30 -1 41 33 27
0 70 -53 70 l-32 0 0 -70z m70 25 c0 -9 -9 -15 -25 -15 -16 0 -25 6 -25 15 0
9 9 15 25 15 16 0 25 -6 25 -15z"/>
<path d="M817 773 c-4 -3 -7 -35 -7 -70 0 -49 3 -63 15 -63 9 0 15 9 15 24 0
19 6 25 27 28 39 4 42 28 4 28 -21 0 -31 5 -31 15 0 10 10 15 30 15 20 0 30 5
30 15 0 11 -11 15 -38 15 -21 0 -42 -3 -45 -7z"/>
<path d="M1088 769 c-13 -7 -18 -23 -18 -57 0 -54 12 -72 50 -72 37 0 50 18
50 65 0 61 -38 90 -82 64z m50 -61 c-3 -47 -21 -60 -38 -28 -16 31 -5 70 21
70 18 0 20 -5 17 -42z"/>
<path d="M1350 710 c0 -40 4 -70 10 -70 6 0 10 11 10 25 0 15 6 25 15 25 8 0
17 -11 21 -25 4 -16 13 -25 25 -25 18 0 19 2 4 30 -9 17 -11 30 -6 30 5 0 11
9 14 21 7 28 -25 59 -63 59 l-30 0 0 -70z m65 25 c0 -5 -10 -11 -22 -13 -16
-2 -23 2 -23 13 0 11 7 15 23 13 12 -2 22 -7 22 -13z"/>
<path d="M1620 710 c0 -56 3 -70 15 -70 11 0 15 11 16 38 0 34 1 35 11 15 6
-13 16 -23 23 -23 7 0 17 10 23 23 10 20 11 19 11 -15 1 -27 5 -38 16 -38 12
0 15 14 15 70 0 80 -15 93 -43 34 -19 -39 -29 -38 -47 6 -23 55 -40 38 -40
-40z"/>
<path d="M1941 715 c-23 -64 -22 -90 1 -67 15 15 58 16 58 2 0 -5 7 -10 16
-10 12 0 15 6 10 24 -10 42 -45 116 -54 116 -4 0 -19 -29 -31 -65z m49 -22 c0
-7 -7 -13 -15 -13 -16 0 -19 9 -9 35 5 13 8 14 15 3 5 -7 9 -19 9 -25z"/>
<path d="M2200 710 c0 -56 3 -70 15 -70 11 0 15 11 15 37 l0 38 25 -38 c41
-59 56 -50 53 30 -2 42 -8 68 -15 71 -9 2 -13 -9 -13 -39 l0 -42 -30 41 c-17
23 -35 42 -40 42 -6 0 -10 -30 -10 -70z"/>
<path d="M2500 760 c-22 -22 -26 -70 -10 -101 13 -24 78 -27 87 -4 8 22 -4 30
-22 15 -24 -20 -45 -5 -45 35 0 38 22 57 43 36 15 -15 27 -14 27 4 0 14 -29
35 -49 35 -6 0 -20 -9 -31 -20z"/>
<path d="M2760 710 l0 -70 45 0 c25 0 45 5 45 10 0 6 -16 10 -36 10 -28 0 -35
3 -32 18 2 10 14 18 31 20 37 4 35 22 -3 22 -20 0 -30 5 -30 15 0 10 11 15 35
15 24 0 35 5 35 15 0 11 -12 15 -45 15 l-45 0 0 -70z"/>
<path d="M148 486 c-90 -24 -147 -93 -131 -158 8 -32 52 -77 91 -94 18 -7 81
-23 140 -34 118 -23 161 -42 142 -65 -28 -34 -137 -30 -168 6 -14 16 -30 19
-119 19 -113 0 -117 -2 -84 -57 13 -20 42 -42 84 -63 137 -67 381 -46 467 40
20 20 20 20 20 -25 l0 -45 110 0 110 0 0 79 c0 74 2 80 26 96 14 9 29 13 33 8
4 -4 40 -47 80 -95 l73 -88 130 0 130 0 -60 68 c-33 37 -92 103 -131 147 -39
43 -70 83 -69 87 2 5 55 47 118 93 l114 85 -130 0 -130 0 -89 -74 -90 -75 -3
75 -3 74 -109 0 -110 0 0 -135 c0 -134 0 -135 -20 -115 -30 30 -85 50 -200 72
-118 22 -158 41 -139 64 19 23 115 19 136 -6 15 -17 30 -20 115 -20 93 0 98 1
98 21 0 35 -69 95 -130 113 -65 19 -233 20 -302 2z"/>
<path d="M1320 250 l0 -240 110 0 110 0 0 240 0 240 -110 0 -110 0 0 -240z"/>
<path d="M1715 468 c-3 -13 -27 -115 -55 -227 -27 -112 -50 -210 -50 -217 0
-11 23 -14 105 -14 l104 0 10 38 c6 20 15 58 22 84 l11 48 119 0 118 0 11 43
c6 23 13 48 15 55 3 9 -23 12 -109 12 -62 0 -115 2 -118 5 -3 3 -1 24 4 45
l10 40 149 0 148 0 11 43 c6 23 13 48 15 55 3 9 -52 12 -255 12 l-260 0 -5
-22z"/>
<path d="M2281 273 c-29 -120 -55 -228 -58 -241 l-5 -23 108 3 109 3 21 80 21
80 118 5 c132 6 117 -3 139 83 l6 27 -115 0 c-125 0 -121 -2 -109 58 l6 31
151 3 151 3 6 25 c4 14 10 37 14 53 l6 27 -258 0 -258 0 -53 -217z"/>
</g>
</svg>
