<?xml version="1.0" standalone="no"?>
<!DOCTYPE svg PUBLIC "-//W3C//DTD SVG 20010904//EN"
 "http://www.w3.org/TR/2001/REC-SVG-20010904/DTD/svg10.dtd">
<svg version="1.0" xmlns="http://www.w3.org/2000/svg"
 width="600.000000pt" height="173.000000pt" viewBox="0 0 600.000000 173.000000"
 preserveAspectRatio="xMidYMid meet">
<metadata>
Created by potrace 1.11, written by Peter Selinger 2001-2013
</metadata>
<g transform="translate(0.000000,173.000000) scale(0.100000,-0.100000)"
fill="#000000" stroke="none">
<path d="M1405 1432 c-2 -2 12 -17 31 -34 38 -34 41 -43 18 -52 -11 -4 -33 9
-65 39 l-48 45 -283 -1 -283 -1 118 -29 c65 -16 125 -32 133 -37 12 -6 2 -19
-43 -59 -130 -115 -153 -139 -153 -165 0 -47 15 -50 240 -52 115 0 210 1 210
4 0 3 -25 20 -56 39 -53 32 -55 34 -38 52 9 10 20 19 23 19 3 0 31 -24 62 -53
60 -57 86 -67 182 -67 42 0 53 5 92 41 44 41 45 41 45 16 0 -17 8 -31 23 -39
25 -14 367 -25 367 -12 0 4 -10 18 -22 31 l-21 23 95 0 c94 0 97 -1 126 -30
l30 -30 771 0 c424 0 771 2 771 4 0 3 -25 19 -55 36 -30 17 -55 35 -55 39 0 9
34 41 43 41 4 0 30 -24 59 -54 48 -49 58 -55 108 -60 68 -8 610 -3 610 5 0 3
-9 14 -20 24 -11 10 -20 22 -20 27 0 4 41 8 92 8 91 0 92 0 118 -32 l27 -32
266 -1 c146 0 263 3 259 6 -4 3 -63 23 -132 43 -68 21 -126 38 -127 40 -2 1 4
40 12 87 31 175 41 167 -243 171 -122 2 -222 2 -222 0 0 -1 14 -15 31 -30 l30
-27 -213 -90 c-117 -49 -223 -99 -235 -111 l-22 -22 -26 28 c-29 30 -27 34 25
45 49 10 126 51 134 70 22 57 -20 106 -106 125 -55 12 -1448 21 -1448 9 0 -3
20 -20 45 -38 l44 -32 -80 -77 c-45 -42 -88 -81 -96 -86 -8 -4 -20 -21 -27
-36 l-11 -28 -28 22 -27 22 15 84 c31 177 41 170 -245 170 l-224 0 33 -28 33
-27 -174 -74 c-272 -116 -254 -113 -170 -30 91 90 98 103 77 135 -15 24 -18
24 -163 25 -81 0 -162 1 -180 2 -19 1 -35 0 -37 -1z m2050 -47 c26 -23 36 -37
29 -42 -7 -5 -56 -48 -109 -98 -54 -49 -101 -91 -105 -93 -4 -1 -23 15 -43 37
l-36 40 -143 3 -143 3 35 25 c33 23 45 25 187 30 l153 5 62 63 c35 34 65 62
68 62 3 0 23 -16 45 -35z m415 -61 c12 -4 12 -8 -4 -20 -22 -16 -126 -20 -126
-5 0 30 76 45 130 25z m-1700 -69 c0 -10 -10 -15 -27 -15 l-28 1 25 14 c31 18
30 18 30 0z m2460 0 c0 -10 -10 -15 -27 -15 l-28 1 25 14 c31 18 30 18 30 0z"/>
<path d="M3108 1001 c-66 -7 -198 -62 -198 -82 0 -14 161 -10 205 6 41 15 306
21 353 9 34 -10 27 -26 -35 -86 -170 -160 -456 -331 -785 -468 -71 -29 -128
-57 -128 -61 0 -19 304 68 480 138 240 94 498 249 644 385 71 66 79 77 72 101
-13 52 -45 59 -305 62 -130 2 -266 0 -303 -4z"/>
<path d="M2547 976 c-63 -16 -95 -30 -115 -49 l-27 -27 63 0 c34 0 62 -4 62
-9 0 -5 -67 -74 -150 -154 -82 -79 -150 -147 -150 -151 0 -3 47 -6 103 -6
l104 0 201 205 c111 112 202 207 202 210 0 15 -212 2 -293 -19z"/>
</g>
</svg>
