<?xml version="1.0" encoding="UTF-8" standalone="no"?>
<!-- Created with Inkscape (http://www.inkscape.org/) -->

<svg
   xmlns:dc="http://purl.org/dc/elements/1.1/"
   xmlns:cc="http://creativecommons.org/ns#"
   xmlns:rdf="http://www.w3.org/1999/02/22-rdf-syntax-ns#"
   xmlns:svg="http://www.w3.org/2000/svg"
   xmlns="http://www.w3.org/2000/svg"
   xmlns:sodipodi="http://sodipodi.sourceforge.net/DTD/sodipodi-0.dtd"
   xmlns:inkscape="http://www.inkscape.org/namespaces/inkscape"
   width="301.625"
   height="394.84369"
   id="svg2"
   version="1.1"
   inkscape:version="0.48.4 r9939"
   sodipodi:docname="Opti_Logo.svg">
  <defs
     id="defs4" />
  <sodipodi:namedview
     id="base"
     pagecolor="#ffffff"
     bordercolor="#666666"
     borderopacity="1.0"
     inkscape:pageopacity="0.0"
     inkscape:pageshadow="2"
     inkscape:zoom="1.3899416"
     inkscape:cx="149.63383"
     inkscape:cy="172.26442"
     inkscape:document-units="px"
     inkscape:current-layer="layer3"
     showgrid="false"
     showguides="true"
     inkscape:guide-bbox="true"
     inkscape:showpageshadow="false"
     showborder="false"
     fit-margin-top="0"
     fit-margin-left="0"
     fit-margin-right="0"
     fit-margin-bottom="0"
     inkscape:window-width="1269"
     inkscape:window-height="986"
     inkscape:window-x="168"
     inkscape:window-y="0"
     inkscape:window-maximized="0" />
  <metadata
     id="metadata7">
    <rdf:RDF>
      <cc:Work
         rdf:about="">
        <dc:format>image/svg+xml</dc:format>
        <dc:type
           rdf:resource="http://purl.org/dc/dcmitype/StillImage" />
        <dc:title></dc:title>
      </cc:Work>
    </rdf:RDF>
  </metadata>
  <g
     inkscape:groupmode="layer"
     id="layer3"
     inkscape:label="Logo"
     transform="translate(-50.53125,-641.0625)">
    <path
       style="fill:#000000;fill-opacity:1;stroke:#ff0000;stroke-width:0;stroke-miterlimit:3.86360002;stroke-opacity:1;stroke-dasharray:none"
       d="m 201.34375,641.0625 c -83.28694,0 -150.8125,67.52556 -150.8125,150.8125 0,76.50834 56.97592,139.68672 130.8125,149.46875 l 0,81.62505 -15.875,12.9374 71.75,0 -15.875,-12.9374 0,-81.62505 c 73.83658,-9.78203 130.8125,-72.96041 130.8125,-149.46875 0,-83.28694 -67.52556,-150.8125 -150.8125,-150.8125 z m 0,37.9375 c 62.33374,0 112.875,50.54126 112.875,112.875 0,55.50543 -40.0842,101.65319 -92.875,111.09375 l 0,-128.125 15.875,-12.9375 -71.75,0 15.875,12.9375 0,128.125 c -52.7908,-9.44056 -92.875,-55.58832 -92.875,-111.09375 0,-62.33374 50.54126,-112.875 112.875,-112.875 z"
       id="path2996-1"
       inkscape:connector-curvature="0" />
  </g>
</svg>
