<?xml version="1.0" standalone="no"?>
<!DOCTYPE svg PUBLIC "-//W3C//DTD SVG 20010904//EN"
 "http://www.w3.org/TR/2001/REC-SVG-20010904/DTD/svg10.dtd">
<svg version="1.0" xmlns="http://www.w3.org/2000/svg"
 width="2326.000000pt" height="564.000000pt" viewBox="0 0 2326.000000 564.000000"
 preserveAspectRatio="xMidYMid meet">
<metadata>
Created by potrace 1.11, written by Peter Selinger 2001-2013
</metadata>
<g transform="translate(0.000000,564.000000) scale(0.100000,-0.100000)"
fill="#000000" stroke="none">
<path d="M3059 5572 c-884 -579 -2106 -2332 -2920 -4188 -48 -111 -96 -228
-105 -260 -21 -70 -24 -226 -5 -294 58 -217 211 -366 459 -449 124 -41 224
-55 350 -48 120 7 190 23 309 71 155 64 317 194 409 331 23 33 231 402 464
820 232 418 428 765 434 772 8 9 109 10 418 6 l408 -6 577 -641 c318 -352 596
-661 619 -686 23 -25 150 -166 283 -315 134 -148 261 -287 284 -308 119 -108
297 -177 457 -177 192 0 345 64 486 204 130 130 194 284 194 472 0 155 -52
308 -144 419 -22 27 -140 162 -261 300 -280 319 -574 655 -594 679 -16 18 -4
18 521 11 l536 -7 64 43 c420 283 927 941 1406 1824 131 241 169 382 159 590
-8 151 -33 252 -96 380 -145 293 -407 479 -723 514 -66 8 -711 11 -1991 11
l-1893 0 -105 -68z m4015 -368 c170 -44 314 -191 361 -370 18 -69 21 -205 5
-266 -19 -74 -39 -118 -127 -278 -254 -460 -504 -840 -770 -1167 -100 -123
-327 -354 -391 -397 l-43 -29 -872 12 c-480 6 -900 14 -934 16 -35 3 -63 2
-63 -3 0 -5 334 -389 741 -853 486 -553 749 -860 762 -889 27 -60 27 -150 0
-210 -73 -164 -290 -204 -424 -79 -20 19 -162 173 -316 344 -153 171 -483 537
-734 815 -250 278 -532 591 -627 696 l-172 192 -293 6 c-160 3 -443 7 -628 9
l-336 3 -479 -860 c-263 -473 -496 -886 -517 -918 -53 -80 -118 -134 -212
-178 -91 -43 -132 -52 -224 -51 -90 0 -159 18 -238 60 -53 29 -72 46 -90 81
-38 71 -32 102 61 314 749 1708 1846 3325 2686 3959 l75 57 1868 0 c1672 0
1876 -2 1931 -16z"/>
<path d="M3312 4640 c-309 -91 -619 -458 -768 -910 -21 -61 -114 -443 -114
-464 0 -4 748 -5 1663 -4 l1662 3 55 21 c233 89 359 232 435 489 33 111 44
319 26 460 -11 81 -52 276 -81 383 l-11 42 -1402 -1 c-1336 0 -1405 -1 -1465
-19z m2542 -432 c13 -83 14 -143 6 -220 -16 -153 -64 -249 -147 -290 l-48 -23
-1347 -3 c-1187 -2 -1348 -1 -1348 13 0 22 89 191 145 275 64 95 174 207 245
248 l55 32 1217 0 1217 0 5 -32z"/>
<path d="M9685 5633 c-360 -23 -699 -163 -975 -402 -183 -159 -407 -395 -551
-581 -508 -654 -654 -1267 -419 -1745 114 -230 341 -437 554 -503 45 -15 237
-17 1743 -22 l1691 -5 27 -25 c31 -28 55 -78 55 -113 0 -14 -17 -57 -37 -98
-66 -133 -216 -258 -373 -312 l-65 -22 -1890 -5 c-2097 -6 -1955 -2 -2170 -72
-316 -103 -592 -334 -734 -615 -54 -107 -75 -203 -68 -313 7 -106 21 -158 65
-246 65 -128 168 -226 307 -290 149 -69 -5 -65 2335 -61 l2115 3 100 22 c236
52 410 127 626 270 286 189 506 367 719 581 230 230 381 433 501 668 183 363
214 739 87 1056 -135 335 -476 645 -813 739 l-80 23 -1590 5 c-1541 5 -1591 6
-1618 24 -39 26 -57 66 -57 124 0 41 7 59 46 118 120 181 294 300 524 361 59
15 178 17 1245 23 1159 6 1181 6 1255 27 293 82 520 265 657 528 53 102 73
182 73 287 0 157 -52 287 -160 398 -73 75 -128 110 -233 149 l-72 26 -1385 1
c-762 0 -1407 -1 -1435 -3z m2801 -439 c43 -31 65 -67 71 -113 5 -35 -1 -54
-32 -118 -54 -109 -153 -206 -266 -262 -149 -73 -105 -71 -1342 -71 -1207 0
-1191 1 -1380 -60 -294 -94 -558 -305 -707 -566 -187 -327 -30 -719 334 -832
45 -15 224 -17 1646 -22 l1595 -5 58 -22 c158 -60 372 -255 452 -414 55 -108
70 -175 70 -319 -1 -156 -20 -240 -90 -400 -162 -371 -563 -788 -1095 -1140
-151 -99 -207 -128 -327 -168 -214 -72 -36 -67 -2333 -67 l-2065 0 -60 30
c-80 40 -117 89 -123 159 -5 66 7 107 59 186 110 171 295 301 514 362 l80 23
1905 5 c1785 5 1910 7 1979 24 256 61 472 200 621 398 73 96 135 215 157 301
20 78 13 239 -13 312 -60 169 -188 294 -369 361 -48 18 -127 19 -1745 24
l-1695 5 -61 42 c-125 85 -222 224 -259 368 -20 77 -20 262 0 356 56 266 214
564 463 874 113 141 417 448 516 522 175 130 370 212 571 242 33 5 686 8 1452
7 1389 -1 1392 -1 1419 -22z"/>
<path d="M22395 5444 c-38 -8 -101 -30 -140 -48 -38 -18 -695 -392 -1460 -831
-764 -439 -1397 -799 -1405 -801 -10 -2 -206 235 -549 662 -393 491 -549 678
-595 714 -134 108 -311 170 -484 170 -219 0 -394 -71 -543 -220 -245 -245
-275 -612 -73 -893 20 -27 237 -300 483 -606 246 -306 450 -561 454 -567 5 -8
-530 -320 -1526 -890 l-1532 -879 -85 -85 c-98 -97 -149 -183 -180 -306 -38
-150 -19 -328 49 -460 41 -81 60 -107 122 -172 191 -197 494 -264 749 -165 36
14 787 440 1669 946 1134 651 1607 918 1617 911 7 -5 239 -290 515 -634 275
-344 527 -651 558 -683 104 -108 232 -178 387 -213 111 -24 290 -16 399 20
244 79 425 267 486 504 23 91 25 218 4 317 -32 153 -65 201 -584 845 -264 327
-477 598 -473 601 4 4 601 348 1327 764 726 417 1338 770 1360 785 109 75 213
214 255 339 70 209 25 451 -117 638 -70 92 -228 192 -358 227 -89 24 -245 29
-330 10z m279 -434 c160 -81 193 -286 65 -410 -21 -20 -688 -409 -1578 -919
l-1540 -884 28 -36 c16 -20 297 -369 625 -776 328 -407 606 -760 618 -785 33
-67 31 -159 -6 -233 -53 -110 -159 -170 -301 -171 -70 -1 -88 3 -145 31 -36
17 -77 43 -92 56 -15 14 -309 376 -653 804 -345 428 -630 779 -634 781 -5 1
-782 -441 -1727 -984 -946 -543 -1746 -1000 -1779 -1016 -139 -65 -299 -16
-371 114 -54 101 -32 222 56 300 29 27 698 416 1751 1021 937 537 1710 981
1717 986 9 6 -159 222 -613 786 -345 429 -634 793 -642 809 -9 17 -18 58 -21
92 -21 262 300 415 533 254 31 -21 231 -262 661 -798 339 -422 626 -777 638
-790 l22 -23 1545 887 c849 488 1567 898 1594 911 68 32 177 29 249 -7z"/>
<path d="M14968 4680 c-188 -23 -376 -123 -500 -265 -141 -161 -206 -349 -195
-562 6 -132 24 -201 82 -318 80 -164 196 -280 360 -360 113 -56 184 -75 311
-82 152 -9 276 17 403 84 89 48 110 61 161 107 122 110 197 230 246 391 35
118 37 287 5 410 -102 389 -477 645 -873 595z m265 -449 c80 -38 157 -120 189
-201 17 -42 22 -76 23 -145 0 -82 -3 -97 -32 -155 -81 -165 -248 -250 -421
-214 -342 72 -417 524 -115 701 108 63 242 68 356 14z"/>
<path d="M14265 2910 c-168 -26 -325 -103 -442 -218 -162 -159 -244 -352 -244
-577 0 -365 241 -675 601 -772 103 -28 313 -25 410 5 149 47 271 122 370 229
143 153 210 327 210 547 0 302 -167 569 -442 707 -141 71 -317 101 -463 79z
m271 -446 c159 -75 251 -265 210 -431 -55 -222 -272 -342 -498 -273 -63 19
-80 30 -138 88 -87 87 -113 150 -114 272 -1 75 3 93 30 150 38 81 69 117 136
163 107 73 258 86 374 31z"/>
</g>
</svg>
