<?xml version="1.0" encoding="utf-8"?>
<!-- Generator: Adobe Illustrator 10, SVG Export Plug-In . SVG Version: 3.0.0 Build 76)  -->
<!DOCTYPE svg PUBLIC "-//W3C//DTD SVG 1.0//EN"    "http://www.w3.org/TR/2001/REC-SVG-20010904/DTD/svg10.dtd" [
	<!ENTITY ns_flows "http://ns.adobe.com/Flows/1.0/">
	<!ENTITY ns_extend "http://ns.adobe.com/Extensibility/1.0/">
	<!ENTITY ns_ai "http://ns.adobe.com/AdobeIllustrator/10.0/">
	<!ENTITY ns_graphs "http://ns.adobe.com/Graphs/1.0/">
	<!ENTITY ns_vars "http://ns.adobe.com/Variables/1.0/">
	<!ENTITY ns_imrep "http://ns.adobe.com/ImageReplacement/1.0/">
	<!ENTITY ns_sfw "http://ns.adobe.com/SaveForWeb/1.0/">
	<!ENTITY ns_custom "http://ns.adobe.com/GenericCustomNamespace/1.0/">
	<!ENTITY ns_adobe_xpath "http://ns.adobe.com/XPath/1.0/">
	<!ENTITY ns_svg "http://www.w3.org/2000/svg">
	<!ENTITY ns_xlink "http://www.w3.org/1999/xlink">
]>
<svg 
	 xmlns:x="&ns_extend;" xmlns:i="&ns_ai;" xmlns:graph="&ns_graphs;" i:viewOrigin="25 575" i:rulerOrigin="0 0" i:pageBounds="0 842 595 0"
	 xmlns="&ns_svg;" xmlns:xlink="&ns_xlink;" xmlns:a="http://ns.adobe.com/AdobeSVGViewerExtensions/3.0/"
	 width="544.317" height="309.877" viewBox="0 0 544.317 309.877" overflow="visible" enable-background="new 0 0 544.317 309.877"
	 xml:space="preserve">
	<metadata>
		<variableSets  xmlns="&ns_vars;">
			<variableSet  varSetName="binding1" locked="none">
				<variables></variables>
				<v:sampleDataSets  xmlns="&ns_custom;" xmlns:v="&ns_vars;"></v:sampleDataSets>
			</variableSet>
		</variableSets>
		<sfw  xmlns="&ns_sfw;">
			<slices></slices>
			<sliceSourceBounds  x="25" y="265.123" width="544.317" height="309.877" bottomLeftOrigin="true"></sliceSourceBounds>
		</sfw>
	</metadata>
	<g id="Layer_1" i:layer="yes" i:dimmedPercent="50" i:rgbTrio="#4F008000FFFF">
		<g>
			<path i:knockout="Off" stroke="#000000" stroke-miterlimit="3.8637" d="M216.686,0.5C126.118,0.507,94.247,37.651,72.009,120.661
				c0,0,0,11.608,0,19.03c-0.002,26.13,31.868,43.785,66.261,43.785l226.541,0.001c11.006,2.293,13.392,6.244,13.52,13.527
				c0.229,13.068-8.483,36.456-35.997,36.456l-206.814-0.229c-10.547,0-26.654,0.307-28.205-11.465c-0.233-1.77-0.208-2.804,0-4.575
				c0.579-4.93,2.022-7.938,5.506-11.474H19.271c-12.036,15.666-16.646,27.536-18.34,47.22c-0.399,4.638-0.612,7.294-0.234,11.933
				c3.232,39.62,60.074,44.942,91.716,44.483l260.008-0.229c96.987,0.229,129.088-82.772,131.831-129.553
				c3.455-58.884-46.767-66.715-64.191-66.715H178.853c-4.94,0-10.776-3.669-10.783-6.65c-0.029-12.61,9.969-31.639,25.919-31.639
				l218.033,0.006c8.831,0,18.814-0.237,18.814,12.604c0,7.566-0.844,6.999-3.669,10.088c35.769,0,74.517,0.256,100.656,0.232
				c3.209-0.003,13.298-25.454,15.599-39.906c4.119-36.448-24.082-57.085-78.885-57.085C376.957,0.506,313.164,0.493,216.686,0.5z"
				/>
		</g>
	</g>
</svg>
