<?xml version="1.0" standalone="no"?>
<!DOCTYPE svg PUBLIC "-//W3C//DTD SVG 20010904//EN"
 "http://www.w3.org/TR/2001/REC-SVG-20010904/DTD/svg10.dtd">
<svg version="1.0" xmlns="http://www.w3.org/2000/svg"
 width="599.000000pt" height="241.000000pt" viewBox="0 0 599.000000 241.000000"
 preserveAspectRatio="xMidYMid meet">
<metadata>
Created by potrace 1.11, written by Peter Selinger 2001-2013
</metadata>
<g transform="translate(0.000000,241.000000) scale(0.100000,-0.100000)"
fill="#000000" stroke="none">
<path d="M419 2234 c-119 -36 -200 -130 -207 -239 -8 -126 32 -187 214 -323
107 -80 134 -113 134 -162 0 -21 -4 -42 -10 -45 -5 -3 -15 -16 -21 -27 -11
-20 -10 -21 32 -14 83 13 118 27 154 60 30 29 35 40 35 80 0 83 -39 135 -187
248 -82 63 -118 111 -118 159 0 84 94 121 180 71 20 -12 38 -22 40 -22 3 0 2
14 -1 30 -8 36 2 37 40 4 23 -21 26 -28 15 -35 -8 -5 -20 -9 -27 -9 -11 0 62
-67 134 -123 24 -18 24 -18 24 2 0 12 -17 40 -39 64 -52 57 -61 78 -54 120 19
116 -178 211 -338 161z"/>
<path d="M4621 2112 c-19 -37 -58 -110 -87 -162 -28 -52 -90 -168 -138 -258
-47 -89 -101 -191 -120 -225 -33 -61 -82 -152 -159 -297 -22 -41 -48 -91 -58
-110 -16 -29 -19 -58 -19 -187 l0 -153 253 -2 252 -3 3 -233 2 -232 145 0 145
0 0 235 0 235 45 0 45 0 0 150 0 150 -45 0 -45 0 0 580 0 580 -92 0 -93 0 -34
-68z m-71 -832 l0 -260 -140 0 c-77 0 -140 3 -140 7 0 3 49 97 109 207 60 111
120 225 135 254 14 28 29 52 31 52 3 0 5 -117 5 -260z"/>
<path d="M904 2153 c8 -28 236 -944 236 -949 0 -3 53 -3 118 -2 l117 3 16 65
c105 413 139 543 143 548 8 8 18 -49 94 -563 l7 -50 103 -3 102 -3 15 33 c9
18 85 220 170 448 138 370 158 418 189 448 l36 32 -139 0 -138 0 -16 -42 c-9
-24 -55 -154 -104 -290 -48 -136 -91 -248 -94 -248 -4 0 -9 19 -12 43 -4 23
-20 134 -37 247 -33 220 -32 244 14 275 18 13 3 15 -146 15 l-166 0 -6 -27
c-35 -152 -141 -553 -146 -553 -5 0 -121 473 -120 493 0 22 34 77 47 77 8 0
12 4 9 8 -2 4 -71 9 -151 11 -138 2 -147 1 -141 -16z"/>
<path d="M2295 2136 c47 -47 42 -64 -147 -591 -27 -77 -65 -182 -84 -234 -19
-52 -34 -98 -34 -103 0 -4 74 -8 165 -8 l164 0 -24 24 c-31 31 -39 66 -28 113
l9 38 199 0 199 0 29 -87 c23 -65 35 -88 51 -92 12 -3 131 -6 265 -6 l245 0
-30 31 -29 30 -1 265 c0 146 3 267 8 270 4 3 8 1 8 -3 0 -5 69 -126 153 -270
83 -144 160 -275 169 -292 l17 -31 126 0 125 0 1 393 c1 215 1 395 0 399 -3
24 22 114 40 139 l20 29 -140 0 -141 0 0 -277 c0 -163 -4 -273 -9 -267 -10 10
-215 359 -275 467 -21 37 -46 72 -56 77 -27 15 -243 13 -258 -2 -9 -9 -12
-127 -12 -471 0 -334 -3 -456 -11 -451 -16 9 -40 68 -98 230 -27 76 -88 249
-135 384 -48 135 -93 261 -99 280 l-12 35 -197 3 -198 2 25 -24z m290 -377
c30 -90 55 -169 55 -176 0 -10 -29 -13 -125 -13 -99 0 -125 3 -125 14 0 11 91
290 116 356 8 23 17 3 79 -181z"/>
<path d="M5060 1610 l0 -540 43 7 c67 12 179 9 217 -6 58 -24 99 -60 128 -114
23 -45 27 -63 27 -142 0 -76 -4 -98 -26 -146 -32 -67 -77 -104 -145 -120 -77
-18 -153 8 -291 99 l-23 14 0 -171 0 -171 38 -24 c73 -48 166 -71 287 -71 107
0 112 1 187 38 181 88 278 282 278 556 0 193 -43 341 -128 446 -82 102 -164
145 -277 146 l-55 1 0 179 0 179 210 0 210 0 0 190 0 190 -340 0 -340 0 0
-540z"/>
<path d="M500 1957 c0 -22 79 -102 145 -146 121 -82 175 -160 175 -257 0 -64
-17 -100 -63 -132 -87 -59 -291 -69 -399 -20 -70 32 -136 91 -159 143 -19 42
-23 38 -33 -29 -8 -58 11 -136 45 -186 43 -63 110 -109 204 -142 67 -23 96
-28 181 -28 147 0 228 31 310 119 79 85 97 233 39 338 -38 71 -64 93 -185 159
-147 80 -207 121 -236 163 -16 24 -24 30 -24 18z"/>
<path d="M408 1027 c-172 -73 -261 -246 -229 -446 22 -136 96 -237 211 -291
69 -31 75 -32 178 -28 94 4 117 8 187 38 44 19 87 33 96 32 11 -2 0 29 -40
112 -31 64 -60 116 -64 116 -5 0 -6 -9 -2 -19 8 -25 -32 -53 -104 -75 -101
-30 -180 -16 -237 40 -45 45 -55 74 -56 151 0 89 34 146 109 180 47 22 65 25
123 21 89 -7 158 -39 162 -76 2 -21 14 0 51 88 26 63 47 118 47 122 0 4 -8 7
-17 6 -10 0 -45 10 -78 23 -46 17 -86 23 -170 26 -98 3 -116 1 -167 -20z"/>
<path d="M2700 1030 c-110 -52 -170 -169 -141 -277 12 -44 48 -96 61 -88 4 3
10 -2 13 -10 8 -19 120 -51 227 -65 110 -14 148 -27 155 -51 9 -26 -10 -71
-36 -87 -105 -66 -367 2 -370 96 0 15 -15 -18 -34 -78 -48 -148 -50 -160 -28
-154 10 3 50 -7 88 -22 57 -22 91 -28 185 -32 130 -5 173 4 242 47 65 41 99
104 106 192 12 171 -68 238 -322 269 -49 6 -98 16 -108 21 -42 23 -40 76 4
101 15 8 56 12 113 12 111 -2 201 -31 216 -71 5 -14 11 -24 14 -22 4 5 75 188
75 195 0 2 -8 -1 -17 -7 -14 -8 -37 -4 -98 16 -113 39 -279 46 -345 15z"/>
<path d="M3461 1036 c-48 -17 -108 -71 -132 -118 -66 -129 -9 -263 125 -299
22 -6 94 -19 159 -29 134 -21 163 -37 152 -82 -22 -87 -180 -111 -320 -48 -54
24 -85 55 -86 88 -1 25 -78 -197 -79 -225 0 -7 7 -10 15 -7 8 4 50 -7 92 -22
71 -27 89 -29 213 -29 123 0 139 2 179 24 113 60 166 186 131 313 -28 100
-109 143 -316 167 -95 12 -130 26 -138 54 -18 72 97 106 242 72 83 -20 122
-41 122 -65 0 -43 18 -16 53 77 20 54 34 100 31 102 -3 3 -9 0 -13 -8 -7 -10
-30 -7 -116 18 -118 34 -248 41 -314 17z"/>
<path d="M1023 1029 c16 -9 17 -38 17 -375 0 -315 -2 -365 -15 -370 -48 -19
14 -24 285 -24 274 0 300 -1 309 -17 7 -13 10 19 10 112 0 101 -3 125 -11 108
-11 -23 -14 -23 -210 -23 l-198 0 0 294 c0 272 1 295 18 299 9 3 -37 5 -103 6
-86 0 -115 -3 -102 -10z"/>
<path d="M1928 1033 c6 -2 12 -11 12 -19 0 -16 -157 -569 -191 -672 -11 -34
-25 -62 -30 -62 -5 0 -9 -4 -9 -10 0 -6 40 -10 100 -10 60 0 100 4 100 10 0 6
-4 10 -10 10 -14 0 -13 21 7 90 l16 60 137 0 137 0 16 -60 c20 -69 21 -90 7
-90 -5 0 -10 -4 -10 -10 0 -6 43 -10 110 -10 99 0 129 7 100 25 -9 6 -34 81
-151 460 -86 282 -82 264 -68 281 10 12 -9 14 -137 13 -82 0 -143 -3 -136 -6z
m150 -193 c5 -19 26 -88 46 -152 20 -65 36 -122 36 -128 0 -6 -39 -10 -100
-10 -79 0 -100 3 -100 14 0 8 11 54 25 102 14 49 32 116 42 149 9 33 18 64 21
68 7 13 19 -5 30 -43z"/>
</g>
</svg>
