<?xml version="1.0" standalone="no"?>
<!DOCTYPE svg PUBLIC "-//W3C//DTD SVG 20010904//EN"
 "http://www.w3.org/TR/2001/REC-SVG-20010904/DTD/svg10.dtd">
<svg version="1.0" xmlns="http://www.w3.org/2000/svg"
 width="800.000000pt" height="533.000000pt" viewBox="0 0 800.000000 533.000000"
 preserveAspectRatio="xMidYMid meet">
<metadata>
Created by potrace 1.11, written by Peter Selinger 2001-2013
</metadata>
<g transform="translate(0.000000,533.000000) scale(0.100000,-0.100000)"
fill="#000000" stroke="none">
<path d="M2623 4848 c-138 -260 -248 -476 -246 -480 2 -5 380 -8 840 -8 l836
0 -209 -212 c-307 -312 -514 -552 -760 -880 -406 -542 -752 -1143 -1019 -1766
l-62 -147 -663 -5 -662 -5 -144 -275 c-79 -151 -144 -283 -144 -292 0 -17 128
-18 2554 -18 2031 0 2556 3 2564 12 17 21 292 554 292 566 0 9 -390 13 -1596
14 l-1596 3 102 135 c330 433 631 780 1030 1184 586 595 1192 1101 1858 1551
l200 135 849 0 849 0 89 186 c101 212 210 417 326 615 43 75 79 141 79 147 0
9 -627 12 -2559 12 l-2558 0 -250 -472z"/>
<path d="M296 563 c-36 -58 -286 -531 -286 -543 0 -7 807 -9 2562 -8 l2562 3
152 285 c84 157 150 288 148 292 -3 5 -1155 8 -2559 8 l-2555 0 -24 -37z"/>
</g>
</svg>
