<?xml version="1.0" standalone="no"?>
<!DOCTYPE svg PUBLIC "-//W3C//DTD SVG 20010904//EN"
 "http://www.w3.org/TR/2001/REC-SVG-20010904/DTD/svg10.dtd">
<svg version="1.0" xmlns="http://www.w3.org/2000/svg"
 width="120.000000pt" height="96.000000pt" viewBox="0 0 120.000000 96.000000"
 preserveAspectRatio="xMidYMid meet">
<metadata>
Created by potrace 1.11, written by Peter Selinger 2001-2013
</metadata>
<g transform="translate(0.000000,96.000000) scale(0.100000,-0.100000)"
fill="#000000" stroke="none">
<path d="M227 903 c-4 -7 -65 -269 -82 -350 l-7 -33 132 0 c120 0 131 -1 126
-17 -12 -43 -26 -104 -41 -178 -9 -44 -18 -87 -20 -95 -4 -12 7 -15 57 -14
l62 0 42 170 c22 93 58 241 78 329 21 88 40 168 42 178 5 16 -9 17 -190 17
-107 0 -197 -3 -199 -7z m225 -148 c-2 -16 -8 -47 -13 -67 l-10 -38 -64 0
c-36 0 -65 3 -65 8 0 14 28 110 35 122 4 7 29 10 63 8 57 -3 57 -3 54 -33z"/>
<path d="M710 733 c-23 -98 -44 -186 -46 -195 -5 -17 6 -18 125 -18 74 0 131
-4 131 -9 0 -5 -13 -65 -29 -133 -17 -68 -34 -143 -38 -168 l-9 -45 -393 -3
-393 -2 6 -38 c15 -80 -33 -72 452 -72 407 0 434 1 434 18 0 9 18 89 39 177
21 88 44 187 51 220 6 33 29 132 50 220 21 88 42 175 45 193 l7 32 -195 0
-195 0 -42 -177z m264 0 c-7 -32 -13 -61 -14 -65 0 -5 -29 -8 -65 -8 l-65 0 6
43 c13 84 16 87 88 87 l64 0 -14 -57z"/>
</g>
</svg>
